%TF.GenerationSoftware,KiCad,Pcbnew,6.0.0*%
%TF.CreationDate,2022-01-02T09:26:30-06:00*%
%TF.ProjectId,boysenboard,626f7973-656e-4626-9f61-72642e6b6963,rev?*%
%TF.SameCoordinates,Original*%
%TF.FileFunction,Copper,L2,Inr*%
%TF.FilePolarity,Positive*%
%FSLAX46Y46*%
G04 Gerber Fmt 4.6, Leading zero omitted, Abs format (unit mm)*
G04 Created by KiCad (PCBNEW 6.0.0) date 2022-01-02 09:26:30*
%MOMM*%
%LPD*%
G01*
G04 APERTURE LIST*
%TA.AperFunction,ComponentPad*%
%ADD10C,1.450000*%
%TD*%
%TA.AperFunction,ComponentPad*%
%ADD11O,1.900000X1.200000*%
%TD*%
%TA.AperFunction,ViaPad*%
%ADD12C,0.457200*%
%TD*%
G04 APERTURE END LIST*
D10*
%TO.N,GND*%
%TO.C,J1*%
X93156500Y-50760000D03*
D11*
X90456500Y-51760000D03*
D10*
X93156500Y-45760000D03*
D11*
X90456500Y-44760000D03*
%TD*%
D12*
%TO.N,GND*%
X94361000Y-49530000D03*
X135763000Y-51054000D03*
X95250000Y-52832000D03*
X106680000Y-86360000D03*
X90170000Y-69977000D03*
X105664000Y-53365406D03*
X122555000Y-52832000D03*
X107950000Y-85090000D03*
X135636000Y-45974000D03*
X113030000Y-85090000D03*
X111760000Y-51181000D03*
X113030000Y-87630000D03*
X105791000Y-56134000D03*
X139192000Y-56896000D03*
X120142000Y-74422000D03*
X90170000Y-71120000D03*
X90678000Y-37973000D03*
X139192000Y-48514000D03*
X102235000Y-53848000D03*
X111760000Y-57531000D03*
X90170000Y-72517000D03*
X149479000Y-53594000D03*
X108585000Y-57531000D03*
X135509000Y-59436000D03*
X113792000Y-74422000D03*
X121666000Y-73787000D03*
X107950000Y-87630000D03*
X111760000Y-85090000D03*
X92837000Y-72517000D03*
X113284000Y-67056000D03*
X111760000Y-54356000D03*
X119634000Y-67056000D03*
X114300000Y-64008000D03*
X152273000Y-60960000D03*
X125222000Y-73279000D03*
X132080000Y-86614000D03*
X108585000Y-64008000D03*
X122555000Y-54610000D03*
X118491000Y-58928000D03*
X135763000Y-54356000D03*
X111760000Y-86360000D03*
X105791000Y-57150000D03*
X126365000Y-74422000D03*
X107950000Y-60325000D03*
X125984000Y-67183000D03*
X94361000Y-62484000D03*
X143383000Y-47498000D03*
X148717000Y-61849000D03*
X112395000Y-42291000D03*
X102235000Y-49657000D03*
X144780000Y-59690000D03*
X118872000Y-73279000D03*
X114935000Y-57531000D03*
X114935000Y-51181000D03*
X155194000Y-69088000D03*
X117856000Y-44831000D03*
X128016000Y-73787000D03*
X122555000Y-58166000D03*
X148336000Y-69342000D03*
X108585000Y-51181000D03*
X110236000Y-42545000D03*
X148336000Y-65024000D03*
X102235000Y-52070000D03*
X112522000Y-73406000D03*
X114935000Y-54356000D03*
X114681000Y-45974000D03*
X115316000Y-41148000D03*
X107950000Y-86360000D03*
X108585000Y-54356000D03*
X108585000Y-48387000D03*
X106680000Y-87630000D03*
X129540000Y-86106000D03*
X150241000Y-73406000D03*
X133985000Y-62992000D03*
X153416000Y-73406000D03*
X99822000Y-37973000D03*
X91821000Y-62103000D03*
X132080000Y-85979000D03*
X102235000Y-55626000D03*
X106680000Y-85090000D03*
X113030000Y-86360000D03*
X97282000Y-57150000D03*
X116205000Y-64008000D03*
X99695000Y-68199000D03*
X115316000Y-73787000D03*
X98171000Y-59309000D03*
X111760000Y-87630000D03*
X91440000Y-72517000D03*
X105791000Y-57912000D03*
X116967000Y-46863000D03*
X129540000Y-86741000D03*
X107696000Y-48387000D03*
%TO.N,/USB_VBUS*%
X98425000Y-54991000D03*
X97155000Y-53594000D03*
X98425000Y-54356000D03*
X94391000Y-46960000D03*
X96520000Y-53594000D03*
X94899000Y-46960000D03*
X97790000Y-53594000D03*
X95407000Y-46960000D03*
X98425000Y-53594000D03*
%TO.N,+5V*%
X110363000Y-72390000D03*
X116586000Y-76073000D03*
X110363000Y-73660000D03*
X120142000Y-76073000D03*
X119888000Y-73279000D03*
X102489000Y-61468000D03*
X110363000Y-75946000D03*
X126238000Y-66294000D03*
X116586000Y-73660000D03*
X99822000Y-62738000D03*
X101092000Y-64008000D03*
X122936000Y-73660000D03*
X124460000Y-84582000D03*
X101092000Y-62738000D03*
X116586000Y-72390000D03*
X116586000Y-74930000D03*
X101092000Y-61468000D03*
X113538000Y-73406000D03*
X102489000Y-64008000D03*
X126238000Y-63754000D03*
X133223000Y-60960000D03*
X113792000Y-75946000D03*
X101092000Y-65278000D03*
X126238000Y-73279000D03*
X122936000Y-76073000D03*
X99822000Y-61468000D03*
X122936000Y-74930000D03*
X102489000Y-65278000D03*
X126238000Y-58547000D03*
X102489000Y-62738000D03*
X110363000Y-74930000D03*
X124460000Y-83947000D03*
X122936000Y-72390000D03*
%TO.N,+1V1*%
X131826000Y-77851000D03*
X133985000Y-77851000D03*
X135001000Y-77851000D03*
X132842000Y-77851000D03*
X110744000Y-68326000D03*
X110744000Y-67564000D03*
X105664000Y-52197000D03*
X109982000Y-68326000D03*
X110744000Y-69215000D03*
X119277070Y-52856070D03*
X110744000Y-70104000D03*
X109982000Y-67564000D03*
X115316000Y-67183000D03*
X109982000Y-69215000D03*
X109982000Y-70104000D03*
X116205000Y-60325000D03*
%TO.N,+2V5*%
X116459000Y-68326000D03*
X135001000Y-72771000D03*
X117094000Y-69977000D03*
X117094000Y-69215000D03*
X121666000Y-67183000D03*
X116459000Y-69977000D03*
X105791000Y-55372000D03*
X133985000Y-72771000D03*
X117856000Y-55372000D03*
X117221000Y-67564000D03*
X117221000Y-68326000D03*
X132842000Y-72771000D03*
X116459000Y-69215000D03*
X118745000Y-54610000D03*
X122555000Y-56388000D03*
X118491000Y-53213000D03*
X131826000Y-72771000D03*
X116459000Y-67564000D03*
%TO.N,+3V3*%
X133096000Y-48514000D03*
X103251000Y-46101000D03*
X105156000Y-46101000D03*
X148209000Y-53594000D03*
X122809000Y-67564000D03*
X133096000Y-44450000D03*
X122809000Y-70104000D03*
X123571000Y-69342000D03*
X114173000Y-47879000D03*
X151384000Y-75057000D03*
X122809000Y-69342000D03*
X104902000Y-52959000D03*
X105791000Y-49657000D03*
X133096000Y-52578000D03*
X155194000Y-66929000D03*
X127000000Y-85979000D03*
X128016000Y-67183000D03*
X143383000Y-44196000D03*
X123571000Y-68326000D03*
X114935000Y-60706000D03*
X127000000Y-86614000D03*
X123571000Y-67564000D03*
X132969000Y-56896000D03*
X101346000Y-46101000D03*
X146304000Y-59690000D03*
X135001000Y-67691000D03*
X131826000Y-67691000D03*
X108839000Y-60325000D03*
X149352000Y-75057000D03*
X133985000Y-67691000D03*
X143256000Y-49403000D03*
X132842000Y-67691000D03*
X146431000Y-72390000D03*
X119380000Y-86106000D03*
X123571000Y-70104000D03*
X119380000Y-86741000D03*
X122809000Y-68326000D03*
%TO.N,/PE0_UART0_RX*%
X121539000Y-47244000D03*
X139192000Y-49403000D03*
%TO.N,/PE1_UART0_TX*%
X138049000Y-53213000D03*
X121539000Y-47879000D03*
%TO.N,/USB_ID*%
X96266000Y-50419000D03*
X115316000Y-48387000D03*
%TO.N,/I2C0_SCL*%
X118745000Y-42545000D03*
X107696000Y-41783000D03*
X118745000Y-44577000D03*
X117729000Y-52536900D03*
%TO.N,/I2C0_SDA*%
X119380000Y-44577000D03*
X111633000Y-39878000D03*
X119380000Y-42545000D03*
X118311300Y-52584011D03*
%TO.N,/~{RESET}*%
X99822000Y-49784000D03*
X121920000Y-80264000D03*
X105664000Y-51562000D03*
X112522000Y-65786000D03*
X121920000Y-83439000D03*
%TO.N,/SDC0_CLK*%
X110950191Y-46101000D03*
X155194000Y-67945000D03*
%TO.N,/SDC0_D0*%
X110365988Y-46101000D03*
X155194000Y-70231000D03*
X143764000Y-69596000D03*
%TO.N,/SDC0_D1*%
X109781785Y-46101000D03*
X155194000Y-71247000D03*
X143764000Y-71374000D03*
%TO.N,/SDC0_CDM*%
X155194000Y-65786000D03*
X111534394Y-46101000D03*
X143764000Y-67818000D03*
%TO.N,/SDC0_D2*%
X112702800Y-46101000D03*
X155194000Y-63627000D03*
X143764000Y-64262000D03*
%TO.N,/SDC0_D3*%
X155194000Y-64643000D03*
X143764000Y-66040000D03*
X112118597Y-46101000D03*
%TO.N,/SDC0_CD*%
X124460000Y-58928000D03*
X109474000Y-60706000D03*
X143764000Y-62484000D03*
X153543000Y-62611000D03*
X121158000Y-63754000D03*
%TO.N,/PD4_UART1_TX*%
X121666000Y-63246000D03*
X111140900Y-63246000D03*
%TO.N,/PD2_UART1_CTS*%
X110109000Y-62230000D03*
X122428000Y-62230000D03*
%TO.N,/PD3_UART1_RX*%
X110617000Y-62738000D03*
X122047000Y-62738000D03*
%TO.N,/PD1_UART1_RTS*%
X122809000Y-61722000D03*
X109728000Y-61722000D03*
%TO.N,/PD6_I2C1_SDA*%
X149860000Y-83439000D03*
X138684000Y-81534000D03*
%TO.N,/PD5_I2C1_SCL*%
X137922000Y-81534000D03*
X152400000Y-86614000D03*
%TO.N,/LED_STATUS*%
X127127000Y-61341000D03*
X113792000Y-64858900D03*
%TO.N,/FLASH_SPI0_CS*%
X145669000Y-53467000D03*
X108613379Y-46101000D03*
%TO.N,/FLASH_SPI0_MISO*%
X146939000Y-53467000D03*
X108029176Y-46101000D03*
%TO.N,/FLASH_SPI0_CLK*%
X109220000Y-43180000D03*
X148209000Y-43561000D03*
%TO.N,/FLASH_SPI0_MOSI*%
X149479000Y-43561000D03*
X107442000Y-46101000D03*
%TO.N,/PE8_SPI1_MOSI*%
X121666000Y-51054000D03*
X122682000Y-44450019D03*
%TO.N,/PE9_SPI1_CLK*%
X122301000Y-51054000D03*
X121412000Y-44577000D03*
X138938000Y-45974000D03*
X122847101Y-46393101D03*
%TO.N,/PE7_SPI1_CS*%
X121666000Y-50292000D03*
X123317000Y-44450019D03*
%TO.N,/PE10_SP1_MISO*%
X122301000Y-51816000D03*
X120015000Y-46482000D03*
%TD*%
%TA.AperFunction,Conductor*%
%TO.N,GND*%
G36*
X153177931Y-36088002D02*
G01*
X153198905Y-36104905D01*
X154395095Y-37301095D01*
X154429121Y-37363407D01*
X154432000Y-37390190D01*
X154432000Y-48768000D01*
X156935095Y-51271095D01*
X156969121Y-51333407D01*
X156972000Y-51360190D01*
X156972000Y-83513810D01*
X156951998Y-83581931D01*
X156935095Y-83602905D01*
X154432000Y-86106000D01*
X154432000Y-88266000D01*
X154411998Y-88334121D01*
X154358342Y-88380614D01*
X154306000Y-88392000D01*
X89534000Y-88392000D01*
X89465879Y-88371998D01*
X89419386Y-88318342D01*
X89408000Y-88266000D01*
X89408000Y-86269980D01*
X101152310Y-86269980D01*
X101158458Y-86530835D01*
X101159292Y-86535540D01*
X101193969Y-86731207D01*
X101203991Y-86787758D01*
X101287864Y-87034838D01*
X101408145Y-87266389D01*
X101562066Y-87477081D01*
X101746086Y-87662067D01*
X101955969Y-87817090D01*
X102186887Y-87938581D01*
X102433524Y-88023746D01*
X102517007Y-88038992D01*
X102686234Y-88069899D01*
X102686240Y-88069900D01*
X102690206Y-88070624D01*
X102735480Y-88072997D01*
X102772034Y-88074913D01*
X102772050Y-88074913D01*
X102773702Y-88075000D01*
X102936349Y-88075000D01*
X102938728Y-88074819D01*
X102938729Y-88074819D01*
X103125409Y-88060619D01*
X103125414Y-88060618D01*
X103130176Y-88060256D01*
X103134829Y-88059177D01*
X103134832Y-88059177D01*
X103379700Y-88002419D01*
X103379699Y-88002419D01*
X103384364Y-88001338D01*
X103626716Y-87904650D01*
X103851654Y-87772415D01*
X103855365Y-87769394D01*
X103855369Y-87769391D01*
X104050290Y-87610700D01*
X104054002Y-87607678D01*
X104229104Y-87414229D01*
X104372929Y-87196520D01*
X104445510Y-87039081D01*
X104480163Y-86963912D01*
X104480164Y-86963909D01*
X104482169Y-86959560D01*
X104531595Y-86787758D01*
X104545047Y-86741000D01*
X119019461Y-86741000D01*
X119037107Y-86852413D01*
X119088318Y-86952920D01*
X119168080Y-87032682D01*
X119268587Y-87083893D01*
X119278376Y-87085443D01*
X119278378Y-87085444D01*
X119370207Y-87099988D01*
X119380000Y-87101539D01*
X119389793Y-87099988D01*
X119481622Y-87085444D01*
X119481624Y-87085443D01*
X119491413Y-87083893D01*
X119591920Y-87032682D01*
X119671682Y-86952920D01*
X119722893Y-86852413D01*
X119740539Y-86741000D01*
X119722893Y-86629587D01*
X119714951Y-86614000D01*
X126639461Y-86614000D01*
X126641012Y-86623793D01*
X126653726Y-86704063D01*
X126657107Y-86725413D01*
X126708318Y-86825920D01*
X126788080Y-86905682D01*
X126888587Y-86956893D01*
X126898376Y-86958443D01*
X126898378Y-86958444D01*
X126990207Y-86972988D01*
X127000000Y-86974539D01*
X127009793Y-86972988D01*
X127101622Y-86958444D01*
X127101624Y-86958443D01*
X127111413Y-86956893D01*
X127211920Y-86905682D01*
X127291682Y-86825920D01*
X127342893Y-86725413D01*
X127346275Y-86704063D01*
X127358988Y-86623793D01*
X127360539Y-86614000D01*
X152039461Y-86614000D01*
X152041012Y-86623793D01*
X152053726Y-86704063D01*
X152057107Y-86725413D01*
X152108318Y-86825920D01*
X152188080Y-86905682D01*
X152288587Y-86956893D01*
X152298376Y-86958443D01*
X152298378Y-86958444D01*
X152390207Y-86972988D01*
X152400000Y-86974539D01*
X152409793Y-86972988D01*
X152501622Y-86958444D01*
X152501624Y-86958443D01*
X152511413Y-86956893D01*
X152611920Y-86905682D01*
X152691682Y-86825920D01*
X152742893Y-86725413D01*
X152746275Y-86704063D01*
X152758988Y-86623793D01*
X152760539Y-86614000D01*
X152742893Y-86502587D01*
X152691682Y-86402080D01*
X152611920Y-86322318D01*
X152511413Y-86271107D01*
X152501624Y-86269557D01*
X152501622Y-86269556D01*
X152409793Y-86255012D01*
X152400000Y-86253461D01*
X152390207Y-86255012D01*
X152298378Y-86269556D01*
X152298376Y-86269557D01*
X152288587Y-86271107D01*
X152188080Y-86322318D01*
X152108318Y-86402080D01*
X152057107Y-86502587D01*
X152039461Y-86614000D01*
X127360539Y-86614000D01*
X127342893Y-86502587D01*
X127291682Y-86402080D01*
X127275197Y-86385595D01*
X127241171Y-86323283D01*
X127246236Y-86252468D01*
X127275197Y-86207405D01*
X127291682Y-86190920D01*
X127342893Y-86090413D01*
X127360539Y-85979000D01*
X127342893Y-85867587D01*
X127291682Y-85767080D01*
X127211920Y-85687318D01*
X127111413Y-85636107D01*
X127101624Y-85634557D01*
X127101622Y-85634556D01*
X127009793Y-85620012D01*
X127000000Y-85618461D01*
X126990207Y-85620012D01*
X126898378Y-85634556D01*
X126898376Y-85634557D01*
X126888587Y-85636107D01*
X126788080Y-85687318D01*
X126708318Y-85767080D01*
X126657107Y-85867587D01*
X126639461Y-85979000D01*
X126657107Y-86090413D01*
X126708318Y-86190920D01*
X126724803Y-86207405D01*
X126758829Y-86269717D01*
X126753764Y-86340532D01*
X126724803Y-86385595D01*
X126708318Y-86402080D01*
X126657107Y-86502587D01*
X126639461Y-86614000D01*
X119714951Y-86614000D01*
X119671682Y-86529080D01*
X119655197Y-86512595D01*
X119621171Y-86450283D01*
X119626236Y-86379468D01*
X119655197Y-86334405D01*
X119671682Y-86317920D01*
X119722893Y-86217413D01*
X119740539Y-86106000D01*
X119736520Y-86080622D01*
X119724444Y-86004378D01*
X119724443Y-86004376D01*
X119722893Y-85994587D01*
X119671682Y-85894080D01*
X119591920Y-85814318D01*
X119491413Y-85763107D01*
X119481624Y-85761557D01*
X119481622Y-85761556D01*
X119389793Y-85747012D01*
X119380000Y-85745461D01*
X119370207Y-85747012D01*
X119278378Y-85761556D01*
X119278376Y-85761557D01*
X119268587Y-85763107D01*
X119168080Y-85814318D01*
X119088318Y-85894080D01*
X119037107Y-85994587D01*
X119035557Y-86004376D01*
X119035556Y-86004378D01*
X119023480Y-86080622D01*
X119019461Y-86106000D01*
X119037107Y-86217413D01*
X119088318Y-86317920D01*
X119104803Y-86334405D01*
X119138829Y-86396717D01*
X119133764Y-86467532D01*
X119104803Y-86512595D01*
X119088318Y-86529080D01*
X119037107Y-86629587D01*
X119019461Y-86741000D01*
X104545047Y-86741000D01*
X104552988Y-86713397D01*
X104552989Y-86713393D01*
X104554309Y-86708804D01*
X104563265Y-86639378D01*
X104587079Y-86454757D01*
X104587690Y-86450020D01*
X104583068Y-86253900D01*
X104581655Y-86193945D01*
X104581655Y-86193941D01*
X104581542Y-86189165D01*
X104549188Y-86006603D01*
X104536844Y-85936951D01*
X104536843Y-85936945D01*
X104536009Y-85932242D01*
X104452136Y-85685162D01*
X104331855Y-85453611D01*
X104177934Y-85242919D01*
X103993914Y-85057933D01*
X103784031Y-84902910D01*
X103608296Y-84810452D01*
X103557350Y-84783648D01*
X103557348Y-84783647D01*
X103553113Y-84781419D01*
X103306476Y-84696254D01*
X103222993Y-84681008D01*
X103053766Y-84650101D01*
X103053760Y-84650100D01*
X103049794Y-84649376D01*
X103004520Y-84647003D01*
X102967966Y-84645087D01*
X102967950Y-84645087D01*
X102966298Y-84645000D01*
X102803651Y-84645000D01*
X102801272Y-84645181D01*
X102801271Y-84645181D01*
X102614591Y-84659381D01*
X102614586Y-84659382D01*
X102609824Y-84659744D01*
X102605171Y-84660823D01*
X102605168Y-84660823D01*
X102426459Y-84702246D01*
X102355636Y-84718662D01*
X102113284Y-84815350D01*
X101888346Y-84947585D01*
X101884635Y-84950606D01*
X101884631Y-84950609D01*
X101748633Y-85061329D01*
X101685998Y-85112322D01*
X101510896Y-85305771D01*
X101367071Y-85523480D01*
X101365070Y-85527820D01*
X101365068Y-85527824D01*
X101264736Y-85745461D01*
X101257831Y-85760440D01*
X101256507Y-85765041D01*
X101256507Y-85765042D01*
X101207051Y-85936951D01*
X101185691Y-86011196D01*
X101185080Y-86015931D01*
X101185079Y-86015937D01*
X101174725Y-86096207D01*
X101152310Y-86269980D01*
X89408000Y-86269980D01*
X89408000Y-84582000D01*
X124099461Y-84582000D01*
X124117107Y-84693413D01*
X124168318Y-84793920D01*
X124248080Y-84873682D01*
X124348587Y-84924893D01*
X124358376Y-84926443D01*
X124358378Y-84926444D01*
X124450207Y-84940988D01*
X124460000Y-84942539D01*
X124469793Y-84940988D01*
X124561622Y-84926444D01*
X124561624Y-84926443D01*
X124571413Y-84924893D01*
X124671920Y-84873682D01*
X124751682Y-84793920D01*
X124802893Y-84693413D01*
X124820539Y-84582000D01*
X124802893Y-84470587D01*
X124751682Y-84370080D01*
X124735197Y-84353595D01*
X124701171Y-84291283D01*
X124706236Y-84220468D01*
X124735197Y-84175405D01*
X124751682Y-84158920D01*
X124802893Y-84058413D01*
X124820539Y-83947000D01*
X124810717Y-83884983D01*
X124804444Y-83845378D01*
X124804443Y-83845376D01*
X124802893Y-83835587D01*
X124751682Y-83735080D01*
X124671920Y-83655318D01*
X124571413Y-83604107D01*
X124561624Y-83602557D01*
X124561622Y-83602556D01*
X124469793Y-83588012D01*
X124460000Y-83586461D01*
X124450207Y-83588012D01*
X124358378Y-83602556D01*
X124358376Y-83602557D01*
X124348587Y-83604107D01*
X124248080Y-83655318D01*
X124168318Y-83735080D01*
X124117107Y-83835587D01*
X124115557Y-83845376D01*
X124115556Y-83845378D01*
X124109283Y-83884983D01*
X124099461Y-83947000D01*
X124117107Y-84058413D01*
X124168318Y-84158920D01*
X124184803Y-84175405D01*
X124218829Y-84237717D01*
X124213764Y-84308532D01*
X124184803Y-84353595D01*
X124168318Y-84370080D01*
X124117107Y-84470587D01*
X124099461Y-84582000D01*
X89408000Y-84582000D01*
X89408000Y-83439000D01*
X121559461Y-83439000D01*
X121561012Y-83448793D01*
X121571310Y-83513810D01*
X121577107Y-83550413D01*
X121628318Y-83650920D01*
X121708080Y-83730682D01*
X121808587Y-83781893D01*
X121818376Y-83783443D01*
X121818378Y-83783444D01*
X121910207Y-83797988D01*
X121920000Y-83799539D01*
X121929793Y-83797988D01*
X122021622Y-83783444D01*
X122021624Y-83783443D01*
X122031413Y-83781893D01*
X122131920Y-83730682D01*
X122211682Y-83650920D01*
X122262893Y-83550413D01*
X122268691Y-83513810D01*
X122278988Y-83448793D01*
X122280539Y-83439000D01*
X149499461Y-83439000D01*
X149501012Y-83448793D01*
X149511310Y-83513810D01*
X149517107Y-83550413D01*
X149568318Y-83650920D01*
X149648080Y-83730682D01*
X149748587Y-83781893D01*
X149758376Y-83783443D01*
X149758378Y-83783444D01*
X149850207Y-83797988D01*
X149860000Y-83799539D01*
X149869793Y-83797988D01*
X149961622Y-83783444D01*
X149961624Y-83783443D01*
X149971413Y-83781893D01*
X150071920Y-83730682D01*
X150151682Y-83650920D01*
X150202893Y-83550413D01*
X150208691Y-83513810D01*
X150218988Y-83448793D01*
X150220539Y-83439000D01*
X150202893Y-83327587D01*
X150151682Y-83227080D01*
X150071920Y-83147318D01*
X149971413Y-83096107D01*
X149961624Y-83094557D01*
X149961622Y-83094556D01*
X149869793Y-83080012D01*
X149860000Y-83078461D01*
X149850207Y-83080012D01*
X149758378Y-83094556D01*
X149758376Y-83094557D01*
X149748587Y-83096107D01*
X149648080Y-83147318D01*
X149568318Y-83227080D01*
X149517107Y-83327587D01*
X149499461Y-83439000D01*
X122280539Y-83439000D01*
X122262893Y-83327587D01*
X122211682Y-83227080D01*
X122131920Y-83147318D01*
X122031413Y-83096107D01*
X122021624Y-83094557D01*
X122021622Y-83094556D01*
X121929793Y-83080012D01*
X121920000Y-83078461D01*
X121910207Y-83080012D01*
X121818378Y-83094556D01*
X121818376Y-83094557D01*
X121808587Y-83096107D01*
X121708080Y-83147318D01*
X121628318Y-83227080D01*
X121577107Y-83327587D01*
X121559461Y-83439000D01*
X89408000Y-83439000D01*
X89408000Y-81377484D01*
X89750500Y-81377484D01*
X89791036Y-81568192D01*
X89793720Y-81574221D01*
X89793721Y-81574223D01*
X89866234Y-81737088D01*
X89870337Y-81746304D01*
X89874217Y-81751645D01*
X89874218Y-81751646D01*
X89970314Y-81883912D01*
X89984936Y-81904037D01*
X90129826Y-82034497D01*
X90135547Y-82037800D01*
X90278811Y-82120513D01*
X90298674Y-82131981D01*
X90304960Y-82134023D01*
X90304959Y-82134023D01*
X90453071Y-82182147D01*
X90484100Y-82192229D01*
X90490663Y-82192919D01*
X90490664Y-82192919D01*
X90514376Y-82195411D01*
X90629392Y-82207500D01*
X90726608Y-82207500D01*
X90841624Y-82195411D01*
X90865336Y-82192919D01*
X90865337Y-82192919D01*
X90871900Y-82192229D01*
X90902930Y-82182147D01*
X91051041Y-82134023D01*
X91051040Y-82134023D01*
X91057326Y-82131981D01*
X91077190Y-82120513D01*
X91220453Y-82037800D01*
X91226174Y-82034497D01*
X91371064Y-81904037D01*
X91485663Y-81746305D01*
X91526651Y-81654246D01*
X91562279Y-81574223D01*
X91562279Y-81574222D01*
X91564964Y-81568192D01*
X91605500Y-81377484D01*
X94250500Y-81377484D01*
X94291036Y-81568192D01*
X94293720Y-81574221D01*
X94293721Y-81574223D01*
X94366234Y-81737088D01*
X94370337Y-81746304D01*
X94374217Y-81751645D01*
X94374218Y-81751646D01*
X94470314Y-81883912D01*
X94484936Y-81904037D01*
X94629826Y-82034497D01*
X94635547Y-82037800D01*
X94778811Y-82120513D01*
X94798674Y-82131981D01*
X94804960Y-82134023D01*
X94804959Y-82134023D01*
X94953071Y-82182147D01*
X94984100Y-82192229D01*
X94990663Y-82192919D01*
X94990664Y-82192919D01*
X95014376Y-82195411D01*
X95129392Y-82207500D01*
X95226608Y-82207500D01*
X95341624Y-82195411D01*
X95365336Y-82192919D01*
X95365337Y-82192919D01*
X95371900Y-82192229D01*
X95402930Y-82182147D01*
X95551041Y-82134023D01*
X95551040Y-82134023D01*
X95557326Y-82131981D01*
X95577190Y-82120513D01*
X95720453Y-82037800D01*
X95726174Y-82034497D01*
X95871064Y-81904037D01*
X95985663Y-81746305D01*
X96026651Y-81654246D01*
X96062279Y-81574223D01*
X96062279Y-81574222D01*
X96064964Y-81568192D01*
X96072232Y-81534000D01*
X137561461Y-81534000D01*
X137563012Y-81543793D01*
X137575726Y-81624063D01*
X137579107Y-81645413D01*
X137630318Y-81745920D01*
X137710080Y-81825682D01*
X137810587Y-81876893D01*
X137820376Y-81878443D01*
X137820378Y-81878444D01*
X137912207Y-81892988D01*
X137922000Y-81894539D01*
X137931793Y-81892988D01*
X138023622Y-81878444D01*
X138023624Y-81878443D01*
X138033413Y-81876893D01*
X138133920Y-81825682D01*
X138213682Y-81745920D01*
X138216505Y-81748743D01*
X138257274Y-81717298D01*
X138328010Y-81711215D01*
X138390805Y-81744340D01*
X138392241Y-81745997D01*
X138392318Y-81745920D01*
X138472080Y-81825682D01*
X138572587Y-81876893D01*
X138582376Y-81878443D01*
X138582378Y-81878444D01*
X138674207Y-81892988D01*
X138684000Y-81894539D01*
X138693793Y-81892988D01*
X138785622Y-81878444D01*
X138785624Y-81878443D01*
X138795413Y-81876893D01*
X138895920Y-81825682D01*
X138975682Y-81745920D01*
X139026893Y-81645413D01*
X139030275Y-81624063D01*
X139042988Y-81543793D01*
X139044539Y-81534000D01*
X139026893Y-81422587D01*
X138975682Y-81322080D01*
X138895920Y-81242318D01*
X138795413Y-81191107D01*
X138788295Y-81189980D01*
X153222310Y-81189980D01*
X153223544Y-81242318D01*
X153226574Y-81370881D01*
X153228458Y-81450835D01*
X153229292Y-81455540D01*
X153261207Y-81635622D01*
X153273991Y-81707758D01*
X153357864Y-81954838D01*
X153478145Y-82186389D01*
X153632066Y-82397081D01*
X153816086Y-82582067D01*
X154025969Y-82737090D01*
X154256887Y-82858581D01*
X154503524Y-82943746D01*
X154587007Y-82958992D01*
X154756234Y-82989899D01*
X154756240Y-82989900D01*
X154760206Y-82990624D01*
X154805480Y-82992997D01*
X154842034Y-82994913D01*
X154842050Y-82994913D01*
X154843702Y-82995000D01*
X155006349Y-82995000D01*
X155008728Y-82994819D01*
X155008729Y-82994819D01*
X155195409Y-82980619D01*
X155195414Y-82980618D01*
X155200176Y-82980256D01*
X155204829Y-82979177D01*
X155204832Y-82979177D01*
X155449700Y-82922419D01*
X155449699Y-82922419D01*
X155454364Y-82921338D01*
X155696716Y-82824650D01*
X155921654Y-82692415D01*
X155925365Y-82689394D01*
X155925369Y-82689391D01*
X156120290Y-82530700D01*
X156124002Y-82527678D01*
X156299104Y-82334229D01*
X156442929Y-82116520D01*
X156479220Y-82037800D01*
X156550163Y-81883912D01*
X156550164Y-81883909D01*
X156552169Y-81879560D01*
X156588599Y-81752931D01*
X156622988Y-81633397D01*
X156622989Y-81633393D01*
X156624309Y-81628804D01*
X156631350Y-81574223D01*
X156657079Y-81374757D01*
X156657690Y-81370020D01*
X156653437Y-81189556D01*
X156651655Y-81113945D01*
X156651655Y-81113941D01*
X156651542Y-81109165D01*
X156631888Y-80998265D01*
X156606844Y-80856951D01*
X156606843Y-80856945D01*
X156606009Y-80852242D01*
X156522136Y-80605162D01*
X156401855Y-80373611D01*
X156247934Y-80162919D01*
X156063914Y-79977933D01*
X155854031Y-79822910D01*
X155623113Y-79701419D01*
X155376476Y-79616254D01*
X155292993Y-79601008D01*
X155123766Y-79570101D01*
X155123760Y-79570100D01*
X155119794Y-79569376D01*
X155074520Y-79567003D01*
X155037966Y-79565087D01*
X155037950Y-79565087D01*
X155036298Y-79565000D01*
X154873651Y-79565000D01*
X154871272Y-79565181D01*
X154871271Y-79565181D01*
X154684591Y-79579381D01*
X154684586Y-79579382D01*
X154679824Y-79579744D01*
X154675171Y-79580823D01*
X154675168Y-79580823D01*
X154487665Y-79624284D01*
X154425636Y-79638662D01*
X154183284Y-79735350D01*
X153958346Y-79867585D01*
X153954635Y-79870606D01*
X153954631Y-79870609D01*
X153821090Y-79979329D01*
X153755998Y-80032322D01*
X153580896Y-80225771D01*
X153437071Y-80443480D01*
X153435070Y-80447820D01*
X153435068Y-80447824D01*
X153329837Y-80676088D01*
X153327831Y-80680440D01*
X153326507Y-80685041D01*
X153326507Y-80685042D01*
X153277051Y-80856951D01*
X153255691Y-80931196D01*
X153255080Y-80935931D01*
X153255079Y-80935937D01*
X153233341Y-81104460D01*
X153222310Y-81189980D01*
X138788295Y-81189980D01*
X138785624Y-81189557D01*
X138785622Y-81189556D01*
X138693793Y-81175012D01*
X138684000Y-81173461D01*
X138674207Y-81175012D01*
X138582378Y-81189556D01*
X138582376Y-81189557D01*
X138572587Y-81191107D01*
X138472080Y-81242318D01*
X138392318Y-81322080D01*
X138389495Y-81319257D01*
X138348726Y-81350702D01*
X138277990Y-81356785D01*
X138215195Y-81323660D01*
X138213759Y-81322003D01*
X138213682Y-81322080D01*
X138133920Y-81242318D01*
X138033413Y-81191107D01*
X138023624Y-81189557D01*
X138023622Y-81189556D01*
X137931793Y-81175012D01*
X137922000Y-81173461D01*
X137912207Y-81175012D01*
X137820378Y-81189556D01*
X137820376Y-81189557D01*
X137810587Y-81191107D01*
X137710080Y-81242318D01*
X137630318Y-81322080D01*
X137579107Y-81422587D01*
X137561461Y-81534000D01*
X96072232Y-81534000D01*
X96105500Y-81377484D01*
X96105500Y-81182516D01*
X96103576Y-81173461D01*
X96066336Y-80998265D01*
X96064964Y-80991808D01*
X96062279Y-80985777D01*
X95988348Y-80819726D01*
X95988347Y-80819724D01*
X95985663Y-80813696D01*
X95888848Y-80680440D01*
X95874943Y-80661302D01*
X95871064Y-80655963D01*
X95836165Y-80624539D01*
X95731082Y-80529922D01*
X95731081Y-80529921D01*
X95726174Y-80525503D01*
X95624996Y-80467088D01*
X95563049Y-80431323D01*
X95563048Y-80431322D01*
X95557326Y-80428019D01*
X95481852Y-80403496D01*
X95378179Y-80369811D01*
X95378178Y-80369811D01*
X95371900Y-80367771D01*
X95365337Y-80367081D01*
X95365336Y-80367081D01*
X95341624Y-80364589D01*
X95226608Y-80352500D01*
X95129392Y-80352500D01*
X95014376Y-80364589D01*
X94990664Y-80367081D01*
X94990663Y-80367081D01*
X94984100Y-80367771D01*
X94977822Y-80369811D01*
X94977821Y-80369811D01*
X94874148Y-80403496D01*
X94798674Y-80428019D01*
X94792952Y-80431322D01*
X94792951Y-80431323D01*
X94731004Y-80467088D01*
X94629826Y-80525503D01*
X94624919Y-80529921D01*
X94624918Y-80529922D01*
X94519836Y-80624539D01*
X94484936Y-80655963D01*
X94370337Y-80813695D01*
X94291036Y-80991808D01*
X94289664Y-80998265D01*
X94252425Y-81173461D01*
X94250500Y-81182516D01*
X94250500Y-81377484D01*
X91605500Y-81377484D01*
X91605500Y-81182516D01*
X91603576Y-81173461D01*
X91566336Y-80998265D01*
X91564964Y-80991808D01*
X91562279Y-80985777D01*
X91488348Y-80819726D01*
X91488347Y-80819724D01*
X91485663Y-80813696D01*
X91388848Y-80680440D01*
X91374943Y-80661302D01*
X91371064Y-80655963D01*
X91336165Y-80624539D01*
X91231082Y-80529922D01*
X91231081Y-80529921D01*
X91226174Y-80525503D01*
X91124996Y-80467088D01*
X91063049Y-80431323D01*
X91063048Y-80431322D01*
X91057326Y-80428019D01*
X90981852Y-80403496D01*
X90878179Y-80369811D01*
X90878178Y-80369811D01*
X90871900Y-80367771D01*
X90865337Y-80367081D01*
X90865336Y-80367081D01*
X90841624Y-80364589D01*
X90726608Y-80352500D01*
X90629392Y-80352500D01*
X90514376Y-80364589D01*
X90490664Y-80367081D01*
X90490663Y-80367081D01*
X90484100Y-80367771D01*
X90477822Y-80369811D01*
X90477821Y-80369811D01*
X90374148Y-80403496D01*
X90298674Y-80428019D01*
X90292952Y-80431322D01*
X90292951Y-80431323D01*
X90231004Y-80467088D01*
X90129826Y-80525503D01*
X90124919Y-80529921D01*
X90124918Y-80529922D01*
X90019836Y-80624539D01*
X89984936Y-80655963D01*
X89870337Y-80813695D01*
X89791036Y-80991808D01*
X89789664Y-80998265D01*
X89752425Y-81173461D01*
X89750500Y-81182516D01*
X89750500Y-81377484D01*
X89408000Y-81377484D01*
X89408000Y-80264000D01*
X121559461Y-80264000D01*
X121577107Y-80375413D01*
X121628318Y-80475920D01*
X121708080Y-80555682D01*
X121808587Y-80606893D01*
X121818376Y-80608443D01*
X121818378Y-80608444D01*
X121910207Y-80622988D01*
X121920000Y-80624539D01*
X121929793Y-80622988D01*
X122021622Y-80608444D01*
X122021624Y-80608443D01*
X122031413Y-80606893D01*
X122131920Y-80555682D01*
X122211682Y-80475920D01*
X122262893Y-80375413D01*
X122280539Y-80264000D01*
X122274484Y-80225771D01*
X122264444Y-80162378D01*
X122264443Y-80162376D01*
X122262893Y-80152587D01*
X122211682Y-80052080D01*
X122131920Y-79972318D01*
X122031413Y-79921107D01*
X122021624Y-79919557D01*
X122021622Y-79919556D01*
X121929793Y-79905012D01*
X121920000Y-79903461D01*
X121910207Y-79905012D01*
X121818378Y-79919556D01*
X121818376Y-79919557D01*
X121808587Y-79921107D01*
X121708080Y-79972318D01*
X121628318Y-80052080D01*
X121577107Y-80152587D01*
X121575557Y-80162376D01*
X121575556Y-80162378D01*
X121565516Y-80225771D01*
X121559461Y-80264000D01*
X89408000Y-80264000D01*
X89408000Y-77851000D01*
X131465461Y-77851000D01*
X131483107Y-77962413D01*
X131534318Y-78062920D01*
X131614080Y-78142682D01*
X131714587Y-78193893D01*
X131724376Y-78195443D01*
X131724378Y-78195444D01*
X131816207Y-78209988D01*
X131826000Y-78211539D01*
X131835793Y-78209988D01*
X131927622Y-78195444D01*
X131927624Y-78195443D01*
X131937413Y-78193893D01*
X132037920Y-78142682D01*
X132117682Y-78062920D01*
X132168893Y-77962413D01*
X132186539Y-77851000D01*
X132481461Y-77851000D01*
X132499107Y-77962413D01*
X132550318Y-78062920D01*
X132630080Y-78142682D01*
X132730587Y-78193893D01*
X132740376Y-78195443D01*
X132740378Y-78195444D01*
X132832207Y-78209988D01*
X132842000Y-78211539D01*
X132851793Y-78209988D01*
X132943622Y-78195444D01*
X132943624Y-78195443D01*
X132953413Y-78193893D01*
X133053920Y-78142682D01*
X133133682Y-78062920D01*
X133184893Y-77962413D01*
X133202539Y-77851000D01*
X133624461Y-77851000D01*
X133642107Y-77962413D01*
X133693318Y-78062920D01*
X133773080Y-78142682D01*
X133873587Y-78193893D01*
X133883376Y-78195443D01*
X133883378Y-78195444D01*
X133975207Y-78209988D01*
X133985000Y-78211539D01*
X133994793Y-78209988D01*
X134086622Y-78195444D01*
X134086624Y-78195443D01*
X134096413Y-78193893D01*
X134196920Y-78142682D01*
X134276682Y-78062920D01*
X134327893Y-77962413D01*
X134345539Y-77851000D01*
X134640461Y-77851000D01*
X134658107Y-77962413D01*
X134709318Y-78062920D01*
X134789080Y-78142682D01*
X134889587Y-78193893D01*
X134899376Y-78195443D01*
X134899378Y-78195444D01*
X134991207Y-78209988D01*
X135001000Y-78211539D01*
X135010793Y-78209988D01*
X135102622Y-78195444D01*
X135102624Y-78195443D01*
X135112413Y-78193893D01*
X135212920Y-78142682D01*
X135292682Y-78062920D01*
X135343893Y-77962413D01*
X135361539Y-77851000D01*
X135343893Y-77739587D01*
X135292682Y-77639080D01*
X135212920Y-77559318D01*
X135112413Y-77508107D01*
X135102624Y-77506557D01*
X135102622Y-77506556D01*
X135010793Y-77492012D01*
X135001000Y-77490461D01*
X134991207Y-77492012D01*
X134899378Y-77506556D01*
X134899376Y-77506557D01*
X134889587Y-77508107D01*
X134789080Y-77559318D01*
X134709318Y-77639080D01*
X134658107Y-77739587D01*
X134640461Y-77851000D01*
X134345539Y-77851000D01*
X134327893Y-77739587D01*
X134276682Y-77639080D01*
X134196920Y-77559318D01*
X134096413Y-77508107D01*
X134086624Y-77506557D01*
X134086622Y-77506556D01*
X133994793Y-77492012D01*
X133985000Y-77490461D01*
X133975207Y-77492012D01*
X133883378Y-77506556D01*
X133883376Y-77506557D01*
X133873587Y-77508107D01*
X133773080Y-77559318D01*
X133693318Y-77639080D01*
X133642107Y-77739587D01*
X133624461Y-77851000D01*
X133202539Y-77851000D01*
X133184893Y-77739587D01*
X133133682Y-77639080D01*
X133053920Y-77559318D01*
X132953413Y-77508107D01*
X132943624Y-77506557D01*
X132943622Y-77506556D01*
X132851793Y-77492012D01*
X132842000Y-77490461D01*
X132832207Y-77492012D01*
X132740378Y-77506556D01*
X132740376Y-77506557D01*
X132730587Y-77508107D01*
X132630080Y-77559318D01*
X132550318Y-77639080D01*
X132499107Y-77739587D01*
X132481461Y-77851000D01*
X132186539Y-77851000D01*
X132168893Y-77739587D01*
X132117682Y-77639080D01*
X132037920Y-77559318D01*
X131937413Y-77508107D01*
X131927624Y-77506557D01*
X131927622Y-77506556D01*
X131835793Y-77492012D01*
X131826000Y-77490461D01*
X131816207Y-77492012D01*
X131724378Y-77506556D01*
X131724376Y-77506557D01*
X131714587Y-77508107D01*
X131614080Y-77559318D01*
X131534318Y-77639080D01*
X131483107Y-77739587D01*
X131465461Y-77851000D01*
X89408000Y-77851000D01*
X89408000Y-75946000D01*
X110002461Y-75946000D01*
X110020107Y-76057413D01*
X110071318Y-76157920D01*
X110151080Y-76237682D01*
X110251587Y-76288893D01*
X110261376Y-76290443D01*
X110261378Y-76290444D01*
X110353207Y-76304988D01*
X110363000Y-76306539D01*
X110372793Y-76304988D01*
X110464622Y-76290444D01*
X110464624Y-76290443D01*
X110474413Y-76288893D01*
X110574920Y-76237682D01*
X110654682Y-76157920D01*
X110705893Y-76057413D01*
X110723539Y-75946000D01*
X113431461Y-75946000D01*
X113449107Y-76057413D01*
X113500318Y-76157920D01*
X113580080Y-76237682D01*
X113680587Y-76288893D01*
X113690376Y-76290443D01*
X113690378Y-76290444D01*
X113782207Y-76304988D01*
X113792000Y-76306539D01*
X113801793Y-76304988D01*
X113893622Y-76290444D01*
X113893624Y-76290443D01*
X113903413Y-76288893D01*
X114003920Y-76237682D01*
X114083682Y-76157920D01*
X114126951Y-76073000D01*
X116225461Y-76073000D01*
X116243107Y-76184413D01*
X116294318Y-76284920D01*
X116374080Y-76364682D01*
X116474587Y-76415893D01*
X116484376Y-76417443D01*
X116484378Y-76417444D01*
X116576207Y-76431988D01*
X116586000Y-76433539D01*
X116595793Y-76431988D01*
X116687622Y-76417444D01*
X116687624Y-76417443D01*
X116697413Y-76415893D01*
X116797920Y-76364682D01*
X116877682Y-76284920D01*
X116928893Y-76184413D01*
X116946539Y-76073000D01*
X119781461Y-76073000D01*
X119799107Y-76184413D01*
X119850318Y-76284920D01*
X119930080Y-76364682D01*
X120030587Y-76415893D01*
X120040376Y-76417443D01*
X120040378Y-76417444D01*
X120132207Y-76431988D01*
X120142000Y-76433539D01*
X120151793Y-76431988D01*
X120243622Y-76417444D01*
X120243624Y-76417443D01*
X120253413Y-76415893D01*
X120353920Y-76364682D01*
X120433682Y-76284920D01*
X120484893Y-76184413D01*
X120502539Y-76073000D01*
X122575461Y-76073000D01*
X122593107Y-76184413D01*
X122644318Y-76284920D01*
X122724080Y-76364682D01*
X122824587Y-76415893D01*
X122834376Y-76417443D01*
X122834378Y-76417444D01*
X122926207Y-76431988D01*
X122936000Y-76433539D01*
X122945793Y-76431988D01*
X123037622Y-76417444D01*
X123037624Y-76417443D01*
X123047413Y-76415893D01*
X123147920Y-76364682D01*
X123227682Y-76284920D01*
X123278893Y-76184413D01*
X123296539Y-76073000D01*
X123278893Y-75961587D01*
X123227682Y-75861080D01*
X123147920Y-75781318D01*
X123047413Y-75730107D01*
X123037624Y-75728557D01*
X123037622Y-75728556D01*
X122945793Y-75714012D01*
X122936000Y-75712461D01*
X122926207Y-75714012D01*
X122834378Y-75728556D01*
X122834376Y-75728557D01*
X122824587Y-75730107D01*
X122724080Y-75781318D01*
X122644318Y-75861080D01*
X122593107Y-75961587D01*
X122575461Y-76073000D01*
X120502539Y-76073000D01*
X120484893Y-75961587D01*
X120433682Y-75861080D01*
X120353920Y-75781318D01*
X120253413Y-75730107D01*
X120243624Y-75728557D01*
X120243622Y-75728556D01*
X120151793Y-75714012D01*
X120142000Y-75712461D01*
X120132207Y-75714012D01*
X120040378Y-75728556D01*
X120040376Y-75728557D01*
X120030587Y-75730107D01*
X119930080Y-75781318D01*
X119850318Y-75861080D01*
X119799107Y-75961587D01*
X119781461Y-76073000D01*
X116946539Y-76073000D01*
X116928893Y-75961587D01*
X116877682Y-75861080D01*
X116797920Y-75781318D01*
X116697413Y-75730107D01*
X116687624Y-75728557D01*
X116687622Y-75728556D01*
X116595793Y-75714012D01*
X116586000Y-75712461D01*
X116576207Y-75714012D01*
X116484378Y-75728556D01*
X116484376Y-75728557D01*
X116474587Y-75730107D01*
X116374080Y-75781318D01*
X116294318Y-75861080D01*
X116243107Y-75961587D01*
X116225461Y-76073000D01*
X114126951Y-76073000D01*
X114134893Y-76057413D01*
X114152539Y-75946000D01*
X114134893Y-75834587D01*
X114083682Y-75734080D01*
X114003920Y-75654318D01*
X113903413Y-75603107D01*
X113893624Y-75601557D01*
X113893622Y-75601556D01*
X113801793Y-75587012D01*
X113792000Y-75585461D01*
X113782207Y-75587012D01*
X113690378Y-75601556D01*
X113690376Y-75601557D01*
X113680587Y-75603107D01*
X113580080Y-75654318D01*
X113500318Y-75734080D01*
X113449107Y-75834587D01*
X113431461Y-75946000D01*
X110723539Y-75946000D01*
X110705893Y-75834587D01*
X110654682Y-75734080D01*
X110574920Y-75654318D01*
X110474413Y-75603107D01*
X110464624Y-75601557D01*
X110464622Y-75601556D01*
X110372793Y-75587012D01*
X110363000Y-75585461D01*
X110353207Y-75587012D01*
X110261378Y-75601556D01*
X110261376Y-75601557D01*
X110251587Y-75603107D01*
X110151080Y-75654318D01*
X110071318Y-75734080D01*
X110020107Y-75834587D01*
X110002461Y-75946000D01*
X89408000Y-75946000D01*
X89408000Y-74930000D01*
X110002461Y-74930000D01*
X110020107Y-75041413D01*
X110071318Y-75141920D01*
X110151080Y-75221682D01*
X110251587Y-75272893D01*
X110261376Y-75274443D01*
X110261378Y-75274444D01*
X110353207Y-75288988D01*
X110363000Y-75290539D01*
X110372793Y-75288988D01*
X110464622Y-75274444D01*
X110464624Y-75274443D01*
X110474413Y-75272893D01*
X110574920Y-75221682D01*
X110654682Y-75141920D01*
X110705893Y-75041413D01*
X110723539Y-74930000D01*
X116225461Y-74930000D01*
X116243107Y-75041413D01*
X116294318Y-75141920D01*
X116374080Y-75221682D01*
X116474587Y-75272893D01*
X116484376Y-75274443D01*
X116484378Y-75274444D01*
X116576207Y-75288988D01*
X116586000Y-75290539D01*
X116595793Y-75288988D01*
X116687622Y-75274444D01*
X116687624Y-75274443D01*
X116697413Y-75272893D01*
X116797920Y-75221682D01*
X116877682Y-75141920D01*
X116928893Y-75041413D01*
X116946539Y-74930000D01*
X122575461Y-74930000D01*
X122593107Y-75041413D01*
X122644318Y-75141920D01*
X122724080Y-75221682D01*
X122824587Y-75272893D01*
X122834376Y-75274443D01*
X122834378Y-75274444D01*
X122926207Y-75288988D01*
X122936000Y-75290539D01*
X122945793Y-75288988D01*
X123037622Y-75274444D01*
X123037624Y-75274443D01*
X123047413Y-75272893D01*
X123147920Y-75221682D01*
X123227682Y-75141920D01*
X123270951Y-75057000D01*
X148991461Y-75057000D01*
X149009107Y-75168413D01*
X149060318Y-75268920D01*
X149140080Y-75348682D01*
X149240587Y-75399893D01*
X149250376Y-75401443D01*
X149250378Y-75401444D01*
X149342207Y-75415988D01*
X149352000Y-75417539D01*
X149361793Y-75415988D01*
X149453622Y-75401444D01*
X149453624Y-75401443D01*
X149463413Y-75399893D01*
X149563920Y-75348682D01*
X149643682Y-75268920D01*
X149694893Y-75168413D01*
X149712539Y-75057000D01*
X151023461Y-75057000D01*
X151041107Y-75168413D01*
X151092318Y-75268920D01*
X151172080Y-75348682D01*
X151272587Y-75399893D01*
X151282376Y-75401443D01*
X151282378Y-75401444D01*
X151374207Y-75415988D01*
X151384000Y-75417539D01*
X151393793Y-75415988D01*
X151485622Y-75401444D01*
X151485624Y-75401443D01*
X151495413Y-75399893D01*
X151595920Y-75348682D01*
X151675682Y-75268920D01*
X151726893Y-75168413D01*
X151744539Y-75057000D01*
X151726893Y-74945587D01*
X151675682Y-74845080D01*
X151595920Y-74765318D01*
X151495413Y-74714107D01*
X151485624Y-74712557D01*
X151485622Y-74712556D01*
X151393793Y-74698012D01*
X151384000Y-74696461D01*
X151374207Y-74698012D01*
X151282378Y-74712556D01*
X151282376Y-74712557D01*
X151272587Y-74714107D01*
X151172080Y-74765318D01*
X151092318Y-74845080D01*
X151041107Y-74945587D01*
X151023461Y-75057000D01*
X149712539Y-75057000D01*
X149694893Y-74945587D01*
X149643682Y-74845080D01*
X149563920Y-74765318D01*
X149463413Y-74714107D01*
X149453624Y-74712557D01*
X149453622Y-74712556D01*
X149361793Y-74698012D01*
X149352000Y-74696461D01*
X149342207Y-74698012D01*
X149250378Y-74712556D01*
X149250376Y-74712557D01*
X149240587Y-74714107D01*
X149140080Y-74765318D01*
X149060318Y-74845080D01*
X149009107Y-74945587D01*
X148991461Y-75057000D01*
X123270951Y-75057000D01*
X123278893Y-75041413D01*
X123296539Y-74930000D01*
X123278893Y-74818587D01*
X123227682Y-74718080D01*
X123147920Y-74638318D01*
X123047413Y-74587107D01*
X123037624Y-74585557D01*
X123037622Y-74585556D01*
X122945793Y-74571012D01*
X122936000Y-74569461D01*
X122926207Y-74571012D01*
X122834378Y-74585556D01*
X122834376Y-74585557D01*
X122824587Y-74587107D01*
X122724080Y-74638318D01*
X122644318Y-74718080D01*
X122593107Y-74818587D01*
X122575461Y-74930000D01*
X116946539Y-74930000D01*
X116928893Y-74818587D01*
X116877682Y-74718080D01*
X116797920Y-74638318D01*
X116697413Y-74587107D01*
X116687624Y-74585557D01*
X116687622Y-74585556D01*
X116595793Y-74571012D01*
X116586000Y-74569461D01*
X116576207Y-74571012D01*
X116484378Y-74585556D01*
X116484376Y-74585557D01*
X116474587Y-74587107D01*
X116374080Y-74638318D01*
X116294318Y-74718080D01*
X116243107Y-74818587D01*
X116225461Y-74930000D01*
X110723539Y-74930000D01*
X110705893Y-74818587D01*
X110654682Y-74718080D01*
X110574920Y-74638318D01*
X110474413Y-74587107D01*
X110464624Y-74585557D01*
X110464622Y-74585556D01*
X110372793Y-74571012D01*
X110363000Y-74569461D01*
X110353207Y-74571012D01*
X110261378Y-74585556D01*
X110261376Y-74585557D01*
X110251587Y-74587107D01*
X110151080Y-74638318D01*
X110071318Y-74718080D01*
X110020107Y-74818587D01*
X110002461Y-74930000D01*
X89408000Y-74930000D01*
X89408000Y-73660000D01*
X110002461Y-73660000D01*
X110020107Y-73771413D01*
X110071318Y-73871920D01*
X110151080Y-73951682D01*
X110251587Y-74002893D01*
X110261376Y-74004443D01*
X110261378Y-74004444D01*
X110353207Y-74018988D01*
X110363000Y-74020539D01*
X110372793Y-74018988D01*
X110464622Y-74004444D01*
X110464624Y-74004443D01*
X110474413Y-74002893D01*
X110574920Y-73951682D01*
X110654682Y-73871920D01*
X110705893Y-73771413D01*
X110723539Y-73660000D01*
X110717749Y-73623444D01*
X110707444Y-73558378D01*
X110707443Y-73558376D01*
X110705893Y-73548587D01*
X110654682Y-73448080D01*
X110612602Y-73406000D01*
X113177461Y-73406000D01*
X113179012Y-73415793D01*
X113185525Y-73456912D01*
X113195107Y-73517413D01*
X113246318Y-73617920D01*
X113326080Y-73697682D01*
X113426587Y-73748893D01*
X113436376Y-73750443D01*
X113436378Y-73750444D01*
X113528207Y-73764988D01*
X113538000Y-73766539D01*
X113547793Y-73764988D01*
X113639622Y-73750444D01*
X113639624Y-73750443D01*
X113649413Y-73748893D01*
X113749920Y-73697682D01*
X113787602Y-73660000D01*
X116225461Y-73660000D01*
X116243107Y-73771413D01*
X116294318Y-73871920D01*
X116374080Y-73951682D01*
X116474587Y-74002893D01*
X116484376Y-74004443D01*
X116484378Y-74004444D01*
X116576207Y-74018988D01*
X116586000Y-74020539D01*
X116595793Y-74018988D01*
X116687622Y-74004444D01*
X116687624Y-74004443D01*
X116697413Y-74002893D01*
X116797920Y-73951682D01*
X116877682Y-73871920D01*
X116928893Y-73771413D01*
X116946539Y-73660000D01*
X122575461Y-73660000D01*
X122593107Y-73771413D01*
X122644318Y-73871920D01*
X122724080Y-73951682D01*
X122824587Y-74002893D01*
X122834376Y-74004443D01*
X122834378Y-74004444D01*
X122926207Y-74018988D01*
X122936000Y-74020539D01*
X122945793Y-74018988D01*
X123037622Y-74004444D01*
X123037624Y-74004443D01*
X123047413Y-74002893D01*
X123147920Y-73951682D01*
X123227682Y-73871920D01*
X123278893Y-73771413D01*
X123296539Y-73660000D01*
X123290749Y-73623444D01*
X123280444Y-73558378D01*
X123280443Y-73558376D01*
X123278893Y-73548587D01*
X123227682Y-73448080D01*
X123147920Y-73368318D01*
X123047413Y-73317107D01*
X123037624Y-73315557D01*
X123037622Y-73315556D01*
X122945793Y-73301012D01*
X122936000Y-73299461D01*
X122926207Y-73301012D01*
X122834378Y-73315556D01*
X122834376Y-73315557D01*
X122824587Y-73317107D01*
X122724080Y-73368318D01*
X122644318Y-73448080D01*
X122593107Y-73548587D01*
X122591557Y-73558376D01*
X122591556Y-73558378D01*
X122581251Y-73623444D01*
X122575461Y-73660000D01*
X116946539Y-73660000D01*
X116940749Y-73623444D01*
X116930444Y-73558378D01*
X116930443Y-73558376D01*
X116928893Y-73548587D01*
X116877682Y-73448080D01*
X116797920Y-73368318D01*
X116697413Y-73317107D01*
X116687624Y-73315557D01*
X116687622Y-73315556D01*
X116595793Y-73301012D01*
X116586000Y-73299461D01*
X116576207Y-73301012D01*
X116484378Y-73315556D01*
X116484376Y-73315557D01*
X116474587Y-73317107D01*
X116374080Y-73368318D01*
X116294318Y-73448080D01*
X116243107Y-73548587D01*
X116241557Y-73558376D01*
X116241556Y-73558378D01*
X116231251Y-73623444D01*
X116225461Y-73660000D01*
X113787602Y-73660000D01*
X113829682Y-73617920D01*
X113880893Y-73517413D01*
X113890476Y-73456912D01*
X113896988Y-73415793D01*
X113898539Y-73406000D01*
X113880893Y-73294587D01*
X113872951Y-73279000D01*
X119527461Y-73279000D01*
X119529012Y-73288793D01*
X119541608Y-73368318D01*
X119545107Y-73390413D01*
X119596318Y-73490920D01*
X119676080Y-73570682D01*
X119776587Y-73621893D01*
X119786376Y-73623443D01*
X119786378Y-73623444D01*
X119878207Y-73637988D01*
X119888000Y-73639539D01*
X119897793Y-73637988D01*
X119989622Y-73623444D01*
X119989624Y-73623443D01*
X119999413Y-73621893D01*
X120099920Y-73570682D01*
X120179682Y-73490920D01*
X120230893Y-73390413D01*
X120234393Y-73368318D01*
X120246988Y-73288793D01*
X120248539Y-73279000D01*
X125877461Y-73279000D01*
X125879012Y-73288793D01*
X125891608Y-73368318D01*
X125895107Y-73390413D01*
X125946318Y-73490920D01*
X126026080Y-73570682D01*
X126126587Y-73621893D01*
X126136376Y-73623443D01*
X126136378Y-73623444D01*
X126228207Y-73637988D01*
X126238000Y-73639539D01*
X126247793Y-73637988D01*
X126339622Y-73623444D01*
X126339624Y-73623443D01*
X126349413Y-73621893D01*
X126449920Y-73570682D01*
X126529682Y-73490920D01*
X126580893Y-73390413D01*
X126584393Y-73368318D01*
X126596988Y-73288793D01*
X126598539Y-73279000D01*
X126580893Y-73167587D01*
X126529682Y-73067080D01*
X126449920Y-72987318D01*
X126349413Y-72936107D01*
X126339624Y-72934557D01*
X126339622Y-72934556D01*
X126247793Y-72920012D01*
X126238000Y-72918461D01*
X126228207Y-72920012D01*
X126136378Y-72934556D01*
X126136376Y-72934557D01*
X126126587Y-72936107D01*
X126026080Y-72987318D01*
X125946318Y-73067080D01*
X125895107Y-73167587D01*
X125877461Y-73279000D01*
X120248539Y-73279000D01*
X120230893Y-73167587D01*
X120179682Y-73067080D01*
X120099920Y-72987318D01*
X119999413Y-72936107D01*
X119989624Y-72934557D01*
X119989622Y-72934556D01*
X119897793Y-72920012D01*
X119888000Y-72918461D01*
X119878207Y-72920012D01*
X119786378Y-72934556D01*
X119786376Y-72934557D01*
X119776587Y-72936107D01*
X119676080Y-72987318D01*
X119596318Y-73067080D01*
X119545107Y-73167587D01*
X119527461Y-73279000D01*
X113872951Y-73279000D01*
X113829682Y-73194080D01*
X113749920Y-73114318D01*
X113649413Y-73063107D01*
X113639624Y-73061557D01*
X113639622Y-73061556D01*
X113547793Y-73047012D01*
X113538000Y-73045461D01*
X113528207Y-73047012D01*
X113436378Y-73061556D01*
X113436376Y-73061557D01*
X113426587Y-73063107D01*
X113326080Y-73114318D01*
X113246318Y-73194080D01*
X113195107Y-73294587D01*
X113177461Y-73406000D01*
X110612602Y-73406000D01*
X110574920Y-73368318D01*
X110474413Y-73317107D01*
X110464624Y-73315557D01*
X110464622Y-73315556D01*
X110372793Y-73301012D01*
X110363000Y-73299461D01*
X110353207Y-73301012D01*
X110261378Y-73315556D01*
X110261376Y-73315557D01*
X110251587Y-73317107D01*
X110151080Y-73368318D01*
X110071318Y-73448080D01*
X110020107Y-73548587D01*
X110018557Y-73558376D01*
X110018556Y-73558378D01*
X110008251Y-73623444D01*
X110002461Y-73660000D01*
X89408000Y-73660000D01*
X89408000Y-72771000D01*
X131465461Y-72771000D01*
X131483107Y-72882413D01*
X131534318Y-72982920D01*
X131614080Y-73062682D01*
X131714587Y-73113893D01*
X131724376Y-73115443D01*
X131724378Y-73115444D01*
X131816207Y-73129988D01*
X131826000Y-73131539D01*
X131835793Y-73129988D01*
X131927622Y-73115444D01*
X131927624Y-73115443D01*
X131937413Y-73113893D01*
X132037920Y-73062682D01*
X132117682Y-72982920D01*
X132168893Y-72882413D01*
X132186539Y-72771000D01*
X132481461Y-72771000D01*
X132499107Y-72882413D01*
X132550318Y-72982920D01*
X132630080Y-73062682D01*
X132730587Y-73113893D01*
X132740376Y-73115443D01*
X132740378Y-73115444D01*
X132832207Y-73129988D01*
X132842000Y-73131539D01*
X132851793Y-73129988D01*
X132943622Y-73115444D01*
X132943624Y-73115443D01*
X132953413Y-73113893D01*
X133053920Y-73062682D01*
X133133682Y-72982920D01*
X133184893Y-72882413D01*
X133202539Y-72771000D01*
X133624461Y-72771000D01*
X133642107Y-72882413D01*
X133693318Y-72982920D01*
X133773080Y-73062682D01*
X133873587Y-73113893D01*
X133883376Y-73115443D01*
X133883378Y-73115444D01*
X133975207Y-73129988D01*
X133985000Y-73131539D01*
X133994793Y-73129988D01*
X134086622Y-73115444D01*
X134086624Y-73115443D01*
X134096413Y-73113893D01*
X134196920Y-73062682D01*
X134276682Y-72982920D01*
X134327893Y-72882413D01*
X134345539Y-72771000D01*
X134640461Y-72771000D01*
X134658107Y-72882413D01*
X134709318Y-72982920D01*
X134789080Y-73062682D01*
X134889587Y-73113893D01*
X134899376Y-73115443D01*
X134899378Y-73115444D01*
X134991207Y-73129988D01*
X135001000Y-73131539D01*
X135010793Y-73129988D01*
X135102622Y-73115444D01*
X135102624Y-73115443D01*
X135112413Y-73113893D01*
X135212920Y-73062682D01*
X135292682Y-72982920D01*
X135343893Y-72882413D01*
X135361539Y-72771000D01*
X135355749Y-72734444D01*
X135345444Y-72669378D01*
X135345443Y-72669376D01*
X135343893Y-72659587D01*
X135292682Y-72559080D01*
X135212920Y-72479318D01*
X135112413Y-72428107D01*
X135102624Y-72426557D01*
X135102622Y-72426556D01*
X135010793Y-72412012D01*
X135001000Y-72410461D01*
X134991207Y-72412012D01*
X134899378Y-72426556D01*
X134899376Y-72426557D01*
X134889587Y-72428107D01*
X134789080Y-72479318D01*
X134709318Y-72559080D01*
X134658107Y-72659587D01*
X134656557Y-72669376D01*
X134656556Y-72669378D01*
X134646251Y-72734444D01*
X134640461Y-72771000D01*
X134345539Y-72771000D01*
X134339749Y-72734444D01*
X134329444Y-72669378D01*
X134329443Y-72669376D01*
X134327893Y-72659587D01*
X134276682Y-72559080D01*
X134196920Y-72479318D01*
X134096413Y-72428107D01*
X134086624Y-72426557D01*
X134086622Y-72426556D01*
X133994793Y-72412012D01*
X133985000Y-72410461D01*
X133975207Y-72412012D01*
X133883378Y-72426556D01*
X133883376Y-72426557D01*
X133873587Y-72428107D01*
X133773080Y-72479318D01*
X133693318Y-72559080D01*
X133642107Y-72659587D01*
X133640557Y-72669376D01*
X133640556Y-72669378D01*
X133630251Y-72734444D01*
X133624461Y-72771000D01*
X133202539Y-72771000D01*
X133196749Y-72734444D01*
X133186444Y-72669378D01*
X133186443Y-72669376D01*
X133184893Y-72659587D01*
X133133682Y-72559080D01*
X133053920Y-72479318D01*
X132953413Y-72428107D01*
X132943624Y-72426557D01*
X132943622Y-72426556D01*
X132851793Y-72412012D01*
X132842000Y-72410461D01*
X132832207Y-72412012D01*
X132740378Y-72426556D01*
X132740376Y-72426557D01*
X132730587Y-72428107D01*
X132630080Y-72479318D01*
X132550318Y-72559080D01*
X132499107Y-72659587D01*
X132497557Y-72669376D01*
X132497556Y-72669378D01*
X132487251Y-72734444D01*
X132481461Y-72771000D01*
X132186539Y-72771000D01*
X132180749Y-72734444D01*
X132170444Y-72669378D01*
X132170443Y-72669376D01*
X132168893Y-72659587D01*
X132117682Y-72559080D01*
X132037920Y-72479318D01*
X131937413Y-72428107D01*
X131927624Y-72426557D01*
X131927622Y-72426556D01*
X131835793Y-72412012D01*
X131826000Y-72410461D01*
X131816207Y-72412012D01*
X131724378Y-72426556D01*
X131724376Y-72426557D01*
X131714587Y-72428107D01*
X131614080Y-72479318D01*
X131534318Y-72559080D01*
X131483107Y-72659587D01*
X131481557Y-72669376D01*
X131481556Y-72669378D01*
X131471251Y-72734444D01*
X131465461Y-72771000D01*
X89408000Y-72771000D01*
X89408000Y-72390000D01*
X110002461Y-72390000D01*
X110004012Y-72399793D01*
X110016608Y-72479318D01*
X110020107Y-72501413D01*
X110071318Y-72601920D01*
X110151080Y-72681682D01*
X110251587Y-72732893D01*
X110261376Y-72734443D01*
X110261378Y-72734444D01*
X110353207Y-72748988D01*
X110363000Y-72750539D01*
X110372793Y-72748988D01*
X110464622Y-72734444D01*
X110464624Y-72734443D01*
X110474413Y-72732893D01*
X110574920Y-72681682D01*
X110654682Y-72601920D01*
X110705893Y-72501413D01*
X110709393Y-72479318D01*
X110721988Y-72399793D01*
X110723539Y-72390000D01*
X116225461Y-72390000D01*
X116227012Y-72399793D01*
X116239608Y-72479318D01*
X116243107Y-72501413D01*
X116294318Y-72601920D01*
X116374080Y-72681682D01*
X116474587Y-72732893D01*
X116484376Y-72734443D01*
X116484378Y-72734444D01*
X116576207Y-72748988D01*
X116586000Y-72750539D01*
X116595793Y-72748988D01*
X116687622Y-72734444D01*
X116687624Y-72734443D01*
X116697413Y-72732893D01*
X116797920Y-72681682D01*
X116877682Y-72601920D01*
X116928893Y-72501413D01*
X116932393Y-72479318D01*
X116944988Y-72399793D01*
X116946539Y-72390000D01*
X122575461Y-72390000D01*
X122577012Y-72399793D01*
X122589608Y-72479318D01*
X122593107Y-72501413D01*
X122644318Y-72601920D01*
X122724080Y-72681682D01*
X122824587Y-72732893D01*
X122834376Y-72734443D01*
X122834378Y-72734444D01*
X122926207Y-72748988D01*
X122936000Y-72750539D01*
X122945793Y-72748988D01*
X123037622Y-72734444D01*
X123037624Y-72734443D01*
X123047413Y-72732893D01*
X123147920Y-72681682D01*
X123227682Y-72601920D01*
X123278893Y-72501413D01*
X123282393Y-72479318D01*
X123294988Y-72399793D01*
X123296539Y-72390000D01*
X146070461Y-72390000D01*
X146072012Y-72399793D01*
X146084608Y-72479318D01*
X146088107Y-72501413D01*
X146139318Y-72601920D01*
X146219080Y-72681682D01*
X146319587Y-72732893D01*
X146329376Y-72734443D01*
X146329378Y-72734444D01*
X146421207Y-72748988D01*
X146431000Y-72750539D01*
X146440793Y-72748988D01*
X146532622Y-72734444D01*
X146532624Y-72734443D01*
X146542413Y-72732893D01*
X146642920Y-72681682D01*
X146722682Y-72601920D01*
X146773893Y-72501413D01*
X146777393Y-72479318D01*
X146789988Y-72399793D01*
X146791539Y-72390000D01*
X146773893Y-72278587D01*
X146722682Y-72178080D01*
X146642920Y-72098318D01*
X146542413Y-72047107D01*
X146532624Y-72045557D01*
X146532622Y-72045556D01*
X146440793Y-72031012D01*
X146431000Y-72029461D01*
X146421207Y-72031012D01*
X146329378Y-72045556D01*
X146329376Y-72045557D01*
X146319587Y-72047107D01*
X146219080Y-72098318D01*
X146139318Y-72178080D01*
X146088107Y-72278587D01*
X146070461Y-72390000D01*
X123296539Y-72390000D01*
X123278893Y-72278587D01*
X123227682Y-72178080D01*
X123147920Y-72098318D01*
X123047413Y-72047107D01*
X123037624Y-72045557D01*
X123037622Y-72045556D01*
X122945793Y-72031012D01*
X122936000Y-72029461D01*
X122926207Y-72031012D01*
X122834378Y-72045556D01*
X122834376Y-72045557D01*
X122824587Y-72047107D01*
X122724080Y-72098318D01*
X122644318Y-72178080D01*
X122593107Y-72278587D01*
X122575461Y-72390000D01*
X116946539Y-72390000D01*
X116928893Y-72278587D01*
X116877682Y-72178080D01*
X116797920Y-72098318D01*
X116697413Y-72047107D01*
X116687624Y-72045557D01*
X116687622Y-72045556D01*
X116595793Y-72031012D01*
X116586000Y-72029461D01*
X116576207Y-72031012D01*
X116484378Y-72045556D01*
X116484376Y-72045557D01*
X116474587Y-72047107D01*
X116374080Y-72098318D01*
X116294318Y-72178080D01*
X116243107Y-72278587D01*
X116225461Y-72390000D01*
X110723539Y-72390000D01*
X110705893Y-72278587D01*
X110654682Y-72178080D01*
X110574920Y-72098318D01*
X110474413Y-72047107D01*
X110464624Y-72045557D01*
X110464622Y-72045556D01*
X110372793Y-72031012D01*
X110363000Y-72029461D01*
X110353207Y-72031012D01*
X110261378Y-72045556D01*
X110261376Y-72045557D01*
X110251587Y-72047107D01*
X110151080Y-72098318D01*
X110071318Y-72178080D01*
X110020107Y-72278587D01*
X110002461Y-72390000D01*
X89408000Y-72390000D01*
X89408000Y-71374000D01*
X143403461Y-71374000D01*
X143421107Y-71485413D01*
X143472318Y-71585920D01*
X143552080Y-71665682D01*
X143652587Y-71716893D01*
X143662376Y-71718443D01*
X143662378Y-71718444D01*
X143754207Y-71732988D01*
X143764000Y-71734539D01*
X143773793Y-71732988D01*
X143865622Y-71718444D01*
X143865624Y-71718443D01*
X143875413Y-71716893D01*
X143975920Y-71665682D01*
X144055682Y-71585920D01*
X144106893Y-71485413D01*
X144124539Y-71374000D01*
X144106893Y-71262587D01*
X144098951Y-71247000D01*
X154833461Y-71247000D01*
X154851107Y-71358413D01*
X154902318Y-71458920D01*
X154982080Y-71538682D01*
X155082587Y-71589893D01*
X155092376Y-71591443D01*
X155092378Y-71591444D01*
X155184207Y-71605988D01*
X155194000Y-71607539D01*
X155203793Y-71605988D01*
X155295622Y-71591444D01*
X155295624Y-71591443D01*
X155305413Y-71589893D01*
X155405920Y-71538682D01*
X155485682Y-71458920D01*
X155536893Y-71358413D01*
X155554539Y-71247000D01*
X155536893Y-71135587D01*
X155485682Y-71035080D01*
X155405920Y-70955318D01*
X155305413Y-70904107D01*
X155295624Y-70902557D01*
X155295622Y-70902556D01*
X155203793Y-70888012D01*
X155194000Y-70886461D01*
X155184207Y-70888012D01*
X155092378Y-70902556D01*
X155092376Y-70902557D01*
X155082587Y-70904107D01*
X154982080Y-70955318D01*
X154902318Y-71035080D01*
X154851107Y-71135587D01*
X154833461Y-71247000D01*
X144098951Y-71247000D01*
X144055682Y-71162080D01*
X143975920Y-71082318D01*
X143875413Y-71031107D01*
X143865624Y-71029557D01*
X143865622Y-71029556D01*
X143773793Y-71015012D01*
X143764000Y-71013461D01*
X143754207Y-71015012D01*
X143662378Y-71029556D01*
X143662376Y-71029557D01*
X143652587Y-71031107D01*
X143552080Y-71082318D01*
X143472318Y-71162080D01*
X143421107Y-71262587D01*
X143403461Y-71374000D01*
X89408000Y-71374000D01*
X89408000Y-70104000D01*
X109621461Y-70104000D01*
X109639107Y-70215413D01*
X109690318Y-70315920D01*
X109770080Y-70395682D01*
X109870587Y-70446893D01*
X109880376Y-70448443D01*
X109880378Y-70448444D01*
X109972207Y-70462988D01*
X109982000Y-70464539D01*
X109991793Y-70462988D01*
X110083622Y-70448444D01*
X110083624Y-70448443D01*
X110093413Y-70446893D01*
X110193920Y-70395682D01*
X110273682Y-70315920D01*
X110276505Y-70318743D01*
X110317274Y-70287298D01*
X110388010Y-70281215D01*
X110450805Y-70314340D01*
X110452241Y-70315997D01*
X110452318Y-70315920D01*
X110532080Y-70395682D01*
X110632587Y-70446893D01*
X110642376Y-70448443D01*
X110642378Y-70448444D01*
X110734207Y-70462988D01*
X110744000Y-70464539D01*
X110753793Y-70462988D01*
X110845622Y-70448444D01*
X110845624Y-70448443D01*
X110855413Y-70446893D01*
X110955920Y-70395682D01*
X111035682Y-70315920D01*
X111086893Y-70215413D01*
X111104539Y-70104000D01*
X111086893Y-69992587D01*
X111078951Y-69977000D01*
X116098461Y-69977000D01*
X116100012Y-69986793D01*
X116106525Y-70027912D01*
X116116107Y-70088413D01*
X116167318Y-70188920D01*
X116247080Y-70268682D01*
X116347587Y-70319893D01*
X116357376Y-70321443D01*
X116357378Y-70321444D01*
X116449207Y-70335988D01*
X116459000Y-70337539D01*
X116468793Y-70335988D01*
X116560622Y-70321444D01*
X116560624Y-70321443D01*
X116570413Y-70319893D01*
X116670920Y-70268682D01*
X116687405Y-70252197D01*
X116749717Y-70218171D01*
X116820532Y-70223236D01*
X116865595Y-70252197D01*
X116882080Y-70268682D01*
X116982587Y-70319893D01*
X116992376Y-70321443D01*
X116992378Y-70321444D01*
X117084207Y-70335988D01*
X117094000Y-70337539D01*
X117103793Y-70335988D01*
X117195622Y-70321444D01*
X117195624Y-70321443D01*
X117205413Y-70319893D01*
X117305920Y-70268682D01*
X117385682Y-70188920D01*
X117428951Y-70104000D01*
X122448461Y-70104000D01*
X122466107Y-70215413D01*
X122517318Y-70315920D01*
X122597080Y-70395682D01*
X122697587Y-70446893D01*
X122707376Y-70448443D01*
X122707378Y-70448444D01*
X122799207Y-70462988D01*
X122809000Y-70464539D01*
X122818793Y-70462988D01*
X122910622Y-70448444D01*
X122910624Y-70448443D01*
X122920413Y-70446893D01*
X123020920Y-70395682D01*
X123100682Y-70315920D01*
X123103505Y-70318743D01*
X123144274Y-70287298D01*
X123215010Y-70281215D01*
X123277805Y-70314340D01*
X123279241Y-70315997D01*
X123279318Y-70315920D01*
X123359080Y-70395682D01*
X123459587Y-70446893D01*
X123469376Y-70448443D01*
X123469378Y-70448444D01*
X123561207Y-70462988D01*
X123571000Y-70464539D01*
X123580793Y-70462988D01*
X123672622Y-70448444D01*
X123672624Y-70448443D01*
X123682413Y-70446893D01*
X123782920Y-70395682D01*
X123862682Y-70315920D01*
X123905951Y-70231000D01*
X154833461Y-70231000D01*
X154835012Y-70240793D01*
X154846661Y-70314340D01*
X154851107Y-70342413D01*
X154902318Y-70442920D01*
X154982080Y-70522682D01*
X155082587Y-70573893D01*
X155092376Y-70575443D01*
X155092378Y-70575444D01*
X155184207Y-70589988D01*
X155194000Y-70591539D01*
X155203793Y-70589988D01*
X155295622Y-70575444D01*
X155295624Y-70575443D01*
X155305413Y-70573893D01*
X155405920Y-70522682D01*
X155485682Y-70442920D01*
X155536893Y-70342413D01*
X155541340Y-70314340D01*
X155552988Y-70240793D01*
X155554539Y-70231000D01*
X155547874Y-70188920D01*
X155538444Y-70129378D01*
X155538443Y-70129376D01*
X155536893Y-70119587D01*
X155485682Y-70019080D01*
X155405920Y-69939318D01*
X155305413Y-69888107D01*
X155295624Y-69886557D01*
X155295622Y-69886556D01*
X155203793Y-69872012D01*
X155194000Y-69870461D01*
X155184207Y-69872012D01*
X155092378Y-69886556D01*
X155092376Y-69886557D01*
X155082587Y-69888107D01*
X154982080Y-69939318D01*
X154902318Y-70019080D01*
X154851107Y-70119587D01*
X154849557Y-70129376D01*
X154849556Y-70129378D01*
X154840126Y-70188920D01*
X154833461Y-70231000D01*
X123905951Y-70231000D01*
X123913893Y-70215413D01*
X123931539Y-70104000D01*
X123913893Y-69992587D01*
X123862682Y-69892080D01*
X123782920Y-69812318D01*
X123785743Y-69809495D01*
X123754298Y-69768726D01*
X123748215Y-69697990D01*
X123781340Y-69635195D01*
X123782997Y-69633759D01*
X123782920Y-69633682D01*
X123820602Y-69596000D01*
X143403461Y-69596000D01*
X143405012Y-69605793D01*
X143417608Y-69685318D01*
X143421107Y-69707413D01*
X143472318Y-69807920D01*
X143552080Y-69887682D01*
X143652587Y-69938893D01*
X143662376Y-69940443D01*
X143662378Y-69940444D01*
X143754207Y-69954988D01*
X143764000Y-69956539D01*
X143773793Y-69954988D01*
X143865622Y-69940444D01*
X143865624Y-69940443D01*
X143875413Y-69938893D01*
X143975920Y-69887682D01*
X144055682Y-69807920D01*
X144106893Y-69707413D01*
X144110393Y-69685318D01*
X144122988Y-69605793D01*
X144124539Y-69596000D01*
X144118985Y-69560931D01*
X144108444Y-69494378D01*
X144108443Y-69494376D01*
X144106893Y-69484587D01*
X144055682Y-69384080D01*
X143975920Y-69304318D01*
X143875413Y-69253107D01*
X143865624Y-69251557D01*
X143865622Y-69251556D01*
X143773793Y-69237012D01*
X143764000Y-69235461D01*
X143754207Y-69237012D01*
X143662378Y-69251556D01*
X143662376Y-69251557D01*
X143652587Y-69253107D01*
X143552080Y-69304318D01*
X143472318Y-69384080D01*
X143421107Y-69484587D01*
X143419557Y-69494376D01*
X143419556Y-69494378D01*
X143409015Y-69560931D01*
X143403461Y-69596000D01*
X123820602Y-69596000D01*
X123862682Y-69553920D01*
X123913893Y-69453413D01*
X123918340Y-69425340D01*
X123929988Y-69351793D01*
X123931539Y-69342000D01*
X123913893Y-69230587D01*
X123862682Y-69130080D01*
X123782920Y-69050318D01*
X123682413Y-68999107D01*
X123672624Y-68997557D01*
X123672622Y-68997556D01*
X123580793Y-68983012D01*
X123571000Y-68981461D01*
X123561207Y-68983012D01*
X123469378Y-68997556D01*
X123469376Y-68997557D01*
X123459587Y-68999107D01*
X123359080Y-69050318D01*
X123279318Y-69130080D01*
X123276495Y-69127257D01*
X123235726Y-69158702D01*
X123164990Y-69164785D01*
X123102195Y-69131660D01*
X123100759Y-69130003D01*
X123100682Y-69130080D01*
X123020920Y-69050318D01*
X122920413Y-68999107D01*
X122910624Y-68997557D01*
X122910622Y-68997556D01*
X122818793Y-68983012D01*
X122809000Y-68981461D01*
X122799207Y-68983012D01*
X122707378Y-68997556D01*
X122707376Y-68997557D01*
X122697587Y-68999107D01*
X122597080Y-69050318D01*
X122517318Y-69130080D01*
X122466107Y-69230587D01*
X122448461Y-69342000D01*
X122450012Y-69351793D01*
X122461661Y-69425340D01*
X122466107Y-69453413D01*
X122517318Y-69553920D01*
X122597080Y-69633682D01*
X122594257Y-69636505D01*
X122625702Y-69677274D01*
X122631785Y-69748010D01*
X122598660Y-69810805D01*
X122597003Y-69812241D01*
X122597080Y-69812318D01*
X122517318Y-69892080D01*
X122466107Y-69992587D01*
X122448461Y-70104000D01*
X117428951Y-70104000D01*
X117436893Y-70088413D01*
X117446476Y-70027912D01*
X117452988Y-69986793D01*
X117454539Y-69977000D01*
X117448571Y-69939318D01*
X117438444Y-69875378D01*
X117438443Y-69875376D01*
X117436893Y-69865587D01*
X117385682Y-69765080D01*
X117305920Y-69685318D01*
X117308743Y-69682495D01*
X117277298Y-69641726D01*
X117271215Y-69570990D01*
X117304340Y-69508195D01*
X117305997Y-69506759D01*
X117305920Y-69506682D01*
X117385682Y-69426920D01*
X117436893Y-69326413D01*
X117440393Y-69304318D01*
X117452988Y-69224793D01*
X117454539Y-69215000D01*
X117442488Y-69138912D01*
X117438444Y-69113378D01*
X117438443Y-69113376D01*
X117436893Y-69103587D01*
X117385682Y-69003080D01*
X117305920Y-68923318D01*
X117297089Y-68918818D01*
X117297087Y-68918817D01*
X117276796Y-68908478D01*
X117225182Y-68859729D01*
X117208117Y-68790814D01*
X117231019Y-68723613D01*
X117286617Y-68679461D01*
X117314293Y-68671763D01*
X117322620Y-68670444D01*
X117332413Y-68668893D01*
X117432920Y-68617682D01*
X117512682Y-68537920D01*
X117563893Y-68437413D01*
X117581539Y-68326000D01*
X122448461Y-68326000D01*
X122466107Y-68437413D01*
X122517318Y-68537920D01*
X122597080Y-68617682D01*
X122697587Y-68668893D01*
X122707376Y-68670443D01*
X122707378Y-68670444D01*
X122799207Y-68684988D01*
X122809000Y-68686539D01*
X122818793Y-68684988D01*
X122910622Y-68670444D01*
X122910624Y-68670443D01*
X122920413Y-68668893D01*
X123020920Y-68617682D01*
X123100682Y-68537920D01*
X123103505Y-68540743D01*
X123144274Y-68509298D01*
X123215010Y-68503215D01*
X123277805Y-68536340D01*
X123279241Y-68537997D01*
X123279318Y-68537920D01*
X123359080Y-68617682D01*
X123459587Y-68668893D01*
X123469376Y-68670443D01*
X123469378Y-68670444D01*
X123561207Y-68684988D01*
X123571000Y-68686539D01*
X123580793Y-68684988D01*
X123672622Y-68670444D01*
X123672624Y-68670443D01*
X123682413Y-68668893D01*
X123782920Y-68617682D01*
X123862682Y-68537920D01*
X123913893Y-68437413D01*
X123931539Y-68326000D01*
X123925749Y-68289444D01*
X123915444Y-68224378D01*
X123915443Y-68224376D01*
X123913893Y-68214587D01*
X123862682Y-68114080D01*
X123782920Y-68034318D01*
X123785743Y-68031495D01*
X123754298Y-67990726D01*
X123748215Y-67919990D01*
X123781340Y-67857195D01*
X123782997Y-67855759D01*
X123782920Y-67855682D01*
X123862682Y-67775920D01*
X123905951Y-67691000D01*
X131465461Y-67691000D01*
X131467012Y-67700793D01*
X131478661Y-67774340D01*
X131483107Y-67802413D01*
X131534318Y-67902920D01*
X131614080Y-67982682D01*
X131714587Y-68033893D01*
X131724376Y-68035443D01*
X131724378Y-68035444D01*
X131816207Y-68049988D01*
X131826000Y-68051539D01*
X131835793Y-68049988D01*
X131927622Y-68035444D01*
X131927624Y-68035443D01*
X131937413Y-68033893D01*
X132037920Y-67982682D01*
X132117682Y-67902920D01*
X132168893Y-67802413D01*
X132173340Y-67774340D01*
X132184988Y-67700793D01*
X132186539Y-67691000D01*
X132481461Y-67691000D01*
X132483012Y-67700793D01*
X132494661Y-67774340D01*
X132499107Y-67802413D01*
X132550318Y-67902920D01*
X132630080Y-67982682D01*
X132730587Y-68033893D01*
X132740376Y-68035443D01*
X132740378Y-68035444D01*
X132832207Y-68049988D01*
X132842000Y-68051539D01*
X132851793Y-68049988D01*
X132943622Y-68035444D01*
X132943624Y-68035443D01*
X132953413Y-68033893D01*
X133053920Y-67982682D01*
X133133682Y-67902920D01*
X133184893Y-67802413D01*
X133189340Y-67774340D01*
X133200988Y-67700793D01*
X133202539Y-67691000D01*
X133624461Y-67691000D01*
X133626012Y-67700793D01*
X133637661Y-67774340D01*
X133642107Y-67802413D01*
X133693318Y-67902920D01*
X133773080Y-67982682D01*
X133873587Y-68033893D01*
X133883376Y-68035443D01*
X133883378Y-68035444D01*
X133975207Y-68049988D01*
X133985000Y-68051539D01*
X133994793Y-68049988D01*
X134086622Y-68035444D01*
X134086624Y-68035443D01*
X134096413Y-68033893D01*
X134196920Y-67982682D01*
X134276682Y-67902920D01*
X134327893Y-67802413D01*
X134332340Y-67774340D01*
X134343988Y-67700793D01*
X134345539Y-67691000D01*
X134640461Y-67691000D01*
X134642012Y-67700793D01*
X134653661Y-67774340D01*
X134658107Y-67802413D01*
X134709318Y-67902920D01*
X134789080Y-67982682D01*
X134889587Y-68033893D01*
X134899376Y-68035443D01*
X134899378Y-68035444D01*
X134991207Y-68049988D01*
X135001000Y-68051539D01*
X135010793Y-68049988D01*
X135102622Y-68035444D01*
X135102624Y-68035443D01*
X135112413Y-68033893D01*
X135212920Y-67982682D01*
X135292682Y-67902920D01*
X135335951Y-67818000D01*
X143403461Y-67818000D01*
X143421107Y-67929413D01*
X143472318Y-68029920D01*
X143552080Y-68109682D01*
X143652587Y-68160893D01*
X143662376Y-68162443D01*
X143662378Y-68162444D01*
X143754207Y-68176988D01*
X143764000Y-68178539D01*
X143773793Y-68176988D01*
X143865622Y-68162444D01*
X143865624Y-68162443D01*
X143875413Y-68160893D01*
X143975920Y-68109682D01*
X144055682Y-68029920D01*
X144098951Y-67945000D01*
X154833461Y-67945000D01*
X154835012Y-67954793D01*
X154847608Y-68034318D01*
X154851107Y-68056413D01*
X154902318Y-68156920D01*
X154982080Y-68236682D01*
X155082587Y-68287893D01*
X155092376Y-68289443D01*
X155092378Y-68289444D01*
X155184207Y-68303988D01*
X155194000Y-68305539D01*
X155203793Y-68303988D01*
X155295622Y-68289444D01*
X155295624Y-68289443D01*
X155305413Y-68287893D01*
X155405920Y-68236682D01*
X155485682Y-68156920D01*
X155536893Y-68056413D01*
X155540393Y-68034318D01*
X155552988Y-67954793D01*
X155554539Y-67945000D01*
X155548985Y-67909931D01*
X155538444Y-67843378D01*
X155538443Y-67843376D01*
X155536893Y-67833587D01*
X155485682Y-67733080D01*
X155405920Y-67653318D01*
X155305413Y-67602107D01*
X155295624Y-67600557D01*
X155295622Y-67600556D01*
X155203793Y-67586012D01*
X155194000Y-67584461D01*
X155184207Y-67586012D01*
X155092378Y-67600556D01*
X155092376Y-67600557D01*
X155082587Y-67602107D01*
X154982080Y-67653318D01*
X154902318Y-67733080D01*
X154851107Y-67833587D01*
X154849557Y-67843376D01*
X154849556Y-67843378D01*
X154839015Y-67909931D01*
X154833461Y-67945000D01*
X144098951Y-67945000D01*
X144106893Y-67929413D01*
X144124539Y-67818000D01*
X144118321Y-67778743D01*
X144108444Y-67716378D01*
X144108443Y-67716376D01*
X144106893Y-67706587D01*
X144055682Y-67606080D01*
X143975920Y-67526318D01*
X143875413Y-67475107D01*
X143865624Y-67473557D01*
X143865622Y-67473556D01*
X143773793Y-67459012D01*
X143764000Y-67457461D01*
X143754207Y-67459012D01*
X143662378Y-67473556D01*
X143662376Y-67473557D01*
X143652587Y-67475107D01*
X143552080Y-67526318D01*
X143472318Y-67606080D01*
X143421107Y-67706587D01*
X143419557Y-67716376D01*
X143419556Y-67716378D01*
X143409679Y-67778743D01*
X143403461Y-67818000D01*
X135335951Y-67818000D01*
X135343893Y-67802413D01*
X135348340Y-67774340D01*
X135359988Y-67700793D01*
X135361539Y-67691000D01*
X135343893Y-67579587D01*
X135292682Y-67479080D01*
X135212920Y-67399318D01*
X135112413Y-67348107D01*
X135102624Y-67346557D01*
X135102622Y-67346556D01*
X135010793Y-67332012D01*
X135001000Y-67330461D01*
X134991207Y-67332012D01*
X134899378Y-67346556D01*
X134899376Y-67346557D01*
X134889587Y-67348107D01*
X134789080Y-67399318D01*
X134709318Y-67479080D01*
X134658107Y-67579587D01*
X134640461Y-67691000D01*
X134345539Y-67691000D01*
X134327893Y-67579587D01*
X134276682Y-67479080D01*
X134196920Y-67399318D01*
X134096413Y-67348107D01*
X134086624Y-67346557D01*
X134086622Y-67346556D01*
X133994793Y-67332012D01*
X133985000Y-67330461D01*
X133975207Y-67332012D01*
X133883378Y-67346556D01*
X133883376Y-67346557D01*
X133873587Y-67348107D01*
X133773080Y-67399318D01*
X133693318Y-67479080D01*
X133642107Y-67579587D01*
X133624461Y-67691000D01*
X133202539Y-67691000D01*
X133184893Y-67579587D01*
X133133682Y-67479080D01*
X133053920Y-67399318D01*
X132953413Y-67348107D01*
X132943624Y-67346557D01*
X132943622Y-67346556D01*
X132851793Y-67332012D01*
X132842000Y-67330461D01*
X132832207Y-67332012D01*
X132740378Y-67346556D01*
X132740376Y-67346557D01*
X132730587Y-67348107D01*
X132630080Y-67399318D01*
X132550318Y-67479080D01*
X132499107Y-67579587D01*
X132481461Y-67691000D01*
X132186539Y-67691000D01*
X132168893Y-67579587D01*
X132117682Y-67479080D01*
X132037920Y-67399318D01*
X131937413Y-67348107D01*
X131927624Y-67346557D01*
X131927622Y-67346556D01*
X131835793Y-67332012D01*
X131826000Y-67330461D01*
X131816207Y-67332012D01*
X131724378Y-67346556D01*
X131724376Y-67346557D01*
X131714587Y-67348107D01*
X131614080Y-67399318D01*
X131534318Y-67479080D01*
X131483107Y-67579587D01*
X131465461Y-67691000D01*
X123905951Y-67691000D01*
X123913893Y-67675413D01*
X123917393Y-67653318D01*
X123929988Y-67573793D01*
X123931539Y-67564000D01*
X123925571Y-67526318D01*
X123915444Y-67462378D01*
X123915443Y-67462376D01*
X123913893Y-67452587D01*
X123862682Y-67352080D01*
X123782920Y-67272318D01*
X123682413Y-67221107D01*
X123672624Y-67219557D01*
X123672622Y-67219556D01*
X123580793Y-67205012D01*
X123571000Y-67203461D01*
X123561207Y-67205012D01*
X123469378Y-67219556D01*
X123469376Y-67219557D01*
X123459587Y-67221107D01*
X123359080Y-67272318D01*
X123279318Y-67352080D01*
X123276495Y-67349257D01*
X123235726Y-67380702D01*
X123164990Y-67386785D01*
X123102195Y-67353660D01*
X123100759Y-67352003D01*
X123100682Y-67352080D01*
X123020920Y-67272318D01*
X122920413Y-67221107D01*
X122910624Y-67219557D01*
X122910622Y-67219556D01*
X122818793Y-67205012D01*
X122809000Y-67203461D01*
X122799207Y-67205012D01*
X122707378Y-67219556D01*
X122707376Y-67219557D01*
X122697587Y-67221107D01*
X122597080Y-67272318D01*
X122517318Y-67352080D01*
X122466107Y-67452587D01*
X122464557Y-67462376D01*
X122464556Y-67462378D01*
X122454429Y-67526318D01*
X122448461Y-67564000D01*
X122450012Y-67573793D01*
X122462608Y-67653318D01*
X122466107Y-67675413D01*
X122517318Y-67775920D01*
X122597080Y-67855682D01*
X122594257Y-67858505D01*
X122625702Y-67899274D01*
X122631785Y-67970010D01*
X122598660Y-68032805D01*
X122597003Y-68034241D01*
X122597080Y-68034318D01*
X122517318Y-68114080D01*
X122466107Y-68214587D01*
X122464557Y-68224376D01*
X122464556Y-68224378D01*
X122454251Y-68289444D01*
X122448461Y-68326000D01*
X117581539Y-68326000D01*
X117575749Y-68289444D01*
X117565444Y-68224378D01*
X117565443Y-68224376D01*
X117563893Y-68214587D01*
X117512682Y-68114080D01*
X117432920Y-68034318D01*
X117435743Y-68031495D01*
X117404298Y-67990726D01*
X117398215Y-67919990D01*
X117431340Y-67857195D01*
X117432997Y-67855759D01*
X117432920Y-67855682D01*
X117512682Y-67775920D01*
X117563893Y-67675413D01*
X117567393Y-67653318D01*
X117579988Y-67573793D01*
X117581539Y-67564000D01*
X117575571Y-67526318D01*
X117565444Y-67462378D01*
X117565443Y-67462376D01*
X117563893Y-67452587D01*
X117512682Y-67352080D01*
X117432920Y-67272318D01*
X117332413Y-67221107D01*
X117322624Y-67219557D01*
X117322622Y-67219556D01*
X117230793Y-67205012D01*
X117221000Y-67203461D01*
X117211207Y-67205012D01*
X117119378Y-67219556D01*
X117119376Y-67219557D01*
X117109587Y-67221107D01*
X117009080Y-67272318D01*
X116929318Y-67352080D01*
X116926495Y-67349257D01*
X116885726Y-67380702D01*
X116814990Y-67386785D01*
X116752195Y-67353660D01*
X116750759Y-67352003D01*
X116750682Y-67352080D01*
X116670920Y-67272318D01*
X116570413Y-67221107D01*
X116560624Y-67219557D01*
X116560622Y-67219556D01*
X116468793Y-67205012D01*
X116459000Y-67203461D01*
X116449207Y-67205012D01*
X116357378Y-67219556D01*
X116357376Y-67219557D01*
X116347587Y-67221107D01*
X116247080Y-67272318D01*
X116167318Y-67352080D01*
X116116107Y-67452587D01*
X116114557Y-67462376D01*
X116114556Y-67462378D01*
X116104429Y-67526318D01*
X116098461Y-67564000D01*
X116100012Y-67573793D01*
X116112608Y-67653318D01*
X116116107Y-67675413D01*
X116167318Y-67775920D01*
X116247080Y-67855682D01*
X116244257Y-67858505D01*
X116275702Y-67899274D01*
X116281785Y-67970010D01*
X116248660Y-68032805D01*
X116247003Y-68034241D01*
X116247080Y-68034318D01*
X116167318Y-68114080D01*
X116116107Y-68214587D01*
X116114557Y-68224376D01*
X116114556Y-68224378D01*
X116104251Y-68289444D01*
X116098461Y-68326000D01*
X116116107Y-68437413D01*
X116167318Y-68537920D01*
X116247080Y-68617682D01*
X116255913Y-68622182D01*
X116255912Y-68622182D01*
X116326666Y-68658233D01*
X116378281Y-68706981D01*
X116395347Y-68775896D01*
X116372446Y-68843098D01*
X116326667Y-68882767D01*
X116247080Y-68923318D01*
X116167318Y-69003080D01*
X116116107Y-69103587D01*
X116114557Y-69113376D01*
X116114556Y-69113378D01*
X116110512Y-69138912D01*
X116098461Y-69215000D01*
X116100012Y-69224793D01*
X116112608Y-69304318D01*
X116116107Y-69326413D01*
X116167318Y-69426920D01*
X116247080Y-69506682D01*
X116244257Y-69509505D01*
X116275702Y-69550274D01*
X116281785Y-69621010D01*
X116248660Y-69683805D01*
X116247003Y-69685241D01*
X116247080Y-69685318D01*
X116167318Y-69765080D01*
X116116107Y-69865587D01*
X116114557Y-69875376D01*
X116114556Y-69875378D01*
X116104429Y-69939318D01*
X116098461Y-69977000D01*
X111078951Y-69977000D01*
X111035682Y-69892080D01*
X110955920Y-69812318D01*
X110876334Y-69771767D01*
X110824719Y-69723019D01*
X110807653Y-69654104D01*
X110830554Y-69586902D01*
X110876334Y-69547233D01*
X110931323Y-69519215D01*
X110955920Y-69506682D01*
X111035682Y-69426920D01*
X111086893Y-69326413D01*
X111090393Y-69304318D01*
X111102988Y-69224793D01*
X111104539Y-69215000D01*
X111092488Y-69138912D01*
X111088444Y-69113378D01*
X111088443Y-69113376D01*
X111086893Y-69103587D01*
X111035682Y-69003080D01*
X110955920Y-68923318D01*
X110876334Y-68882767D01*
X110824719Y-68834019D01*
X110807653Y-68765104D01*
X110830554Y-68697902D01*
X110876334Y-68658233D01*
X110947088Y-68622182D01*
X110947087Y-68622182D01*
X110955920Y-68617682D01*
X111035682Y-68537920D01*
X111086893Y-68437413D01*
X111104539Y-68326000D01*
X111098749Y-68289444D01*
X111088444Y-68224378D01*
X111088443Y-68224376D01*
X111086893Y-68214587D01*
X111035682Y-68114080D01*
X110955920Y-68034318D01*
X110958743Y-68031495D01*
X110927298Y-67990726D01*
X110921215Y-67919990D01*
X110954340Y-67857195D01*
X110955997Y-67855759D01*
X110955920Y-67855682D01*
X111035682Y-67775920D01*
X111086893Y-67675413D01*
X111090393Y-67653318D01*
X111102988Y-67573793D01*
X111104539Y-67564000D01*
X111098571Y-67526318D01*
X111088444Y-67462378D01*
X111088443Y-67462376D01*
X111086893Y-67452587D01*
X111035682Y-67352080D01*
X110955920Y-67272318D01*
X110855413Y-67221107D01*
X110845624Y-67219557D01*
X110845622Y-67219556D01*
X110753793Y-67205012D01*
X110744000Y-67203461D01*
X110734207Y-67205012D01*
X110642378Y-67219556D01*
X110642376Y-67219557D01*
X110632587Y-67221107D01*
X110532080Y-67272318D01*
X110452318Y-67352080D01*
X110449495Y-67349257D01*
X110408726Y-67380702D01*
X110337990Y-67386785D01*
X110275195Y-67353660D01*
X110273759Y-67352003D01*
X110273682Y-67352080D01*
X110193920Y-67272318D01*
X110093413Y-67221107D01*
X110083624Y-67219557D01*
X110083622Y-67219556D01*
X109991793Y-67205012D01*
X109982000Y-67203461D01*
X109972207Y-67205012D01*
X109880378Y-67219556D01*
X109880376Y-67219557D01*
X109870587Y-67221107D01*
X109770080Y-67272318D01*
X109690318Y-67352080D01*
X109639107Y-67452587D01*
X109637557Y-67462376D01*
X109637556Y-67462378D01*
X109627429Y-67526318D01*
X109621461Y-67564000D01*
X109623012Y-67573793D01*
X109635608Y-67653318D01*
X109639107Y-67675413D01*
X109690318Y-67775920D01*
X109770080Y-67855682D01*
X109767257Y-67858505D01*
X109798702Y-67899274D01*
X109804785Y-67970010D01*
X109771660Y-68032805D01*
X109770003Y-68034241D01*
X109770080Y-68034318D01*
X109690318Y-68114080D01*
X109639107Y-68214587D01*
X109637557Y-68224376D01*
X109637556Y-68224378D01*
X109627251Y-68289444D01*
X109621461Y-68326000D01*
X109639107Y-68437413D01*
X109690318Y-68537920D01*
X109770080Y-68617682D01*
X109778913Y-68622182D01*
X109778912Y-68622182D01*
X109849666Y-68658233D01*
X109901281Y-68706981D01*
X109918347Y-68775896D01*
X109895446Y-68843098D01*
X109849667Y-68882767D01*
X109770080Y-68923318D01*
X109690318Y-69003080D01*
X109639107Y-69103587D01*
X109637557Y-69113376D01*
X109637556Y-69113378D01*
X109633512Y-69138912D01*
X109621461Y-69215000D01*
X109623012Y-69224793D01*
X109635608Y-69304318D01*
X109639107Y-69326413D01*
X109690318Y-69426920D01*
X109770080Y-69506682D01*
X109794678Y-69519215D01*
X109849666Y-69547233D01*
X109901281Y-69595981D01*
X109918347Y-69664896D01*
X109895446Y-69732098D01*
X109849667Y-69771767D01*
X109770080Y-69812318D01*
X109690318Y-69892080D01*
X109639107Y-69992587D01*
X109621461Y-70104000D01*
X89408000Y-70104000D01*
X89408000Y-67183000D01*
X114955461Y-67183000D01*
X114957012Y-67192793D01*
X114969608Y-67272318D01*
X114973107Y-67294413D01*
X115024318Y-67394920D01*
X115104080Y-67474682D01*
X115204587Y-67525893D01*
X115214376Y-67527443D01*
X115214378Y-67527444D01*
X115306207Y-67541988D01*
X115316000Y-67543539D01*
X115325793Y-67541988D01*
X115417622Y-67527444D01*
X115417624Y-67527443D01*
X115427413Y-67525893D01*
X115527920Y-67474682D01*
X115607682Y-67394920D01*
X115658893Y-67294413D01*
X115662393Y-67272318D01*
X115674988Y-67192793D01*
X115676539Y-67183000D01*
X121305461Y-67183000D01*
X121307012Y-67192793D01*
X121319608Y-67272318D01*
X121323107Y-67294413D01*
X121374318Y-67394920D01*
X121454080Y-67474682D01*
X121554587Y-67525893D01*
X121564376Y-67527443D01*
X121564378Y-67527444D01*
X121656207Y-67541988D01*
X121666000Y-67543539D01*
X121675793Y-67541988D01*
X121767622Y-67527444D01*
X121767624Y-67527443D01*
X121777413Y-67525893D01*
X121877920Y-67474682D01*
X121957682Y-67394920D01*
X122008893Y-67294413D01*
X122012393Y-67272318D01*
X122024988Y-67192793D01*
X122026539Y-67183000D01*
X127655461Y-67183000D01*
X127657012Y-67192793D01*
X127669608Y-67272318D01*
X127673107Y-67294413D01*
X127724318Y-67394920D01*
X127804080Y-67474682D01*
X127904587Y-67525893D01*
X127914376Y-67527443D01*
X127914378Y-67527444D01*
X128006207Y-67541988D01*
X128016000Y-67543539D01*
X128025793Y-67541988D01*
X128117622Y-67527444D01*
X128117624Y-67527443D01*
X128127413Y-67525893D01*
X128227920Y-67474682D01*
X128307682Y-67394920D01*
X128358893Y-67294413D01*
X128362393Y-67272318D01*
X128374988Y-67192793D01*
X128376539Y-67183000D01*
X128369874Y-67140920D01*
X128360444Y-67081378D01*
X128360443Y-67081376D01*
X128358893Y-67071587D01*
X128307682Y-66971080D01*
X128265602Y-66929000D01*
X154833461Y-66929000D01*
X154835012Y-66938793D01*
X154841525Y-66979912D01*
X154851107Y-67040413D01*
X154902318Y-67140920D01*
X154982080Y-67220682D01*
X155082587Y-67271893D01*
X155092376Y-67273443D01*
X155092378Y-67273444D01*
X155184207Y-67287988D01*
X155194000Y-67289539D01*
X155203793Y-67287988D01*
X155295622Y-67273444D01*
X155295624Y-67273443D01*
X155305413Y-67271893D01*
X155405920Y-67220682D01*
X155485682Y-67140920D01*
X155536893Y-67040413D01*
X155546476Y-66979912D01*
X155552988Y-66938793D01*
X155554539Y-66929000D01*
X155536893Y-66817587D01*
X155485682Y-66717080D01*
X155405920Y-66637318D01*
X155305413Y-66586107D01*
X155295624Y-66584557D01*
X155295622Y-66584556D01*
X155203793Y-66570012D01*
X155194000Y-66568461D01*
X155184207Y-66570012D01*
X155092378Y-66584556D01*
X155092376Y-66584557D01*
X155082587Y-66586107D01*
X154982080Y-66637318D01*
X154902318Y-66717080D01*
X154851107Y-66817587D01*
X154833461Y-66929000D01*
X128265602Y-66929000D01*
X128227920Y-66891318D01*
X128127413Y-66840107D01*
X128117624Y-66838557D01*
X128117622Y-66838556D01*
X128025793Y-66824012D01*
X128016000Y-66822461D01*
X128006207Y-66824012D01*
X127914378Y-66838556D01*
X127914376Y-66838557D01*
X127904587Y-66840107D01*
X127804080Y-66891318D01*
X127724318Y-66971080D01*
X127673107Y-67071587D01*
X127671557Y-67081376D01*
X127671556Y-67081378D01*
X127662126Y-67140920D01*
X127655461Y-67183000D01*
X122026539Y-67183000D01*
X122019874Y-67140920D01*
X122010444Y-67081378D01*
X122010443Y-67081376D01*
X122008893Y-67071587D01*
X121957682Y-66971080D01*
X121877920Y-66891318D01*
X121777413Y-66840107D01*
X121767624Y-66838557D01*
X121767622Y-66838556D01*
X121675793Y-66824012D01*
X121666000Y-66822461D01*
X121656207Y-66824012D01*
X121564378Y-66838556D01*
X121564376Y-66838557D01*
X121554587Y-66840107D01*
X121454080Y-66891318D01*
X121374318Y-66971080D01*
X121323107Y-67071587D01*
X121321557Y-67081376D01*
X121321556Y-67081378D01*
X121312126Y-67140920D01*
X121305461Y-67183000D01*
X115676539Y-67183000D01*
X115669874Y-67140920D01*
X115660444Y-67081378D01*
X115660443Y-67081376D01*
X115658893Y-67071587D01*
X115607682Y-66971080D01*
X115527920Y-66891318D01*
X115427413Y-66840107D01*
X115417624Y-66838557D01*
X115417622Y-66838556D01*
X115325793Y-66824012D01*
X115316000Y-66822461D01*
X115306207Y-66824012D01*
X115214378Y-66838556D01*
X115214376Y-66838557D01*
X115204587Y-66840107D01*
X115104080Y-66891318D01*
X115024318Y-66971080D01*
X114973107Y-67071587D01*
X114971557Y-67081376D01*
X114971556Y-67081378D01*
X114962126Y-67140920D01*
X114955461Y-67183000D01*
X89408000Y-67183000D01*
X89408000Y-66294000D01*
X125877461Y-66294000D01*
X125895107Y-66405413D01*
X125946318Y-66505920D01*
X126026080Y-66585682D01*
X126126587Y-66636893D01*
X126136376Y-66638443D01*
X126136378Y-66638444D01*
X126228207Y-66652988D01*
X126238000Y-66654539D01*
X126247793Y-66652988D01*
X126339622Y-66638444D01*
X126339624Y-66638443D01*
X126349413Y-66636893D01*
X126449920Y-66585682D01*
X126529682Y-66505920D01*
X126580893Y-66405413D01*
X126598539Y-66294000D01*
X126591874Y-66251920D01*
X126582444Y-66192378D01*
X126582443Y-66192376D01*
X126580893Y-66182587D01*
X126529682Y-66082080D01*
X126487602Y-66040000D01*
X143403461Y-66040000D01*
X143405012Y-66049793D01*
X143411525Y-66090912D01*
X143421107Y-66151413D01*
X143472318Y-66251920D01*
X143552080Y-66331682D01*
X143652587Y-66382893D01*
X143662376Y-66384443D01*
X143662378Y-66384444D01*
X143754207Y-66398988D01*
X143764000Y-66400539D01*
X143773793Y-66398988D01*
X143865622Y-66384444D01*
X143865624Y-66384443D01*
X143875413Y-66382893D01*
X143975920Y-66331682D01*
X144055682Y-66251920D01*
X144106893Y-66151413D01*
X144116476Y-66090912D01*
X144122988Y-66049793D01*
X144124539Y-66040000D01*
X144117858Y-65997818D01*
X144108444Y-65938378D01*
X144108443Y-65938376D01*
X144106893Y-65928587D01*
X144055682Y-65828080D01*
X144013602Y-65786000D01*
X154833461Y-65786000D01*
X154835012Y-65795793D01*
X154841525Y-65836912D01*
X154851107Y-65897413D01*
X154902318Y-65997920D01*
X154982080Y-66077682D01*
X155082587Y-66128893D01*
X155092376Y-66130443D01*
X155092378Y-66130444D01*
X155184207Y-66144988D01*
X155194000Y-66146539D01*
X155203793Y-66144988D01*
X155295622Y-66130444D01*
X155295624Y-66130443D01*
X155305413Y-66128893D01*
X155405920Y-66077682D01*
X155485682Y-65997920D01*
X155536893Y-65897413D01*
X155546476Y-65836912D01*
X155552988Y-65795793D01*
X155554539Y-65786000D01*
X155536893Y-65674587D01*
X155485682Y-65574080D01*
X155405920Y-65494318D01*
X155305413Y-65443107D01*
X155295624Y-65441557D01*
X155295622Y-65441556D01*
X155203793Y-65427012D01*
X155194000Y-65425461D01*
X155184207Y-65427012D01*
X155092378Y-65441556D01*
X155092376Y-65441557D01*
X155082587Y-65443107D01*
X154982080Y-65494318D01*
X154902318Y-65574080D01*
X154851107Y-65674587D01*
X154833461Y-65786000D01*
X144013602Y-65786000D01*
X143975920Y-65748318D01*
X143875413Y-65697107D01*
X143865624Y-65695557D01*
X143865622Y-65695556D01*
X143773793Y-65681012D01*
X143764000Y-65679461D01*
X143754207Y-65681012D01*
X143662378Y-65695556D01*
X143662376Y-65695557D01*
X143652587Y-65697107D01*
X143552080Y-65748318D01*
X143472318Y-65828080D01*
X143421107Y-65928587D01*
X143419557Y-65938376D01*
X143419556Y-65938378D01*
X143410142Y-65997818D01*
X143403461Y-66040000D01*
X126487602Y-66040000D01*
X126449920Y-66002318D01*
X126349413Y-65951107D01*
X126339624Y-65949557D01*
X126339622Y-65949556D01*
X126247793Y-65935012D01*
X126238000Y-65933461D01*
X126228207Y-65935012D01*
X126136378Y-65949556D01*
X126136376Y-65949557D01*
X126126587Y-65951107D01*
X126026080Y-66002318D01*
X125946318Y-66082080D01*
X125895107Y-66182587D01*
X125893557Y-66192376D01*
X125893556Y-66192378D01*
X125884126Y-66251920D01*
X125877461Y-66294000D01*
X89408000Y-66294000D01*
X89408000Y-65786000D01*
X112161461Y-65786000D01*
X112163012Y-65795793D01*
X112169525Y-65836912D01*
X112179107Y-65897413D01*
X112230318Y-65997920D01*
X112310080Y-66077682D01*
X112410587Y-66128893D01*
X112420376Y-66130443D01*
X112420378Y-66130444D01*
X112512207Y-66144988D01*
X112522000Y-66146539D01*
X112531793Y-66144988D01*
X112623622Y-66130444D01*
X112623624Y-66130443D01*
X112633413Y-66128893D01*
X112733920Y-66077682D01*
X112813682Y-65997920D01*
X112864893Y-65897413D01*
X112874476Y-65836912D01*
X112880988Y-65795793D01*
X112882539Y-65786000D01*
X112864893Y-65674587D01*
X112813682Y-65574080D01*
X112733920Y-65494318D01*
X112633413Y-65443107D01*
X112623624Y-65441557D01*
X112623622Y-65441556D01*
X112531793Y-65427012D01*
X112522000Y-65425461D01*
X112512207Y-65427012D01*
X112420378Y-65441556D01*
X112420376Y-65441557D01*
X112410587Y-65443107D01*
X112310080Y-65494318D01*
X112230318Y-65574080D01*
X112179107Y-65674587D01*
X112161461Y-65786000D01*
X89408000Y-65786000D01*
X89408000Y-65278000D01*
X100731461Y-65278000D01*
X100749107Y-65389413D01*
X100800318Y-65489920D01*
X100880080Y-65569682D01*
X100980587Y-65620893D01*
X100990376Y-65622443D01*
X100990378Y-65622444D01*
X101082207Y-65636988D01*
X101092000Y-65638539D01*
X101101793Y-65636988D01*
X101193622Y-65622444D01*
X101193624Y-65622443D01*
X101203413Y-65620893D01*
X101303920Y-65569682D01*
X101383682Y-65489920D01*
X101434893Y-65389413D01*
X101452539Y-65278000D01*
X102128461Y-65278000D01*
X102146107Y-65389413D01*
X102197318Y-65489920D01*
X102277080Y-65569682D01*
X102377587Y-65620893D01*
X102387376Y-65622443D01*
X102387378Y-65622444D01*
X102479207Y-65636988D01*
X102489000Y-65638539D01*
X102498793Y-65636988D01*
X102590622Y-65622444D01*
X102590624Y-65622443D01*
X102600413Y-65620893D01*
X102700920Y-65569682D01*
X102780682Y-65489920D01*
X102831893Y-65389413D01*
X102849539Y-65278000D01*
X102831893Y-65166587D01*
X102780682Y-65066080D01*
X102700920Y-64986318D01*
X102600413Y-64935107D01*
X102590624Y-64933557D01*
X102590622Y-64933556D01*
X102498793Y-64919012D01*
X102489000Y-64917461D01*
X102479207Y-64919012D01*
X102387378Y-64933556D01*
X102387376Y-64933557D01*
X102377587Y-64935107D01*
X102277080Y-64986318D01*
X102197318Y-65066080D01*
X102146107Y-65166587D01*
X102128461Y-65278000D01*
X101452539Y-65278000D01*
X101434893Y-65166587D01*
X101383682Y-65066080D01*
X101303920Y-64986318D01*
X101203413Y-64935107D01*
X101193624Y-64933557D01*
X101193622Y-64933556D01*
X101101793Y-64919012D01*
X101092000Y-64917461D01*
X101082207Y-64919012D01*
X100990378Y-64933556D01*
X100990376Y-64933557D01*
X100980587Y-64935107D01*
X100880080Y-64986318D01*
X100800318Y-65066080D01*
X100749107Y-65166587D01*
X100731461Y-65278000D01*
X89408000Y-65278000D01*
X89408000Y-64858900D01*
X113431461Y-64858900D01*
X113433012Y-64868693D01*
X113443464Y-64934682D01*
X113449107Y-64970313D01*
X113500318Y-65070820D01*
X113580080Y-65150582D01*
X113680587Y-65201793D01*
X113690376Y-65203343D01*
X113690378Y-65203344D01*
X113782207Y-65217888D01*
X113792000Y-65219439D01*
X113801793Y-65217888D01*
X113893622Y-65203344D01*
X113893624Y-65203343D01*
X113903413Y-65201793D01*
X114003920Y-65150582D01*
X114083682Y-65070820D01*
X114134893Y-64970313D01*
X114140537Y-64934682D01*
X114150988Y-64868693D01*
X114152539Y-64858900D01*
X114134893Y-64747487D01*
X114083682Y-64646980D01*
X114079702Y-64643000D01*
X154833461Y-64643000D01*
X154851107Y-64754413D01*
X154902318Y-64854920D01*
X154982080Y-64934682D01*
X155082587Y-64985893D01*
X155092376Y-64987443D01*
X155092378Y-64987444D01*
X155184207Y-65001988D01*
X155194000Y-65003539D01*
X155203793Y-65001988D01*
X155295622Y-64987444D01*
X155295624Y-64987443D01*
X155305413Y-64985893D01*
X155405920Y-64934682D01*
X155485682Y-64854920D01*
X155536893Y-64754413D01*
X155554539Y-64643000D01*
X155548749Y-64606444D01*
X155538444Y-64541378D01*
X155538443Y-64541376D01*
X155536893Y-64531587D01*
X155485682Y-64431080D01*
X155405920Y-64351318D01*
X155305413Y-64300107D01*
X155295624Y-64298557D01*
X155295622Y-64298556D01*
X155203793Y-64284012D01*
X155194000Y-64282461D01*
X155184207Y-64284012D01*
X155092378Y-64298556D01*
X155092376Y-64298557D01*
X155082587Y-64300107D01*
X154982080Y-64351318D01*
X154902318Y-64431080D01*
X154851107Y-64531587D01*
X154849557Y-64541376D01*
X154849556Y-64541378D01*
X154839251Y-64606444D01*
X154833461Y-64643000D01*
X114079702Y-64643000D01*
X114003920Y-64567218D01*
X113903413Y-64516007D01*
X113893624Y-64514457D01*
X113893622Y-64514456D01*
X113801793Y-64499912D01*
X113792000Y-64498361D01*
X113782207Y-64499912D01*
X113690378Y-64514456D01*
X113690376Y-64514457D01*
X113680587Y-64516007D01*
X113580080Y-64567218D01*
X113500318Y-64646980D01*
X113449107Y-64747487D01*
X113431461Y-64858900D01*
X89408000Y-64858900D01*
X89408000Y-64008000D01*
X100731461Y-64008000D01*
X100733012Y-64017793D01*
X100739525Y-64058912D01*
X100749107Y-64119413D01*
X100800318Y-64219920D01*
X100880080Y-64299682D01*
X100980587Y-64350893D01*
X100990376Y-64352443D01*
X100990378Y-64352444D01*
X101082207Y-64366988D01*
X101092000Y-64368539D01*
X101101793Y-64366988D01*
X101193622Y-64352444D01*
X101193624Y-64352443D01*
X101203413Y-64350893D01*
X101303920Y-64299682D01*
X101383682Y-64219920D01*
X101434893Y-64119413D01*
X101444476Y-64058912D01*
X101450988Y-64017793D01*
X101452539Y-64008000D01*
X102128461Y-64008000D01*
X102130012Y-64017793D01*
X102136525Y-64058912D01*
X102146107Y-64119413D01*
X102197318Y-64219920D01*
X102277080Y-64299682D01*
X102377587Y-64350893D01*
X102387376Y-64352443D01*
X102387378Y-64352444D01*
X102479207Y-64366988D01*
X102489000Y-64368539D01*
X102498793Y-64366988D01*
X102590622Y-64352444D01*
X102590624Y-64352443D01*
X102600413Y-64350893D01*
X102700920Y-64299682D01*
X102738602Y-64262000D01*
X143403461Y-64262000D01*
X143405012Y-64271793D01*
X143417608Y-64351318D01*
X143421107Y-64373413D01*
X143472318Y-64473920D01*
X143552080Y-64553682D01*
X143652587Y-64604893D01*
X143662376Y-64606443D01*
X143662378Y-64606444D01*
X143754207Y-64620988D01*
X143764000Y-64622539D01*
X143773793Y-64620988D01*
X143865622Y-64606444D01*
X143865624Y-64606443D01*
X143875413Y-64604893D01*
X143975920Y-64553682D01*
X144055682Y-64473920D01*
X144106893Y-64373413D01*
X144110393Y-64351318D01*
X144122988Y-64271793D01*
X144124539Y-64262000D01*
X144117874Y-64219920D01*
X144108444Y-64160378D01*
X144108443Y-64160376D01*
X144106893Y-64150587D01*
X144055682Y-64050080D01*
X143975920Y-63970318D01*
X143875413Y-63919107D01*
X143865624Y-63917557D01*
X143865622Y-63917556D01*
X143773793Y-63903012D01*
X143764000Y-63901461D01*
X143754207Y-63903012D01*
X143662378Y-63917556D01*
X143662376Y-63917557D01*
X143652587Y-63919107D01*
X143552080Y-63970318D01*
X143472318Y-64050080D01*
X143421107Y-64150587D01*
X143419557Y-64160376D01*
X143419556Y-64160378D01*
X143410126Y-64219920D01*
X143403461Y-64262000D01*
X102738602Y-64262000D01*
X102780682Y-64219920D01*
X102831893Y-64119413D01*
X102841476Y-64058912D01*
X102847988Y-64017793D01*
X102849539Y-64008000D01*
X102843571Y-63970318D01*
X102833444Y-63906378D01*
X102833443Y-63906376D01*
X102831893Y-63896587D01*
X102780682Y-63796080D01*
X102738602Y-63754000D01*
X120797461Y-63754000D01*
X120799012Y-63763793D01*
X120805525Y-63804912D01*
X120815107Y-63865413D01*
X120866318Y-63965920D01*
X120946080Y-64045682D01*
X121046587Y-64096893D01*
X121056376Y-64098443D01*
X121056378Y-64098444D01*
X121148207Y-64112988D01*
X121158000Y-64114539D01*
X121167793Y-64112988D01*
X121259622Y-64098444D01*
X121259624Y-64098443D01*
X121269413Y-64096893D01*
X121369920Y-64045682D01*
X121449682Y-63965920D01*
X121500893Y-63865413D01*
X121510476Y-63804912D01*
X121516988Y-63763793D01*
X121518539Y-63754000D01*
X125877461Y-63754000D01*
X125879012Y-63763793D01*
X125885525Y-63804912D01*
X125895107Y-63865413D01*
X125946318Y-63965920D01*
X126026080Y-64045682D01*
X126126587Y-64096893D01*
X126136376Y-64098443D01*
X126136378Y-64098444D01*
X126228207Y-64112988D01*
X126238000Y-64114539D01*
X126247793Y-64112988D01*
X126339622Y-64098444D01*
X126339624Y-64098443D01*
X126349413Y-64096893D01*
X126449920Y-64045682D01*
X126529682Y-63965920D01*
X126580893Y-63865413D01*
X126590476Y-63804912D01*
X126596988Y-63763793D01*
X126598539Y-63754000D01*
X126580893Y-63642587D01*
X126572951Y-63627000D01*
X154833461Y-63627000D01*
X154835012Y-63636793D01*
X154847608Y-63716318D01*
X154851107Y-63738413D01*
X154902318Y-63838920D01*
X154982080Y-63918682D01*
X155082587Y-63969893D01*
X155092376Y-63971443D01*
X155092378Y-63971444D01*
X155184207Y-63985988D01*
X155194000Y-63987539D01*
X155203793Y-63985988D01*
X155295622Y-63971444D01*
X155295624Y-63971443D01*
X155305413Y-63969893D01*
X155405920Y-63918682D01*
X155485682Y-63838920D01*
X155536893Y-63738413D01*
X155540393Y-63716318D01*
X155552988Y-63636793D01*
X155554539Y-63627000D01*
X155548749Y-63590444D01*
X155538444Y-63525378D01*
X155538443Y-63525376D01*
X155536893Y-63515587D01*
X155485682Y-63415080D01*
X155405920Y-63335318D01*
X155305413Y-63284107D01*
X155295624Y-63282557D01*
X155295622Y-63282556D01*
X155203793Y-63268012D01*
X155194000Y-63266461D01*
X155184207Y-63268012D01*
X155092378Y-63282556D01*
X155092376Y-63282557D01*
X155082587Y-63284107D01*
X154982080Y-63335318D01*
X154902318Y-63415080D01*
X154851107Y-63515587D01*
X154849557Y-63525376D01*
X154849556Y-63525378D01*
X154839251Y-63590444D01*
X154833461Y-63627000D01*
X126572951Y-63627000D01*
X126529682Y-63542080D01*
X126449920Y-63462318D01*
X126349413Y-63411107D01*
X126339624Y-63409557D01*
X126339622Y-63409556D01*
X126247793Y-63395012D01*
X126238000Y-63393461D01*
X126228207Y-63395012D01*
X126136378Y-63409556D01*
X126136376Y-63409557D01*
X126126587Y-63411107D01*
X126026080Y-63462318D01*
X125946318Y-63542080D01*
X125895107Y-63642587D01*
X125877461Y-63754000D01*
X121518539Y-63754000D01*
X121516988Y-63744207D01*
X121516988Y-63734289D01*
X121519957Y-63734289D01*
X121527020Y-63679661D01*
X121572744Y-63625349D01*
X121640574Y-63604380D01*
X121649078Y-63604988D01*
X121656207Y-63604988D01*
X121666000Y-63606539D01*
X121675793Y-63604988D01*
X121767622Y-63590444D01*
X121767624Y-63590443D01*
X121777413Y-63588893D01*
X121877920Y-63537682D01*
X121957682Y-63457920D01*
X122008893Y-63357413D01*
X122012393Y-63335318D01*
X122024988Y-63255793D01*
X122026539Y-63246000D01*
X122024988Y-63236207D01*
X122024988Y-63236202D01*
X122023967Y-63229754D01*
X122033068Y-63159343D01*
X122078792Y-63105031D01*
X122128706Y-63085598D01*
X122138505Y-63084046D01*
X122148621Y-63082444D01*
X122148622Y-63082444D01*
X122158413Y-63080893D01*
X122258920Y-63029682D01*
X122338682Y-62949920D01*
X122389893Y-62849413D01*
X122407539Y-62738000D01*
X122405988Y-62728207D01*
X122405988Y-62728202D01*
X122404967Y-62721754D01*
X122414068Y-62651343D01*
X122459792Y-62597031D01*
X122509706Y-62577598D01*
X122519505Y-62576046D01*
X122529621Y-62574444D01*
X122529622Y-62574444D01*
X122539413Y-62572893D01*
X122639920Y-62521682D01*
X122677602Y-62484000D01*
X143403461Y-62484000D01*
X143405012Y-62493793D01*
X143411525Y-62534912D01*
X143421107Y-62595413D01*
X143472318Y-62695920D01*
X143552080Y-62775682D01*
X143652587Y-62826893D01*
X143662376Y-62828443D01*
X143662378Y-62828444D01*
X143754207Y-62842988D01*
X143764000Y-62844539D01*
X143773793Y-62842988D01*
X143865622Y-62828444D01*
X143865624Y-62828443D01*
X143875413Y-62826893D01*
X143975920Y-62775682D01*
X144055682Y-62695920D01*
X144098951Y-62611000D01*
X153182461Y-62611000D01*
X153184012Y-62620793D01*
X153198549Y-62712574D01*
X153200107Y-62722413D01*
X153251318Y-62822920D01*
X153331080Y-62902682D01*
X153431587Y-62953893D01*
X153441376Y-62955443D01*
X153441378Y-62955444D01*
X153533207Y-62969988D01*
X153543000Y-62971539D01*
X153552793Y-62969988D01*
X153644622Y-62955444D01*
X153644624Y-62955443D01*
X153654413Y-62953893D01*
X153754920Y-62902682D01*
X153834682Y-62822920D01*
X153885893Y-62722413D01*
X153887452Y-62712574D01*
X153901988Y-62620793D01*
X153903539Y-62611000D01*
X153897749Y-62574444D01*
X153887444Y-62509378D01*
X153887443Y-62509376D01*
X153885893Y-62499587D01*
X153834682Y-62399080D01*
X153754920Y-62319318D01*
X153654413Y-62268107D01*
X153644624Y-62266557D01*
X153644622Y-62266556D01*
X153552793Y-62252012D01*
X153543000Y-62250461D01*
X153533207Y-62252012D01*
X153441378Y-62266556D01*
X153441376Y-62266557D01*
X153431587Y-62268107D01*
X153331080Y-62319318D01*
X153251318Y-62399080D01*
X153200107Y-62499587D01*
X153198557Y-62509376D01*
X153198556Y-62509378D01*
X153188251Y-62574444D01*
X153182461Y-62611000D01*
X144098951Y-62611000D01*
X144106893Y-62595413D01*
X144116476Y-62534912D01*
X144122988Y-62493793D01*
X144124539Y-62484000D01*
X144117858Y-62441818D01*
X144108444Y-62382378D01*
X144108443Y-62382376D01*
X144106893Y-62372587D01*
X144055682Y-62272080D01*
X143975920Y-62192318D01*
X143875413Y-62141107D01*
X143865624Y-62139557D01*
X143865622Y-62139556D01*
X143773793Y-62125012D01*
X143764000Y-62123461D01*
X143754207Y-62125012D01*
X143662378Y-62139556D01*
X143662376Y-62139557D01*
X143652587Y-62141107D01*
X143552080Y-62192318D01*
X143472318Y-62272080D01*
X143421107Y-62372587D01*
X143419557Y-62382376D01*
X143419556Y-62382378D01*
X143410142Y-62441818D01*
X143403461Y-62484000D01*
X122677602Y-62484000D01*
X122719682Y-62441920D01*
X122770893Y-62341413D01*
X122774393Y-62319318D01*
X122786988Y-62239793D01*
X122788539Y-62230000D01*
X122786988Y-62220207D01*
X122786988Y-62220202D01*
X122785967Y-62213754D01*
X122795068Y-62143343D01*
X122840792Y-62089031D01*
X122890706Y-62069598D01*
X122900505Y-62068046D01*
X122910621Y-62066444D01*
X122910622Y-62066444D01*
X122920413Y-62064893D01*
X123020920Y-62013682D01*
X123100682Y-61933920D01*
X123151893Y-61833413D01*
X123169539Y-61722000D01*
X123163749Y-61685444D01*
X123153444Y-61620378D01*
X123153443Y-61620376D01*
X123151893Y-61610587D01*
X123100682Y-61510080D01*
X123020920Y-61430318D01*
X122920413Y-61379107D01*
X122910624Y-61377557D01*
X122910622Y-61377556D01*
X122818793Y-61363012D01*
X122809000Y-61361461D01*
X122799207Y-61363012D01*
X122707378Y-61377556D01*
X122707376Y-61377557D01*
X122697587Y-61379107D01*
X122597080Y-61430318D01*
X122517318Y-61510080D01*
X122466107Y-61610587D01*
X122464557Y-61620376D01*
X122464556Y-61620378D01*
X122454251Y-61685444D01*
X122448461Y-61722000D01*
X122450012Y-61731793D01*
X122450012Y-61731798D01*
X122451033Y-61738246D01*
X122441932Y-61808657D01*
X122396208Y-61862969D01*
X122346294Y-61882402D01*
X122336495Y-61883954D01*
X122326379Y-61885556D01*
X122326378Y-61885556D01*
X122316587Y-61887107D01*
X122216080Y-61938318D01*
X122136318Y-62018080D01*
X122085107Y-62118587D01*
X122067461Y-62230000D01*
X122069012Y-62239793D01*
X122069012Y-62239798D01*
X122070033Y-62246246D01*
X122060932Y-62316657D01*
X122015208Y-62370969D01*
X121965294Y-62390402D01*
X121955495Y-62391954D01*
X121945379Y-62393556D01*
X121945378Y-62393556D01*
X121935587Y-62395107D01*
X121835080Y-62446318D01*
X121755318Y-62526080D01*
X121704107Y-62626587D01*
X121702557Y-62636376D01*
X121702556Y-62636378D01*
X121693126Y-62695920D01*
X121686461Y-62738000D01*
X121688012Y-62747793D01*
X121688012Y-62747798D01*
X121689033Y-62754246D01*
X121679932Y-62824657D01*
X121634208Y-62878969D01*
X121584294Y-62898402D01*
X121574495Y-62899954D01*
X121564379Y-62901556D01*
X121564378Y-62901556D01*
X121554587Y-62903107D01*
X121454080Y-62954318D01*
X121374318Y-63034080D01*
X121323107Y-63134587D01*
X121305461Y-63246000D01*
X121307012Y-63255793D01*
X121307012Y-63265711D01*
X121304043Y-63265711D01*
X121296980Y-63320339D01*
X121251256Y-63374651D01*
X121183426Y-63395620D01*
X121174922Y-63395012D01*
X121167793Y-63395012D01*
X121158000Y-63393461D01*
X121148207Y-63395012D01*
X121056378Y-63409556D01*
X121056376Y-63409557D01*
X121046587Y-63411107D01*
X120946080Y-63462318D01*
X120866318Y-63542080D01*
X120815107Y-63642587D01*
X120797461Y-63754000D01*
X102738602Y-63754000D01*
X102700920Y-63716318D01*
X102600413Y-63665107D01*
X102590624Y-63663557D01*
X102590622Y-63663556D01*
X102498793Y-63649012D01*
X102489000Y-63647461D01*
X102479207Y-63649012D01*
X102387378Y-63663556D01*
X102387376Y-63663557D01*
X102377587Y-63665107D01*
X102277080Y-63716318D01*
X102197318Y-63796080D01*
X102146107Y-63896587D01*
X102144557Y-63906376D01*
X102144556Y-63906378D01*
X102134429Y-63970318D01*
X102128461Y-64008000D01*
X101452539Y-64008000D01*
X101446571Y-63970318D01*
X101436444Y-63906378D01*
X101436443Y-63906376D01*
X101434893Y-63896587D01*
X101383682Y-63796080D01*
X101303920Y-63716318D01*
X101203413Y-63665107D01*
X101193624Y-63663557D01*
X101193622Y-63663556D01*
X101101793Y-63649012D01*
X101092000Y-63647461D01*
X101082207Y-63649012D01*
X100990378Y-63663556D01*
X100990376Y-63663557D01*
X100980587Y-63665107D01*
X100880080Y-63716318D01*
X100800318Y-63796080D01*
X100749107Y-63896587D01*
X100747557Y-63906376D01*
X100747556Y-63906378D01*
X100737429Y-63970318D01*
X100731461Y-64008000D01*
X89408000Y-64008000D01*
X89408000Y-62738000D01*
X99461461Y-62738000D01*
X99479107Y-62849413D01*
X99530318Y-62949920D01*
X99610080Y-63029682D01*
X99710587Y-63080893D01*
X99720376Y-63082443D01*
X99720378Y-63082444D01*
X99812207Y-63096988D01*
X99822000Y-63098539D01*
X99831793Y-63096988D01*
X99923622Y-63082444D01*
X99923624Y-63082443D01*
X99933413Y-63080893D01*
X100033920Y-63029682D01*
X100113682Y-62949920D01*
X100164893Y-62849413D01*
X100182539Y-62738000D01*
X100731461Y-62738000D01*
X100749107Y-62849413D01*
X100800318Y-62949920D01*
X100880080Y-63029682D01*
X100980587Y-63080893D01*
X100990376Y-63082443D01*
X100990378Y-63082444D01*
X101082207Y-63096988D01*
X101092000Y-63098539D01*
X101101793Y-63096988D01*
X101193622Y-63082444D01*
X101193624Y-63082443D01*
X101203413Y-63080893D01*
X101303920Y-63029682D01*
X101383682Y-62949920D01*
X101434893Y-62849413D01*
X101452539Y-62738000D01*
X102128461Y-62738000D01*
X102146107Y-62849413D01*
X102197318Y-62949920D01*
X102277080Y-63029682D01*
X102377587Y-63080893D01*
X102387376Y-63082443D01*
X102387378Y-63082444D01*
X102479207Y-63096988D01*
X102489000Y-63098539D01*
X102498793Y-63096988D01*
X102590622Y-63082444D01*
X102590624Y-63082443D01*
X102600413Y-63080893D01*
X102700920Y-63029682D01*
X102780682Y-62949920D01*
X102831893Y-62849413D01*
X102849539Y-62738000D01*
X102842874Y-62695920D01*
X102833444Y-62636378D01*
X102833443Y-62636376D01*
X102831893Y-62626587D01*
X102780682Y-62526080D01*
X102700920Y-62446318D01*
X102600413Y-62395107D01*
X102590624Y-62393557D01*
X102590622Y-62393556D01*
X102498793Y-62379012D01*
X102489000Y-62377461D01*
X102479207Y-62379012D01*
X102387378Y-62393556D01*
X102387376Y-62393557D01*
X102377587Y-62395107D01*
X102277080Y-62446318D01*
X102197318Y-62526080D01*
X102146107Y-62626587D01*
X102144557Y-62636376D01*
X102144556Y-62636378D01*
X102135126Y-62695920D01*
X102128461Y-62738000D01*
X101452539Y-62738000D01*
X101445874Y-62695920D01*
X101436444Y-62636378D01*
X101436443Y-62636376D01*
X101434893Y-62626587D01*
X101383682Y-62526080D01*
X101303920Y-62446318D01*
X101203413Y-62395107D01*
X101193624Y-62393557D01*
X101193622Y-62393556D01*
X101101793Y-62379012D01*
X101092000Y-62377461D01*
X101082207Y-62379012D01*
X100990378Y-62393556D01*
X100990376Y-62393557D01*
X100980587Y-62395107D01*
X100880080Y-62446318D01*
X100800318Y-62526080D01*
X100749107Y-62626587D01*
X100747557Y-62636376D01*
X100747556Y-62636378D01*
X100738126Y-62695920D01*
X100731461Y-62738000D01*
X100182539Y-62738000D01*
X100175874Y-62695920D01*
X100166444Y-62636378D01*
X100166443Y-62636376D01*
X100164893Y-62626587D01*
X100113682Y-62526080D01*
X100033920Y-62446318D01*
X99933413Y-62395107D01*
X99923624Y-62393557D01*
X99923622Y-62393556D01*
X99831793Y-62379012D01*
X99822000Y-62377461D01*
X99812207Y-62379012D01*
X99720378Y-62393556D01*
X99720376Y-62393557D01*
X99710587Y-62395107D01*
X99610080Y-62446318D01*
X99530318Y-62526080D01*
X99479107Y-62626587D01*
X99477557Y-62636376D01*
X99477556Y-62636378D01*
X99468126Y-62695920D01*
X99461461Y-62738000D01*
X89408000Y-62738000D01*
X89408000Y-61468000D01*
X99461461Y-61468000D01*
X99463012Y-61477793D01*
X99469525Y-61518912D01*
X99479107Y-61579413D01*
X99530318Y-61679920D01*
X99610080Y-61759682D01*
X99710587Y-61810893D01*
X99720376Y-61812443D01*
X99720378Y-61812444D01*
X99812207Y-61826988D01*
X99822000Y-61828539D01*
X99831793Y-61826988D01*
X99923622Y-61812444D01*
X99923624Y-61812443D01*
X99933413Y-61810893D01*
X100033920Y-61759682D01*
X100113682Y-61679920D01*
X100164893Y-61579413D01*
X100174476Y-61518912D01*
X100180988Y-61477793D01*
X100182539Y-61468000D01*
X100731461Y-61468000D01*
X100733012Y-61477793D01*
X100739525Y-61518912D01*
X100749107Y-61579413D01*
X100800318Y-61679920D01*
X100880080Y-61759682D01*
X100980587Y-61810893D01*
X100990376Y-61812443D01*
X100990378Y-61812444D01*
X101082207Y-61826988D01*
X101092000Y-61828539D01*
X101101793Y-61826988D01*
X101193622Y-61812444D01*
X101193624Y-61812443D01*
X101203413Y-61810893D01*
X101303920Y-61759682D01*
X101383682Y-61679920D01*
X101434893Y-61579413D01*
X101444476Y-61518912D01*
X101450988Y-61477793D01*
X101452539Y-61468000D01*
X102128461Y-61468000D01*
X102130012Y-61477793D01*
X102136525Y-61518912D01*
X102146107Y-61579413D01*
X102197318Y-61679920D01*
X102277080Y-61759682D01*
X102377587Y-61810893D01*
X102387376Y-61812443D01*
X102387378Y-61812444D01*
X102479207Y-61826988D01*
X102489000Y-61828539D01*
X102498793Y-61826988D01*
X102590622Y-61812444D01*
X102590624Y-61812443D01*
X102600413Y-61810893D01*
X102700920Y-61759682D01*
X102738602Y-61722000D01*
X109367461Y-61722000D01*
X109385107Y-61833413D01*
X109436318Y-61933920D01*
X109516080Y-62013682D01*
X109616587Y-62064893D01*
X109626378Y-62066444D01*
X109626379Y-62066444D01*
X109636495Y-62068046D01*
X109646294Y-62069598D01*
X109710447Y-62100010D01*
X109747974Y-62160278D01*
X109751033Y-62213754D01*
X109750012Y-62220202D01*
X109750012Y-62220207D01*
X109748461Y-62230000D01*
X109750012Y-62239793D01*
X109762608Y-62319318D01*
X109766107Y-62341413D01*
X109817318Y-62441920D01*
X109897080Y-62521682D01*
X109997587Y-62572893D01*
X110007376Y-62574443D01*
X110007378Y-62574444D01*
X110099207Y-62588988D01*
X110109000Y-62590539D01*
X110118793Y-62588988D01*
X110128711Y-62588988D01*
X110128711Y-62591957D01*
X110183339Y-62599020D01*
X110237651Y-62644744D01*
X110258620Y-62712574D01*
X110258012Y-62721078D01*
X110258012Y-62728207D01*
X110256461Y-62738000D01*
X110274107Y-62849413D01*
X110325318Y-62949920D01*
X110405080Y-63029682D01*
X110505587Y-63080893D01*
X110515376Y-63082443D01*
X110515378Y-63082444D01*
X110607207Y-63096988D01*
X110617000Y-63098539D01*
X110626793Y-63096988D01*
X110626795Y-63096988D01*
X110637233Y-63095335D01*
X110707644Y-63104435D01*
X110761957Y-63150158D01*
X110782929Y-63217986D01*
X110781912Y-63232214D01*
X110781912Y-63236207D01*
X110780361Y-63246000D01*
X110781912Y-63255793D01*
X110794508Y-63335318D01*
X110798007Y-63357413D01*
X110849218Y-63457920D01*
X110928980Y-63537682D01*
X111029487Y-63588893D01*
X111039276Y-63590443D01*
X111039278Y-63590444D01*
X111131107Y-63604988D01*
X111140900Y-63606539D01*
X111150693Y-63604988D01*
X111242522Y-63590444D01*
X111242524Y-63590443D01*
X111252313Y-63588893D01*
X111352820Y-63537682D01*
X111432582Y-63457920D01*
X111483793Y-63357413D01*
X111487293Y-63335318D01*
X111499888Y-63255793D01*
X111501439Y-63246000D01*
X111483793Y-63134587D01*
X111432582Y-63034080D01*
X111352820Y-62954318D01*
X111252313Y-62903107D01*
X111242524Y-62901557D01*
X111242522Y-62901556D01*
X111150693Y-62887012D01*
X111140900Y-62885461D01*
X111131107Y-62887012D01*
X111131105Y-62887012D01*
X111120667Y-62888665D01*
X111050256Y-62879565D01*
X110995943Y-62833842D01*
X110974971Y-62766014D01*
X110975988Y-62751786D01*
X110975988Y-62747793D01*
X110977539Y-62738000D01*
X110970874Y-62695920D01*
X110961444Y-62636378D01*
X110961443Y-62636376D01*
X110959893Y-62626587D01*
X110908682Y-62526080D01*
X110828920Y-62446318D01*
X110728413Y-62395107D01*
X110718624Y-62393557D01*
X110718622Y-62393556D01*
X110626793Y-62379012D01*
X110617000Y-62377461D01*
X110607207Y-62379012D01*
X110597289Y-62379012D01*
X110597289Y-62376043D01*
X110542661Y-62368980D01*
X110488349Y-62323256D01*
X110467380Y-62255426D01*
X110467988Y-62246922D01*
X110467988Y-62239793D01*
X110469539Y-62230000D01*
X110451893Y-62118587D01*
X110400682Y-62018080D01*
X110320920Y-61938318D01*
X110220413Y-61887107D01*
X110210622Y-61885556D01*
X110210621Y-61885556D01*
X110200505Y-61883954D01*
X110190706Y-61882402D01*
X110126553Y-61851990D01*
X110089026Y-61791722D01*
X110085967Y-61738246D01*
X110086988Y-61731798D01*
X110086988Y-61731793D01*
X110088539Y-61722000D01*
X110082749Y-61685444D01*
X110072444Y-61620378D01*
X110072443Y-61620376D01*
X110070893Y-61610587D01*
X110019682Y-61510080D01*
X109939920Y-61430318D01*
X109839413Y-61379107D01*
X109829624Y-61377557D01*
X109829622Y-61377556D01*
X109737793Y-61363012D01*
X109728000Y-61361461D01*
X109718207Y-61363012D01*
X109626378Y-61377556D01*
X109626376Y-61377557D01*
X109616587Y-61379107D01*
X109516080Y-61430318D01*
X109436318Y-61510080D01*
X109385107Y-61610587D01*
X109383557Y-61620376D01*
X109383556Y-61620378D01*
X109373251Y-61685444D01*
X109367461Y-61722000D01*
X102738602Y-61722000D01*
X102780682Y-61679920D01*
X102831893Y-61579413D01*
X102841476Y-61518912D01*
X102847988Y-61477793D01*
X102849539Y-61468000D01*
X102831893Y-61356587D01*
X102823951Y-61341000D01*
X126766461Y-61341000D01*
X126768012Y-61350793D01*
X126780608Y-61430318D01*
X126784107Y-61452413D01*
X126835318Y-61552920D01*
X126915080Y-61632682D01*
X127015587Y-61683893D01*
X127025376Y-61685443D01*
X127025378Y-61685444D01*
X127117207Y-61699988D01*
X127127000Y-61701539D01*
X127136793Y-61699988D01*
X127228622Y-61685444D01*
X127228624Y-61685443D01*
X127238413Y-61683893D01*
X127338920Y-61632682D01*
X127418682Y-61552920D01*
X127469893Y-61452413D01*
X127473393Y-61430318D01*
X127485988Y-61350793D01*
X127487539Y-61341000D01*
X127481749Y-61304444D01*
X127471444Y-61239378D01*
X127471443Y-61239376D01*
X127469893Y-61229587D01*
X127418682Y-61129080D01*
X127338920Y-61049318D01*
X127238413Y-60998107D01*
X127228624Y-60996557D01*
X127228622Y-60996556D01*
X127136793Y-60982012D01*
X127127000Y-60980461D01*
X127117207Y-60982012D01*
X127025378Y-60996556D01*
X127025376Y-60996557D01*
X127015587Y-60998107D01*
X126915080Y-61049318D01*
X126835318Y-61129080D01*
X126784107Y-61229587D01*
X126782557Y-61239376D01*
X126782556Y-61239378D01*
X126772251Y-61304444D01*
X126766461Y-61341000D01*
X102823951Y-61341000D01*
X102780682Y-61256080D01*
X102700920Y-61176318D01*
X102600413Y-61125107D01*
X102590624Y-61123557D01*
X102590622Y-61123556D01*
X102498793Y-61109012D01*
X102489000Y-61107461D01*
X102479207Y-61109012D01*
X102387378Y-61123556D01*
X102387376Y-61123557D01*
X102377587Y-61125107D01*
X102277080Y-61176318D01*
X102197318Y-61256080D01*
X102146107Y-61356587D01*
X102128461Y-61468000D01*
X101452539Y-61468000D01*
X101434893Y-61356587D01*
X101383682Y-61256080D01*
X101303920Y-61176318D01*
X101203413Y-61125107D01*
X101193624Y-61123557D01*
X101193622Y-61123556D01*
X101101793Y-61109012D01*
X101092000Y-61107461D01*
X101082207Y-61109012D01*
X100990378Y-61123556D01*
X100990376Y-61123557D01*
X100980587Y-61125107D01*
X100880080Y-61176318D01*
X100800318Y-61256080D01*
X100749107Y-61356587D01*
X100731461Y-61468000D01*
X100182539Y-61468000D01*
X100164893Y-61356587D01*
X100113682Y-61256080D01*
X100033920Y-61176318D01*
X99933413Y-61125107D01*
X99923624Y-61123557D01*
X99923622Y-61123556D01*
X99831793Y-61109012D01*
X99822000Y-61107461D01*
X99812207Y-61109012D01*
X99720378Y-61123556D01*
X99720376Y-61123557D01*
X99710587Y-61125107D01*
X99610080Y-61176318D01*
X99530318Y-61256080D01*
X99479107Y-61356587D01*
X99461461Y-61468000D01*
X89408000Y-61468000D01*
X89408000Y-60325000D01*
X108478461Y-60325000D01*
X108480012Y-60334793D01*
X108492608Y-60414318D01*
X108496107Y-60436413D01*
X108547318Y-60536920D01*
X108627080Y-60616682D01*
X108727587Y-60667893D01*
X108737376Y-60669443D01*
X108737378Y-60669444D01*
X108829207Y-60683988D01*
X108839000Y-60685539D01*
X108950413Y-60667893D01*
X108959211Y-60663410D01*
X109030155Y-60661383D01*
X109090953Y-60698045D01*
X109122573Y-60763533D01*
X109131107Y-60817413D01*
X109182318Y-60917920D01*
X109262080Y-60997682D01*
X109362587Y-61048893D01*
X109372376Y-61050443D01*
X109372378Y-61050444D01*
X109464207Y-61064988D01*
X109474000Y-61066539D01*
X109483793Y-61064988D01*
X109575622Y-61050444D01*
X109575624Y-61050443D01*
X109585413Y-61048893D01*
X109685920Y-60997682D01*
X109765682Y-60917920D01*
X109816893Y-60817413D01*
X109826476Y-60756912D01*
X109832988Y-60715793D01*
X109834539Y-60706000D01*
X114574461Y-60706000D01*
X114576012Y-60715793D01*
X114582525Y-60756912D01*
X114592107Y-60817413D01*
X114643318Y-60917920D01*
X114723080Y-60997682D01*
X114823587Y-61048893D01*
X114833376Y-61050443D01*
X114833378Y-61050444D01*
X114925207Y-61064988D01*
X114935000Y-61066539D01*
X114944793Y-61064988D01*
X115036622Y-61050444D01*
X115036624Y-61050443D01*
X115046413Y-61048893D01*
X115146920Y-60997682D01*
X115184602Y-60960000D01*
X132862461Y-60960000D01*
X132864012Y-60969793D01*
X132876608Y-61049318D01*
X132880107Y-61071413D01*
X132931318Y-61171920D01*
X133011080Y-61251682D01*
X133111587Y-61302893D01*
X133121376Y-61304443D01*
X133121378Y-61304444D01*
X133213207Y-61318988D01*
X133223000Y-61320539D01*
X133232793Y-61318988D01*
X133324622Y-61304444D01*
X133324624Y-61304443D01*
X133334413Y-61302893D01*
X133434920Y-61251682D01*
X133514682Y-61171920D01*
X133565893Y-61071413D01*
X133569393Y-61049318D01*
X133581988Y-60969793D01*
X133583539Y-60960000D01*
X133576874Y-60917920D01*
X133567444Y-60858378D01*
X133567443Y-60858376D01*
X133565893Y-60848587D01*
X133514682Y-60748080D01*
X133434920Y-60668318D01*
X133334413Y-60617107D01*
X133324624Y-60615557D01*
X133324622Y-60615556D01*
X133232793Y-60601012D01*
X133223000Y-60599461D01*
X133213207Y-60601012D01*
X133121378Y-60615556D01*
X133121376Y-60615557D01*
X133111587Y-60617107D01*
X133011080Y-60668318D01*
X132931318Y-60748080D01*
X132880107Y-60848587D01*
X132878557Y-60858376D01*
X132878556Y-60858378D01*
X132869126Y-60917920D01*
X132862461Y-60960000D01*
X115184602Y-60960000D01*
X115226682Y-60917920D01*
X115277893Y-60817413D01*
X115287476Y-60756912D01*
X115293988Y-60715793D01*
X115295539Y-60706000D01*
X115289571Y-60668318D01*
X115279444Y-60604378D01*
X115279443Y-60604376D01*
X115277893Y-60594587D01*
X115226682Y-60494080D01*
X115146920Y-60414318D01*
X115046413Y-60363107D01*
X115036624Y-60361557D01*
X115036622Y-60361556D01*
X114944793Y-60347012D01*
X114935000Y-60345461D01*
X114925207Y-60347012D01*
X114833378Y-60361556D01*
X114833376Y-60361557D01*
X114823587Y-60363107D01*
X114723080Y-60414318D01*
X114643318Y-60494080D01*
X114592107Y-60594587D01*
X114590557Y-60604376D01*
X114590556Y-60604378D01*
X114580429Y-60668318D01*
X114574461Y-60706000D01*
X109834539Y-60706000D01*
X109828571Y-60668318D01*
X109818444Y-60604378D01*
X109818443Y-60604376D01*
X109816893Y-60594587D01*
X109765682Y-60494080D01*
X109685920Y-60414318D01*
X109585413Y-60363107D01*
X109575624Y-60361557D01*
X109575622Y-60361556D01*
X109483793Y-60347012D01*
X109474000Y-60345461D01*
X109362587Y-60363107D01*
X109353789Y-60367590D01*
X109282845Y-60369617D01*
X109222047Y-60332955D01*
X109218206Y-60325000D01*
X115844461Y-60325000D01*
X115846012Y-60334793D01*
X115858608Y-60414318D01*
X115862107Y-60436413D01*
X115913318Y-60536920D01*
X115993080Y-60616682D01*
X116093587Y-60667893D01*
X116103376Y-60669443D01*
X116103378Y-60669444D01*
X116195207Y-60683988D01*
X116205000Y-60685539D01*
X116214793Y-60683988D01*
X116306622Y-60669444D01*
X116306624Y-60669443D01*
X116316413Y-60667893D01*
X116416920Y-60616682D01*
X116496682Y-60536920D01*
X116547893Y-60436413D01*
X116551393Y-60414318D01*
X116563988Y-60334793D01*
X116565539Y-60325000D01*
X116547893Y-60213587D01*
X116496682Y-60113080D01*
X116416920Y-60033318D01*
X116316413Y-59982107D01*
X116306624Y-59980557D01*
X116306622Y-59980556D01*
X116214793Y-59966012D01*
X116205000Y-59964461D01*
X116195207Y-59966012D01*
X116103378Y-59980556D01*
X116103376Y-59980557D01*
X116093587Y-59982107D01*
X115993080Y-60033318D01*
X115913318Y-60113080D01*
X115862107Y-60213587D01*
X115844461Y-60325000D01*
X109218206Y-60325000D01*
X109190427Y-60267467D01*
X109183444Y-60223379D01*
X109183444Y-60223378D01*
X109181893Y-60213587D01*
X109130682Y-60113080D01*
X109050920Y-60033318D01*
X108950413Y-59982107D01*
X108940624Y-59980557D01*
X108940622Y-59980556D01*
X108848793Y-59966012D01*
X108839000Y-59964461D01*
X108829207Y-59966012D01*
X108737378Y-59980556D01*
X108737376Y-59980557D01*
X108727587Y-59982107D01*
X108627080Y-60033318D01*
X108547318Y-60113080D01*
X108496107Y-60213587D01*
X108478461Y-60325000D01*
X89408000Y-60325000D01*
X89408000Y-59690000D01*
X145943461Y-59690000D01*
X145961107Y-59801413D01*
X146012318Y-59901920D01*
X146092080Y-59981682D01*
X146192587Y-60032893D01*
X146202376Y-60034443D01*
X146202378Y-60034444D01*
X146294207Y-60048988D01*
X146304000Y-60050539D01*
X146313793Y-60048988D01*
X146405622Y-60034444D01*
X146405624Y-60034443D01*
X146415413Y-60032893D01*
X146515920Y-59981682D01*
X146595682Y-59901920D01*
X146646893Y-59801413D01*
X146664539Y-59690000D01*
X146646893Y-59578587D01*
X146595682Y-59478080D01*
X146515920Y-59398318D01*
X146415413Y-59347107D01*
X146405624Y-59345557D01*
X146405622Y-59345556D01*
X146313793Y-59331012D01*
X146304000Y-59329461D01*
X146294207Y-59331012D01*
X146202378Y-59345556D01*
X146202376Y-59345557D01*
X146192587Y-59347107D01*
X146092080Y-59398318D01*
X146012318Y-59478080D01*
X145961107Y-59578587D01*
X145943461Y-59690000D01*
X89408000Y-59690000D01*
X89408000Y-58928000D01*
X124099461Y-58928000D01*
X124117107Y-59039413D01*
X124168318Y-59139920D01*
X124248080Y-59219682D01*
X124348587Y-59270893D01*
X124358376Y-59272443D01*
X124358378Y-59272444D01*
X124450207Y-59286988D01*
X124460000Y-59288539D01*
X124469793Y-59286988D01*
X124561622Y-59272444D01*
X124561624Y-59272443D01*
X124571413Y-59270893D01*
X124671920Y-59219682D01*
X124751682Y-59139920D01*
X124802893Y-59039413D01*
X124820539Y-58928000D01*
X124814749Y-58891444D01*
X124804444Y-58826378D01*
X124804443Y-58826376D01*
X124802893Y-58816587D01*
X124751682Y-58716080D01*
X124671920Y-58636318D01*
X124571413Y-58585107D01*
X124561624Y-58583557D01*
X124561622Y-58583556D01*
X124469793Y-58569012D01*
X124460000Y-58567461D01*
X124450207Y-58569012D01*
X124358378Y-58583556D01*
X124358376Y-58583557D01*
X124348587Y-58585107D01*
X124248080Y-58636318D01*
X124168318Y-58716080D01*
X124117107Y-58816587D01*
X124115557Y-58826376D01*
X124115556Y-58826378D01*
X124105251Y-58891444D01*
X124099461Y-58928000D01*
X89408000Y-58928000D01*
X89408000Y-58547000D01*
X125877461Y-58547000D01*
X125879012Y-58556793D01*
X125891608Y-58636318D01*
X125895107Y-58658413D01*
X125946318Y-58758920D01*
X126026080Y-58838682D01*
X126126587Y-58889893D01*
X126136376Y-58891443D01*
X126136378Y-58891444D01*
X126228207Y-58905988D01*
X126238000Y-58907539D01*
X126247793Y-58905988D01*
X126339622Y-58891444D01*
X126339624Y-58891443D01*
X126349413Y-58889893D01*
X126449920Y-58838682D01*
X126529682Y-58758920D01*
X126580893Y-58658413D01*
X126584393Y-58636318D01*
X126596988Y-58556793D01*
X126598539Y-58547000D01*
X126580893Y-58435587D01*
X126529682Y-58335080D01*
X126449920Y-58255318D01*
X126349413Y-58204107D01*
X126339624Y-58202557D01*
X126339622Y-58202556D01*
X126247793Y-58188012D01*
X126238000Y-58186461D01*
X126228207Y-58188012D01*
X126136378Y-58202556D01*
X126136376Y-58202557D01*
X126126587Y-58204107D01*
X126026080Y-58255318D01*
X125946318Y-58335080D01*
X125895107Y-58435587D01*
X125877461Y-58547000D01*
X89408000Y-58547000D01*
X89408000Y-56896000D01*
X132608461Y-56896000D01*
X132626107Y-57007413D01*
X132677318Y-57107920D01*
X132757080Y-57187682D01*
X132857587Y-57238893D01*
X132867376Y-57240443D01*
X132867378Y-57240444D01*
X132959207Y-57254988D01*
X132969000Y-57256539D01*
X132978793Y-57254988D01*
X133070622Y-57240444D01*
X133070624Y-57240443D01*
X133080413Y-57238893D01*
X133180920Y-57187682D01*
X133260682Y-57107920D01*
X133311893Y-57007413D01*
X133329539Y-56896000D01*
X133311893Y-56784587D01*
X133260682Y-56684080D01*
X133180920Y-56604318D01*
X133080413Y-56553107D01*
X133070624Y-56551557D01*
X133070622Y-56551556D01*
X132978793Y-56537012D01*
X132969000Y-56535461D01*
X132959207Y-56537012D01*
X132867378Y-56551556D01*
X132867376Y-56551557D01*
X132857587Y-56553107D01*
X132757080Y-56604318D01*
X132677318Y-56684080D01*
X132626107Y-56784587D01*
X132608461Y-56896000D01*
X89408000Y-56896000D01*
X89408000Y-56388000D01*
X122194461Y-56388000D01*
X122212107Y-56499413D01*
X122263318Y-56599920D01*
X122343080Y-56679682D01*
X122443587Y-56730893D01*
X122453376Y-56732443D01*
X122453378Y-56732444D01*
X122545207Y-56746988D01*
X122555000Y-56748539D01*
X122564793Y-56746988D01*
X122656622Y-56732444D01*
X122656624Y-56732443D01*
X122666413Y-56730893D01*
X122766920Y-56679682D01*
X122846682Y-56599920D01*
X122897893Y-56499413D01*
X122915539Y-56388000D01*
X122897893Y-56276587D01*
X122846682Y-56176080D01*
X122766920Y-56096318D01*
X122666413Y-56045107D01*
X122656624Y-56043557D01*
X122656622Y-56043556D01*
X122564793Y-56029012D01*
X122555000Y-56027461D01*
X122545207Y-56029012D01*
X122453378Y-56043556D01*
X122453376Y-56043557D01*
X122443587Y-56045107D01*
X122343080Y-56096318D01*
X122263318Y-56176080D01*
X122212107Y-56276587D01*
X122194461Y-56388000D01*
X89408000Y-56388000D01*
X89408000Y-55372000D01*
X105430461Y-55372000D01*
X105448107Y-55483413D01*
X105499318Y-55583920D01*
X105579080Y-55663682D01*
X105679587Y-55714893D01*
X105689376Y-55716443D01*
X105689378Y-55716444D01*
X105781207Y-55730988D01*
X105791000Y-55732539D01*
X105800793Y-55730988D01*
X105892622Y-55716444D01*
X105892624Y-55716443D01*
X105902413Y-55714893D01*
X106002920Y-55663682D01*
X106082682Y-55583920D01*
X106133893Y-55483413D01*
X106151539Y-55372000D01*
X117495461Y-55372000D01*
X117513107Y-55483413D01*
X117564318Y-55583920D01*
X117644080Y-55663682D01*
X117744587Y-55714893D01*
X117754376Y-55716443D01*
X117754378Y-55716444D01*
X117846207Y-55730988D01*
X117856000Y-55732539D01*
X117865793Y-55730988D01*
X117957622Y-55716444D01*
X117957624Y-55716443D01*
X117967413Y-55714893D01*
X118067920Y-55663682D01*
X118147682Y-55583920D01*
X118198893Y-55483413D01*
X118216539Y-55372000D01*
X118210749Y-55335444D01*
X118200444Y-55270378D01*
X118200443Y-55270376D01*
X118198893Y-55260587D01*
X118147682Y-55160080D01*
X118067920Y-55080318D01*
X117967413Y-55029107D01*
X117957624Y-55027557D01*
X117957622Y-55027556D01*
X117865793Y-55013012D01*
X117856000Y-55011461D01*
X117846207Y-55013012D01*
X117754378Y-55027556D01*
X117754376Y-55027557D01*
X117744587Y-55029107D01*
X117644080Y-55080318D01*
X117564318Y-55160080D01*
X117513107Y-55260587D01*
X117511557Y-55270376D01*
X117511556Y-55270378D01*
X117501251Y-55335444D01*
X117495461Y-55372000D01*
X106151539Y-55372000D01*
X106145749Y-55335444D01*
X106135444Y-55270378D01*
X106135443Y-55270376D01*
X106133893Y-55260587D01*
X106082682Y-55160080D01*
X106002920Y-55080318D01*
X105902413Y-55029107D01*
X105892624Y-55027557D01*
X105892622Y-55027556D01*
X105800793Y-55013012D01*
X105791000Y-55011461D01*
X105781207Y-55013012D01*
X105689378Y-55027556D01*
X105689376Y-55027557D01*
X105679587Y-55029107D01*
X105579080Y-55080318D01*
X105499318Y-55160080D01*
X105448107Y-55260587D01*
X105446557Y-55270376D01*
X105446556Y-55270378D01*
X105436251Y-55335444D01*
X105430461Y-55372000D01*
X89408000Y-55372000D01*
X89408000Y-53594000D01*
X96159461Y-53594000D01*
X96161012Y-53603793D01*
X96173726Y-53684063D01*
X96177107Y-53705413D01*
X96228318Y-53805920D01*
X96308080Y-53885682D01*
X96408587Y-53936893D01*
X96418376Y-53938443D01*
X96418378Y-53938444D01*
X96510207Y-53952988D01*
X96520000Y-53954539D01*
X96529793Y-53952988D01*
X96621622Y-53938444D01*
X96621624Y-53938443D01*
X96631413Y-53936893D01*
X96731920Y-53885682D01*
X96748405Y-53869197D01*
X96810717Y-53835171D01*
X96881532Y-53840236D01*
X96926595Y-53869197D01*
X96943080Y-53885682D01*
X97043587Y-53936893D01*
X97053376Y-53938443D01*
X97053378Y-53938444D01*
X97145207Y-53952988D01*
X97155000Y-53954539D01*
X97164793Y-53952988D01*
X97256622Y-53938444D01*
X97256624Y-53938443D01*
X97266413Y-53936893D01*
X97366920Y-53885682D01*
X97383405Y-53869197D01*
X97445717Y-53835171D01*
X97516532Y-53840236D01*
X97561595Y-53869197D01*
X97578080Y-53885682D01*
X97678587Y-53936893D01*
X97688376Y-53938443D01*
X97688378Y-53938444D01*
X97780207Y-53952988D01*
X97790000Y-53954539D01*
X97799793Y-53952988D01*
X97891622Y-53938444D01*
X97891624Y-53938443D01*
X97901413Y-53936893D01*
X98001920Y-53885682D01*
X98018405Y-53869197D01*
X98080717Y-53835171D01*
X98151532Y-53840236D01*
X98196595Y-53869197D01*
X98213080Y-53885682D01*
X98210257Y-53888505D01*
X98241702Y-53929274D01*
X98247785Y-54000010D01*
X98214660Y-54062805D01*
X98213003Y-54064241D01*
X98213080Y-54064318D01*
X98133318Y-54144080D01*
X98082107Y-54244587D01*
X98064461Y-54356000D01*
X98066012Y-54365793D01*
X98080471Y-54457081D01*
X98082107Y-54467413D01*
X98133318Y-54567920D01*
X98149803Y-54584405D01*
X98183829Y-54646717D01*
X98178764Y-54717532D01*
X98149803Y-54762595D01*
X98133318Y-54779080D01*
X98082107Y-54879587D01*
X98080557Y-54889376D01*
X98080556Y-54889378D01*
X98070251Y-54954444D01*
X98064461Y-54991000D01*
X98066012Y-55000793D01*
X98078608Y-55080318D01*
X98082107Y-55102413D01*
X98133318Y-55202920D01*
X98213080Y-55282682D01*
X98313587Y-55333893D01*
X98323376Y-55335443D01*
X98323378Y-55335444D01*
X98415207Y-55349988D01*
X98425000Y-55351539D01*
X98434793Y-55349988D01*
X98526622Y-55335444D01*
X98526624Y-55335443D01*
X98536413Y-55333893D01*
X98636920Y-55282682D01*
X98716682Y-55202920D01*
X98767893Y-55102413D01*
X98771393Y-55080318D01*
X98783988Y-55000793D01*
X98785539Y-54991000D01*
X98779749Y-54954444D01*
X98769444Y-54889378D01*
X98769443Y-54889376D01*
X98767893Y-54879587D01*
X98716682Y-54779080D01*
X98700197Y-54762595D01*
X98666171Y-54700283D01*
X98671236Y-54629468D01*
X98683748Y-54610000D01*
X118384461Y-54610000D01*
X118386012Y-54619793D01*
X118398608Y-54699318D01*
X118402107Y-54721413D01*
X118453318Y-54821920D01*
X118533080Y-54901682D01*
X118633587Y-54952893D01*
X118643376Y-54954443D01*
X118643378Y-54954444D01*
X118735207Y-54968988D01*
X118745000Y-54970539D01*
X118754793Y-54968988D01*
X118846622Y-54954444D01*
X118846624Y-54954443D01*
X118856413Y-54952893D01*
X118956920Y-54901682D01*
X119036682Y-54821920D01*
X119087893Y-54721413D01*
X119091393Y-54699318D01*
X119103988Y-54619793D01*
X119105539Y-54610000D01*
X119098874Y-54567920D01*
X119089444Y-54508378D01*
X119089443Y-54508376D01*
X119087893Y-54498587D01*
X119036682Y-54398080D01*
X118956920Y-54318318D01*
X118856413Y-54267107D01*
X118846624Y-54265557D01*
X118846622Y-54265556D01*
X118754793Y-54251012D01*
X118745000Y-54249461D01*
X118735207Y-54251012D01*
X118643378Y-54265556D01*
X118643376Y-54265557D01*
X118633587Y-54267107D01*
X118533080Y-54318318D01*
X118453318Y-54398080D01*
X118402107Y-54498587D01*
X118400557Y-54508376D01*
X118400556Y-54508378D01*
X118391126Y-54567920D01*
X118384461Y-54610000D01*
X98683748Y-54610000D01*
X98700197Y-54584405D01*
X98716682Y-54567920D01*
X98767893Y-54467413D01*
X98769530Y-54457081D01*
X98783988Y-54365793D01*
X98785539Y-54356000D01*
X98767893Y-54244587D01*
X98716682Y-54144080D01*
X98636920Y-54064318D01*
X98639743Y-54061495D01*
X98608298Y-54020726D01*
X98602215Y-53949990D01*
X98635340Y-53887195D01*
X98636997Y-53885759D01*
X98636920Y-53885682D01*
X98716682Y-53805920D01*
X98767893Y-53705413D01*
X98771275Y-53684063D01*
X98783988Y-53603793D01*
X98785539Y-53594000D01*
X98779749Y-53557444D01*
X98769444Y-53492378D01*
X98769443Y-53492376D01*
X98767893Y-53482587D01*
X98716682Y-53382080D01*
X98636920Y-53302318D01*
X98536413Y-53251107D01*
X98526624Y-53249557D01*
X98526622Y-53249556D01*
X98434793Y-53235012D01*
X98425000Y-53233461D01*
X98415207Y-53235012D01*
X98323378Y-53249556D01*
X98323376Y-53249557D01*
X98313587Y-53251107D01*
X98213080Y-53302318D01*
X98196595Y-53318803D01*
X98134283Y-53352829D01*
X98063468Y-53347764D01*
X98018405Y-53318803D01*
X98001920Y-53302318D01*
X97901413Y-53251107D01*
X97891624Y-53249557D01*
X97891622Y-53249556D01*
X97799793Y-53235012D01*
X97790000Y-53233461D01*
X97780207Y-53235012D01*
X97688378Y-53249556D01*
X97688376Y-53249557D01*
X97678587Y-53251107D01*
X97578080Y-53302318D01*
X97561595Y-53318803D01*
X97499283Y-53352829D01*
X97428468Y-53347764D01*
X97383405Y-53318803D01*
X97366920Y-53302318D01*
X97266413Y-53251107D01*
X97256624Y-53249557D01*
X97256622Y-53249556D01*
X97164793Y-53235012D01*
X97155000Y-53233461D01*
X97145207Y-53235012D01*
X97053378Y-53249556D01*
X97053376Y-53249557D01*
X97043587Y-53251107D01*
X96943080Y-53302318D01*
X96926595Y-53318803D01*
X96864283Y-53352829D01*
X96793468Y-53347764D01*
X96748405Y-53318803D01*
X96731920Y-53302318D01*
X96631413Y-53251107D01*
X96621624Y-53249557D01*
X96621622Y-53249556D01*
X96529793Y-53235012D01*
X96520000Y-53233461D01*
X96510207Y-53235012D01*
X96418378Y-53249556D01*
X96418376Y-53249557D01*
X96408587Y-53251107D01*
X96308080Y-53302318D01*
X96228318Y-53382080D01*
X96177107Y-53482587D01*
X96175557Y-53492376D01*
X96175556Y-53492378D01*
X96165251Y-53557444D01*
X96159461Y-53594000D01*
X89408000Y-53594000D01*
X89408000Y-52959000D01*
X104541461Y-52959000D01*
X104543012Y-52968793D01*
X104556544Y-53054229D01*
X104559107Y-53070413D01*
X104610318Y-53170920D01*
X104690080Y-53250682D01*
X104790587Y-53301893D01*
X104800376Y-53303443D01*
X104800378Y-53303444D01*
X104892207Y-53317988D01*
X104902000Y-53319539D01*
X104911793Y-53317988D01*
X105003622Y-53303444D01*
X105003624Y-53303443D01*
X105013413Y-53301893D01*
X105113920Y-53250682D01*
X105193682Y-53170920D01*
X105244893Y-53070413D01*
X105247457Y-53054229D01*
X105260988Y-52968793D01*
X105262539Y-52959000D01*
X105259053Y-52936988D01*
X105246444Y-52857378D01*
X105246443Y-52857376D01*
X105244893Y-52847587D01*
X105193682Y-52747080D01*
X105113920Y-52667318D01*
X105013413Y-52616107D01*
X105003624Y-52614557D01*
X105003622Y-52614556D01*
X104911793Y-52600012D01*
X104902000Y-52598461D01*
X104892207Y-52600012D01*
X104800378Y-52614556D01*
X104800376Y-52614557D01*
X104790587Y-52616107D01*
X104690080Y-52667318D01*
X104610318Y-52747080D01*
X104559107Y-52847587D01*
X104557557Y-52857376D01*
X104557556Y-52857378D01*
X104544947Y-52936988D01*
X104541461Y-52959000D01*
X89408000Y-52959000D01*
X89408000Y-52197000D01*
X105303461Y-52197000D01*
X105305012Y-52206793D01*
X105318560Y-52292329D01*
X105321107Y-52308413D01*
X105372318Y-52408920D01*
X105452080Y-52488682D01*
X105552587Y-52539893D01*
X105562376Y-52541443D01*
X105562378Y-52541444D01*
X105654207Y-52555988D01*
X105664000Y-52557539D01*
X105673793Y-52555988D01*
X105765622Y-52541444D01*
X105765624Y-52541443D01*
X105775413Y-52539893D01*
X105781287Y-52536900D01*
X117368461Y-52536900D01*
X117370012Y-52546693D01*
X117376522Y-52587793D01*
X117386107Y-52648313D01*
X117437318Y-52748820D01*
X117517080Y-52828582D01*
X117617587Y-52879793D01*
X117627376Y-52881343D01*
X117627378Y-52881344D01*
X117719207Y-52895888D01*
X117729000Y-52897439D01*
X117738793Y-52895888D01*
X117830622Y-52881344D01*
X117830624Y-52881343D01*
X117840413Y-52879793D01*
X117933119Y-52832557D01*
X118002894Y-52819453D01*
X118068679Y-52846153D01*
X118079416Y-52855729D01*
X118099380Y-52875693D01*
X118108213Y-52880193D01*
X118108212Y-52880193D01*
X118117173Y-52884759D01*
X118168788Y-52933507D01*
X118185854Y-53002422D01*
X118172237Y-53054229D01*
X118148107Y-53101587D01*
X118146557Y-53111376D01*
X118146556Y-53111378D01*
X118138149Y-53164460D01*
X118130461Y-53213000D01*
X118132012Y-53222793D01*
X118144608Y-53302318D01*
X118148107Y-53324413D01*
X118199318Y-53424920D01*
X118279080Y-53504682D01*
X118379587Y-53555893D01*
X118389376Y-53557443D01*
X118389378Y-53557444D01*
X118481207Y-53571988D01*
X118491000Y-53573539D01*
X118500793Y-53571988D01*
X118592622Y-53557444D01*
X118592624Y-53557443D01*
X118602413Y-53555893D01*
X118702920Y-53504682D01*
X118782682Y-53424920D01*
X118833893Y-53324413D01*
X118837214Y-53303444D01*
X118850983Y-53216513D01*
X118881396Y-53152360D01*
X118941664Y-53114833D01*
X119012653Y-53115847D01*
X119048336Y-53137365D01*
X119050118Y-53134913D01*
X119058138Y-53140740D01*
X119065150Y-53147752D01*
X119165657Y-53198963D01*
X119175446Y-53200513D01*
X119175448Y-53200514D01*
X119267277Y-53215058D01*
X119277070Y-53216609D01*
X119286863Y-53215058D01*
X119299857Y-53213000D01*
X137688461Y-53213000D01*
X137690012Y-53222793D01*
X137702608Y-53302318D01*
X137706107Y-53324413D01*
X137757318Y-53424920D01*
X137837080Y-53504682D01*
X137937587Y-53555893D01*
X137947376Y-53557443D01*
X137947378Y-53557444D01*
X138039207Y-53571988D01*
X138049000Y-53573539D01*
X138058793Y-53571988D01*
X138150622Y-53557444D01*
X138150624Y-53557443D01*
X138160413Y-53555893D01*
X138260920Y-53504682D01*
X138298602Y-53467000D01*
X145308461Y-53467000D01*
X145326107Y-53578413D01*
X145377318Y-53678920D01*
X145457080Y-53758682D01*
X145557587Y-53809893D01*
X145567376Y-53811443D01*
X145567378Y-53811444D01*
X145659207Y-53825988D01*
X145669000Y-53827539D01*
X145678793Y-53825988D01*
X145770622Y-53811444D01*
X145770624Y-53811443D01*
X145780413Y-53809893D01*
X145880920Y-53758682D01*
X145960682Y-53678920D01*
X146011893Y-53578413D01*
X146029539Y-53467000D01*
X146578461Y-53467000D01*
X146596107Y-53578413D01*
X146647318Y-53678920D01*
X146727080Y-53758682D01*
X146827587Y-53809893D01*
X146837376Y-53811443D01*
X146837378Y-53811444D01*
X146929207Y-53825988D01*
X146939000Y-53827539D01*
X146948793Y-53825988D01*
X147040622Y-53811444D01*
X147040624Y-53811443D01*
X147050413Y-53809893D01*
X147150920Y-53758682D01*
X147230682Y-53678920D01*
X147273951Y-53594000D01*
X147848461Y-53594000D01*
X147850012Y-53603793D01*
X147862726Y-53684063D01*
X147866107Y-53705413D01*
X147917318Y-53805920D01*
X147997080Y-53885682D01*
X148097587Y-53936893D01*
X148107376Y-53938443D01*
X148107378Y-53938444D01*
X148199207Y-53952988D01*
X148209000Y-53954539D01*
X148218793Y-53952988D01*
X148310622Y-53938444D01*
X148310624Y-53938443D01*
X148320413Y-53936893D01*
X148420920Y-53885682D01*
X148500682Y-53805920D01*
X148551893Y-53705413D01*
X148555275Y-53684063D01*
X148567988Y-53603793D01*
X148569539Y-53594000D01*
X148563749Y-53557444D01*
X148553444Y-53492378D01*
X148553443Y-53492376D01*
X148551893Y-53482587D01*
X148500682Y-53382080D01*
X148420920Y-53302318D01*
X148320413Y-53251107D01*
X148313295Y-53249980D01*
X153222310Y-53249980D01*
X153224591Y-53346754D01*
X153228148Y-53497671D01*
X153228458Y-53510835D01*
X153229292Y-53515540D01*
X153272383Y-53758682D01*
X153273991Y-53767758D01*
X153275529Y-53772288D01*
X153275529Y-53772289D01*
X153289325Y-53812931D01*
X153357864Y-54014838D01*
X153478145Y-54246389D01*
X153632066Y-54457081D01*
X153816086Y-54642067D01*
X154025969Y-54797090D01*
X154256887Y-54918581D01*
X154503524Y-55003746D01*
X154587007Y-55018992D01*
X154756234Y-55049899D01*
X154756240Y-55049900D01*
X154760206Y-55050624D01*
X154805480Y-55052997D01*
X154842034Y-55054913D01*
X154842050Y-55054913D01*
X154843702Y-55055000D01*
X155006349Y-55055000D01*
X155008728Y-55054819D01*
X155008729Y-55054819D01*
X155195409Y-55040619D01*
X155195414Y-55040618D01*
X155200176Y-55040256D01*
X155204829Y-55039177D01*
X155204832Y-55039177D01*
X155392335Y-54995716D01*
X155454364Y-54981338D01*
X155696716Y-54884650D01*
X155921654Y-54752415D01*
X155925365Y-54749394D01*
X155925369Y-54749391D01*
X156120290Y-54590700D01*
X156124002Y-54587678D01*
X156299104Y-54394229D01*
X156442929Y-54176520D01*
X156453813Y-54152912D01*
X156550163Y-53943912D01*
X156550164Y-53943909D01*
X156552169Y-53939560D01*
X156582201Y-53835171D01*
X156622988Y-53693397D01*
X156622989Y-53693393D01*
X156624309Y-53688804D01*
X156626724Y-53670088D01*
X156657079Y-53434757D01*
X156657690Y-53430020D01*
X156653094Y-53235012D01*
X156651655Y-53173945D01*
X156651655Y-53173941D01*
X156651542Y-53169165D01*
X156631173Y-53054229D01*
X156606844Y-52916951D01*
X156606843Y-52916945D01*
X156606009Y-52912242D01*
X156595521Y-52881344D01*
X156529085Y-52685633D01*
X156522136Y-52665162D01*
X156401855Y-52433611D01*
X156247934Y-52222919D01*
X156244048Y-52219012D01*
X156067292Y-52041329D01*
X156063914Y-52037933D01*
X155854031Y-51882910D01*
X155678207Y-51790405D01*
X155627350Y-51763648D01*
X155627348Y-51763647D01*
X155623113Y-51761419D01*
X155376476Y-51676254D01*
X155292993Y-51661008D01*
X155123766Y-51630101D01*
X155123760Y-51630100D01*
X155119794Y-51629376D01*
X155074520Y-51627003D01*
X155037966Y-51625087D01*
X155037950Y-51625087D01*
X155036298Y-51625000D01*
X154873651Y-51625000D01*
X154871272Y-51625181D01*
X154871271Y-51625181D01*
X154684591Y-51639381D01*
X154684586Y-51639382D01*
X154679824Y-51639744D01*
X154675171Y-51640823D01*
X154675168Y-51640823D01*
X154496459Y-51682246D01*
X154425636Y-51698662D01*
X154183284Y-51795350D01*
X153958346Y-51927585D01*
X153954635Y-51930606D01*
X153954631Y-51930609D01*
X153818633Y-52041329D01*
X153755998Y-52092322D01*
X153635883Y-52225023D01*
X153590865Y-52274758D01*
X153580896Y-52285771D01*
X153578255Y-52289769D01*
X153578254Y-52289770D01*
X153523870Y-52372091D01*
X153437071Y-52503480D01*
X153435070Y-52507820D01*
X153435068Y-52507824D01*
X153329959Y-52735824D01*
X153327831Y-52740440D01*
X153326507Y-52745041D01*
X153326507Y-52745042D01*
X153259972Y-52976316D01*
X153255691Y-52991196D01*
X153255080Y-52995931D01*
X153255079Y-52995937D01*
X153234916Y-53152252D01*
X153222310Y-53249980D01*
X148313295Y-53249980D01*
X148310624Y-53249557D01*
X148310622Y-53249556D01*
X148218793Y-53235012D01*
X148209000Y-53233461D01*
X148199207Y-53235012D01*
X148107378Y-53249556D01*
X148107376Y-53249557D01*
X148097587Y-53251107D01*
X147997080Y-53302318D01*
X147917318Y-53382080D01*
X147866107Y-53482587D01*
X147864557Y-53492376D01*
X147864556Y-53492378D01*
X147854251Y-53557444D01*
X147848461Y-53594000D01*
X147273951Y-53594000D01*
X147281893Y-53578413D01*
X147299539Y-53467000D01*
X147292874Y-53424920D01*
X147283444Y-53365378D01*
X147283443Y-53365376D01*
X147281893Y-53355587D01*
X147230682Y-53255080D01*
X147150920Y-53175318D01*
X147050413Y-53124107D01*
X147040624Y-53122557D01*
X147040622Y-53122556D01*
X146948793Y-53108012D01*
X146939000Y-53106461D01*
X146929207Y-53108012D01*
X146837378Y-53122556D01*
X146837376Y-53122557D01*
X146827587Y-53124107D01*
X146727080Y-53175318D01*
X146647318Y-53255080D01*
X146596107Y-53355587D01*
X146594557Y-53365376D01*
X146594556Y-53365378D01*
X146585126Y-53424920D01*
X146578461Y-53467000D01*
X146029539Y-53467000D01*
X146022874Y-53424920D01*
X146013444Y-53365378D01*
X146013443Y-53365376D01*
X146011893Y-53355587D01*
X145960682Y-53255080D01*
X145880920Y-53175318D01*
X145780413Y-53124107D01*
X145770624Y-53122557D01*
X145770622Y-53122556D01*
X145678793Y-53108012D01*
X145669000Y-53106461D01*
X145659207Y-53108012D01*
X145567378Y-53122556D01*
X145567376Y-53122557D01*
X145557587Y-53124107D01*
X145457080Y-53175318D01*
X145377318Y-53255080D01*
X145326107Y-53355587D01*
X145324557Y-53365376D01*
X145324556Y-53365378D01*
X145315126Y-53424920D01*
X145308461Y-53467000D01*
X138298602Y-53467000D01*
X138340682Y-53424920D01*
X138391893Y-53324413D01*
X138395393Y-53302318D01*
X138407988Y-53222793D01*
X138409539Y-53213000D01*
X138401851Y-53164460D01*
X138393444Y-53111378D01*
X138393443Y-53111376D01*
X138391893Y-53101587D01*
X138340682Y-53001080D01*
X138260920Y-52921318D01*
X138160413Y-52870107D01*
X138150624Y-52868557D01*
X138150622Y-52868556D01*
X138058793Y-52854012D01*
X138049000Y-52852461D01*
X138039207Y-52854012D01*
X137947378Y-52868556D01*
X137947376Y-52868557D01*
X137937587Y-52870107D01*
X137837080Y-52921318D01*
X137757318Y-53001080D01*
X137706107Y-53101587D01*
X137704557Y-53111376D01*
X137704556Y-53111378D01*
X137696149Y-53164460D01*
X137688461Y-53213000D01*
X119299857Y-53213000D01*
X119378692Y-53200514D01*
X119378694Y-53200513D01*
X119388483Y-53198963D01*
X119488990Y-53147752D01*
X119568752Y-53067990D01*
X119619963Y-52967483D01*
X119625242Y-52934157D01*
X119636058Y-52865863D01*
X119637609Y-52856070D01*
X119632145Y-52821571D01*
X119621514Y-52754448D01*
X119621513Y-52754446D01*
X119619963Y-52744657D01*
X119568752Y-52644150D01*
X119502602Y-52578000D01*
X132735461Y-52578000D01*
X132737012Y-52587793D01*
X132749608Y-52667318D01*
X132753107Y-52689413D01*
X132804318Y-52789920D01*
X132884080Y-52869682D01*
X132984587Y-52920893D01*
X132994376Y-52922443D01*
X132994378Y-52922444D01*
X133086207Y-52936988D01*
X133096000Y-52938539D01*
X133105793Y-52936988D01*
X133197622Y-52922444D01*
X133197624Y-52922443D01*
X133207413Y-52920893D01*
X133307920Y-52869682D01*
X133387682Y-52789920D01*
X133438893Y-52689413D01*
X133442393Y-52667318D01*
X133454988Y-52587793D01*
X133456539Y-52578000D01*
X133453053Y-52555988D01*
X133440444Y-52476378D01*
X133440443Y-52476376D01*
X133438893Y-52466587D01*
X133387682Y-52366080D01*
X133307920Y-52286318D01*
X133207413Y-52235107D01*
X133197624Y-52233557D01*
X133197622Y-52233556D01*
X133105793Y-52219012D01*
X133096000Y-52217461D01*
X133086207Y-52219012D01*
X132994378Y-52233556D01*
X132994376Y-52233557D01*
X132984587Y-52235107D01*
X132884080Y-52286318D01*
X132804318Y-52366080D01*
X132753107Y-52466587D01*
X132751557Y-52476376D01*
X132751556Y-52476378D01*
X132738947Y-52555988D01*
X132735461Y-52578000D01*
X119502602Y-52578000D01*
X119488990Y-52564388D01*
X119388483Y-52513177D01*
X119378694Y-52511627D01*
X119378692Y-52511626D01*
X119286863Y-52497082D01*
X119277070Y-52495531D01*
X119267277Y-52497082D01*
X119175448Y-52511626D01*
X119175446Y-52511627D01*
X119165657Y-52513177D01*
X119065150Y-52564388D01*
X118985388Y-52644150D01*
X118934177Y-52744657D01*
X118932626Y-52754448D01*
X118932626Y-52754449D01*
X118917087Y-52852557D01*
X118886674Y-52916710D01*
X118826406Y-52954237D01*
X118755417Y-52953223D01*
X118719734Y-52931705D01*
X118717952Y-52934157D01*
X118709931Y-52928329D01*
X118702920Y-52921318D01*
X118685127Y-52912252D01*
X118633512Y-52863504D01*
X118616446Y-52794589D01*
X118630063Y-52742782D01*
X118649692Y-52704257D01*
X118654193Y-52695424D01*
X118663206Y-52638522D01*
X118670288Y-52593804D01*
X118671839Y-52584011D01*
X118670288Y-52574218D01*
X118655744Y-52482389D01*
X118655743Y-52482387D01*
X118654193Y-52472598D01*
X118602982Y-52372091D01*
X118523220Y-52292329D01*
X118422713Y-52241118D01*
X118412924Y-52239568D01*
X118412922Y-52239567D01*
X118321093Y-52225023D01*
X118311300Y-52223472D01*
X118301507Y-52225023D01*
X118209678Y-52239567D01*
X118209676Y-52239568D01*
X118199887Y-52241118D01*
X118107181Y-52288354D01*
X118037406Y-52301458D01*
X117971621Y-52274758D01*
X117960884Y-52265182D01*
X117940920Y-52245218D01*
X117840413Y-52194007D01*
X117830624Y-52192457D01*
X117830622Y-52192456D01*
X117738793Y-52177912D01*
X117729000Y-52176361D01*
X117719207Y-52177912D01*
X117627378Y-52192456D01*
X117627376Y-52192457D01*
X117617587Y-52194007D01*
X117517080Y-52245218D01*
X117437318Y-52324980D01*
X117386107Y-52425487D01*
X117384557Y-52435276D01*
X117384556Y-52435278D01*
X117373754Y-52503480D01*
X117368461Y-52536900D01*
X105781287Y-52536900D01*
X105875920Y-52488682D01*
X105955682Y-52408920D01*
X106006893Y-52308413D01*
X106009441Y-52292329D01*
X106022988Y-52206793D01*
X106024539Y-52197000D01*
X106018749Y-52160444D01*
X106008444Y-52095378D01*
X106008443Y-52095376D01*
X106006893Y-52085587D01*
X105955682Y-51985080D01*
X105939197Y-51968595D01*
X105905171Y-51906283D01*
X105910236Y-51835468D01*
X105939197Y-51790405D01*
X105955682Y-51773920D01*
X106006893Y-51673413D01*
X106016476Y-51612912D01*
X106022988Y-51571793D01*
X106024539Y-51562000D01*
X106006893Y-51450587D01*
X105955682Y-51350080D01*
X105875920Y-51270318D01*
X105775413Y-51219107D01*
X105765624Y-51217557D01*
X105765622Y-51217556D01*
X105673793Y-51203012D01*
X105664000Y-51201461D01*
X105654207Y-51203012D01*
X105562378Y-51217556D01*
X105562376Y-51217557D01*
X105552587Y-51219107D01*
X105452080Y-51270318D01*
X105372318Y-51350080D01*
X105321107Y-51450587D01*
X105303461Y-51562000D01*
X105305012Y-51571793D01*
X105311525Y-51612912D01*
X105321107Y-51673413D01*
X105372318Y-51773920D01*
X105388803Y-51790405D01*
X105422829Y-51852717D01*
X105417764Y-51923532D01*
X105388803Y-51968595D01*
X105372318Y-51985080D01*
X105321107Y-52085587D01*
X105319557Y-52095376D01*
X105319556Y-52095378D01*
X105309251Y-52160444D01*
X105303461Y-52197000D01*
X89408000Y-52197000D01*
X89408000Y-51054000D01*
X121305461Y-51054000D01*
X121323107Y-51165413D01*
X121374318Y-51265920D01*
X121454080Y-51345682D01*
X121554587Y-51396893D01*
X121564376Y-51398443D01*
X121564378Y-51398444D01*
X121656207Y-51412988D01*
X121666000Y-51414539D01*
X121675793Y-51412988D01*
X121767622Y-51398444D01*
X121767624Y-51398443D01*
X121777413Y-51396893D01*
X121877920Y-51345682D01*
X121894405Y-51329197D01*
X121956717Y-51295171D01*
X122027532Y-51300236D01*
X122072595Y-51329197D01*
X122089080Y-51345682D01*
X122086257Y-51348505D01*
X122117702Y-51389274D01*
X122123785Y-51460010D01*
X122090660Y-51522805D01*
X122089003Y-51524241D01*
X122089080Y-51524318D01*
X122009318Y-51604080D01*
X121958107Y-51704587D01*
X121956557Y-51714376D01*
X121956556Y-51714378D01*
X121947126Y-51773920D01*
X121940461Y-51816000D01*
X121942012Y-51825793D01*
X121954608Y-51905318D01*
X121958107Y-51927413D01*
X122009318Y-52027920D01*
X122089080Y-52107682D01*
X122189587Y-52158893D01*
X122199376Y-52160443D01*
X122199378Y-52160444D01*
X122291207Y-52174988D01*
X122301000Y-52176539D01*
X122310793Y-52174988D01*
X122402622Y-52160444D01*
X122402624Y-52160443D01*
X122412413Y-52158893D01*
X122512920Y-52107682D01*
X122592682Y-52027920D01*
X122643893Y-51927413D01*
X122647393Y-51905318D01*
X122659988Y-51825793D01*
X122661539Y-51816000D01*
X122654874Y-51773920D01*
X122645444Y-51714378D01*
X122645443Y-51714376D01*
X122643893Y-51704587D01*
X122592682Y-51604080D01*
X122512920Y-51524318D01*
X122515743Y-51521495D01*
X122484298Y-51480726D01*
X122478215Y-51409990D01*
X122511340Y-51347195D01*
X122512997Y-51345759D01*
X122512920Y-51345682D01*
X122592682Y-51265920D01*
X122643893Y-51165413D01*
X122661539Y-51054000D01*
X122659988Y-51044207D01*
X122645444Y-50952378D01*
X122645443Y-50952376D01*
X122643893Y-50942587D01*
X122592682Y-50842080D01*
X122512920Y-50762318D01*
X122412413Y-50711107D01*
X122402624Y-50709557D01*
X122402622Y-50709556D01*
X122310793Y-50695012D01*
X122301000Y-50693461D01*
X122291207Y-50695012D01*
X122199378Y-50709556D01*
X122199376Y-50709557D01*
X122189587Y-50711107D01*
X122089080Y-50762318D01*
X122072595Y-50778803D01*
X122010283Y-50812829D01*
X121939468Y-50807764D01*
X121894405Y-50778803D01*
X121877920Y-50762318D01*
X121880743Y-50759495D01*
X121849298Y-50718726D01*
X121843215Y-50647990D01*
X121876340Y-50585195D01*
X121877997Y-50583759D01*
X121877920Y-50583682D01*
X121957682Y-50503920D01*
X122008893Y-50403413D01*
X122026539Y-50292000D01*
X122008893Y-50180587D01*
X121957682Y-50080080D01*
X121877920Y-50000318D01*
X121777413Y-49949107D01*
X121767624Y-49947557D01*
X121767622Y-49947556D01*
X121675793Y-49933012D01*
X121666000Y-49931461D01*
X121656207Y-49933012D01*
X121564378Y-49947556D01*
X121564376Y-49947557D01*
X121554587Y-49949107D01*
X121454080Y-50000318D01*
X121374318Y-50080080D01*
X121323107Y-50180587D01*
X121305461Y-50292000D01*
X121323107Y-50403413D01*
X121374318Y-50503920D01*
X121454080Y-50583682D01*
X121451257Y-50586505D01*
X121482702Y-50627274D01*
X121488785Y-50698010D01*
X121455660Y-50760805D01*
X121454003Y-50762241D01*
X121454080Y-50762318D01*
X121374318Y-50842080D01*
X121323107Y-50942587D01*
X121321557Y-50952376D01*
X121321556Y-50952378D01*
X121307012Y-51044207D01*
X121305461Y-51054000D01*
X89408000Y-51054000D01*
X89408000Y-50419000D01*
X95905461Y-50419000D01*
X95923107Y-50530413D01*
X95974318Y-50630920D01*
X96054080Y-50710682D01*
X96154587Y-50761893D01*
X96164376Y-50763443D01*
X96164378Y-50763444D01*
X96256207Y-50777988D01*
X96266000Y-50779539D01*
X96275793Y-50777988D01*
X96367622Y-50763444D01*
X96367624Y-50763443D01*
X96377413Y-50761893D01*
X96477920Y-50710682D01*
X96557682Y-50630920D01*
X96608893Y-50530413D01*
X96626539Y-50419000D01*
X96608893Y-50307587D01*
X96557682Y-50207080D01*
X96477920Y-50127318D01*
X96377413Y-50076107D01*
X96367624Y-50074557D01*
X96367622Y-50074556D01*
X96275793Y-50060012D01*
X96266000Y-50058461D01*
X96256207Y-50060012D01*
X96164378Y-50074556D01*
X96164376Y-50074557D01*
X96154587Y-50076107D01*
X96054080Y-50127318D01*
X95974318Y-50207080D01*
X95923107Y-50307587D01*
X95905461Y-50419000D01*
X89408000Y-50419000D01*
X89408000Y-49784000D01*
X99461461Y-49784000D01*
X99479107Y-49895413D01*
X99530318Y-49995920D01*
X99610080Y-50075682D01*
X99710587Y-50126893D01*
X99720376Y-50128443D01*
X99720378Y-50128444D01*
X99812207Y-50142988D01*
X99822000Y-50144539D01*
X99831793Y-50142988D01*
X99923622Y-50128444D01*
X99923624Y-50128443D01*
X99933413Y-50126893D01*
X100033920Y-50075682D01*
X100113682Y-49995920D01*
X100164893Y-49895413D01*
X100182539Y-49784000D01*
X100176749Y-49747444D01*
X100166444Y-49682378D01*
X100166443Y-49682376D01*
X100164893Y-49672587D01*
X100156951Y-49657000D01*
X105430461Y-49657000D01*
X105448107Y-49768413D01*
X105499318Y-49868920D01*
X105579080Y-49948682D01*
X105679587Y-49999893D01*
X105689376Y-50001443D01*
X105689378Y-50001444D01*
X105781207Y-50015988D01*
X105791000Y-50017539D01*
X105800793Y-50015988D01*
X105892622Y-50001444D01*
X105892624Y-50001443D01*
X105902413Y-49999893D01*
X106002920Y-49948682D01*
X106082682Y-49868920D01*
X106133893Y-49768413D01*
X106151539Y-49657000D01*
X106144874Y-49614920D01*
X106135444Y-49555378D01*
X106135443Y-49555376D01*
X106133893Y-49545587D01*
X106082682Y-49445080D01*
X106040602Y-49403000D01*
X138831461Y-49403000D01*
X138833012Y-49412793D01*
X138845608Y-49492318D01*
X138849107Y-49514413D01*
X138900318Y-49614920D01*
X138980080Y-49694682D01*
X139080587Y-49745893D01*
X139090376Y-49747443D01*
X139090378Y-49747444D01*
X139182207Y-49761988D01*
X139192000Y-49763539D01*
X139201793Y-49761988D01*
X139293622Y-49747444D01*
X139293624Y-49747443D01*
X139303413Y-49745893D01*
X139403920Y-49694682D01*
X139483682Y-49614920D01*
X139534893Y-49514413D01*
X139538393Y-49492318D01*
X139550988Y-49412793D01*
X139552539Y-49403000D01*
X142895461Y-49403000D01*
X142897012Y-49412793D01*
X142909608Y-49492318D01*
X142913107Y-49514413D01*
X142964318Y-49614920D01*
X143044080Y-49694682D01*
X143144587Y-49745893D01*
X143154376Y-49747443D01*
X143154378Y-49747444D01*
X143246207Y-49761988D01*
X143256000Y-49763539D01*
X143265793Y-49761988D01*
X143357622Y-49747444D01*
X143357624Y-49747443D01*
X143367413Y-49745893D01*
X143467920Y-49694682D01*
X143547682Y-49614920D01*
X143598893Y-49514413D01*
X143602393Y-49492318D01*
X143614988Y-49412793D01*
X143616539Y-49403000D01*
X143598893Y-49291587D01*
X143547682Y-49191080D01*
X143467920Y-49111318D01*
X143367413Y-49060107D01*
X143357624Y-49058557D01*
X143357622Y-49058556D01*
X143265793Y-49044012D01*
X143256000Y-49042461D01*
X143246207Y-49044012D01*
X143154378Y-49058556D01*
X143154376Y-49058557D01*
X143144587Y-49060107D01*
X143044080Y-49111318D01*
X142964318Y-49191080D01*
X142913107Y-49291587D01*
X142895461Y-49403000D01*
X139552539Y-49403000D01*
X139534893Y-49291587D01*
X139483682Y-49191080D01*
X139403920Y-49111318D01*
X139303413Y-49060107D01*
X139293624Y-49058557D01*
X139293622Y-49058556D01*
X139201793Y-49044012D01*
X139192000Y-49042461D01*
X139182207Y-49044012D01*
X139090378Y-49058556D01*
X139090376Y-49058557D01*
X139080587Y-49060107D01*
X138980080Y-49111318D01*
X138900318Y-49191080D01*
X138849107Y-49291587D01*
X138831461Y-49403000D01*
X106040602Y-49403000D01*
X106002920Y-49365318D01*
X105902413Y-49314107D01*
X105892624Y-49312557D01*
X105892622Y-49312556D01*
X105800793Y-49298012D01*
X105791000Y-49296461D01*
X105781207Y-49298012D01*
X105689378Y-49312556D01*
X105689376Y-49312557D01*
X105679587Y-49314107D01*
X105579080Y-49365318D01*
X105499318Y-49445080D01*
X105448107Y-49545587D01*
X105446557Y-49555376D01*
X105446556Y-49555378D01*
X105437126Y-49614920D01*
X105430461Y-49657000D01*
X100156951Y-49657000D01*
X100113682Y-49572080D01*
X100033920Y-49492318D01*
X99933413Y-49441107D01*
X99923624Y-49439557D01*
X99923622Y-49439556D01*
X99831793Y-49425012D01*
X99822000Y-49423461D01*
X99812207Y-49425012D01*
X99720378Y-49439556D01*
X99720376Y-49439557D01*
X99710587Y-49441107D01*
X99610080Y-49492318D01*
X99530318Y-49572080D01*
X99479107Y-49672587D01*
X99477557Y-49682376D01*
X99477556Y-49682378D01*
X99467251Y-49747444D01*
X99461461Y-49784000D01*
X89408000Y-49784000D01*
X89408000Y-48387000D01*
X114955461Y-48387000D01*
X114973107Y-48498413D01*
X115024318Y-48598920D01*
X115104080Y-48678682D01*
X115204587Y-48729893D01*
X115214376Y-48731443D01*
X115214378Y-48731444D01*
X115306207Y-48745988D01*
X115316000Y-48747539D01*
X115325793Y-48745988D01*
X115417622Y-48731444D01*
X115417624Y-48731443D01*
X115427413Y-48729893D01*
X115527920Y-48678682D01*
X115607682Y-48598920D01*
X115650951Y-48514000D01*
X132735461Y-48514000D01*
X132737012Y-48523793D01*
X132746787Y-48585507D01*
X132753107Y-48625413D01*
X132804318Y-48725920D01*
X132884080Y-48805682D01*
X132984587Y-48856893D01*
X132994376Y-48858443D01*
X132994378Y-48858444D01*
X133086207Y-48872988D01*
X133096000Y-48874539D01*
X133105793Y-48872988D01*
X133197622Y-48858444D01*
X133197624Y-48858443D01*
X133207413Y-48856893D01*
X133307920Y-48805682D01*
X133387682Y-48725920D01*
X133438893Y-48625413D01*
X133445214Y-48585507D01*
X133454988Y-48523793D01*
X133456539Y-48514000D01*
X133438893Y-48402587D01*
X133387682Y-48302080D01*
X133307920Y-48222318D01*
X133207413Y-48171107D01*
X133197624Y-48169557D01*
X133197622Y-48169556D01*
X133105793Y-48155012D01*
X133096000Y-48153461D01*
X133086207Y-48155012D01*
X132994378Y-48169556D01*
X132994376Y-48169557D01*
X132984587Y-48171107D01*
X132884080Y-48222318D01*
X132804318Y-48302080D01*
X132753107Y-48402587D01*
X132735461Y-48514000D01*
X115650951Y-48514000D01*
X115658893Y-48498413D01*
X115676539Y-48387000D01*
X115658893Y-48275587D01*
X115607682Y-48175080D01*
X115527920Y-48095318D01*
X115427413Y-48044107D01*
X115417624Y-48042557D01*
X115417622Y-48042556D01*
X115325793Y-48028012D01*
X115316000Y-48026461D01*
X115306207Y-48028012D01*
X115214378Y-48042556D01*
X115214376Y-48042557D01*
X115204587Y-48044107D01*
X115104080Y-48095318D01*
X115024318Y-48175080D01*
X114973107Y-48275587D01*
X114955461Y-48387000D01*
X89408000Y-48387000D01*
X89408000Y-47879000D01*
X113812461Y-47879000D01*
X113830107Y-47990413D01*
X113881318Y-48090920D01*
X113961080Y-48170682D01*
X114061587Y-48221893D01*
X114071376Y-48223443D01*
X114071378Y-48223444D01*
X114163207Y-48237988D01*
X114173000Y-48239539D01*
X114182793Y-48237988D01*
X114274622Y-48223444D01*
X114274624Y-48223443D01*
X114284413Y-48221893D01*
X114384920Y-48170682D01*
X114464682Y-48090920D01*
X114515893Y-47990413D01*
X114533539Y-47879000D01*
X121178461Y-47879000D01*
X121196107Y-47990413D01*
X121247318Y-48090920D01*
X121327080Y-48170682D01*
X121427587Y-48221893D01*
X121437376Y-48223443D01*
X121437378Y-48223444D01*
X121529207Y-48237988D01*
X121539000Y-48239539D01*
X121548793Y-48237988D01*
X121640622Y-48223444D01*
X121640624Y-48223443D01*
X121650413Y-48221893D01*
X121750920Y-48170682D01*
X121830682Y-48090920D01*
X121881893Y-47990413D01*
X121899539Y-47879000D01*
X121881893Y-47767587D01*
X121830682Y-47667080D01*
X121814197Y-47650595D01*
X121780171Y-47588283D01*
X121785236Y-47517468D01*
X121814197Y-47472405D01*
X121830682Y-47455920D01*
X121881893Y-47355413D01*
X121887417Y-47320539D01*
X121897988Y-47253793D01*
X121899539Y-47244000D01*
X121881893Y-47132587D01*
X121830682Y-47032080D01*
X121750920Y-46952318D01*
X121650413Y-46901107D01*
X121640624Y-46899557D01*
X121640622Y-46899556D01*
X121548793Y-46885012D01*
X121539000Y-46883461D01*
X121529207Y-46885012D01*
X121437378Y-46899556D01*
X121437376Y-46899557D01*
X121427587Y-46901107D01*
X121327080Y-46952318D01*
X121247318Y-47032080D01*
X121196107Y-47132587D01*
X121178461Y-47244000D01*
X121180012Y-47253793D01*
X121190584Y-47320539D01*
X121196107Y-47355413D01*
X121247318Y-47455920D01*
X121263803Y-47472405D01*
X121297829Y-47534717D01*
X121292764Y-47605532D01*
X121263803Y-47650595D01*
X121247318Y-47667080D01*
X121196107Y-47767587D01*
X121178461Y-47879000D01*
X114533539Y-47879000D01*
X114515893Y-47767587D01*
X114464682Y-47667080D01*
X114384920Y-47587318D01*
X114284413Y-47536107D01*
X114274624Y-47534557D01*
X114274622Y-47534556D01*
X114182793Y-47520012D01*
X114173000Y-47518461D01*
X114163207Y-47520012D01*
X114071378Y-47534556D01*
X114071376Y-47534557D01*
X114061587Y-47536107D01*
X113961080Y-47587318D01*
X113881318Y-47667080D01*
X113830107Y-47767587D01*
X113812461Y-47879000D01*
X89408000Y-47879000D01*
X89408000Y-46960000D01*
X94030461Y-46960000D01*
X94048107Y-47071413D01*
X94099318Y-47171920D01*
X94179080Y-47251682D01*
X94279587Y-47302893D01*
X94289376Y-47304443D01*
X94289378Y-47304444D01*
X94381207Y-47318988D01*
X94391000Y-47320539D01*
X94400793Y-47318988D01*
X94492622Y-47304444D01*
X94492624Y-47304443D01*
X94502413Y-47302893D01*
X94511249Y-47298391D01*
X94587798Y-47259388D01*
X94657574Y-47246284D01*
X94702202Y-47259388D01*
X94778751Y-47298391D01*
X94787587Y-47302893D01*
X94797376Y-47304443D01*
X94797378Y-47304444D01*
X94889207Y-47318988D01*
X94899000Y-47320539D01*
X94908793Y-47318988D01*
X95000622Y-47304444D01*
X95000624Y-47304443D01*
X95010413Y-47302893D01*
X95019249Y-47298391D01*
X95095798Y-47259388D01*
X95165574Y-47246284D01*
X95210202Y-47259388D01*
X95286751Y-47298391D01*
X95295587Y-47302893D01*
X95305376Y-47304443D01*
X95305378Y-47304444D01*
X95397207Y-47318988D01*
X95407000Y-47320539D01*
X95416793Y-47318988D01*
X95508622Y-47304444D01*
X95508624Y-47304443D01*
X95518413Y-47302893D01*
X95618920Y-47251682D01*
X95698682Y-47171920D01*
X95749893Y-47071413D01*
X95767539Y-46960000D01*
X95755662Y-46885012D01*
X95751444Y-46858378D01*
X95751443Y-46858376D01*
X95749893Y-46848587D01*
X95698682Y-46748080D01*
X95618920Y-46668318D01*
X95518413Y-46617107D01*
X95508624Y-46615557D01*
X95508622Y-46615556D01*
X95416793Y-46601012D01*
X95407000Y-46599461D01*
X95397207Y-46601012D01*
X95305378Y-46615556D01*
X95305376Y-46615557D01*
X95295587Y-46617107D01*
X95286752Y-46621609D01*
X95286751Y-46621609D01*
X95210202Y-46660612D01*
X95140426Y-46673716D01*
X95095798Y-46660612D01*
X95019249Y-46621609D01*
X95019248Y-46621609D01*
X95010413Y-46617107D01*
X95000624Y-46615557D01*
X95000622Y-46615556D01*
X94908793Y-46601012D01*
X94899000Y-46599461D01*
X94889207Y-46601012D01*
X94797378Y-46615556D01*
X94797376Y-46615557D01*
X94787587Y-46617107D01*
X94778752Y-46621609D01*
X94778751Y-46621609D01*
X94702202Y-46660612D01*
X94632426Y-46673716D01*
X94587798Y-46660612D01*
X94511249Y-46621609D01*
X94511248Y-46621609D01*
X94502413Y-46617107D01*
X94492624Y-46615557D01*
X94492622Y-46615556D01*
X94400793Y-46601012D01*
X94391000Y-46599461D01*
X94381207Y-46601012D01*
X94289378Y-46615556D01*
X94289376Y-46615557D01*
X94279587Y-46617107D01*
X94179080Y-46668318D01*
X94099318Y-46748080D01*
X94048107Y-46848587D01*
X94046557Y-46858376D01*
X94046556Y-46858378D01*
X94042338Y-46885012D01*
X94030461Y-46960000D01*
X89408000Y-46960000D01*
X89408000Y-46482000D01*
X119654461Y-46482000D01*
X119672107Y-46593413D01*
X119723318Y-46693920D01*
X119803080Y-46773682D01*
X119903587Y-46824893D01*
X119913376Y-46826443D01*
X119913378Y-46826444D01*
X120005207Y-46840988D01*
X120015000Y-46842539D01*
X120024793Y-46840988D01*
X120116622Y-46826444D01*
X120116624Y-46826443D01*
X120126413Y-46824893D01*
X120226920Y-46773682D01*
X120306682Y-46693920D01*
X120357893Y-46593413D01*
X120375539Y-46482000D01*
X120369749Y-46445444D01*
X120361459Y-46393101D01*
X122486562Y-46393101D01*
X122488113Y-46402894D01*
X122494607Y-46443893D01*
X122504208Y-46504514D01*
X122555419Y-46605021D01*
X122635181Y-46684783D01*
X122735688Y-46735994D01*
X122745477Y-46737544D01*
X122745479Y-46737545D01*
X122837308Y-46752089D01*
X122847101Y-46753640D01*
X122856894Y-46752089D01*
X122948723Y-46737545D01*
X122948725Y-46737544D01*
X122958514Y-46735994D01*
X123059021Y-46684783D01*
X123138783Y-46605021D01*
X123189994Y-46504514D01*
X123199596Y-46443893D01*
X123206089Y-46402894D01*
X123207640Y-46393101D01*
X123205625Y-46380378D01*
X123191545Y-46291479D01*
X123191544Y-46291477D01*
X123189994Y-46281688D01*
X123138783Y-46181181D01*
X123059021Y-46101419D01*
X122958514Y-46050208D01*
X122948725Y-46048658D01*
X122948723Y-46048657D01*
X122856894Y-46034113D01*
X122847101Y-46032562D01*
X122837308Y-46034113D01*
X122745479Y-46048657D01*
X122745477Y-46048658D01*
X122735688Y-46050208D01*
X122635181Y-46101419D01*
X122555419Y-46181181D01*
X122504208Y-46281688D01*
X122502658Y-46291477D01*
X122502657Y-46291479D01*
X122488577Y-46380378D01*
X122486562Y-46393101D01*
X120361459Y-46393101D01*
X120359444Y-46380378D01*
X120359443Y-46380376D01*
X120357893Y-46370587D01*
X120306682Y-46270080D01*
X120226920Y-46190318D01*
X120126413Y-46139107D01*
X120116624Y-46137557D01*
X120116622Y-46137556D01*
X120024793Y-46123012D01*
X120015000Y-46121461D01*
X120005207Y-46123012D01*
X119913378Y-46137556D01*
X119913376Y-46137557D01*
X119903587Y-46139107D01*
X119803080Y-46190318D01*
X119723318Y-46270080D01*
X119672107Y-46370587D01*
X119670557Y-46380376D01*
X119670556Y-46380378D01*
X119660251Y-46445444D01*
X119654461Y-46482000D01*
X89408000Y-46482000D01*
X89408000Y-46101000D01*
X100985461Y-46101000D01*
X100987012Y-46110793D01*
X100999608Y-46190318D01*
X101003107Y-46212413D01*
X101054318Y-46312920D01*
X101134080Y-46392682D01*
X101234587Y-46443893D01*
X101244376Y-46445443D01*
X101244378Y-46445444D01*
X101336207Y-46459988D01*
X101346000Y-46461539D01*
X101355793Y-46459988D01*
X101447622Y-46445444D01*
X101447624Y-46445443D01*
X101457413Y-46443893D01*
X101557920Y-46392682D01*
X101637682Y-46312920D01*
X101688893Y-46212413D01*
X101692393Y-46190318D01*
X101704988Y-46110793D01*
X101706539Y-46101000D01*
X102890461Y-46101000D01*
X102892012Y-46110793D01*
X102904608Y-46190318D01*
X102908107Y-46212413D01*
X102959318Y-46312920D01*
X103039080Y-46392682D01*
X103139587Y-46443893D01*
X103149376Y-46445443D01*
X103149378Y-46445444D01*
X103241207Y-46459988D01*
X103251000Y-46461539D01*
X103260793Y-46459988D01*
X103352622Y-46445444D01*
X103352624Y-46445443D01*
X103362413Y-46443893D01*
X103462920Y-46392682D01*
X103542682Y-46312920D01*
X103593893Y-46212413D01*
X103597393Y-46190318D01*
X103609988Y-46110793D01*
X103611539Y-46101000D01*
X104795461Y-46101000D01*
X104797012Y-46110793D01*
X104809608Y-46190318D01*
X104813107Y-46212413D01*
X104864318Y-46312920D01*
X104944080Y-46392682D01*
X105044587Y-46443893D01*
X105054376Y-46445443D01*
X105054378Y-46445444D01*
X105146207Y-46459988D01*
X105156000Y-46461539D01*
X105165793Y-46459988D01*
X105257622Y-46445444D01*
X105257624Y-46445443D01*
X105267413Y-46443893D01*
X105367920Y-46392682D01*
X105447682Y-46312920D01*
X105498893Y-46212413D01*
X105502393Y-46190318D01*
X105514988Y-46110793D01*
X105516539Y-46101000D01*
X107081461Y-46101000D01*
X107083012Y-46110793D01*
X107095608Y-46190318D01*
X107099107Y-46212413D01*
X107150318Y-46312920D01*
X107230080Y-46392682D01*
X107330587Y-46443893D01*
X107340376Y-46445443D01*
X107340378Y-46445444D01*
X107432207Y-46459988D01*
X107442000Y-46461539D01*
X107451793Y-46459988D01*
X107543622Y-46445444D01*
X107543624Y-46445443D01*
X107553413Y-46443893D01*
X107653920Y-46392682D01*
X107660935Y-46385667D01*
X107661524Y-46385239D01*
X107728391Y-46361379D01*
X107797543Y-46377457D01*
X107809652Y-46385239D01*
X107810241Y-46385667D01*
X107817256Y-46392682D01*
X107917763Y-46443893D01*
X107927552Y-46445443D01*
X107927554Y-46445444D01*
X108019383Y-46459988D01*
X108029176Y-46461539D01*
X108038969Y-46459988D01*
X108130798Y-46445444D01*
X108130800Y-46445443D01*
X108140589Y-46443893D01*
X108241096Y-46392682D01*
X108247594Y-46386184D01*
X108314082Y-46362459D01*
X108383234Y-46378538D01*
X108394655Y-46385878D01*
X108401459Y-46392682D01*
X108501966Y-46443893D01*
X108511755Y-46445443D01*
X108511757Y-46445444D01*
X108603586Y-46459988D01*
X108613379Y-46461539D01*
X108623172Y-46459988D01*
X108715001Y-46445444D01*
X108715003Y-46445443D01*
X108724792Y-46443893D01*
X108825299Y-46392682D01*
X108905061Y-46312920D01*
X108956272Y-46212413D01*
X108959772Y-46190318D01*
X108972367Y-46110793D01*
X108973918Y-46101000D01*
X109421246Y-46101000D01*
X109422797Y-46110793D01*
X109435393Y-46190318D01*
X109438892Y-46212413D01*
X109490103Y-46312920D01*
X109569865Y-46392682D01*
X109670372Y-46443893D01*
X109680161Y-46445443D01*
X109680163Y-46445444D01*
X109771992Y-46459988D01*
X109781785Y-46461539D01*
X109791578Y-46459988D01*
X109883407Y-46445444D01*
X109883409Y-46445443D01*
X109893198Y-46443893D01*
X109993705Y-46392682D01*
X110000203Y-46386184D01*
X110066691Y-46362459D01*
X110135843Y-46378538D01*
X110147264Y-46385878D01*
X110154068Y-46392682D01*
X110254575Y-46443893D01*
X110264364Y-46445443D01*
X110264366Y-46445444D01*
X110356195Y-46459988D01*
X110365988Y-46461539D01*
X110375781Y-46459988D01*
X110467610Y-46445444D01*
X110467612Y-46445443D01*
X110477401Y-46443893D01*
X110577908Y-46392682D01*
X110584406Y-46386184D01*
X110650894Y-46362459D01*
X110720046Y-46378538D01*
X110731467Y-46385878D01*
X110738271Y-46392682D01*
X110838778Y-46443893D01*
X110848567Y-46445443D01*
X110848569Y-46445444D01*
X110940398Y-46459988D01*
X110950191Y-46461539D01*
X110959984Y-46459988D01*
X111051813Y-46445444D01*
X111051815Y-46445443D01*
X111061604Y-46443893D01*
X111162111Y-46392682D01*
X111168609Y-46386184D01*
X111235097Y-46362459D01*
X111304249Y-46378538D01*
X111315670Y-46385878D01*
X111322474Y-46392682D01*
X111422981Y-46443893D01*
X111432770Y-46445443D01*
X111432772Y-46445444D01*
X111524601Y-46459988D01*
X111534394Y-46461539D01*
X111544187Y-46459988D01*
X111636016Y-46445444D01*
X111636018Y-46445443D01*
X111645807Y-46443893D01*
X111746314Y-46392682D01*
X111752812Y-46386184D01*
X111819300Y-46362459D01*
X111888452Y-46378538D01*
X111899873Y-46385878D01*
X111906677Y-46392682D01*
X112007184Y-46443893D01*
X112016973Y-46445443D01*
X112016975Y-46445444D01*
X112108804Y-46459988D01*
X112118597Y-46461539D01*
X112128390Y-46459988D01*
X112220219Y-46445444D01*
X112220221Y-46445443D01*
X112230010Y-46443893D01*
X112330517Y-46392682D01*
X112337015Y-46386184D01*
X112403503Y-46362459D01*
X112472655Y-46378538D01*
X112484076Y-46385878D01*
X112490880Y-46392682D01*
X112591387Y-46443893D01*
X112601176Y-46445443D01*
X112601178Y-46445444D01*
X112693007Y-46459988D01*
X112702800Y-46461539D01*
X112712593Y-46459988D01*
X112804422Y-46445444D01*
X112804424Y-46445443D01*
X112814213Y-46443893D01*
X112914720Y-46392682D01*
X112994482Y-46312920D01*
X113045693Y-46212413D01*
X113049193Y-46190318D01*
X113061788Y-46110793D01*
X113063339Y-46101000D01*
X113056007Y-46054709D01*
X113047244Y-45999378D01*
X113047243Y-45999376D01*
X113045693Y-45989587D01*
X113037751Y-45974000D01*
X138577461Y-45974000D01*
X138595107Y-46085413D01*
X138646318Y-46185920D01*
X138726080Y-46265682D01*
X138826587Y-46316893D01*
X138836376Y-46318443D01*
X138836378Y-46318444D01*
X138928207Y-46332988D01*
X138938000Y-46334539D01*
X138947793Y-46332988D01*
X139039622Y-46318444D01*
X139039624Y-46318443D01*
X139049413Y-46316893D01*
X139149920Y-46265682D01*
X139229682Y-46185920D01*
X139280893Y-46085413D01*
X139298539Y-45974000D01*
X139285682Y-45892821D01*
X139282444Y-45872378D01*
X139282443Y-45872376D01*
X139280893Y-45862587D01*
X139229682Y-45762080D01*
X139149920Y-45682318D01*
X139049413Y-45631107D01*
X139039624Y-45629557D01*
X139039622Y-45629556D01*
X138947793Y-45615012D01*
X138938000Y-45613461D01*
X138928207Y-45615012D01*
X138836378Y-45629556D01*
X138836376Y-45629557D01*
X138826587Y-45631107D01*
X138726080Y-45682318D01*
X138646318Y-45762080D01*
X138595107Y-45862587D01*
X138593557Y-45872376D01*
X138593556Y-45872378D01*
X138590318Y-45892821D01*
X138577461Y-45974000D01*
X113037751Y-45974000D01*
X112994482Y-45889080D01*
X112914720Y-45809318D01*
X112814213Y-45758107D01*
X112804424Y-45756557D01*
X112804422Y-45756556D01*
X112712593Y-45742012D01*
X112702800Y-45740461D01*
X112693007Y-45742012D01*
X112601178Y-45756556D01*
X112601176Y-45756557D01*
X112591387Y-45758107D01*
X112490880Y-45809318D01*
X112484382Y-45815816D01*
X112417898Y-45839541D01*
X112348745Y-45823464D01*
X112337319Y-45816120D01*
X112330517Y-45809318D01*
X112230010Y-45758107D01*
X112220221Y-45756557D01*
X112220219Y-45756556D01*
X112128390Y-45742012D01*
X112118597Y-45740461D01*
X112108804Y-45742012D01*
X112016975Y-45756556D01*
X112016973Y-45756557D01*
X112007184Y-45758107D01*
X111906677Y-45809318D01*
X111900179Y-45815816D01*
X111833695Y-45839541D01*
X111764542Y-45823464D01*
X111753116Y-45816120D01*
X111746314Y-45809318D01*
X111645807Y-45758107D01*
X111636018Y-45756557D01*
X111636016Y-45756556D01*
X111544187Y-45742012D01*
X111534394Y-45740461D01*
X111524601Y-45742012D01*
X111432772Y-45756556D01*
X111432770Y-45756557D01*
X111422981Y-45758107D01*
X111322474Y-45809318D01*
X111315976Y-45815816D01*
X111249492Y-45839541D01*
X111180339Y-45823464D01*
X111168913Y-45816120D01*
X111162111Y-45809318D01*
X111061604Y-45758107D01*
X111051815Y-45756557D01*
X111051813Y-45756556D01*
X110959984Y-45742012D01*
X110950191Y-45740461D01*
X110940398Y-45742012D01*
X110848569Y-45756556D01*
X110848567Y-45756557D01*
X110838778Y-45758107D01*
X110738271Y-45809318D01*
X110731773Y-45815816D01*
X110665289Y-45839541D01*
X110596136Y-45823464D01*
X110584710Y-45816120D01*
X110577908Y-45809318D01*
X110477401Y-45758107D01*
X110467612Y-45756557D01*
X110467610Y-45756556D01*
X110375781Y-45742012D01*
X110365988Y-45740461D01*
X110356195Y-45742012D01*
X110264366Y-45756556D01*
X110264364Y-45756557D01*
X110254575Y-45758107D01*
X110154068Y-45809318D01*
X110147570Y-45815816D01*
X110081086Y-45839541D01*
X110011933Y-45823464D01*
X110000507Y-45816120D01*
X109993705Y-45809318D01*
X109893198Y-45758107D01*
X109883409Y-45756557D01*
X109883407Y-45756556D01*
X109791578Y-45742012D01*
X109781785Y-45740461D01*
X109771992Y-45742012D01*
X109680163Y-45756556D01*
X109680161Y-45756557D01*
X109670372Y-45758107D01*
X109569865Y-45809318D01*
X109490103Y-45889080D01*
X109438892Y-45989587D01*
X109437342Y-45999376D01*
X109437341Y-45999378D01*
X109428578Y-46054709D01*
X109421246Y-46101000D01*
X108973918Y-46101000D01*
X108966586Y-46054709D01*
X108957823Y-45999378D01*
X108957822Y-45999376D01*
X108956272Y-45989587D01*
X108905061Y-45889080D01*
X108825299Y-45809318D01*
X108724792Y-45758107D01*
X108715003Y-45756557D01*
X108715001Y-45756556D01*
X108623172Y-45742012D01*
X108613379Y-45740461D01*
X108603586Y-45742012D01*
X108511757Y-45756556D01*
X108511755Y-45756557D01*
X108501966Y-45758107D01*
X108401459Y-45809318D01*
X108394961Y-45815816D01*
X108328477Y-45839541D01*
X108259324Y-45823464D01*
X108247898Y-45816120D01*
X108241096Y-45809318D01*
X108140589Y-45758107D01*
X108130800Y-45756557D01*
X108130798Y-45756556D01*
X108038969Y-45742012D01*
X108029176Y-45740461D01*
X108019383Y-45742012D01*
X107927554Y-45756556D01*
X107927552Y-45756557D01*
X107917763Y-45758107D01*
X107817256Y-45809318D01*
X107810241Y-45816333D01*
X107809652Y-45816761D01*
X107742785Y-45840621D01*
X107673633Y-45824543D01*
X107661524Y-45816761D01*
X107660935Y-45816333D01*
X107653920Y-45809318D01*
X107553413Y-45758107D01*
X107543624Y-45756557D01*
X107543622Y-45756556D01*
X107451793Y-45742012D01*
X107442000Y-45740461D01*
X107432207Y-45742012D01*
X107340378Y-45756556D01*
X107340376Y-45756557D01*
X107330587Y-45758107D01*
X107230080Y-45809318D01*
X107150318Y-45889080D01*
X107099107Y-45989587D01*
X107097557Y-45999376D01*
X107097556Y-45999378D01*
X107088793Y-46054709D01*
X107081461Y-46101000D01*
X105516539Y-46101000D01*
X105509207Y-46054709D01*
X105500444Y-45999378D01*
X105500443Y-45999376D01*
X105498893Y-45989587D01*
X105447682Y-45889080D01*
X105367920Y-45809318D01*
X105267413Y-45758107D01*
X105257624Y-45756557D01*
X105257622Y-45756556D01*
X105165793Y-45742012D01*
X105156000Y-45740461D01*
X105146207Y-45742012D01*
X105054378Y-45756556D01*
X105054376Y-45756557D01*
X105044587Y-45758107D01*
X104944080Y-45809318D01*
X104864318Y-45889080D01*
X104813107Y-45989587D01*
X104811557Y-45999376D01*
X104811556Y-45999378D01*
X104802793Y-46054709D01*
X104795461Y-46101000D01*
X103611539Y-46101000D01*
X103604207Y-46054709D01*
X103595444Y-45999378D01*
X103595443Y-45999376D01*
X103593893Y-45989587D01*
X103542682Y-45889080D01*
X103462920Y-45809318D01*
X103362413Y-45758107D01*
X103352624Y-45756557D01*
X103352622Y-45756556D01*
X103260793Y-45742012D01*
X103251000Y-45740461D01*
X103241207Y-45742012D01*
X103149378Y-45756556D01*
X103149376Y-45756557D01*
X103139587Y-45758107D01*
X103039080Y-45809318D01*
X102959318Y-45889080D01*
X102908107Y-45989587D01*
X102906557Y-45999376D01*
X102906556Y-45999378D01*
X102897793Y-46054709D01*
X102890461Y-46101000D01*
X101706539Y-46101000D01*
X101699207Y-46054709D01*
X101690444Y-45999378D01*
X101690443Y-45999376D01*
X101688893Y-45989587D01*
X101637682Y-45889080D01*
X101557920Y-45809318D01*
X101457413Y-45758107D01*
X101447624Y-45756557D01*
X101447622Y-45756556D01*
X101355793Y-45742012D01*
X101346000Y-45740461D01*
X101336207Y-45742012D01*
X101244378Y-45756556D01*
X101244376Y-45756557D01*
X101234587Y-45758107D01*
X101134080Y-45809318D01*
X101054318Y-45889080D01*
X101003107Y-45989587D01*
X101001557Y-45999376D01*
X101001556Y-45999378D01*
X100992793Y-46054709D01*
X100985461Y-46101000D01*
X89408000Y-46101000D01*
X89408000Y-44577000D01*
X118384461Y-44577000D01*
X118402107Y-44688413D01*
X118453318Y-44788920D01*
X118533080Y-44868682D01*
X118633587Y-44919893D01*
X118643376Y-44921443D01*
X118643378Y-44921444D01*
X118735207Y-44935988D01*
X118745000Y-44937539D01*
X118754793Y-44935988D01*
X118846622Y-44921444D01*
X118846624Y-44921443D01*
X118856413Y-44919893D01*
X118956920Y-44868682D01*
X118973405Y-44852197D01*
X119035717Y-44818171D01*
X119106532Y-44823236D01*
X119151595Y-44852197D01*
X119168080Y-44868682D01*
X119268587Y-44919893D01*
X119278376Y-44921443D01*
X119278378Y-44921444D01*
X119370207Y-44935988D01*
X119380000Y-44937539D01*
X119389793Y-44935988D01*
X119481622Y-44921444D01*
X119481624Y-44921443D01*
X119491413Y-44919893D01*
X119591920Y-44868682D01*
X119671682Y-44788920D01*
X119722893Y-44688413D01*
X119740539Y-44577000D01*
X121051461Y-44577000D01*
X121069107Y-44688413D01*
X121120318Y-44788920D01*
X121200080Y-44868682D01*
X121300587Y-44919893D01*
X121310376Y-44921443D01*
X121310378Y-44921444D01*
X121402207Y-44935988D01*
X121412000Y-44937539D01*
X121421793Y-44935988D01*
X121513622Y-44921444D01*
X121513624Y-44921443D01*
X121523413Y-44919893D01*
X121623920Y-44868682D01*
X121703682Y-44788920D01*
X121754893Y-44688413D01*
X121772539Y-44577000D01*
X121766749Y-44540444D01*
X121756444Y-44475378D01*
X121756443Y-44475376D01*
X121754893Y-44465587D01*
X121746961Y-44450019D01*
X122321461Y-44450019D01*
X122339107Y-44561432D01*
X122390318Y-44661939D01*
X122470080Y-44741701D01*
X122570587Y-44792912D01*
X122580376Y-44794462D01*
X122580378Y-44794463D01*
X122672207Y-44809007D01*
X122682000Y-44810558D01*
X122691793Y-44809007D01*
X122783622Y-44794463D01*
X122783624Y-44794462D01*
X122793413Y-44792912D01*
X122893920Y-44741701D01*
X122910405Y-44725216D01*
X122972717Y-44691190D01*
X123043532Y-44696255D01*
X123088595Y-44725216D01*
X123105080Y-44741701D01*
X123205587Y-44792912D01*
X123215376Y-44794462D01*
X123215378Y-44794463D01*
X123307207Y-44809007D01*
X123317000Y-44810558D01*
X123326793Y-44809007D01*
X123418622Y-44794463D01*
X123418624Y-44794462D01*
X123428413Y-44792912D01*
X123528920Y-44741701D01*
X123608682Y-44661939D01*
X123659893Y-44561432D01*
X123677539Y-44450019D01*
X123677536Y-44450000D01*
X132735461Y-44450000D01*
X132753107Y-44561413D01*
X132804318Y-44661920D01*
X132884080Y-44741682D01*
X132984587Y-44792893D01*
X132994376Y-44794443D01*
X132994378Y-44794444D01*
X133086207Y-44808988D01*
X133096000Y-44810539D01*
X133105793Y-44808988D01*
X133197622Y-44794444D01*
X133197624Y-44794443D01*
X133207413Y-44792893D01*
X133307920Y-44741682D01*
X133387682Y-44661920D01*
X133438893Y-44561413D01*
X133456539Y-44450000D01*
X133449874Y-44407920D01*
X133440444Y-44348378D01*
X133440443Y-44348376D01*
X133438893Y-44338587D01*
X133387682Y-44238080D01*
X133345602Y-44196000D01*
X143022461Y-44196000D01*
X143024012Y-44205793D01*
X143036608Y-44285318D01*
X143040107Y-44307413D01*
X143091318Y-44407920D01*
X143171080Y-44487682D01*
X143271587Y-44538893D01*
X143281376Y-44540443D01*
X143281378Y-44540444D01*
X143373207Y-44554988D01*
X143383000Y-44556539D01*
X143392793Y-44554988D01*
X143484622Y-44540444D01*
X143484624Y-44540443D01*
X143494413Y-44538893D01*
X143594920Y-44487682D01*
X143674682Y-44407920D01*
X143725893Y-44307413D01*
X143729393Y-44285318D01*
X143741988Y-44205793D01*
X143743539Y-44196000D01*
X143725893Y-44084587D01*
X143674682Y-43984080D01*
X143594920Y-43904318D01*
X143494413Y-43853107D01*
X143484624Y-43851557D01*
X143484622Y-43851556D01*
X143392793Y-43837012D01*
X143383000Y-43835461D01*
X143373207Y-43837012D01*
X143281378Y-43851556D01*
X143281376Y-43851557D01*
X143271587Y-43853107D01*
X143171080Y-43904318D01*
X143091318Y-43984080D01*
X143040107Y-44084587D01*
X143022461Y-44196000D01*
X133345602Y-44196000D01*
X133307920Y-44158318D01*
X133207413Y-44107107D01*
X133197624Y-44105557D01*
X133197622Y-44105556D01*
X133105793Y-44091012D01*
X133096000Y-44089461D01*
X133086207Y-44091012D01*
X132994378Y-44105556D01*
X132994376Y-44105557D01*
X132984587Y-44107107D01*
X132884080Y-44158318D01*
X132804318Y-44238080D01*
X132753107Y-44338587D01*
X132751557Y-44348376D01*
X132751556Y-44348378D01*
X132742126Y-44407920D01*
X132735461Y-44450000D01*
X123677536Y-44450000D01*
X123670871Y-44407920D01*
X123661444Y-44348397D01*
X123661443Y-44348395D01*
X123659893Y-44338606D01*
X123608682Y-44238099D01*
X123528920Y-44158337D01*
X123428413Y-44107126D01*
X123418624Y-44105576D01*
X123418622Y-44105575D01*
X123326793Y-44091031D01*
X123317000Y-44089480D01*
X123307207Y-44091031D01*
X123215378Y-44105575D01*
X123215376Y-44105576D01*
X123205587Y-44107126D01*
X123105080Y-44158337D01*
X123088595Y-44174822D01*
X123026283Y-44208848D01*
X122955468Y-44203783D01*
X122910405Y-44174822D01*
X122893920Y-44158337D01*
X122793413Y-44107126D01*
X122783624Y-44105576D01*
X122783622Y-44105575D01*
X122691793Y-44091031D01*
X122682000Y-44089480D01*
X122672207Y-44091031D01*
X122580378Y-44105575D01*
X122580376Y-44105576D01*
X122570587Y-44107126D01*
X122470080Y-44158337D01*
X122390318Y-44238099D01*
X122339107Y-44338606D01*
X122337557Y-44348395D01*
X122337556Y-44348397D01*
X122328129Y-44407920D01*
X122321461Y-44450019D01*
X121746961Y-44450019D01*
X121703682Y-44365080D01*
X121623920Y-44285318D01*
X121523413Y-44234107D01*
X121513624Y-44232557D01*
X121513622Y-44232556D01*
X121421793Y-44218012D01*
X121412000Y-44216461D01*
X121402207Y-44218012D01*
X121310378Y-44232556D01*
X121310376Y-44232557D01*
X121300587Y-44234107D01*
X121200080Y-44285318D01*
X121120318Y-44365080D01*
X121069107Y-44465587D01*
X121067557Y-44475376D01*
X121067556Y-44475378D01*
X121057251Y-44540444D01*
X121051461Y-44577000D01*
X119740539Y-44577000D01*
X119734749Y-44540444D01*
X119724444Y-44475378D01*
X119724443Y-44475376D01*
X119722893Y-44465587D01*
X119671682Y-44365080D01*
X119591920Y-44285318D01*
X119491413Y-44234107D01*
X119481624Y-44232557D01*
X119481622Y-44232556D01*
X119389793Y-44218012D01*
X119380000Y-44216461D01*
X119370207Y-44218012D01*
X119278378Y-44232556D01*
X119278376Y-44232557D01*
X119268587Y-44234107D01*
X119168080Y-44285318D01*
X119151595Y-44301803D01*
X119089283Y-44335829D01*
X119018468Y-44330764D01*
X118973405Y-44301803D01*
X118956920Y-44285318D01*
X118856413Y-44234107D01*
X118846624Y-44232557D01*
X118846622Y-44232556D01*
X118754793Y-44218012D01*
X118745000Y-44216461D01*
X118735207Y-44218012D01*
X118643378Y-44232556D01*
X118643376Y-44232557D01*
X118633587Y-44234107D01*
X118533080Y-44285318D01*
X118453318Y-44365080D01*
X118402107Y-44465587D01*
X118400557Y-44475376D01*
X118400556Y-44475378D01*
X118390251Y-44540444D01*
X118384461Y-44577000D01*
X89408000Y-44577000D01*
X89408000Y-43561000D01*
X147848461Y-43561000D01*
X147866107Y-43672413D01*
X147917318Y-43772920D01*
X147997080Y-43852682D01*
X148097587Y-43903893D01*
X148107376Y-43905443D01*
X148107378Y-43905444D01*
X148199207Y-43919988D01*
X148209000Y-43921539D01*
X148218793Y-43919988D01*
X148310622Y-43905444D01*
X148310624Y-43905443D01*
X148320413Y-43903893D01*
X148420920Y-43852682D01*
X148500682Y-43772920D01*
X148551893Y-43672413D01*
X148569539Y-43561000D01*
X149118461Y-43561000D01*
X149136107Y-43672413D01*
X149187318Y-43772920D01*
X149267080Y-43852682D01*
X149367587Y-43903893D01*
X149377376Y-43905443D01*
X149377378Y-43905444D01*
X149469207Y-43919988D01*
X149479000Y-43921539D01*
X149488793Y-43919988D01*
X149580622Y-43905444D01*
X149580624Y-43905443D01*
X149590413Y-43903893D01*
X149690920Y-43852682D01*
X149770682Y-43772920D01*
X149821893Y-43672413D01*
X149839539Y-43561000D01*
X149833749Y-43524444D01*
X149823444Y-43459378D01*
X149823443Y-43459376D01*
X149821893Y-43449587D01*
X149770682Y-43349080D01*
X149690920Y-43269318D01*
X149590413Y-43218107D01*
X149580624Y-43216557D01*
X149580622Y-43216556D01*
X149488793Y-43202012D01*
X149479000Y-43200461D01*
X149469207Y-43202012D01*
X149377378Y-43216556D01*
X149377376Y-43216557D01*
X149367587Y-43218107D01*
X149267080Y-43269318D01*
X149187318Y-43349080D01*
X149136107Y-43449587D01*
X149134557Y-43459376D01*
X149134556Y-43459378D01*
X149124251Y-43524444D01*
X149118461Y-43561000D01*
X148569539Y-43561000D01*
X148563749Y-43524444D01*
X148553444Y-43459378D01*
X148553443Y-43459376D01*
X148551893Y-43449587D01*
X148500682Y-43349080D01*
X148420920Y-43269318D01*
X148320413Y-43218107D01*
X148310624Y-43216557D01*
X148310622Y-43216556D01*
X148218793Y-43202012D01*
X148209000Y-43200461D01*
X148199207Y-43202012D01*
X148107378Y-43216556D01*
X148107376Y-43216557D01*
X148097587Y-43218107D01*
X147997080Y-43269318D01*
X147917318Y-43349080D01*
X147866107Y-43449587D01*
X147864557Y-43459376D01*
X147864556Y-43459378D01*
X147854251Y-43524444D01*
X147848461Y-43561000D01*
X89408000Y-43561000D01*
X89408000Y-43180000D01*
X108859461Y-43180000D01*
X108861012Y-43189793D01*
X108873608Y-43269318D01*
X108877107Y-43291413D01*
X108928318Y-43391920D01*
X109008080Y-43471682D01*
X109108587Y-43522893D01*
X109118376Y-43524443D01*
X109118378Y-43524444D01*
X109210207Y-43538988D01*
X109220000Y-43540539D01*
X109229793Y-43538988D01*
X109321622Y-43524444D01*
X109321624Y-43524443D01*
X109331413Y-43522893D01*
X109431920Y-43471682D01*
X109511682Y-43391920D01*
X109562893Y-43291413D01*
X109566393Y-43269318D01*
X109578988Y-43189793D01*
X109580539Y-43180000D01*
X109562893Y-43068587D01*
X109511682Y-42968080D01*
X109431920Y-42888318D01*
X109331413Y-42837107D01*
X109321624Y-42835557D01*
X109321622Y-42835556D01*
X109229793Y-42821012D01*
X109220000Y-42819461D01*
X109210207Y-42821012D01*
X109118378Y-42835556D01*
X109118376Y-42835557D01*
X109108587Y-42837107D01*
X109008080Y-42888318D01*
X108928318Y-42968080D01*
X108877107Y-43068587D01*
X108859461Y-43180000D01*
X89408000Y-43180000D01*
X89408000Y-42545000D01*
X118384461Y-42545000D01*
X118402107Y-42656413D01*
X118453318Y-42756920D01*
X118533080Y-42836682D01*
X118633587Y-42887893D01*
X118643376Y-42889443D01*
X118643378Y-42889444D01*
X118735207Y-42903988D01*
X118745000Y-42905539D01*
X118754793Y-42903988D01*
X118846622Y-42889444D01*
X118846624Y-42889443D01*
X118856413Y-42887893D01*
X118956920Y-42836682D01*
X118973405Y-42820197D01*
X119035717Y-42786171D01*
X119106532Y-42791236D01*
X119151595Y-42820197D01*
X119168080Y-42836682D01*
X119268587Y-42887893D01*
X119278376Y-42889443D01*
X119278378Y-42889444D01*
X119370207Y-42903988D01*
X119380000Y-42905539D01*
X119389793Y-42903988D01*
X119481622Y-42889444D01*
X119481624Y-42889443D01*
X119491413Y-42887893D01*
X119591920Y-42836682D01*
X119671682Y-42756920D01*
X119722893Y-42656413D01*
X119740539Y-42545000D01*
X119722893Y-42433587D01*
X119671682Y-42333080D01*
X119591920Y-42253318D01*
X119491413Y-42202107D01*
X119481624Y-42200557D01*
X119481622Y-42200556D01*
X119389793Y-42186012D01*
X119380000Y-42184461D01*
X119370207Y-42186012D01*
X119278378Y-42200556D01*
X119278376Y-42200557D01*
X119268587Y-42202107D01*
X119168080Y-42253318D01*
X119151595Y-42269803D01*
X119089283Y-42303829D01*
X119018468Y-42298764D01*
X118973405Y-42269803D01*
X118956920Y-42253318D01*
X118856413Y-42202107D01*
X118846624Y-42200557D01*
X118846622Y-42200556D01*
X118754793Y-42186012D01*
X118745000Y-42184461D01*
X118735207Y-42186012D01*
X118643378Y-42200556D01*
X118643376Y-42200557D01*
X118633587Y-42202107D01*
X118533080Y-42253318D01*
X118453318Y-42333080D01*
X118402107Y-42433587D01*
X118384461Y-42545000D01*
X89408000Y-42545000D01*
X89408000Y-41783000D01*
X107335461Y-41783000D01*
X107353107Y-41894413D01*
X107404318Y-41994920D01*
X107484080Y-42074682D01*
X107584587Y-42125893D01*
X107594376Y-42127443D01*
X107594378Y-42127444D01*
X107686207Y-42141988D01*
X107696000Y-42143539D01*
X107705793Y-42141988D01*
X107797622Y-42127444D01*
X107797624Y-42127443D01*
X107807413Y-42125893D01*
X107907920Y-42074682D01*
X107987682Y-41994920D01*
X108038893Y-41894413D01*
X108056539Y-41783000D01*
X108038893Y-41671587D01*
X107987682Y-41571080D01*
X107907920Y-41491318D01*
X107807413Y-41440107D01*
X107797624Y-41438557D01*
X107797622Y-41438556D01*
X107705793Y-41424012D01*
X107696000Y-41422461D01*
X107686207Y-41424012D01*
X107594378Y-41438556D01*
X107594376Y-41438557D01*
X107584587Y-41440107D01*
X107484080Y-41491318D01*
X107404318Y-41571080D01*
X107353107Y-41671587D01*
X107335461Y-41783000D01*
X89408000Y-41783000D01*
X89408000Y-39878000D01*
X111272461Y-39878000D01*
X111290107Y-39989413D01*
X111341318Y-40089920D01*
X111421080Y-40169682D01*
X111521587Y-40220893D01*
X111531376Y-40222443D01*
X111531378Y-40222444D01*
X111623207Y-40236988D01*
X111633000Y-40238539D01*
X111642793Y-40236988D01*
X111734622Y-40222444D01*
X111734624Y-40222443D01*
X111744413Y-40220893D01*
X111844920Y-40169682D01*
X111924682Y-40089920D01*
X111975893Y-39989413D01*
X111993539Y-39878000D01*
X111975893Y-39766587D01*
X111924682Y-39666080D01*
X111844920Y-39586318D01*
X111744413Y-39535107D01*
X111734624Y-39533557D01*
X111734622Y-39533556D01*
X111642793Y-39519012D01*
X111633000Y-39517461D01*
X111623207Y-39519012D01*
X111531378Y-39533556D01*
X111531376Y-39533557D01*
X111521587Y-39535107D01*
X111421080Y-39586318D01*
X111341318Y-39666080D01*
X111290107Y-39766587D01*
X111272461Y-39878000D01*
X89408000Y-39878000D01*
X89408000Y-38009980D01*
X102422310Y-38009980D01*
X102428458Y-38270835D01*
X102473991Y-38527758D01*
X102557864Y-38774838D01*
X102678145Y-39006389D01*
X102832066Y-39217081D01*
X103016086Y-39402067D01*
X103225969Y-39557090D01*
X103392394Y-39644650D01*
X103419801Y-39659069D01*
X103456887Y-39678581D01*
X103703524Y-39763746D01*
X103772691Y-39776378D01*
X103956234Y-39809899D01*
X103956240Y-39809900D01*
X103960206Y-39810624D01*
X104005480Y-39812997D01*
X104042034Y-39814913D01*
X104042050Y-39814913D01*
X104043702Y-39815000D01*
X104206349Y-39815000D01*
X104208728Y-39814819D01*
X104208729Y-39814819D01*
X104395409Y-39800619D01*
X104395414Y-39800618D01*
X104400176Y-39800256D01*
X104404829Y-39799177D01*
X104404832Y-39799177D01*
X104649700Y-39742419D01*
X104649699Y-39742419D01*
X104654364Y-39741338D01*
X104896716Y-39644650D01*
X105121654Y-39512415D01*
X105125365Y-39509394D01*
X105125369Y-39509391D01*
X105320290Y-39350700D01*
X105324002Y-39347678D01*
X105499104Y-39154229D01*
X105642929Y-38936520D01*
X105715510Y-38779081D01*
X105750163Y-38703912D01*
X105750164Y-38703909D01*
X105752169Y-38699560D01*
X105801595Y-38527758D01*
X105822988Y-38453397D01*
X105822989Y-38453393D01*
X105824309Y-38448804D01*
X105857690Y-38190020D01*
X105851542Y-37929165D01*
X105806009Y-37672242D01*
X105722136Y-37425162D01*
X105601855Y-37193611D01*
X105447934Y-36982919D01*
X105263914Y-36797933D01*
X105054031Y-36642910D01*
X104823113Y-36521419D01*
X104576476Y-36436254D01*
X104492993Y-36421008D01*
X104323766Y-36390101D01*
X104323760Y-36390100D01*
X104319794Y-36389376D01*
X104274520Y-36387003D01*
X104237966Y-36385087D01*
X104237950Y-36385087D01*
X104236298Y-36385000D01*
X104073651Y-36385000D01*
X104071272Y-36385181D01*
X104071271Y-36385181D01*
X103884591Y-36399381D01*
X103884586Y-36399382D01*
X103879824Y-36399744D01*
X103875171Y-36400823D01*
X103875168Y-36400823D01*
X103687665Y-36444284D01*
X103625636Y-36458662D01*
X103383284Y-36555350D01*
X103158346Y-36687585D01*
X103154635Y-36690606D01*
X103154631Y-36690609D01*
X103018633Y-36801329D01*
X102955998Y-36852322D01*
X102780896Y-37045771D01*
X102778255Y-37049769D01*
X102778254Y-37049770D01*
X102767715Y-37065723D01*
X102637071Y-37263480D01*
X102635070Y-37267820D01*
X102635068Y-37267824D01*
X102560447Y-37429690D01*
X102527831Y-37500440D01*
X102526507Y-37505041D01*
X102526507Y-37505042D01*
X102477051Y-37676951D01*
X102455691Y-37751196D01*
X102422310Y-38009980D01*
X89408000Y-38009980D01*
X89408000Y-36194000D01*
X89428002Y-36125879D01*
X89481658Y-36079386D01*
X89534000Y-36068000D01*
X153109810Y-36068000D01*
X153177931Y-36088002D01*
G37*
%TD.AperFunction*%
%TD*%
M02*
