M48
; DRILL file {KiCad 6.0.0} date Sun 02 Jan 2022 09:26:34 AM CST
; FORMAT={-:-/ absolute / inch / decimal}
; #@! TF.CreationDate,2022-01-02T09:26:34-06:00
; #@! TF.GenerationSoftware,Kicad,Pcbnew,6.0.0
; #@! TF.FileFunction,Plated,1,4,PTH
FMAT,2
INCH
; #@! TA.AperFunction,Plated,PTH,ViaDrill
T1C0.0100
; #@! TA.AperFunction,Plated,PTH,ComponentDrill
T2C0.0236
; #@! TA.AperFunction,Plated,PTH,ComponentDrill
T3C0.0335
%
G90
G05
T1
X3.55Y-2.755
X3.55Y-2.8
X3.55Y-2.855
X3.57Y-1.495
X3.6Y-2.855
X3.615Y-2.445
X3.655Y-2.855
X3.715Y-1.95
X3.715Y-2.46
X3.7162Y-1.8488
X3.7362Y-1.8488
X3.75Y-2.08
X3.7562Y-1.8488
X3.79Y-1.985
X3.8Y-2.11
X3.825Y-2.11
X3.83Y-2.25
X3.85Y-2.11
X3.865Y-2.335
X3.875Y-2.11
X3.875Y-2.14
X3.875Y-2.165
X3.925Y-2.685
X3.93Y-1.495
X3.93Y-1.96
X3.93Y-2.42
X3.93Y-2.47
X3.98Y-2.42
X3.98Y-2.47
X3.98Y-2.52
X3.98Y-2.57
X3.99Y-1.815
X4.025Y-1.955
X4.025Y-2.05
X4.025Y-2.12
X4.025Y-2.19
X4.035Y-2.42
X4.035Y-2.47
X4.035Y-2.52
X4.035Y-2.57
X4.065Y-1.815
X4.13Y-2.085
X4.14Y-1.815
X4.16Y-2.03
X4.16Y-2.055
X4.16Y-2.101
X4.165Y-1.955
X4.165Y-2.18
X4.165Y-2.21
X4.165Y-2.25
X4.165Y-2.28
X4.2Y-3.35
X4.2Y-3.4
X4.2Y-3.45
X4.23Y-1.815
X4.24Y-1.645
X4.24Y-1.905
X4.25Y-2.375
X4.25Y-3.35
X4.25Y-3.4
X4.25Y-3.45
X4.2531Y-1.815
X4.275Y-1.905
X4.275Y-2.015
X4.275Y-2.14
X4.275Y-2.265
X4.275Y-2.52
X4.2761Y-1.815
X4.285Y-2.375
X4.3Y-1.7
X4.31Y-2.39
X4.32Y-2.43
X4.3221Y-1.815
X4.33Y-2.66
X4.33Y-2.69
X4.33Y-2.725
X4.33Y-2.76
X4.335Y-2.45
X4.34Y-1.675
X4.345Y-2.85
X4.345Y-2.9
X4.345Y-2.95
X4.345Y-2.99
X4.3451Y-1.815
X4.355Y-2.47
X4.36Y-2.66
X4.36Y-2.69
X4.36Y-2.725
X4.36Y-2.76
X4.3681Y-1.815
X4.3756Y-2.49
X4.3911Y-1.815
X4.395Y-1.57
X4.4Y-2.015
X4.4Y-2.14
X4.4Y-2.265
X4.4Y-3.35
X4.4Y-3.4
X4.4Y-3.45
X4.4141Y-1.815
X4.425Y-1.665
X4.43Y-2.59
X4.43Y-2.89
X4.4371Y-1.815
X4.45Y-3.35
X4.45Y-3.4
X4.45Y-3.45
X4.46Y-2.64
X4.47Y-2.89
X4.48Y-2.5535
X4.48Y-2.93
X4.48Y-2.99
X4.495Y-1.885
X4.5Y-2.52
X4.515Y-1.81
X4.525Y-2.015
X4.525Y-2.14
X4.525Y-2.265
X4.525Y-2.39
X4.54Y-1.62
X4.54Y-1.905
X4.54Y-2.645
X4.54Y-2.905
X4.575Y-2.375
X4.575Y-2.52
X4.585Y-2.66
X4.585Y-2.69
X4.585Y-2.725
X4.585Y-2.755
X4.59Y-2.85
X4.59Y-2.9
X4.59Y-2.95
X4.59Y-2.995
X4.605Y-1.845
X4.61Y-2.725
X4.61Y-2.755
X4.615Y-2.66
X4.615Y-2.69
X4.635Y-2.0684
X4.64Y-1.765
X4.64Y-2.18
X4.6579Y-2.0702
X4.665Y-2.095
X4.665Y-2.32
X4.675Y-1.675
X4.675Y-1.755
X4.675Y-2.15
X4.68Y-2.885
X4.6959Y-2.0809
X4.7Y-1.675
X4.7Y-1.755
X4.7Y-3.39
X4.7Y-3.415
X4.71Y-2.64
X4.72Y-2.885
X4.725Y-1.83
X4.73Y-2.93
X4.73Y-2.995
X4.77Y-2.51
X4.78Y-1.755
X4.785Y-1.86
X4.785Y-1.885
X4.79Y-1.98
X4.79Y-2.01
X4.79Y-2.49
X4.79Y-2.645
X4.79Y-2.905
X4.8Y-3.16
X4.8Y-3.285
X4.805Y-2.47
X4.815Y-2.01
X4.815Y-2.04
X4.82Y-2.45
X4.825Y-2.08
X4.825Y-2.15
X4.825Y-2.22
X4.825Y-2.29
X4.83Y-1.75
X4.835Y-2.43
X4.835Y-2.66
X4.835Y-2.69
X4.835Y-2.73
X4.835Y-2.76
X4.8365Y-1.8265
X4.84Y-2.85
X4.84Y-2.9
X4.84Y-2.95
X4.84Y-2.995
X4.855Y-1.75
X4.865Y-2.66
X4.865Y-2.69
X4.865Y-2.73
X4.865Y-2.76
X4.9Y-2.32
X4.9Y-3.305
X4.9Y-3.33
X4.93Y-2.885
X4.96Y-2.645
X4.97Y-2.305
X4.97Y-2.51
X4.97Y-2.61
X4.97Y-2.885
X4.975Y-2.93
X5.0Y-3.385
X5.0Y-3.41
X5.005Y-2.415
X5.04Y-2.645
X5.04Y-2.905
X5.1Y-3.39
X5.1Y-3.415
X5.19Y-2.665
X5.19Y-2.865
X5.19Y-3.065
X5.2Y-3.385
X5.2Y-3.41
X5.23Y-2.665
X5.23Y-2.865
X5.23Y-3.065
X5.235Y-2.24
X5.24Y-1.75
X5.24Y-1.91
X5.24Y-2.07
X5.245Y-2.4
X5.275Y-2.48
X5.275Y-2.665
X5.275Y-2.865
X5.275Y-3.065
X5.315Y-2.665
X5.315Y-2.865
X5.315Y-3.065
X5.335Y-2.34
X5.34Y-1.81
X5.345Y-2.01
X5.345Y-2.14
X5.43Y-3.21
X5.435Y-2.095
X5.46Y-3.21
X5.47Y-1.81
X5.48Y-1.91
X5.48Y-1.945
X5.48Y-2.24
X5.64Y-1.945
X5.645Y-1.74
X5.645Y-1.87
X5.66Y-2.46
X5.66Y-2.53
X5.66Y-2.6
X5.66Y-2.67
X5.66Y-2.74
X5.66Y-2.81
X5.7Y-2.35
X5.735Y-2.105
X5.76Y-2.35
X5.765Y-2.85
X5.785Y-2.105
X5.835Y-1.715
X5.835Y-2.11
X5.84Y-2.56
X5.84Y-2.73
X5.855Y-2.435
X5.88Y-2.955
X5.885Y-1.715
X5.885Y-2.11
X5.9Y-3.285
X5.915Y-2.89
X5.96Y-2.955
X5.995Y-2.4
X6.0Y-3.41
X6.04Y-2.89
X6.045Y-2.465
X6.11Y-2.505
X6.11Y-2.545
X6.11Y-2.59
X6.11Y-2.635
X6.11Y-2.675
X6.11Y-2.72
X6.11Y-2.765
X6.11Y-2.805
T3
X3.6676Y-1.8016
X3.6676Y-1.9984
T2
G00X3.5475Y-1.7622
M15
G01X3.5751Y-1.7622
M16
G05
G00X3.5751Y-2.0378
M15
G01X3.5475Y-2.0378
M16
G05
T0
M30
