%TF.GenerationSoftware,KiCad,Pcbnew,6.0.0*%
%TF.CreationDate,2022-01-02T09:26:29-06:00*%
%TF.ProjectId,boysenboard,626f7973-656e-4626-9f61-72642e6b6963,rev?*%
%TF.SameCoordinates,Original*%
%TF.FileFunction,Copper,L1,Top*%
%TF.FilePolarity,Positive*%
%FSLAX46Y46*%
G04 Gerber Fmt 4.6, Leading zero omitted, Abs format (unit mm)*
G04 Created by KiCad (PCBNEW 6.0.0) date 2022-01-02 09:26:29*
%MOMM*%
%LPD*%
G01*
G04 APERTURE LIST*
G04 Aperture macros list*
%AMRoundRect*
0 Rectangle with rounded corners*
0 $1 Rounding radius*
0 $2 $3 $4 $5 $6 $7 $8 $9 X,Y pos of 4 corners*
0 Add a 4 corners polygon primitive as box body*
4,1,4,$2,$3,$4,$5,$6,$7,$8,$9,$2,$3,0*
0 Add four circle primitives for the rounded corners*
1,1,$1+$1,$2,$3*
1,1,$1+$1,$4,$5*
1,1,$1+$1,$6,$7*
1,1,$1+$1,$8,$9*
0 Add four rect primitives between the rounded corners*
20,1,$1+$1,$2,$3,$4,$5,0*
20,1,$1+$1,$4,$5,$6,$7,0*
20,1,$1+$1,$6,$7,$8,$9,0*
20,1,$1+$1,$8,$9,$2,$3,0*%
G04 Aperture macros list end*
%TA.AperFunction,SMDPad,CuDef*%
%ADD10RoundRect,0.225000X-0.250000X0.225000X-0.250000X-0.225000X0.250000X-0.225000X0.250000X0.225000X0*%
%TD*%
%TA.AperFunction,SMDPad,CuDef*%
%ADD11RoundRect,0.250000X0.425000X-0.450000X0.425000X0.450000X-0.425000X0.450000X-0.425000X-0.450000X0*%
%TD*%
%TA.AperFunction,SMDPad,CuDef*%
%ADD12RoundRect,0.225000X0.250000X-0.225000X0.250000X0.225000X-0.250000X0.225000X-0.250000X-0.225000X0*%
%TD*%
%TA.AperFunction,SMDPad,CuDef*%
%ADD13RoundRect,0.225000X-0.225000X-0.250000X0.225000X-0.250000X0.225000X0.250000X-0.225000X0.250000X0*%
%TD*%
%TA.AperFunction,SMDPad,CuDef*%
%ADD14RoundRect,0.225000X0.225000X0.250000X-0.225000X0.250000X-0.225000X-0.250000X0.225000X-0.250000X0*%
%TD*%
%TA.AperFunction,SMDPad,CuDef*%
%ADD15R,1.100000X1.100000*%
%TD*%
%TA.AperFunction,SMDPad,CuDef*%
%ADD16RoundRect,0.250000X0.575000X-0.550000X0.575000X0.550000X-0.575000X0.550000X-0.575000X-0.550000X0*%
%TD*%
%TA.AperFunction,SMDPad,CuDef*%
%ADD17C,1.500000*%
%TD*%
%TA.AperFunction,SMDPad,CuDef*%
%ADD18R,1.000000X1.900000*%
%TD*%
%TA.AperFunction,SMDPad,CuDef*%
%ADD19R,0.800000X0.900000*%
%TD*%
%TA.AperFunction,SMDPad,CuDef*%
%ADD20RoundRect,0.200000X0.200000X0.275000X-0.200000X0.275000X-0.200000X-0.275000X0.200000X-0.275000X0*%
%TD*%
%TA.AperFunction,SMDPad,CuDef*%
%ADD21RoundRect,0.200000X-0.275000X0.200000X-0.275000X-0.200000X0.275000X-0.200000X0.275000X0.200000X0*%
%TD*%
%TA.AperFunction,SMDPad,CuDef*%
%ADD22RoundRect,0.200000X0.275000X-0.200000X0.275000X0.200000X-0.275000X0.200000X-0.275000X-0.200000X0*%
%TD*%
%TA.AperFunction,SMDPad,CuDef*%
%ADD23RoundRect,0.200000X-0.200000X-0.275000X0.200000X-0.275000X0.200000X0.275000X-0.200000X0.275000X0*%
%TD*%
%TA.AperFunction,SMDPad,CuDef*%
%ADD24R,2.100000X1.400000*%
%TD*%
%TA.AperFunction,SMDPad,CuDef*%
%ADD25R,1.500000X2.000000*%
%TD*%
%TA.AperFunction,SMDPad,CuDef*%
%ADD26R,3.800000X2.000000*%
%TD*%
%TA.AperFunction,SMDPad,CuDef*%
%ADD27R,0.600000X1.050000*%
%TD*%
%TA.AperFunction,SMDPad,CuDef*%
%ADD28R,1.400000X1.200000*%
%TD*%
%TA.AperFunction,SMDPad,CuDef*%
%ADD29R,2.000000X2.000000*%
%TD*%
%TA.AperFunction,SMDPad,CuDef*%
%ADD30R,1.350000X0.400000*%
%TD*%
%TA.AperFunction,ComponentPad*%
%ADD31C,1.450000*%
%TD*%
%TA.AperFunction,ComponentPad*%
%ADD32O,1.900000X1.200000*%
%TD*%
%TA.AperFunction,SMDPad,CuDef*%
%ADD33R,1.900000X1.500000*%
%TD*%
%TA.AperFunction,SMDPad,CuDef*%
%ADD34R,1.900000X1.200000*%
%TD*%
%TA.AperFunction,SMDPad,CuDef*%
%ADD35RoundRect,0.250000X0.550000X0.575000X-0.550000X0.575000X-0.550000X-0.575000X0.550000X-0.575000X0*%
%TD*%
%TA.AperFunction,SMDPad,CuDef*%
%ADD36R,0.650000X0.400000*%
%TD*%
%TA.AperFunction,SMDPad,CuDef*%
%ADD37R,1.000000X0.500000*%
%TD*%
%TA.AperFunction,SMDPad,CuDef*%
%ADD38R,0.780000X0.720000*%
%TD*%
%TA.AperFunction,SMDPad,CuDef*%
%ADD39R,1.080000X1.050000*%
%TD*%
%TA.AperFunction,SMDPad,CuDef*%
%ADD40R,1.200000X1.050000*%
%TD*%
%TA.AperFunction,SMDPad,CuDef*%
%ADD41R,2.390000X1.050000*%
%TD*%
%TA.AperFunction,SMDPad,CuDef*%
%ADD42R,0.550000X2.910000*%
%TD*%
%TA.AperFunction,SMDPad,CuDef*%
%ADD43RoundRect,0.150000X0.150000X-0.800000X0.150000X0.800000X-0.150000X0.800000X-0.150000X-0.800000X0*%
%TD*%
%TA.AperFunction,SMDPad,CuDef*%
%ADD44RoundRect,0.250000X-0.550000X1.500000X-0.550000X-1.500000X0.550000X-1.500000X0.550000X1.500000X0*%
%TD*%
%TA.AperFunction,SMDPad,CuDef*%
%ADD45R,3.300000X1.600000*%
%TD*%
%TA.AperFunction,SMDPad,CuDef*%
%ADD46RoundRect,0.250000X-0.425000X0.450000X-0.425000X-0.450000X0.425000X-0.450000X0.425000X0.450000X0*%
%TD*%
%TA.AperFunction,SMDPad,CuDef*%
%ADD47R,0.250000X0.800000*%
%TD*%
%TA.AperFunction,SMDPad,CuDef*%
%ADD48R,0.800000X0.250000*%
%TD*%
%TA.AperFunction,SMDPad,CuDef*%
%ADD49R,7.000000X7.000000*%
%TD*%
%TA.AperFunction,ViaPad*%
%ADD50C,0.457200*%
%TD*%
%TA.AperFunction,Conductor*%
%ADD51C,0.203200*%
%TD*%
%TA.AperFunction,Conductor*%
%ADD52C,0.609600*%
%TD*%
%TA.AperFunction,Conductor*%
%ADD53C,0.406400*%
%TD*%
%TA.AperFunction,Conductor*%
%ADD54C,0.127000*%
%TD*%
%TA.AperFunction,Conductor*%
%ADD55C,0.304800*%
%TD*%
%TA.AperFunction,Conductor*%
%ADD56C,0.241300*%
%TD*%
%TA.AperFunction,Conductor*%
%ADD57C,0.200000*%
%TD*%
G04 APERTURE END LIST*
D10*
%TO.P,C1,1*%
%TO.N,/USB_VBUS*%
X97282000Y-54724000D03*
%TO.P,C1,2*%
%TO.N,GND*%
X97282000Y-56274000D03*
%TD*%
%TO.P,C2,1*%
%TO.N,/USBVCC*%
X91821000Y-59804000D03*
%TO.P,C2,2*%
%TO.N,GND*%
X91821000Y-61354000D03*
%TD*%
D11*
%TO.P,C3,1*%
%TO.N,/USBVCC*%
X91694000Y-57230000D03*
%TO.P,C3,2*%
%TO.N,GND*%
X91694000Y-54530000D03*
%TD*%
D10*
%TO.P,C4,1*%
%TO.N,/HOSCI*%
X116840000Y-43294000D03*
%TO.P,C4,2*%
%TO.N,GND*%
X116840000Y-44844000D03*
%TD*%
D12*
%TO.P,C5,1*%
%TO.N,/HOSCO*%
X110236000Y-44844000D03*
%TO.P,C5,2*%
%TO.N,GND*%
X110236000Y-43294000D03*
%TD*%
D13*
%TO.P,C8,1*%
%TO.N,+5V*%
X111366000Y-74422000D03*
%TO.P,C8,2*%
%TO.N,GND*%
X112916000Y-74422000D03*
%TD*%
%TO.P,C9,1*%
%TO.N,+1V1*%
X111747000Y-67945000D03*
%TO.P,C9,2*%
%TO.N,GND*%
X113297000Y-67945000D03*
%TD*%
%TO.P,C10,1*%
%TO.N,+5V*%
X117716000Y-74422000D03*
%TO.P,C10,2*%
%TO.N,GND*%
X119266000Y-74422000D03*
%TD*%
%TO.P,C11,1*%
%TO.N,+2V5*%
X118097000Y-67945000D03*
%TO.P,C11,2*%
%TO.N,GND*%
X119647000Y-67945000D03*
%TD*%
D14*
%TO.P,C13,1*%
%TO.N,+2V5*%
X104661000Y-55626000D03*
%TO.P,C13,2*%
%TO.N,GND*%
X103111000Y-55626000D03*
%TD*%
D10*
%TO.P,C14,1*%
%TO.N,+3V3*%
X108585000Y-61455000D03*
%TO.P,C14,2*%
%TO.N,GND*%
X108585000Y-63005000D03*
%TD*%
D14*
%TO.P,C15,1*%
%TO.N,+3V3*%
X104661000Y-49657000D03*
%TO.P,C15,2*%
%TO.N,GND*%
X103111000Y-49657000D03*
%TD*%
D13*
%TO.P,C16,1*%
%TO.N,+5V*%
X124066000Y-74422000D03*
%TO.P,C16,2*%
%TO.N,GND*%
X125616000Y-74422000D03*
%TD*%
%TO.P,C17,1*%
%TO.N,+3V3*%
X124447000Y-68072000D03*
%TO.P,C17,2*%
%TO.N,GND*%
X125997000Y-68072000D03*
%TD*%
%TO.P,C19,1*%
%TO.N,Net-(C19-Pad1)*%
X120129000Y-58166000D03*
%TO.P,C19,2*%
%TO.N,GND*%
X121679000Y-58166000D03*
%TD*%
D10*
%TO.P,C20,1*%
%TO.N,+1V1*%
X116205000Y-61455000D03*
%TO.P,C20,2*%
%TO.N,GND*%
X116205000Y-63005000D03*
%TD*%
D13*
%TO.P,C22,1*%
%TO.N,+1V1*%
X120129000Y-52832000D03*
%TO.P,C22,2*%
%TO.N,GND*%
X121679000Y-52832000D03*
%TD*%
D14*
%TO.P,C23,1*%
%TO.N,+3V3*%
X146317000Y-60706000D03*
%TO.P,C23,2*%
%TO.N,GND*%
X144767000Y-60706000D03*
%TD*%
D10*
%TO.P,C25,1*%
%TO.N,+3V3*%
X114300000Y-61455000D03*
%TO.P,C25,2*%
%TO.N,GND*%
X114300000Y-63005000D03*
%TD*%
D14*
%TO.P,C26,1*%
%TO.N,+3V3*%
X104661000Y-53848000D03*
%TO.P,C26,2*%
%TO.N,GND*%
X103111000Y-53848000D03*
%TD*%
D15*
%TO.P,D1,1,K*%
%TO.N,/VIN*%
X102362000Y-71752000D03*
%TO.P,D1,2,A*%
%TO.N,Net-(D1-Pad2)*%
X102362000Y-74552000D03*
%TD*%
D16*
%TO.P,F1,1*%
%TO.N,/USBVCC*%
X94615000Y-57277000D03*
%TO.P,F1,2*%
%TO.N,/USB_VBUS*%
X94615000Y-54427000D03*
%TD*%
D17*
%TO.P,FID2,*%
%TO.N,*%
X154940000Y-76962000D03*
%TD*%
D18*
%TO.P,J7,1,Pin_1*%
%TO.N,/PD13_UART2_TX*%
X139700000Y-84710000D03*
%TO.P,J7,2,Pin_2*%
%TO.N,/PD14_UART2_RX*%
X142240000Y-88010000D03*
%TO.P,J7,3,Pin_3*%
%TO.N,/PD15_UART2_RTS*%
X144780000Y-84710000D03*
%TO.P,J7,4,Pin_4*%
%TO.N,/PD16_UART2_CTS*%
X147320000Y-88010000D03*
%TO.P,J7,5,Pin_5*%
%TO.N,/PD6_I2C1_SDA*%
X149860000Y-84710000D03*
%TO.P,J7,6,Pin_6*%
%TO.N,/PD5_I2C1_SCL*%
X152400000Y-88010000D03*
%TD*%
D19*
%TO.P,Q1,1,G*%
%TO.N,GND*%
X94300000Y-61706000D03*
%TO.P,Q1,2,S*%
%TO.N,+5V*%
X96200000Y-61706000D03*
%TO.P,Q1,3,D*%
%TO.N,/USBVCC*%
X95250000Y-59706000D03*
%TD*%
D20*
%TO.P,R1,1*%
%TO.N,+5V*%
X132270000Y-60960000D03*
%TO.P,R1,2*%
%TO.N,Net-(D2-Pad2)*%
X130620000Y-60960000D03*
%TD*%
%TO.P,R2,1*%
%TO.N,+3V3*%
X132270000Y-52578000D03*
%TO.P,R2,2*%
%TO.N,Net-(D3-Pad2)*%
X130620000Y-52578000D03*
%TD*%
%TO.P,R3,1*%
%TO.N,+3V3*%
X132270000Y-56896000D03*
%TO.P,R3,2*%
%TO.N,Net-(D4-Pad2)*%
X130620000Y-56896000D03*
%TD*%
%TO.P,R4,1*%
%TO.N,+3V3*%
X132270000Y-44450000D03*
%TO.P,R4,2*%
%TO.N,Net-(D5-Pad2)*%
X130620000Y-44450000D03*
%TD*%
D21*
%TO.P,R6,1*%
%TO.N,/USB_ID*%
X95250000Y-50356000D03*
%TO.P,R6,2*%
%TO.N,GND*%
X95250000Y-52006000D03*
%TD*%
D22*
%TO.P,R7,1*%
%TO.N,+5V*%
X98171000Y-61785000D03*
%TO.P,R7,2*%
%TO.N,GND*%
X98171000Y-60135000D03*
%TD*%
D20*
%TO.P,R8,1*%
%TO.N,+3V3*%
X132270000Y-48514000D03*
%TO.P,R8,2*%
%TO.N,Net-(D6-Pad2)*%
X130620000Y-48514000D03*
%TD*%
D21*
%TO.P,R9,1*%
%TO.N,+1V1*%
X115316000Y-68009000D03*
%TO.P,R9,2*%
%TO.N,Net-(R11-Pad1)*%
X115316000Y-69659000D03*
%TD*%
%TO.P,R11,1*%
%TO.N,Net-(R11-Pad1)*%
X115316000Y-71311000D03*
%TO.P,R11,2*%
%TO.N,GND*%
X115316000Y-72961000D03*
%TD*%
%TO.P,R13,1*%
%TO.N,Net-(R12-Pad2)*%
X121666000Y-71311000D03*
%TO.P,R13,2*%
%TO.N,GND*%
X121666000Y-72961000D03*
%TD*%
%TO.P,R15,1*%
%TO.N,+3V3*%
X128016000Y-68009000D03*
%TO.P,R15,2*%
%TO.N,Net-(R15-Pad2)*%
X128016000Y-69659000D03*
%TD*%
D22*
%TO.P,R16,1*%
%TO.N,GND*%
X128016000Y-72961000D03*
%TO.P,R16,2*%
%TO.N,Net-(R15-Pad2)*%
X128016000Y-71311000D03*
%TD*%
D20*
%TO.P,R17,1*%
%TO.N,+2V5*%
X121729000Y-56388000D03*
%TO.P,R17,2*%
%TO.N,Net-(C19-Pad1)*%
X120079000Y-56388000D03*
%TD*%
D23*
%TO.P,R18,1*%
%TO.N,Net-(C19-Pad1)*%
X120079000Y-54610000D03*
%TO.P,R18,2*%
%TO.N,GND*%
X121729000Y-54610000D03*
%TD*%
D20*
%TO.P,R19,1*%
%TO.N,+3V3*%
X146367000Y-71374000D03*
%TO.P,R19,2*%
%TO.N,/SDC0_D1*%
X144717000Y-71374000D03*
%TD*%
%TO.P,R20,1*%
%TO.N,+3V3*%
X146367000Y-69596000D03*
%TO.P,R20,2*%
%TO.N,/SDC0_D0*%
X144717000Y-69596000D03*
%TD*%
%TO.P,R21,1*%
%TO.N,+3V3*%
X146367000Y-67818000D03*
%TO.P,R21,2*%
%TO.N,/SDC0_CDM*%
X144717000Y-67818000D03*
%TD*%
%TO.P,R22,1*%
%TO.N,+3V3*%
X146367000Y-66040000D03*
%TO.P,R22,2*%
%TO.N,/SDC0_D3*%
X144717000Y-66040000D03*
%TD*%
%TO.P,R23,1*%
%TO.N,+3V3*%
X146367000Y-64262000D03*
%TO.P,R23,2*%
%TO.N,/SDC0_D2*%
X144717000Y-64262000D03*
%TD*%
%TO.P,R24,1*%
%TO.N,+3V3*%
X146367000Y-62484000D03*
%TO.P,R24,2*%
%TO.N,/SDC0_CD*%
X144717000Y-62484000D03*
%TD*%
D24*
%TO.P,SW1,1,1*%
%TO.N,/~{RESET}*%
X90700000Y-41366000D03*
X99800000Y-41366000D03*
%TO.P,SW1,2,2*%
%TO.N,GND*%
X90700000Y-36866000D03*
X99800000Y-36866000D03*
%TD*%
D25*
%TO.P,U2,1,GND*%
%TO.N,GND*%
X92315000Y-70714000D03*
%TO.P,U2,2,VO*%
%TO.N,+5V*%
X94615000Y-70714000D03*
D26*
X94615000Y-64414000D03*
D25*
%TO.P,U2,3,VI*%
%TO.N,/VIN*%
X96915000Y-70714000D03*
%TD*%
D27*
%TO.P,U3,1,IN*%
%TO.N,+5V*%
X111572000Y-72470000D03*
%TO.P,U3,2,GND*%
%TO.N,GND*%
X112522000Y-72470000D03*
%TO.P,U3,3,EN*%
%TO.N,+5V*%
X113472000Y-72470000D03*
%TO.P,U3,4,ADJ*%
%TO.N,Net-(R11-Pad1)*%
X113472000Y-69770000D03*
%TO.P,U3,5,OUT*%
%TO.N,+1V1*%
X111572000Y-69770000D03*
%TD*%
%TO.P,U4,1,IN*%
%TO.N,+5V*%
X117922000Y-72470000D03*
%TO.P,U4,2,GND*%
%TO.N,GND*%
X118872000Y-72470000D03*
%TO.P,U4,3,EN*%
%TO.N,+5V*%
X119822000Y-72470000D03*
%TO.P,U4,4,ADJ*%
%TO.N,Net-(R12-Pad2)*%
X119822000Y-69770000D03*
%TO.P,U4,5,OUT*%
%TO.N,+2V5*%
X117922000Y-69770000D03*
%TD*%
%TO.P,U5,1,IN*%
%TO.N,+5V*%
X124272000Y-72470000D03*
%TO.P,U5,2,GND*%
%TO.N,GND*%
X125222000Y-72470000D03*
%TO.P,U5,3,EN*%
%TO.N,+5V*%
X126172000Y-72470000D03*
%TO.P,U5,4,ADJ*%
%TO.N,Net-(R15-Pad2)*%
X126172000Y-69770000D03*
%TO.P,U5,5,OUT*%
%TO.N,+3V3*%
X124272000Y-69770000D03*
%TD*%
D28*
%TO.P,Y1,1,1*%
%TO.N,/HOSCO*%
X112438000Y-44919000D03*
%TO.P,Y1,2,2*%
%TO.N,GND*%
X114638000Y-44919000D03*
%TO.P,Y1,3,3*%
%TO.N,/HOSCI*%
X114638000Y-43219000D03*
%TO.P,Y1,4,4*%
%TO.N,GND*%
X112438000Y-43219000D03*
%TD*%
D29*
%TO.P,J2,1*%
%TO.N,Net-(D1-Pad2)*%
X96878000Y-75780000D03*
X90678000Y-75780000D03*
%TO.P,J2,2*%
%TO.N,GND*%
X90678000Y-86780000D03*
%TO.P,J2,3*%
X96878000Y-86780000D03*
%TD*%
D30*
%TO.P,J1,1,VBUS*%
%TO.N,/USB_VBUS*%
X93156500Y-46960000D03*
%TO.P,J1,2,D-*%
%TO.N,/USB_D_N*%
X93156500Y-47610000D03*
%TO.P,J1,3,D+*%
%TO.N,/USB_D_P*%
X93156500Y-48260000D03*
%TO.P,J1,4,ID*%
%TO.N,/USB_ID*%
X93156500Y-48910000D03*
%TO.P,J1,5,GND*%
%TO.N,GND*%
X93156500Y-49560000D03*
D31*
%TO.P,J1,6,Shield*%
X93156500Y-50760000D03*
D32*
X90456500Y-51760000D03*
D33*
X90456500Y-47260000D03*
D34*
X90456500Y-45360000D03*
X90456500Y-51160000D03*
D31*
X93156500Y-45760000D03*
D33*
X90456500Y-49260000D03*
D32*
X90456500Y-44760000D03*
%TD*%
D35*
%TO.P,D3,1,K*%
%TO.N,Net-(D3-Pad1)*%
X132870000Y-54610000D03*
%TO.P,D3,2,A*%
%TO.N,Net-(D3-Pad2)*%
X130020000Y-54610000D03*
%TD*%
%TO.P,D4,1,K*%
%TO.N,Net-(D4-Pad1)*%
X132870000Y-58928000D03*
%TO.P,D4,2,A*%
%TO.N,Net-(D4-Pad2)*%
X130020000Y-58928000D03*
%TD*%
%TO.P,D5,1,K*%
%TO.N,Net-(D5-Pad1)*%
X132870000Y-46482000D03*
%TO.P,D5,2,A*%
%TO.N,Net-(D5-Pad2)*%
X130020000Y-46482000D03*
%TD*%
D20*
%TO.P,R10,1*%
%TO.N,/PE1_UART0_TX*%
X138112000Y-54356000D03*
%TO.P,R10,2*%
%TO.N,GND*%
X136462000Y-54356000D03*
%TD*%
%TO.P,R25,1*%
%TO.N,/LED_STATUS*%
X138112000Y-59436000D03*
%TO.P,R25,2*%
%TO.N,GND*%
X136462000Y-59436000D03*
%TD*%
%TO.P,R26,1*%
%TO.N,/PE9_SPI1_CLK*%
X138112000Y-45974000D03*
%TO.P,R26,2*%
%TO.N,GND*%
X136462000Y-45974000D03*
%TD*%
%TO.P,R27,1*%
%TO.N,/PE0_UART0_RX*%
X138112000Y-51054000D03*
%TO.P,R27,2*%
%TO.N,GND*%
X136462000Y-51054000D03*
%TD*%
D36*
%TO.P,U7,1,G1*%
%TO.N,/PE0_UART0_RX*%
X138237000Y-49164000D03*
%TO.P,U7,2,S*%
%TO.N,GND*%
X138237000Y-48514000D03*
%TO.P,U7,3,G2*%
%TO.N,/PE9_SPI1_CLK*%
X138237000Y-47864000D03*
%TO.P,U7,4,D2*%
%TO.N,Net-(D5-Pad1)*%
X136337000Y-47864000D03*
%TO.P,U7,5,D1*%
%TO.N,Net-(D6-Pad1)*%
X136337000Y-49164000D03*
%TD*%
%TO.P,U8,1,G1*%
%TO.N,/LED_STATUS*%
X138237000Y-57546000D03*
%TO.P,U8,2,S*%
%TO.N,GND*%
X138237000Y-56896000D03*
%TO.P,U8,3,G2*%
%TO.N,/PE1_UART0_TX*%
X138237000Y-56246000D03*
%TO.P,U8,4,D2*%
%TO.N,Net-(D3-Pad1)*%
X136337000Y-56246000D03*
%TO.P,U8,5,D1*%
%TO.N,Net-(D4-Pad1)*%
X136337000Y-57546000D03*
%TD*%
D37*
%TO.P,J5,1,DAT2*%
%TO.N,/SDC0_D2*%
X156210000Y-63587000D03*
%TO.P,J5,2,DAT3/CD*%
%TO.N,/SDC0_D3*%
X156210000Y-64687000D03*
%TO.P,J5,3,CMD*%
%TO.N,/SDC0_CDM*%
X156210000Y-65787000D03*
%TO.P,J5,4,VDD*%
%TO.N,+3V3*%
X156210000Y-66887000D03*
%TO.P,J5,5,CLK*%
%TO.N,/SDC0_CLK*%
X156210000Y-67987000D03*
%TO.P,J5,6,VSS*%
%TO.N,GND*%
X156210000Y-69087000D03*
%TO.P,J5,7,DAT0*%
%TO.N,/SDC0_D0*%
X156210000Y-70187000D03*
%TO.P,J5,8,DAT1*%
%TO.N,/SDC0_D1*%
X156210000Y-71287000D03*
D38*
%TO.P,J5,9,DET*%
%TO.N,/SDC0_CD*%
X153530000Y-61827000D03*
D39*
%TO.P,J5,10,SHIELD*%
%TO.N,GND*%
X152260000Y-61827000D03*
D40*
%TO.P,J5,11,SHIELD*%
X149650000Y-61827000D03*
D41*
%TO.P,J5,12,SHIELD*%
X153405000Y-72462000D03*
D40*
%TO.P,J5,13,SHIELD*%
X150220000Y-72462000D03*
D42*
%TO.P,J5,14,SHIELD*%
X148975000Y-69282000D03*
%TO.P,J5,15,SHIELD*%
X148975000Y-65092000D03*
%TD*%
D43*
%TO.P,U6,1,~{CS}*%
%TO.N,/FLASH_SPI0_CS*%
X145669000Y-52014000D03*
%TO.P,U6,2,DO/IO1*%
%TO.N,/FLASH_SPI0_MISO*%
X146939000Y-52014000D03*
%TO.P,U6,3,~{WP}/IO2*%
%TO.N,+3V3*%
X148209000Y-52014000D03*
%TO.P,U6,4,GND*%
%TO.N,GND*%
X149479000Y-52014000D03*
%TO.P,U6,5,DI/IO0*%
%TO.N,/FLASH_SPI0_MOSI*%
X149479000Y-45014000D03*
%TO.P,U6,6,CLK*%
%TO.N,/FLASH_SPI0_CLK*%
X148209000Y-45014000D03*
%TO.P,U6,7,~{HOLD}/IO3*%
%TO.N,+3V3*%
X146939000Y-45014000D03*
%TO.P,U6,8,VCC*%
X145669000Y-45014000D03*
%TD*%
D18*
%TO.P,J3,1,Pin_1*%
%TO.N,/I2C0_SCL*%
X107696000Y-36450000D03*
%TO.P,J3,2,Pin_2*%
%TO.N,/I2C0_SDA*%
X110236000Y-39750000D03*
%TO.P,J3,3,Pin_3*%
%TO.N,unconnected-(J3-Pad3)*%
X112776000Y-36450000D03*
%TO.P,J3,4,Pin_4*%
%TO.N,GND*%
X115316000Y-39750000D03*
%TO.P,J3,5,Pin_5*%
%TO.N,/PE9_SPI1_CLK*%
X117856000Y-36450000D03*
%TO.P,J3,6,Pin_6*%
%TO.N,/PE10_SP1_MISO*%
X120396000Y-39750000D03*
%TO.P,J3,7,Pin_7*%
%TO.N,/PE8_SPI1_MOSI*%
X122936000Y-36450000D03*
%TO.P,J3,8,Pin_8*%
%TO.N,/PE7_SPI1_CS*%
X125476000Y-39750000D03*
%TO.P,J3,9,Pin_9*%
%TO.N,/PE3*%
X128016000Y-36450000D03*
%TO.P,J3,10,Pin_10*%
%TO.N,/PE4*%
X130556000Y-39750000D03*
%TD*%
D10*
%TO.P,C18,1*%
%TO.N,+3V3*%
X143383000Y-45072000D03*
%TO.P,C18,2*%
%TO.N,GND*%
X143383000Y-46622000D03*
%TD*%
D21*
%TO.P,R14,1*%
%TO.N,+3V3*%
X143256000Y-50291992D03*
%TO.P,R14,2*%
%TO.N,/FLASH_SPI0_CS*%
X143256000Y-51941992D03*
%TD*%
D18*
%TO.P,J6,1,Pin_1*%
%TO.N,/PE5*%
X134620000Y-36450000D03*
%TO.P,J6,2,Pin_2*%
%TO.N,/PE6_PWM1*%
X137160000Y-39750000D03*
%TO.P,J6,3,Pin_3*%
%TO.N,/PD1_UART1_RTS*%
X139700000Y-36450000D03*
%TO.P,J6,4,Pin_4*%
%TO.N,/PD2_UART1_CTS*%
X142240000Y-39750000D03*
%TO.P,J6,5,Pin_5*%
%TO.N,/PD3_UART1_RX*%
X144780000Y-36450000D03*
%TO.P,J6,6,Pin_6*%
%TO.N,/PD4_UART1_TX*%
X147320000Y-39750000D03*
%TO.P,J6,7,Pin_7*%
%TO.N,/PE1_UART0_TX*%
X149860000Y-36450000D03*
%TO.P,J6,8,Pin_8*%
%TO.N,/PE0_UART0_RX*%
X152400000Y-39750000D03*
%TD*%
D17*
%TO.P,FID1,*%
%TO.N,*%
X96520000Y-44196000D03*
%TD*%
D44*
%TO.P,C6,1*%
%TO.N,/VIN*%
X109982000Y-80866000D03*
%TO.P,C6,2*%
%TO.N,GND*%
X109982000Y-86266000D03*
%TD*%
D10*
%TO.P,C12,1*%
%TO.N,+2V5*%
X118491000Y-56629000D03*
%TO.P,C12,2*%
%TO.N,GND*%
X118491000Y-58179000D03*
%TD*%
D22*
%TO.P,R5,1*%
%TO.N,+3V3*%
X101346000Y-45275000D03*
%TO.P,R5,2*%
%TO.N,/~{RESET}*%
X101346000Y-43625000D03*
%TD*%
D45*
%TO.P,TP1,1,1*%
%TO.N,+5V*%
X104775000Y-63246000D03*
%TD*%
%TO.P,TP2,1,1*%
%TO.N,GND*%
X104775000Y-67818000D03*
%TD*%
%TO.P,TP3,1,1*%
%TO.N,+1V1*%
X133477000Y-79121000D03*
%TD*%
%TO.P,TP4,1,1*%
%TO.N,+2V5*%
X133477000Y-74041000D03*
%TD*%
%TO.P,TP5,1,1*%
%TO.N,+3V3*%
X133477000Y-68961000D03*
%TD*%
D18*
%TO.P,J4,1,Pin_1*%
%TO.N,unconnected-(J4-Pad1)*%
X116840000Y-84710000D03*
%TO.P,J4,2,Pin_2*%
%TO.N,+3V3*%
X119380000Y-88010000D03*
%TO.P,J4,3,Pin_3*%
%TO.N,/~{RESET}*%
X121920000Y-84710000D03*
%TO.P,J4,4,Pin_4*%
%TO.N,+5V*%
X124460000Y-88010000D03*
%TO.P,J4,5,Pin_5*%
%TO.N,+3V3*%
X127000000Y-84710000D03*
%TO.P,J4,6,Pin_6*%
%TO.N,GND*%
X129540000Y-88010000D03*
%TO.P,J4,7,Pin_7*%
X132080000Y-84710000D03*
%TO.P,J4,8,Pin_8*%
%TO.N,/VIN*%
X134620000Y-88010000D03*
%TD*%
D14*
%TO.P,C21,1*%
%TO.N,+1V1*%
X104661000Y-52070000D03*
%TO.P,C21,2*%
%TO.N,GND*%
X103111000Y-52070000D03*
%TD*%
D13*
%TO.P,C24,1*%
%TO.N,+3V3*%
X114414000Y-46863000D03*
%TO.P,C24,2*%
%TO.N,GND*%
X115964000Y-46863000D03*
%TD*%
D35*
%TO.P,D6,1,K*%
%TO.N,Net-(D6-Pad1)*%
X132870000Y-50546000D03*
%TO.P,D6,2,A*%
%TO.N,Net-(D6-Pad2)*%
X130020000Y-50546000D03*
%TD*%
D21*
%TO.P,R12,1*%
%TO.N,+2V5*%
X121666000Y-68009000D03*
%TO.P,R12,2*%
%TO.N,Net-(R12-Pad2)*%
X121666000Y-69659000D03*
%TD*%
D46*
%TO.P,C7,1*%
%TO.N,+5V*%
X99695000Y-64436000D03*
%TO.P,C7,2*%
%TO.N,GND*%
X99695000Y-67136000D03*
%TD*%
D35*
%TO.P,D2,1,K*%
%TO.N,GND*%
X132870000Y-62992000D03*
%TO.P,D2,2,A*%
%TO.N,Net-(D2-Pad2)*%
X130020000Y-62992000D03*
%TD*%
D47*
%TO.P,U1,1,HPL*%
%TO.N,unconnected-(U1-Pad1)*%
X107560000Y-59356000D03*
%TO.P,U1,2,HPCOMFB*%
%TO.N,GND*%
X107960000Y-59356000D03*
%TO.P,U1,3,HPCOM*%
%TO.N,unconnected-(U1-Pad3)*%
X108360000Y-59356000D03*
%TO.P,U1,4,HPVCC*%
%TO.N,+3V3*%
X108760000Y-59356000D03*
%TO.P,U1,5,VCC_IO*%
X109160000Y-59356000D03*
%TO.P,U1,6,PD0/LCD_D2/TWI0_SDA/RSB_SDA_EINTD0*%
%TO.N,/SDC0_CD*%
X109560000Y-59356000D03*
%TO.P,U1,7,PD1/LCD_D3/UART1_RTS/EINTD1*%
%TO.N,/PD1_UART1_RTS*%
X109960000Y-59356000D03*
%TO.P,U1,8,PD2/LCD_D4/UART1_CTS/EINTD2*%
%TO.N,/PD2_UART1_CTS*%
X110360000Y-59356000D03*
%TO.P,U1,9,PD3/LCD_D5/UART1_RX/EINTD3*%
%TO.N,/PD3_UART1_RX*%
X110760000Y-59356000D03*
%TO.P,U1,10,PD4/LCD_D6/UART1_TX/EINTD4*%
%TO.N,/PD4_UART1_TX*%
X111160000Y-59356000D03*
%TO.P,U1,11,PD5/LCD_D7/TWI1_SCK/EINTD5*%
%TO.N,/PD5_I2C1_SCL*%
X111560000Y-59356000D03*
%TO.P,U1,12,PD6/LCD_D10/TWI1_SDA/EINTD6*%
%TO.N,/PD6_I2C1_SDA*%
X111960000Y-59356000D03*
%TO.P,U1,13,PD7/LCD_D11/DA_MCLK/EINTD7*%
%TO.N,/LED_STATUS*%
X112360000Y-59356000D03*
%TO.P,U1,14,PD8/LCD_D12/DA_BCLK/EINTD8*%
%TO.N,unconnected-(U1-Pad14)*%
X112760000Y-59356000D03*
%TO.P,U1,15,PD9/LCD_D13/DA_LRCK/EINTD9*%
%TO.N,unconnected-(U1-Pad15)*%
X113160000Y-59356000D03*
%TO.P,U1,16,PD10/LCD_D14/DA_IN/EINTD10*%
%TO.N,unconnected-(U1-Pad16)*%
X113560000Y-59356000D03*
%TO.P,U1,17,PD11/LCD_D15/DA_OUT/EINTD11*%
%TO.N,unconnected-(U1-Pad17)*%
X113960000Y-59356000D03*
%TO.P,U1,18,PD12/LCD_D18/TWI0_SCK/RSB_SCK/EINTD12*%
%TO.N,unconnected-(U1-Pad18)*%
X114360000Y-59356000D03*
%TO.P,U1,19,PD13/LCD_D19/UART2_TX/EINTD13*%
%TO.N,/PD13_UART2_TX*%
X114760000Y-59356000D03*
%TO.P,U1,20,VCC_IO*%
%TO.N,+3V3*%
X115160000Y-59356000D03*
%TO.P,U1,21,PD14/LCD_D20/UART2_RX/EINTD14*%
%TO.N,/PD14_UART2_RX*%
X115560000Y-59356000D03*
%TO.P,U1,22,VDD_CORE*%
%TO.N,+1V1*%
X115960000Y-59356000D03*
D48*
%TO.P,U1,23,PD15/LCD_D21/UART2_RTS/TWI2_SCK/EINTD15*%
%TO.N,/PD15_UART2_RTS*%
X116760000Y-58556000D03*
%TO.P,U1,24,PD16/LCD_D22/UART2_CTS/TWI2_SDA/EINTD16*%
%TO.N,/PD16_UART2_CTS*%
X116760000Y-58156000D03*
%TO.P,U1,25,PD17/LCD_D23/OWA_OUT/EINTD17*%
%TO.N,unconnected-(U1-Pad25)*%
X116760000Y-57756000D03*
%TO.P,U1,26,PD18/LCD_CLK/SPI0_CS/EINTD18*%
%TO.N,unconnected-(U1-Pad26)*%
X116760000Y-57356000D03*
%TO.P,U1,27,PD19/LCD_DE/SPI0_MOSI/EINTD19*%
%TO.N,unconnected-(U1-Pad27)*%
X116760000Y-56956000D03*
%TO.P,U1,28,PD20/LCD_HSYNC/SPI0_CLK/EINTD20*%
%TO.N,unconnected-(U1-Pad28)*%
X116760000Y-56556000D03*
%TO.P,U1,29,PD21/LCD_VSYNC/SPI0_MISO/EINTD21*%
%TO.N,unconnected-(U1-Pad29)*%
X116760000Y-56156000D03*
%TO.P,U1,30,VCC_DRAM*%
%TO.N,+2V5*%
X116760000Y-55756000D03*
%TO.P,U1,31,VCC_DRAM*%
X116760000Y-55356000D03*
%TO.P,U1,32,VCC_DRAM*%
X116760000Y-54956000D03*
%TO.P,U1,33,SVREF*%
%TO.N,Net-(C19-Pad1)*%
X116760000Y-54556000D03*
%TO.P,U1,34,VCC_DRAM*%
%TO.N,+2V5*%
X116760000Y-54156000D03*
%TO.P,U1,35,VDD_CORE*%
%TO.N,+1V1*%
X116760000Y-53756000D03*
%TO.P,U1,36,VCC_DRAM*%
%TO.N,+2V5*%
X116760000Y-53356000D03*
%TO.P,U1,37,PE12/DA_MCLK/TWI0_SDA/PWM0/EINTE12*%
%TO.N,/I2C0_SDA*%
X116760000Y-52956000D03*
%TO.P,U1,38,PE11/CLK_OUT/TWI0_SCK/IR_RX/EINTE11*%
%TO.N,/I2C0_SCL*%
X116760000Y-52556000D03*
%TO.P,U1,39,PE10/CSI_D7/UART2_CTS/SPI1_MISO/EINTE10*%
%TO.N,/PE10_SP1_MISO*%
X116760000Y-52156000D03*
%TO.P,U1,40,PE9/CSI_D6/UART2_RTS/SPI1_CLK/EINTE9*%
%TO.N,/PE9_SPI1_CLK*%
X116760000Y-51756000D03*
%TO.P,U1,41,PE8/CSI_D5/UART2_RX/SPI1_MOSI/EINTE8*%
%TO.N,/PE8_SPI1_MOSI*%
X116760000Y-51356000D03*
%TO.P,U1,42,PE7/CSI_D4/UART2_TX/SPI1_CS/EINTE7*%
%TO.N,/PE7_SPI1_CS*%
X116760000Y-50956000D03*
%TO.P,U1,43,PE6/CSI_D3/PWM1/DA_OUT/OWA_OUT/EINTE6*%
%TO.N,/PE6_PWM1*%
X116760000Y-50556000D03*
%TO.P,U1,44,PE5/CSI_D2/LCD_D17/DA_IN/EINTE5*%
%TO.N,/PE5*%
X116760000Y-50156000D03*
D47*
%TO.P,U1,45,PE4/CSI_D1/LCD_D16/DA_LRCK/RSB_SDA/EINTE4*%
%TO.N,/PE4*%
X115960000Y-49356000D03*
%TO.P,U1,46,PE3/CSI_D0/LCD_D9/DA_BCLK/RSB_SCK/EINTE3*%
%TO.N,/PE3*%
X115560000Y-49356000D03*
%TO.P,U1,47,PE2/CSI_PCLK/LCD_D8/CLK_OUT/EINTE2*%
%TO.N,/USB_ID*%
X115160000Y-49356000D03*
%TO.P,U1,48,PE1/CSI_VSYNC/LCD_D1/TWI2_SDA/UART0_TX/EINTE1*%
%TO.N,/PE1_UART0_TX*%
X114760000Y-49356000D03*
%TO.P,U1,49,PE0/CSI_HSYNC/LCD_D0/TWI2_SCK/UART0_RX/EINTE0*%
%TO.N,/PE0_UART0_RX*%
X114360000Y-49356000D03*
%TO.P,U1,50,VCC_IO*%
%TO.N,+3V3*%
X113960000Y-49356000D03*
%TO.P,U1,51,HOSCI*%
%TO.N,/HOSCI*%
X113560000Y-49356000D03*
%TO.P,U1,52,HOSCO*%
%TO.N,/HOSCO*%
X113160000Y-49356000D03*
%TO.P,U1,53,PF5/SDC0_D2/DBG_CK/PWM1/EINTF5*%
%TO.N,/SDC0_D2*%
X112760000Y-49356000D03*
%TO.P,U1,54,PF4/SDC0_D3/UART0_TX/EINTF4*%
%TO.N,/SDC0_D3*%
X112360000Y-49356000D03*
%TO.P,U1,55,PF3/SDC0_CMD/DBG_DO/EINTF3*%
%TO.N,/SDC0_CDM*%
X111960000Y-49356000D03*
%TO.P,U1,56,PF2/SDC0_CLK/UART0_RX/EINTF2*%
%TO.N,/SDC0_CLK*%
X111560000Y-49356000D03*
%TO.P,U1,57,PF1/SDC0_D0/DBG_DI/EINTF1*%
%TO.N,/SDC0_D0*%
X111160000Y-49356000D03*
%TO.P,U1,58,PF0/SDC0_D1/DBG_MS/IR_RX/EINTF0*%
%TO.N,/SDC0_D1*%
X110760000Y-49356000D03*
%TO.P,U1,59,PC0/SPI0_CLK/SDC1_CLK*%
%TO.N,/FLASH_SPI0_CLK*%
X110360000Y-49356000D03*
%TO.P,U1,60,PC1/SPI0_CS/SDC1_CMD*%
%TO.N,/FLASH_SPI0_CS*%
X109960000Y-49356000D03*
%TO.P,U1,61,PC2/SPI0_MISO/SDC1_D0*%
%TO.N,/FLASH_SPI0_MISO*%
X109560000Y-49356000D03*
%TO.P,U1,62,PC3/SPI0_MOSI/UART0_TX*%
%TO.N,/FLASH_SPI0_MOSI*%
X109160000Y-49356000D03*
%TO.P,U1,63,PA3/TPY2/IR_RX/DA_OUT/UART1_TX/SPI1_MISO*%
%TO.N,GND*%
X108760000Y-49356000D03*
%TO.P,U1,64,PA2/TPY1/PWM0/DA_IN/ART1_RX/SPI1_CLK*%
X108360000Y-49356000D03*
%TO.P,U1,65,PA1/TPX2/DA_LRCK/UART1_CTS/SPI1_MOSI*%
X107960000Y-49356000D03*
%TO.P,U1,66,PA0/TPX1/DA_BCLK/UART1_RTS/SPI1_CS*%
X107560000Y-49356000D03*
D48*
%TO.P,U1,67,UVCC*%
%TO.N,+3V3*%
X106760000Y-50156000D03*
%TO.P,U1,68,USB-DM*%
%TO.N,/USB_D_N*%
X106760000Y-50556000D03*
%TO.P,U1,69,USB-DP*%
%TO.N,/USB_D_P*%
X106760000Y-50956000D03*
%TO.P,U1,70,~{RESET}*%
%TO.N,/~{RESET}*%
X106760000Y-51356000D03*
%TO.P,U1,71,VDD_CORE*%
%TO.N,+1V1*%
X106760000Y-51756000D03*
%TO.P,U1,72,TV_OUT*%
%TO.N,unconnected-(U1-Pad72)*%
X106760000Y-52156000D03*
%TO.P,U1,73,TV_VCC*%
%TO.N,+3V3*%
X106760000Y-52556000D03*
%TO.P,U1,74,TVGND*%
%TO.N,GND*%
X106760000Y-52956000D03*
%TO.P,U1,75,TV_VRN*%
%TO.N,unconnected-(U1-Pad75)*%
X106760000Y-53356000D03*
%TO.P,U1,76,TV_VRP*%
%TO.N,unconnected-(U1-Pad76)*%
X106760000Y-53756000D03*
%TO.P,U1,77,TVIN1*%
%TO.N,unconnected-(U1-Pad77)*%
X106760000Y-54156000D03*
%TO.P,U1,78,TVIN0*%
%TO.N,unconnected-(U1-Pad78)*%
X106760000Y-54556000D03*
%TO.P,U1,79,LRADC0*%
%TO.N,unconnected-(U1-Pad79)*%
X106760000Y-54956000D03*
%TO.P,U1,80,AVCC*%
%TO.N,+2V5*%
X106760000Y-55356000D03*
%TO.P,U1,81,VRA1*%
%TO.N,unconnected-(U1-Pad81)*%
X106760000Y-55756000D03*
%TO.P,U1,82,AGND*%
%TO.N,GND*%
X106760000Y-56156000D03*
%TO.P,U1,83,VRA2*%
%TO.N,unconnected-(U1-Pad83)*%
X106760000Y-56556000D03*
%TO.P,U1,84,FMINL*%
%TO.N,GND*%
X106760000Y-56956000D03*
%TO.P,U1,85,FMINR*%
X106760000Y-57356000D03*
%TO.P,U1,86,LINL*%
X106760000Y-57756000D03*
%TO.P,U1,87,MICIN*%
X106760000Y-58156000D03*
%TO.P,U1,88,HPR*%
%TO.N,unconnected-(U1-Pad88)*%
X106760000Y-58556000D03*
D49*
%TO.P,U1,89,EPAD*%
%TO.N,GND*%
X111760000Y-54356000D03*
%TD*%
D21*
%TO.P,R28,1*%
%TO.N,/I2C0_SDA*%
X105156000Y-43625000D03*
%TO.P,R28,2*%
%TO.N,+3V3*%
X105156000Y-45275000D03*
%TD*%
%TO.P,R29,1*%
%TO.N,/I2C0_SCL*%
X103251000Y-43625000D03*
%TO.P,R29,2*%
%TO.N,+3V3*%
X103251000Y-45275000D03*
%TD*%
D22*
%TO.P,R30,1*%
%TO.N,/PD6_I2C1_SDA*%
X149352000Y-77533000D03*
%TO.P,R30,2*%
%TO.N,+3V3*%
X149352000Y-75883000D03*
%TD*%
%TO.P,R31,1*%
%TO.N,/PD5_I2C1_SCL*%
X151384000Y-77533000D03*
%TO.P,R31,2*%
%TO.N,+3V3*%
X151384000Y-75883000D03*
%TD*%
D50*
%TO.N,GND*%
X94361000Y-49530000D03*
X135763000Y-51054000D03*
X95250000Y-52832000D03*
X106680000Y-86360000D03*
X90170000Y-69977000D03*
X105664000Y-53365406D03*
X122555000Y-52832000D03*
X107950000Y-85090000D03*
X135636000Y-45974000D03*
X113030000Y-85090000D03*
X111760000Y-51181000D03*
X113030000Y-87630000D03*
X105791000Y-56134000D03*
X139192000Y-56896000D03*
X120142000Y-74422000D03*
X90170000Y-71120000D03*
X90678000Y-37973000D03*
X139192000Y-48514000D03*
X102235000Y-53848000D03*
X111760000Y-57531000D03*
X90170000Y-72517000D03*
X149479000Y-53594000D03*
X108585000Y-57531000D03*
X135509000Y-59436000D03*
X113792000Y-74422000D03*
X121666000Y-73787000D03*
X107950000Y-87630000D03*
X111760000Y-85090000D03*
X92837000Y-72517000D03*
X113284000Y-67056000D03*
X111760000Y-54356000D03*
X119634000Y-67056000D03*
X114300000Y-64008000D03*
X152273000Y-60960000D03*
X125222000Y-73279000D03*
X132080000Y-86614000D03*
X108585000Y-64008000D03*
X122555000Y-54610000D03*
X118491000Y-58928000D03*
X135763000Y-54356000D03*
X111760000Y-86360000D03*
X105791000Y-57150000D03*
X126365000Y-74422000D03*
X107950000Y-60325000D03*
X125984000Y-67183000D03*
X94361000Y-62484000D03*
X143383000Y-47498000D03*
X148717000Y-61849000D03*
X112395000Y-42291000D03*
X102235000Y-49657000D03*
X144780000Y-59690000D03*
X118872000Y-73279000D03*
X114935000Y-57531000D03*
X114935000Y-51181000D03*
X155194000Y-69088000D03*
X117856000Y-44831000D03*
X128016000Y-73787000D03*
X122555000Y-58166000D03*
X148336000Y-69342000D03*
X108585000Y-51181000D03*
X110236000Y-42545000D03*
X148336000Y-65024000D03*
X102235000Y-52070000D03*
X112522000Y-73406000D03*
X114935000Y-54356000D03*
X114681000Y-45974000D03*
X115316000Y-41148000D03*
X107950000Y-86360000D03*
X108585000Y-54356000D03*
X108585000Y-48387000D03*
X106680000Y-87630000D03*
X129540000Y-86106000D03*
X150241000Y-73406000D03*
X133985000Y-62992000D03*
X153416000Y-73406000D03*
X99822000Y-37973000D03*
X91821000Y-62103000D03*
X132080000Y-85979000D03*
X102235000Y-55626000D03*
X106680000Y-85090000D03*
X113030000Y-86360000D03*
X97282000Y-57150000D03*
X116205000Y-64008000D03*
X99695000Y-68199000D03*
X115316000Y-73787000D03*
X98171000Y-59309000D03*
X111760000Y-87630000D03*
X91440000Y-72517000D03*
X105791000Y-57912000D03*
X116967000Y-46863000D03*
X129540000Y-86741000D03*
X107696000Y-48387000D03*
%TO.N,/USB_VBUS*%
X98425000Y-54991000D03*
X97155000Y-53594000D03*
X98425000Y-54356000D03*
X94391000Y-46960000D03*
X96520000Y-53594000D03*
X94899000Y-46960000D03*
X97790000Y-53594000D03*
X95407000Y-46960000D03*
X98425000Y-53594000D03*
%TO.N,+5V*%
X110363000Y-72390000D03*
X116586000Y-76073000D03*
X110363000Y-73660000D03*
X120142000Y-76073000D03*
X119888000Y-73279000D03*
X102489000Y-61468000D03*
X110363000Y-75946000D03*
X126238000Y-66294000D03*
X116586000Y-73660000D03*
X99822000Y-62738000D03*
X101092000Y-64008000D03*
X122936000Y-73660000D03*
X124460000Y-84582000D03*
X101092000Y-62738000D03*
X116586000Y-72390000D03*
X116586000Y-74930000D03*
X101092000Y-61468000D03*
X113538000Y-73406000D03*
X102489000Y-64008000D03*
X126238000Y-63754000D03*
X133223000Y-60960000D03*
X113792000Y-75946000D03*
X101092000Y-65278000D03*
X126238000Y-73279000D03*
X122936000Y-76073000D03*
X99822000Y-61468000D03*
X122936000Y-74930000D03*
X102489000Y-65278000D03*
X126238000Y-58547000D03*
X102489000Y-62738000D03*
X110363000Y-74930000D03*
X124460000Y-83947000D03*
X122936000Y-72390000D03*
%TO.N,+1V1*%
X131826000Y-77851000D03*
X133985000Y-77851000D03*
X135001000Y-77851000D03*
X132842000Y-77851000D03*
X110744000Y-68326000D03*
X110744000Y-67564000D03*
X105664000Y-52197000D03*
X109982000Y-68326000D03*
X110744000Y-69215000D03*
X119277070Y-52856070D03*
X110744000Y-70104000D03*
X109982000Y-67564000D03*
X115316000Y-67183000D03*
X109982000Y-69215000D03*
X109982000Y-70104000D03*
X116205000Y-60325000D03*
%TO.N,+2V5*%
X116459000Y-68326000D03*
X135001000Y-72771000D03*
X117094000Y-69977000D03*
X117094000Y-69215000D03*
X121666000Y-67183000D03*
X116459000Y-69977000D03*
X105791000Y-55372000D03*
X133985000Y-72771000D03*
X117856000Y-55372000D03*
X117221000Y-67564000D03*
X117221000Y-68326000D03*
X132842000Y-72771000D03*
X116459000Y-69215000D03*
X118745000Y-54610000D03*
X122555000Y-56388000D03*
X118491000Y-53213000D03*
X131826000Y-72771000D03*
X116459000Y-67564000D03*
%TO.N,+3V3*%
X133096000Y-48514000D03*
X103251000Y-46101000D03*
X105156000Y-46101000D03*
X148209000Y-53594000D03*
X122809000Y-67564000D03*
X133096000Y-44450000D03*
X122809000Y-70104000D03*
X123571000Y-69342000D03*
X114173000Y-47879000D03*
X151384000Y-75057000D03*
X122809000Y-69342000D03*
X104902000Y-52959000D03*
X105791000Y-49657000D03*
X133096000Y-52578000D03*
X155194000Y-66929000D03*
X127000000Y-85979000D03*
X128016000Y-67183000D03*
X143383000Y-44196000D03*
X123571000Y-68326000D03*
X114935000Y-60706000D03*
X127000000Y-86614000D03*
X123571000Y-67564000D03*
X132969000Y-56896000D03*
X101346000Y-46101000D03*
X146304000Y-59690000D03*
X135001000Y-67691000D03*
X131826000Y-67691000D03*
X108839000Y-60325000D03*
X149352000Y-75057000D03*
X133985000Y-67691000D03*
X143256000Y-49403000D03*
X132842000Y-67691000D03*
X146431000Y-72390000D03*
X119380000Y-86106000D03*
X123571000Y-70104000D03*
X119380000Y-86741000D03*
X122809000Y-68326000D03*
%TO.N,/PE0_UART0_RX*%
X121539000Y-47244000D03*
X139192000Y-49403000D03*
%TO.N,/PE1_UART0_TX*%
X138049000Y-53213000D03*
X121539000Y-47879000D03*
%TO.N,/USB_ID*%
X96266000Y-50419000D03*
X115316000Y-48387000D03*
%TO.N,/I2C0_SCL*%
X118745000Y-42545000D03*
X107696000Y-41783000D03*
X118745000Y-44577000D03*
X117729000Y-52536900D03*
%TO.N,/I2C0_SDA*%
X119380000Y-44577000D03*
X111633000Y-39878000D03*
X119380000Y-42545000D03*
X118311300Y-52584011D03*
%TO.N,/~{RESET}*%
X99822000Y-49784000D03*
X121920000Y-80264000D03*
X105664000Y-51562000D03*
X112522000Y-65786000D03*
X121920000Y-83439000D03*
%TO.N,/SDC0_CLK*%
X110950191Y-46101000D03*
X155194000Y-67945000D03*
%TO.N,/SDC0_D0*%
X110365988Y-46101000D03*
X155194000Y-70231000D03*
X143764000Y-69596000D03*
%TO.N,/SDC0_D1*%
X109781785Y-46101000D03*
X155194000Y-71247000D03*
X143764000Y-71374000D03*
%TO.N,/SDC0_CDM*%
X155194000Y-65786000D03*
X111534394Y-46101000D03*
X143764000Y-67818000D03*
%TO.N,/SDC0_D2*%
X112702800Y-46101000D03*
X155194000Y-63627000D03*
X143764000Y-64262000D03*
%TO.N,/SDC0_D3*%
X155194000Y-64643000D03*
X143764000Y-66040000D03*
X112118597Y-46101000D03*
%TO.N,/SDC0_CD*%
X124460000Y-58928000D03*
X109474000Y-60706000D03*
X143764000Y-62484000D03*
X153543000Y-62611000D03*
X121158000Y-63754000D03*
%TO.N,/PD4_UART1_TX*%
X121666000Y-63246000D03*
X111140900Y-63246000D03*
%TO.N,/PD2_UART1_CTS*%
X110109000Y-62230000D03*
X122428000Y-62230000D03*
%TO.N,/PD3_UART1_RX*%
X110617000Y-62738000D03*
X122047000Y-62738000D03*
%TO.N,/PD1_UART1_RTS*%
X122809000Y-61722000D03*
X109728000Y-61722000D03*
%TO.N,/PD6_I2C1_SDA*%
X149860000Y-83439000D03*
X138684000Y-81534000D03*
%TO.N,/PD5_I2C1_SCL*%
X137922000Y-81534000D03*
X152400000Y-86614000D03*
%TO.N,/LED_STATUS*%
X127127000Y-61341000D03*
X113792000Y-64858900D03*
%TO.N,/FLASH_SPI0_CS*%
X145669000Y-53467000D03*
X108613379Y-46101000D03*
%TO.N,/FLASH_SPI0_MISO*%
X146939000Y-53467000D03*
X108029176Y-46101000D03*
%TO.N,/FLASH_SPI0_CLK*%
X109220000Y-43180000D03*
X148209000Y-43561000D03*
%TO.N,/FLASH_SPI0_MOSI*%
X149479000Y-43561000D03*
X107442000Y-46101000D03*
%TO.N,/PE8_SPI1_MOSI*%
X121666000Y-51054000D03*
X122682000Y-44450019D03*
%TO.N,/PE9_SPI1_CLK*%
X122301000Y-51054000D03*
X121412000Y-44577000D03*
X138938000Y-45974000D03*
X122847101Y-46393101D03*
%TO.N,/PE7_SPI1_CS*%
X121666000Y-50292000D03*
X123317000Y-44450019D03*
%TO.N,/PE10_SP1_MISO*%
X122301000Y-51816000D03*
X120015000Y-46482000D03*
%TD*%
D51*
%TO.N,GND*%
X156210000Y-69087000D02*
X155195000Y-69087000D01*
X113297000Y-67945000D02*
X113297000Y-67069000D01*
X107960000Y-49356000D02*
X107960000Y-48651000D01*
X108760000Y-49356000D02*
X108760000Y-48562000D01*
D52*
X129540000Y-88010000D02*
X129540000Y-86106000D01*
D51*
X138237000Y-56896000D02*
X139192000Y-56896000D01*
X143383000Y-46622000D02*
X143383000Y-47498000D01*
X115964000Y-46863000D02*
X116967000Y-46863000D01*
X108585000Y-63005000D02*
X108585000Y-64008000D01*
X149479000Y-52014000D02*
X149479000Y-53594000D01*
X125616000Y-74422000D02*
X126365000Y-74422000D01*
X94331000Y-49560000D02*
X94361000Y-49530000D01*
X110236000Y-43294000D02*
X110236000Y-42545000D01*
X103111000Y-55626000D02*
X102235000Y-55626000D01*
X99800000Y-37951000D02*
X99822000Y-37973000D01*
X114300000Y-63005000D02*
X114300000Y-64008000D01*
X103111000Y-53848000D02*
X102235000Y-53848000D01*
X121666000Y-72961000D02*
X121666000Y-73787000D01*
X105813000Y-56156000D02*
X105791000Y-56134000D01*
X108360000Y-49356000D02*
X108360000Y-48612000D01*
X136462000Y-51054000D02*
X135763000Y-51054000D01*
X117843000Y-44844000D02*
X117856000Y-44831000D01*
X136462000Y-59436000D02*
X135509000Y-59436000D01*
X115316000Y-39750000D02*
X115316000Y-41148000D01*
X125997000Y-68072000D02*
X125997000Y-67196000D01*
X148404000Y-65092000D02*
X148336000Y-65024000D01*
X112522000Y-72470000D02*
X112522000Y-73406000D01*
X91821000Y-61354000D02*
X91821000Y-62103000D01*
X128016000Y-72961000D02*
X128016000Y-73787000D01*
X106760000Y-52956000D02*
X106156800Y-52956000D01*
X153405000Y-73395000D02*
X153416000Y-73406000D01*
X108360000Y-48612000D02*
X108585000Y-48387000D01*
X94300000Y-61706000D02*
X94300000Y-62423000D01*
X106760000Y-57356000D02*
X105997000Y-57356000D01*
X106760000Y-56156000D02*
X105813000Y-56156000D01*
X105947000Y-57756000D02*
X105791000Y-57912000D01*
X132870000Y-62992000D02*
X133985000Y-62992000D01*
X112916000Y-74422000D02*
X113792000Y-74422000D01*
X155195000Y-69087000D02*
X155194000Y-69088000D01*
X144767000Y-60706000D02*
X144767000Y-59703000D01*
X105747394Y-53365406D02*
X105664000Y-53365406D01*
X148975000Y-69282000D02*
X148396000Y-69282000D01*
X107560000Y-49356000D02*
X107560000Y-48523000D01*
X107960000Y-60315000D02*
X107950000Y-60325000D01*
X107560000Y-48523000D02*
X107696000Y-48387000D01*
X107960000Y-48651000D02*
X107696000Y-48387000D01*
X121679000Y-58166000D02*
X122555000Y-58166000D01*
X110311000Y-43219000D02*
X110236000Y-43294000D01*
X94300000Y-62423000D02*
X94361000Y-62484000D01*
X149650000Y-61827000D02*
X148739000Y-61827000D01*
X125997000Y-67196000D02*
X125984000Y-67183000D01*
X112438000Y-43219000D02*
X112438000Y-42334000D01*
X113297000Y-67069000D02*
X113284000Y-67056000D01*
D52*
X132080000Y-84710000D02*
X132080000Y-86614000D01*
D51*
X150220000Y-73385000D02*
X150241000Y-73406000D01*
X97282000Y-56274000D02*
X97282000Y-57150000D01*
X114638000Y-45931000D02*
X114681000Y-45974000D01*
X148396000Y-69282000D02*
X148336000Y-69342000D01*
X148975000Y-65092000D02*
X148404000Y-65092000D01*
X105985000Y-56956000D02*
X105791000Y-57150000D01*
X93156500Y-49560000D02*
X94331000Y-49560000D01*
X136462000Y-54356000D02*
X135763000Y-54356000D01*
X90700000Y-36866000D02*
X90700000Y-37951000D01*
X115316000Y-72961000D02*
X115316000Y-73787000D01*
X105997000Y-57356000D02*
X105791000Y-57150000D01*
X90700000Y-37951000D02*
X90678000Y-37973000D01*
X106760000Y-58156000D02*
X106035000Y-58156000D01*
X112438000Y-43219000D02*
X110311000Y-43219000D01*
X152260000Y-61827000D02*
X152260000Y-60973000D01*
X119647000Y-67069000D02*
X119634000Y-67056000D01*
X95250000Y-52006000D02*
X95250000Y-52832000D01*
X144767000Y-59703000D02*
X144780000Y-59690000D01*
X103111000Y-49657000D02*
X102235000Y-49657000D01*
X112438000Y-42334000D02*
X112395000Y-42291000D01*
X99695000Y-67136000D02*
X99695000Y-68199000D01*
X150220000Y-72462000D02*
X150220000Y-73385000D01*
X116840000Y-44844000D02*
X117843000Y-44844000D01*
X98171000Y-60135000D02*
X98171000Y-59309000D01*
X106035000Y-58156000D02*
X105791000Y-57912000D01*
X152260000Y-60973000D02*
X152273000Y-60960000D01*
X118872000Y-72470000D02*
X118872000Y-73279000D01*
X121679000Y-52832000D02*
X122555000Y-52832000D01*
X153405000Y-72462000D02*
X153405000Y-73395000D01*
X103111000Y-52070000D02*
X102235000Y-52070000D01*
X106156800Y-52956000D02*
X105747394Y-53365406D01*
X138237000Y-48514000D02*
X139192000Y-48514000D01*
X148739000Y-61827000D02*
X148717000Y-61849000D01*
X119266000Y-74422000D02*
X120142000Y-74422000D01*
X118491000Y-58179000D02*
X118491000Y-58928000D01*
X106760000Y-57756000D02*
X105947000Y-57756000D01*
X116205000Y-63005000D02*
X116205000Y-64008000D01*
X116765000Y-44919000D02*
X116840000Y-44844000D01*
X107960000Y-59356000D02*
X107960000Y-60315000D01*
X114638000Y-44919000D02*
X116765000Y-44919000D01*
X99800000Y-36866000D02*
X99800000Y-37951000D01*
X106760000Y-56956000D02*
X105985000Y-56956000D01*
X108760000Y-48562000D02*
X108585000Y-48387000D01*
X114638000Y-44919000D02*
X114638000Y-45931000D01*
X119647000Y-67945000D02*
X119647000Y-67069000D01*
X136462000Y-45974000D02*
X135636000Y-45974000D01*
X121729000Y-54610000D02*
X122555000Y-54610000D01*
X125222000Y-72470000D02*
X125222000Y-73279000D01*
D53*
%TO.N,/USB_VBUS*%
X95407000Y-46960000D02*
X95407000Y-46960000D01*
X94899000Y-46960000D02*
X95407000Y-46960000D01*
X94391000Y-46960000D02*
X94899000Y-46960000D01*
X93156500Y-46960000D02*
X94391000Y-46960000D01*
D51*
%TO.N,/HOSCI*%
X116765000Y-43219000D02*
X116840000Y-43294000D01*
D54*
X114638000Y-43219000D02*
X116765000Y-43219000D01*
X113560000Y-44285518D02*
X114626518Y-43219000D01*
X113560000Y-49356000D02*
X113560000Y-44285518D01*
D51*
X114626518Y-43219000D02*
X114638000Y-43219000D01*
D54*
%TO.N,/HOSCO*%
X112438000Y-44919000D02*
X110311000Y-44919000D01*
D51*
X110311000Y-44919000D02*
X110236000Y-44844000D01*
D54*
X113160000Y-49356000D02*
X113160000Y-45641000D01*
X113160000Y-45641000D02*
X112438000Y-44919000D01*
D51*
%TO.N,/VIN*%
X134620000Y-86741000D02*
X134620000Y-86106000D01*
D52*
X134620000Y-82804000D02*
X133477000Y-81661000D01*
D51*
X134620000Y-88010000D02*
X134620000Y-86741000D01*
D52*
X133477000Y-81661000D02*
X113030000Y-81661000D01*
X134620000Y-88010000D02*
X134620000Y-82804000D01*
D55*
%TO.N,+5V*%
X126238000Y-66294000D02*
X108839000Y-66294000D01*
D51*
X113472000Y-73340000D02*
X113538000Y-73406000D01*
X119822000Y-73213000D02*
X119888000Y-73279000D01*
D55*
X132270000Y-60960000D02*
X133223000Y-60960000D01*
D51*
X126172000Y-72470000D02*
X126172000Y-73213000D01*
X119822000Y-72470000D02*
X119822000Y-73213000D01*
D55*
X107823000Y-65278000D02*
X106426000Y-65278000D01*
D51*
X126172000Y-73213000D02*
X126238000Y-73279000D01*
X98092000Y-61706000D02*
X98171000Y-61785000D01*
D55*
X126238000Y-66294000D02*
X126238000Y-66294000D01*
X108839000Y-66294000D02*
X107823000Y-65278000D01*
D52*
X124460000Y-88010000D02*
X124460000Y-83947000D01*
D55*
X126238000Y-58547000D02*
X126238000Y-63754000D01*
D51*
X113472000Y-72470000D02*
X113472000Y-73340000D01*
%TO.N,+1V1*%
X118964000Y-53756000D02*
X119277070Y-53442930D01*
X105680201Y-52197000D02*
X105664000Y-52197000D01*
X106121201Y-51756000D02*
X105680201Y-52197000D01*
X115960000Y-59356000D02*
X115960000Y-60080000D01*
X115960000Y-60080000D02*
X116205000Y-60325000D01*
X115316000Y-68009000D02*
X115316000Y-67183000D01*
X105537000Y-52070000D02*
X105664000Y-52197000D01*
X104661000Y-52070000D02*
X105537000Y-52070000D01*
X119301141Y-52832000D02*
X119277070Y-52856070D01*
X116760000Y-53756000D02*
X118964000Y-53756000D01*
X116205000Y-61455000D02*
X116205000Y-60325000D01*
X106760000Y-51756000D02*
X106121201Y-51756000D01*
X120129000Y-52832000D02*
X119301141Y-52832000D01*
X119277070Y-53442930D02*
X119277070Y-52856070D01*
%TO.N,+2V5*%
X117856000Y-55626000D02*
X117856000Y-55372000D01*
X118237000Y-55372000D02*
X117856000Y-55372000D01*
X106760000Y-55356000D02*
X105807000Y-55356000D01*
X117694000Y-54956000D02*
X117856000Y-55118000D01*
X118491000Y-56629000D02*
X118491000Y-55626000D01*
X116760000Y-53356000D02*
X118348000Y-53356000D01*
X118291000Y-54156000D02*
X118745000Y-54610000D01*
X117840000Y-55356000D02*
X117856000Y-55372000D01*
X121729000Y-56388000D02*
X122555000Y-56388000D01*
X118491000Y-55626000D02*
X118237000Y-55372000D01*
X117726000Y-55756000D02*
X117856000Y-55626000D01*
X105807000Y-55356000D02*
X105791000Y-55372000D01*
X118348000Y-53356000D02*
X118491000Y-53213000D01*
X121666000Y-68009000D02*
X121666000Y-67183000D01*
X116760000Y-55356000D02*
X117840000Y-55356000D01*
X105791000Y-55372000D02*
X104775000Y-55372000D01*
X117856000Y-55118000D02*
X117856000Y-55372000D01*
X116760000Y-55756000D02*
X117726000Y-55756000D01*
X116760000Y-54156000D02*
X118291000Y-54156000D01*
X116760000Y-54956000D02*
X117694000Y-54956000D01*
%TO.N,+3V3*%
X104902000Y-52959000D02*
X104661000Y-53200000D01*
X108760000Y-60246000D02*
X108839000Y-60325000D01*
X114935000Y-60283987D02*
X114935000Y-60706000D01*
X132270000Y-44450000D02*
X133096000Y-44450000D01*
X101346000Y-45275000D02*
X101346000Y-46101000D01*
X105156000Y-45275000D02*
X105156000Y-46101000D01*
X108585000Y-61455000D02*
X108585000Y-60579000D01*
X113960000Y-48092000D02*
X114173000Y-47879000D01*
X106036000Y-50156000D02*
X105791000Y-49911000D01*
X145669000Y-43561000D02*
X145923000Y-43307000D01*
X114300000Y-61341000D02*
X114935000Y-60706000D01*
X114414000Y-46863000D02*
X114414000Y-47638000D01*
D52*
X119380000Y-88010000D02*
X119380000Y-86106000D01*
D51*
X105029000Y-52832000D02*
X104902000Y-52959000D01*
X105791000Y-49657000D02*
X104661000Y-49657000D01*
X132270000Y-56896000D02*
X132969000Y-56896000D01*
X103251000Y-45275000D02*
X103251000Y-46101000D01*
X145669000Y-45014000D02*
X143441000Y-45014000D01*
X146939000Y-45014000D02*
X146939000Y-43561000D01*
D52*
X127000000Y-84710000D02*
X127000000Y-86614000D01*
D51*
X151384000Y-75883000D02*
X151384000Y-75057000D01*
X113960000Y-49356000D02*
X113960000Y-48092000D01*
X132270000Y-48514000D02*
X133096000Y-48514000D01*
X155236000Y-66887000D02*
X155194000Y-66929000D01*
X132270000Y-52578000D02*
X133096000Y-52578000D01*
X109160000Y-60004000D02*
X108839000Y-60325000D01*
X128016000Y-67945000D02*
X128016000Y-67183000D01*
X106089814Y-52556000D02*
X105813814Y-52832000D01*
X108585000Y-60579000D02*
X108839000Y-60325000D01*
X146317000Y-60706000D02*
X146317000Y-59703000D01*
X146939000Y-43561000D02*
X146685000Y-43307000D01*
X146367000Y-72326000D02*
X146431000Y-72390000D01*
X146317000Y-59703000D02*
X146304000Y-59690000D01*
X143383000Y-45072000D02*
X143383000Y-44196000D01*
X109160000Y-59356000D02*
X109160000Y-60004000D01*
X156210000Y-66887000D02*
X155236000Y-66887000D01*
X143441000Y-45014000D02*
X143383000Y-45072000D01*
X149352000Y-75883000D02*
X149352000Y-75057000D01*
X108760000Y-59356000D02*
X108760000Y-60246000D01*
X146317000Y-60706000D02*
X146317000Y-71324000D01*
X115160000Y-59356000D02*
X115160000Y-60058987D01*
X146317000Y-71324000D02*
X146367000Y-71374000D01*
X114300000Y-61455000D02*
X114300000Y-61341000D01*
X146685000Y-43307000D02*
X145923000Y-43307000D01*
X115160000Y-60058987D02*
X114935000Y-60283987D01*
X146367000Y-71374000D02*
X146367000Y-72326000D01*
X114414000Y-47638000D02*
X114173000Y-47879000D01*
X106760000Y-52556000D02*
X106089814Y-52556000D01*
X128016000Y-68009000D02*
X128016000Y-67945000D01*
X106760000Y-50156000D02*
X106036000Y-50156000D01*
X148209000Y-52014000D02*
X148209000Y-53594000D01*
X104661000Y-53200000D02*
X104661000Y-53848000D01*
X143256000Y-50292000D02*
X143256000Y-49403000D01*
X105791000Y-49911000D02*
X105791000Y-49657000D01*
X145669000Y-45014000D02*
X145669000Y-43561000D01*
X105813814Y-52832000D02*
X105029000Y-52832000D01*
%TO.N,Net-(C19-Pad1)*%
X120079000Y-56388000D02*
X120079000Y-58116000D01*
X117929000Y-54556000D02*
X118808000Y-55435000D01*
X118808000Y-55435000D02*
X120079000Y-55435000D01*
X120079000Y-55435000D02*
X120079000Y-56388000D01*
X120025000Y-54556000D02*
X120079000Y-54610000D01*
X120079000Y-54610000D02*
X120079000Y-55435000D01*
X116760000Y-54556000D02*
X117929000Y-54556000D01*
X120079000Y-58116000D02*
X120129000Y-58166000D01*
%TO.N,Net-(D2-Pad2)*%
X130020000Y-61560000D02*
X130620000Y-60960000D01*
X130020000Y-62992000D02*
X130020000Y-61560000D01*
%TO.N,Net-(D3-Pad2)*%
X130020000Y-53178000D02*
X130620000Y-52578000D01*
X130020000Y-54610000D02*
X130020000Y-53178000D01*
D54*
%TO.N,/PE0_UART0_RX*%
X114360000Y-49356000D02*
X114360000Y-48581000D01*
D51*
X138237000Y-49164000D02*
X138237000Y-50929000D01*
D54*
X114360000Y-48348776D02*
X114994887Y-47713889D01*
X114994887Y-47713889D02*
X121069111Y-47713889D01*
X121069111Y-47713889D02*
X121539000Y-47244000D01*
X114360000Y-48581000D02*
X114360000Y-48475776D01*
X138237000Y-49164000D02*
X138953000Y-49164000D01*
X141224000Y-43434000D02*
X141985950Y-42672050D01*
X138953000Y-49164000D02*
X139192000Y-49403000D01*
X141985950Y-42672050D02*
X151510950Y-42672050D01*
X140335000Y-49403000D02*
X141224000Y-48514000D01*
D51*
X138237000Y-50929000D02*
X138112000Y-51054000D01*
D54*
X151510950Y-42672050D02*
X152400000Y-41783000D01*
X141224000Y-48514000D02*
X141224000Y-43434000D01*
X139192000Y-49403000D02*
X140335000Y-49403000D01*
X152400000Y-41783000D02*
X152400000Y-39750000D01*
X114360000Y-48581000D02*
X114360000Y-48348776D01*
%TO.N,/PE1_UART0_TX*%
X138049000Y-53213000D02*
X138049000Y-54293000D01*
X141478010Y-52577990D02*
X141478010Y-43539214D01*
X115114831Y-47967899D02*
X121450101Y-47967899D01*
X114760000Y-48308000D02*
X114774730Y-48308000D01*
X114760000Y-49356000D02*
X114760000Y-48308000D01*
X152272940Y-42926060D02*
X153416000Y-41783000D01*
X142091164Y-42926060D02*
X152272940Y-42926060D01*
X114774730Y-48308000D02*
X115114831Y-47967899D01*
X153416000Y-37973000D02*
X151893000Y-36450000D01*
X153416000Y-41783000D02*
X153416000Y-37973000D01*
X138112000Y-54356000D02*
X139700000Y-54356000D01*
X121450101Y-47967899D02*
X121539000Y-47879000D01*
X141478010Y-43539214D02*
X142091164Y-42926060D01*
X151893000Y-36450000D02*
X149860000Y-36450000D01*
D51*
X138112000Y-56121000D02*
X138237000Y-56246000D01*
X138112000Y-54356000D02*
X138112000Y-56121000D01*
D54*
X138049000Y-54293000D02*
X138112000Y-54356000D01*
X139700000Y-54356000D02*
X141478010Y-52577990D01*
D51*
%TO.N,Net-(D4-Pad2)*%
X130020000Y-58928000D02*
X130020000Y-57496000D01*
X130020000Y-57496000D02*
X130620000Y-56896000D01*
%TO.N,Net-(D5-Pad2)*%
X130020000Y-45050000D02*
X130620000Y-44450000D01*
X130020000Y-46482000D02*
X130020000Y-45050000D01*
%TO.N,Net-(D6-Pad2)*%
X130020000Y-50546000D02*
X130020000Y-49114000D01*
X130020000Y-49114000D02*
X130620000Y-48514000D01*
D54*
%TO.N,/USB_ID*%
X115160000Y-49356000D02*
X115160000Y-48543000D01*
X95250000Y-50356000D02*
X96203000Y-50356000D01*
X93156500Y-48910000D02*
X94884000Y-48910000D01*
X95250000Y-49276000D02*
X95250000Y-50356000D01*
X115160000Y-48543000D02*
X115316000Y-48387000D01*
X94884000Y-48910000D02*
X95250000Y-49276000D01*
X96203000Y-50356000D02*
X96266000Y-50419000D01*
%TO.N,/I2C0_SCL*%
X103251000Y-42418000D02*
X103886000Y-41783000D01*
X103886000Y-41783000D02*
X107696000Y-41783000D01*
X103251000Y-43625000D02*
X103251000Y-42418000D01*
X117624000Y-52556000D02*
X117709900Y-52556000D01*
X116760000Y-52556000D02*
X117624000Y-52556000D01*
X107696000Y-41783000D02*
X107696000Y-36450000D01*
X118745000Y-44577000D02*
X118745000Y-42545000D01*
X117709900Y-52556000D02*
X117729000Y-52536900D01*
%TO.N,/PE3*%
X121666010Y-48513990D02*
X126238000Y-43942000D01*
X116077990Y-48513990D02*
X121666010Y-48513990D01*
X126238000Y-36957000D02*
X126745000Y-36450000D01*
X115972786Y-48513990D02*
X116077990Y-48513990D01*
X115560000Y-49356000D02*
X115560000Y-48763270D01*
X115560000Y-48763270D02*
X115809280Y-48513990D01*
X126238000Y-43942000D02*
X126238000Y-36957000D01*
X115809280Y-48513990D02*
X116077990Y-48513990D01*
X126745000Y-36450000D02*
X128016000Y-36450000D01*
%TO.N,/I2C0_SDA*%
X105156000Y-43625000D02*
X106616000Y-43625000D01*
X106616000Y-43625000D02*
X107505000Y-43625000D01*
X117939311Y-52956000D02*
X118311300Y-52584011D01*
X110236000Y-39750000D02*
X110236000Y-41529000D01*
X108140000Y-43625000D02*
X106616000Y-43625000D01*
X119380000Y-44577000D02*
X119380000Y-42545000D01*
X111633000Y-39878000D02*
X110364000Y-39878000D01*
X110364000Y-39878000D02*
X110236000Y-39750000D01*
X110236000Y-41529000D02*
X108140000Y-43625000D01*
X116760000Y-52956000D02*
X117939311Y-52956000D01*
%TO.N,/PE4*%
X126492000Y-44047224D02*
X126492000Y-40640000D01*
X121771225Y-48767999D02*
X126492000Y-44047224D01*
X116078000Y-48768000D02*
X117475000Y-48768000D01*
X117475000Y-48768000D02*
X121771225Y-48767999D01*
X127382000Y-39750000D02*
X130556000Y-39750000D01*
X126492000Y-40640000D02*
X127382000Y-39750000D01*
X115960000Y-49356000D02*
X115960000Y-48886000D01*
X115960000Y-48886000D02*
X116078000Y-48768000D01*
X117475000Y-48768000D02*
X117602000Y-48768000D01*
%TO.N,/~{RESET}*%
X99759000Y-43624000D02*
X99759000Y-41407000D01*
X128460500Y-65849500D02*
X128681510Y-66070510D01*
X99759000Y-41407000D02*
X99800000Y-41366000D01*
X130048000Y-76835000D02*
X130048000Y-67437000D01*
X101346000Y-43625000D02*
X99759000Y-43625000D01*
X99759000Y-43688000D02*
X99759000Y-44641000D01*
X99759000Y-43688000D02*
X99759000Y-43625000D01*
X99759000Y-43625000D02*
X99759000Y-43624000D01*
X126619000Y-80264000D02*
X130048000Y-76835000D01*
X106760000Y-51356000D02*
X105870000Y-51356000D01*
X130048000Y-67437000D02*
X128460500Y-65849500D01*
X105870000Y-51356000D02*
X105664000Y-51562000D01*
X90700000Y-41366000D02*
X99800000Y-41366000D01*
X128397050Y-65786050D02*
X128460500Y-65849500D01*
X99759000Y-49721000D02*
X99822000Y-49784000D01*
X112522000Y-65786000D02*
X112961282Y-65786000D01*
X99759000Y-44641000D02*
X99759000Y-49721000D01*
X112961282Y-65786000D02*
X112961332Y-65786050D01*
X112961332Y-65786050D02*
X128397050Y-65786050D01*
X121920000Y-84710000D02*
X121920000Y-83439000D01*
X121920000Y-80264000D02*
X126619000Y-80264000D01*
X112522000Y-65786000D02*
X112522020Y-65786020D01*
%TO.N,/SDC0_CLK*%
X111560000Y-46803264D02*
X110950191Y-46193455D01*
X111560000Y-49356000D02*
X111560000Y-46803264D01*
D51*
X110950191Y-46193455D02*
X110950191Y-46101000D01*
X155236000Y-67987000D02*
X155194000Y-67945000D01*
X156210000Y-67987000D02*
X155236000Y-67987000D01*
D54*
%TO.N,/SDC0_D0*%
X111160000Y-46987467D02*
X110365988Y-46193455D01*
D51*
X155238000Y-70187000D02*
X155194000Y-70231000D01*
X110365988Y-46193455D02*
X110365988Y-46101000D01*
X156210000Y-70187000D02*
X155238000Y-70187000D01*
X144717000Y-69596000D02*
X143764000Y-69596000D01*
D54*
X111160000Y-49356000D02*
X111160000Y-46987467D01*
D51*
%TO.N,/SDC0_D1*%
X144717000Y-71374000D02*
X143764000Y-71374000D01*
X109781785Y-46193455D02*
X109781785Y-46101000D01*
X156210000Y-71287000D02*
X155234000Y-71287000D01*
D54*
X110760000Y-49356000D02*
X110760000Y-47171670D01*
X110760000Y-47171670D02*
X109781785Y-46193455D01*
D51*
X155234000Y-71287000D02*
X155194000Y-71247000D01*
D54*
%TO.N,/SDC0_CDM*%
X111960000Y-46619061D02*
X111534394Y-46193455D01*
D51*
X156210000Y-65787000D02*
X155195000Y-65787000D01*
X144717000Y-67818000D02*
X143764000Y-67818000D01*
D54*
X111960000Y-49356000D02*
X111960000Y-46619061D01*
D51*
X111534394Y-46193455D02*
X111534394Y-46101000D01*
X155195000Y-65787000D02*
X155194000Y-65786000D01*
%TO.N,/SDC0_D2*%
X112760000Y-46158200D02*
X112702800Y-46101000D01*
X144717000Y-64262000D02*
X143764000Y-64262000D01*
X155234000Y-63587000D02*
X155194000Y-63627000D01*
D54*
X112760000Y-49356000D02*
X112760000Y-46158200D01*
D51*
X156210000Y-63587000D02*
X155234000Y-63587000D01*
D54*
%TO.N,/SDC0_D3*%
X112360000Y-49356000D02*
X112360000Y-46434858D01*
D51*
X112118597Y-46193455D02*
X112118597Y-46101000D01*
D54*
X112360000Y-46434858D02*
X112118597Y-46193455D01*
D51*
X155238000Y-64687000D02*
X155194000Y-64643000D01*
X144717000Y-66040000D02*
X143764000Y-66040000D01*
X156210000Y-64687000D02*
X155238000Y-64687000D01*
D54*
%TO.N,/SDC0_CD*%
X109560000Y-60620000D02*
X109474000Y-60706000D01*
X124460000Y-58928000D02*
X124117141Y-59270859D01*
X153530000Y-61827000D02*
X153530000Y-62598000D01*
X153530000Y-62598000D02*
X153543000Y-62611000D01*
X109560000Y-59356000D02*
X109560000Y-60620000D01*
X124117141Y-59270859D02*
X124117141Y-62572859D01*
D51*
X144717000Y-62484000D02*
X143764000Y-62484000D01*
D54*
X122936000Y-63754000D02*
X121158000Y-63754000D01*
X124117141Y-62572859D02*
X122936000Y-63754000D01*
%TO.N,/PD4_UART1_TX*%
X147320000Y-41783000D02*
X147320000Y-39750000D01*
X146684960Y-42418040D02*
X147320000Y-41783000D01*
X123863131Y-48856869D02*
X130301960Y-42418040D01*
X130301960Y-42418040D02*
X146684960Y-42418040D01*
X123863131Y-62456545D02*
X123863131Y-48856869D01*
X123073676Y-63246000D02*
X123863131Y-62456545D01*
X121666000Y-63246000D02*
X123073676Y-63246000D01*
X111160000Y-60753000D02*
X111160000Y-59356000D01*
X147320000Y-40827000D02*
X147320000Y-39750000D01*
X111160000Y-60753000D02*
X111160000Y-63226900D01*
X111160000Y-63226900D02*
X111140900Y-63246000D01*
%TO.N,/PD2_UART1_CTS*%
X110360000Y-59947000D02*
X110360000Y-59356000D01*
X123355111Y-48621009D02*
X127453560Y-44522560D01*
X142240000Y-41021000D02*
X141350980Y-41910020D01*
X127453560Y-44522560D02*
X130066100Y-41910020D01*
X123355111Y-61810889D02*
X123355111Y-48621009D01*
X142240000Y-39750000D02*
X142240000Y-41021000D01*
X130066100Y-41910020D02*
X141350980Y-41910020D01*
X110360000Y-61979000D02*
X110360000Y-59947000D01*
X110109000Y-62230000D02*
X110360000Y-61979000D01*
X122936000Y-62230000D02*
X123355111Y-61810889D01*
X122428000Y-62230000D02*
X122936000Y-62230000D01*
X127508028Y-44468092D02*
X127453560Y-44522560D01*
%TO.N,/PE6_PWM1*%
X137160000Y-41148000D02*
X137160000Y-39750000D01*
X136906000Y-41402000D02*
X137160000Y-41148000D01*
X126967336Y-44290336D02*
X129855672Y-41402000D01*
X120807836Y-50449836D02*
X126967336Y-44290336D01*
X129855672Y-41402000D02*
X133455215Y-41402000D01*
X133455215Y-41402009D02*
X133455224Y-41402000D01*
X133455224Y-41402000D02*
X136906000Y-41402000D01*
X120711672Y-50546000D02*
X120807836Y-50449836D01*
X126967336Y-44290336D02*
X127000010Y-44257662D01*
X116760000Y-50556000D02*
X120701672Y-50556000D01*
X120701672Y-50556000D02*
X120807836Y-50449836D01*
%TO.N,/PD3_UART1_RX*%
X123609121Y-62126352D02*
X123609121Y-48729879D01*
X144780000Y-39002902D02*
X144780000Y-36450000D01*
X110760000Y-62595000D02*
X110617000Y-62738000D01*
X122047000Y-62738000D02*
X122997473Y-62738000D01*
X143763970Y-42164030D02*
X144780000Y-41148000D01*
X110760000Y-60753000D02*
X110760000Y-62595000D01*
X127783813Y-44576963D02*
X130196746Y-42164030D01*
X110760000Y-60753000D02*
X110760000Y-59356000D01*
X123609121Y-48729879D02*
X127762037Y-44576963D01*
X127762037Y-44576963D02*
X127783813Y-44576963D01*
X130196746Y-42164030D02*
X143763970Y-42164030D01*
X144780000Y-41148000D02*
X144780000Y-39002902D01*
X122997473Y-62738000D02*
X123609121Y-62126352D01*
%TO.N,/PD1_UART1_RTS*%
X123101101Y-61175899D02*
X123101101Y-61429899D01*
X109960000Y-61490000D02*
X109728000Y-61722000D01*
X109960000Y-59356000D02*
X109960000Y-61490000D01*
X129960886Y-41656010D02*
X138429990Y-41656010D01*
X123101101Y-60236101D02*
X123101101Y-48515795D01*
X123101101Y-48515795D02*
X129960886Y-41656010D01*
X123101101Y-60236101D02*
X123101101Y-61175899D01*
X123101101Y-61429899D02*
X122809000Y-61722000D01*
X138429990Y-41656010D02*
X139700000Y-40386000D01*
X139700000Y-40386000D02*
X139700000Y-36450000D01*
%TO.N,/PE5*%
X116760000Y-50156000D02*
X120742448Y-50156000D01*
X129750458Y-41147990D02*
X133349990Y-41147990D01*
X134620000Y-39878000D02*
X134620000Y-36450000D01*
X133349990Y-41147990D02*
X133350000Y-41148000D01*
X120742448Y-50156000D02*
X129750458Y-41147990D01*
X133350000Y-41148000D02*
X134620000Y-39878000D01*
%TO.N,/PD13_UART2_TX*%
X139700000Y-84710000D02*
X139700000Y-67415224D01*
X114434365Y-64762635D02*
X114695730Y-65024000D01*
X139700000Y-67415224D02*
X137308796Y-65024020D01*
X113411000Y-63739270D02*
X114434365Y-64762635D01*
X113411000Y-60706000D02*
X113411000Y-63739270D01*
X137308796Y-65024020D02*
X114695750Y-65024020D01*
X113792000Y-60325000D02*
X113411000Y-60706000D01*
X114760000Y-59992000D02*
X114427000Y-60325000D01*
X114427000Y-60325000D02*
X113792000Y-60325000D01*
X114695750Y-65024020D02*
X114434365Y-64762635D01*
X114760000Y-59356000D02*
X114760000Y-59992000D01*
%TO.N,/PD15_UART2_RTS*%
X117348000Y-60071000D02*
X117348000Y-60198000D01*
X117348000Y-58674000D02*
X117348000Y-60071000D01*
X116760000Y-58556000D02*
X117230000Y-58556000D01*
X120544776Y-64516000D02*
X137541000Y-64516000D01*
X117230000Y-58556000D02*
X117348000Y-58674000D01*
X117348000Y-61319224D02*
X120544776Y-64516000D01*
X144780000Y-75035224D02*
X144780000Y-84710000D01*
X141635501Y-71890725D02*
X144780000Y-75035224D01*
X141635500Y-68610500D02*
X141635501Y-71890725D01*
X137541000Y-64516000D02*
X141635500Y-68610500D01*
X117348000Y-60071000D02*
X117348000Y-61319224D01*
%TO.N,/PD6_I2C1_SDA*%
X137203583Y-65278031D02*
X138684000Y-66758448D01*
X149860000Y-84710000D02*
X149860000Y-83439000D01*
X149860000Y-83439000D02*
X149860000Y-81407000D01*
X111960000Y-59356000D02*
X111960000Y-64066270D01*
X138684000Y-66758448D02*
X138684000Y-81534000D01*
X113171760Y-65278030D02*
X137203583Y-65278031D01*
X149860000Y-81407000D02*
X149352000Y-80899000D01*
X111960000Y-64066270D02*
X113171760Y-65278030D01*
X149352000Y-80899000D02*
X149352000Y-77533000D01*
%TO.N,/PD14_UART2_RX*%
X115560000Y-60716000D02*
X115316000Y-60960000D01*
X141381492Y-71995940D02*
X142240000Y-72854448D01*
X115560000Y-59356000D02*
X115560000Y-60716000D01*
X141381492Y-68737492D02*
X141381492Y-71995940D01*
X137414000Y-64770000D02*
X137541000Y-64897000D01*
X142240000Y-74422000D02*
X142240000Y-88010000D01*
X115316000Y-63739270D02*
X116346730Y-64770000D01*
X142240000Y-72854448D02*
X142240000Y-74422000D01*
X116346730Y-64770000D02*
X137414000Y-64770000D01*
X115316000Y-60960000D02*
X115316000Y-63739270D01*
X137414010Y-64770010D02*
X137541000Y-64897000D01*
X137541000Y-64897000D02*
X141381492Y-68737492D01*
%TO.N,/PD16_UART2_CTS*%
X117465000Y-58156000D02*
X117678210Y-58369210D01*
X120650000Y-64262000D02*
X137668000Y-64262000D01*
X141889510Y-71785510D02*
X147320000Y-77216000D01*
X137668000Y-64262000D02*
X141889510Y-68483510D01*
X147320000Y-77216000D02*
X147320000Y-88010000D01*
X117678210Y-58369210D02*
X117678210Y-61290210D01*
X141889510Y-68483510D02*
X141889510Y-71785510D01*
X116760000Y-58156000D02*
X117465000Y-58156000D01*
X117678210Y-61290210D02*
X120650000Y-64262000D01*
%TO.N,/PD5_I2C1_SCL*%
X137098368Y-65532040D02*
X138430000Y-66863672D01*
X113066546Y-65532040D02*
X111560000Y-64025494D01*
X152400000Y-88010000D02*
X152400000Y-86614000D01*
X138430000Y-66863672D02*
X138430000Y-81026000D01*
X111560000Y-59356000D02*
X111560000Y-62665000D01*
X137098368Y-65532040D02*
X113066546Y-65532040D01*
X111560000Y-64025494D02*
X111560000Y-62665000D01*
X151384000Y-80518000D02*
X151384000Y-77533000D01*
X152400000Y-81534000D02*
X151384000Y-80518000D01*
X111560000Y-62665000D02*
X111560000Y-62792000D01*
X152400000Y-86614000D02*
X152400000Y-81534000D01*
X138430000Y-81026000D02*
X137922000Y-81534000D01*
%TO.N,/LED_STATUS*%
X113411000Y-64897000D02*
X113753900Y-64897000D01*
X112360000Y-63846000D02*
X113411000Y-64897000D01*
D51*
X138237000Y-59311000D02*
X138112000Y-59436000D01*
X138237000Y-57546000D02*
X138237000Y-59311000D01*
D54*
X112360000Y-62830000D02*
X112360000Y-63047494D01*
X112360000Y-63047494D02*
X112360000Y-63846000D01*
X112360000Y-59356000D02*
X112360000Y-62830000D01*
X137350000Y-60198000D02*
X138112000Y-59436000D01*
X112360000Y-63846000D02*
X112395000Y-63881000D01*
X127127000Y-61341000D02*
X128270000Y-60198000D01*
X113753900Y-64897000D02*
X113792000Y-64858900D01*
X128270000Y-60198000D02*
X137350000Y-60198000D01*
%TO.N,Net-(R11-Pad1)*%
X113472000Y-69770000D02*
X115205000Y-69770000D01*
X115316000Y-71311000D02*
X115316000Y-69659000D01*
X115205000Y-69770000D02*
X115316000Y-69659000D01*
%TO.N,Net-(R12-Pad2)*%
X121666000Y-71311000D02*
X121666000Y-69659000D01*
X121555000Y-69770000D02*
X121666000Y-69659000D01*
X119822000Y-69770000D02*
X121555000Y-69770000D01*
%TO.N,/FLASH_SPI0_CS*%
X145669000Y-52014000D02*
X143328000Y-52014000D01*
D51*
X108613379Y-46193455D02*
X108613379Y-46101000D01*
D54*
X143328000Y-52014000D02*
X143256000Y-51942000D01*
X109960000Y-49356000D02*
X109960000Y-47540076D01*
X145669000Y-52014000D02*
X145669000Y-53467000D01*
X109960000Y-47540076D02*
X108613379Y-46193455D01*
%TO.N,Net-(R15-Pad2)*%
X128016000Y-71311000D02*
X128016000Y-69659000D01*
X127905000Y-69770000D02*
X128016000Y-69659000D01*
X126172000Y-69770000D02*
X127905000Y-69770000D01*
%TO.N,/FLASH_SPI0_MISO*%
X109560000Y-49356000D02*
X109560000Y-47724279D01*
X109560000Y-47724279D02*
X108029176Y-46193455D01*
X146939000Y-52014000D02*
X146939000Y-53467000D01*
D51*
X108029176Y-46193455D02*
X108029176Y-46101000D01*
D54*
%TO.N,/FLASH_SPI0_CLK*%
X110360000Y-47355873D02*
X109197582Y-46193455D01*
X109197582Y-43202418D02*
X109220000Y-43180000D01*
X109197582Y-46193455D02*
X109197582Y-43202418D01*
X148209000Y-45014000D02*
X148209000Y-43561000D01*
X110360000Y-49356000D02*
X110360000Y-47355873D01*
%TO.N,/FLASH_SPI0_MOSI*%
X109160000Y-49356000D02*
X109160000Y-47908482D01*
X149479000Y-45014000D02*
X149479000Y-43561000D01*
X109160000Y-47908482D02*
X107442000Y-46190482D01*
X107442000Y-46190482D02*
X107442000Y-46101000D01*
D51*
%TO.N,Net-(D3-Pad1)*%
X134506000Y-56246000D02*
X132870000Y-54610000D01*
X136337000Y-56246000D02*
X134506000Y-56246000D01*
%TO.N,Net-(D4-Pad1)*%
X134252000Y-57546000D02*
X132870000Y-58928000D01*
X136337000Y-57546000D02*
X134252000Y-57546000D01*
%TO.N,Net-(D5-Pad1)*%
X134252000Y-47864000D02*
X132870000Y-46482000D01*
X136337000Y-47864000D02*
X134252000Y-47864000D01*
%TO.N,Net-(D6-Pad1)*%
X136337000Y-49164000D02*
X134252000Y-49164000D01*
X134252000Y-49164000D02*
X132870000Y-50546000D01*
D55*
%TO.N,/USB_D_P*%
X94169001Y-48260000D02*
X94278101Y-48150900D01*
X93156500Y-48260000D02*
X94169001Y-48260000D01*
D56*
X106129328Y-51015900D02*
X106189228Y-50956000D01*
D55*
X94278101Y-48150900D02*
X95851570Y-48150900D01*
X98716570Y-51015900D02*
X105791000Y-51015900D01*
D57*
X106735000Y-50981000D02*
X106760000Y-50956000D01*
D56*
X105791000Y-51015900D02*
X106129328Y-51015900D01*
X106189228Y-50956000D02*
X106760000Y-50956000D01*
D55*
X95851570Y-48150900D02*
X98716570Y-51015900D01*
D56*
%TO.N,/USB_D_N*%
X105794590Y-50587690D02*
X106036670Y-50587690D01*
X106068360Y-50556000D02*
X106760000Y-50556000D01*
D55*
X94169001Y-47610000D02*
X94278101Y-47719100D01*
D56*
X106036670Y-50587690D02*
X106068360Y-50556000D01*
X105791000Y-50584100D02*
X105794590Y-50587690D01*
D55*
X93156500Y-47610000D02*
X94169001Y-47610000D01*
X94278101Y-47719100D02*
X96030430Y-47719100D01*
D57*
X106735000Y-50531000D02*
X106760000Y-50556000D01*
D55*
X96030430Y-47719100D02*
X98895430Y-50584100D01*
X98895430Y-50584100D02*
X105791000Y-50584100D01*
D54*
%TO.N,/PE8_SPI1_MOSI*%
X122682000Y-36704000D02*
X122936000Y-36450000D01*
X121364000Y-51356000D02*
X121666000Y-51054000D01*
X122682000Y-44450019D02*
X122682000Y-36704000D01*
X116760000Y-51356000D02*
X121364000Y-51356000D01*
%TO.N,/PE9_SPI1_CLK*%
X120270000Y-36450000D02*
X117856000Y-36450000D01*
X121412000Y-37592000D02*
X120270000Y-36450000D01*
X121412000Y-44577000D02*
X121412000Y-37592000D01*
X121412000Y-44958000D02*
X122847101Y-46393101D01*
X121412000Y-44577000D02*
X121412000Y-44958000D01*
X121599000Y-51756000D02*
X122301000Y-51054000D01*
X116760000Y-51756000D02*
X121599000Y-51756000D01*
D51*
X138237000Y-46099000D02*
X138112000Y-45974000D01*
X138237000Y-47864000D02*
X138237000Y-46099000D01*
D54*
X138112000Y-45974000D02*
X138938000Y-45974000D01*
%TO.N,/PE7_SPI1_CS*%
X123317000Y-40259000D02*
X123826000Y-39750000D01*
X123317000Y-44450019D02*
X123317000Y-40259000D01*
X116760000Y-50956000D02*
X121002000Y-50956000D01*
X123826000Y-39750000D02*
X125476000Y-39750000D01*
X121002000Y-50956000D02*
X121666000Y-50292000D01*
%TO.N,/PE10_SP1_MISO*%
X117389000Y-52156000D02*
X117516000Y-52156000D01*
X117516000Y-52156000D02*
X117661990Y-52010010D01*
X120396000Y-46101000D02*
X120396000Y-39750000D01*
X120015000Y-46482000D02*
X120396000Y-46101000D01*
X122106990Y-52010010D02*
X122301000Y-51816000D01*
X117661990Y-52010010D02*
X122106990Y-52010010D01*
X116760000Y-52156000D02*
X117389000Y-52156000D01*
%TD*%
%TA.AperFunction,Conductor*%
%TO.N,GND*%
G36*
X106788694Y-66185306D02*
G01*
X106807000Y-66229500D01*
X106807000Y-69152500D01*
X106788694Y-69196694D01*
X106744500Y-69215000D01*
X98741500Y-69215000D01*
X98697306Y-69196694D01*
X98679000Y-69152500D01*
X98679000Y-66229500D01*
X98697306Y-66185306D01*
X98741500Y-66167000D01*
X106744500Y-66167000D01*
X106788694Y-66185306D01*
G37*
%TD.AperFunction*%
%TD*%
%TA.AperFunction,Conductor*%
%TO.N,+1V1*%
G36*
X135490694Y-77488306D02*
G01*
X135509000Y-77532500D01*
X135509000Y-80201500D01*
X135490694Y-80245694D01*
X135446500Y-80264000D01*
X131507500Y-80264000D01*
X131463306Y-80245694D01*
X131445000Y-80201500D01*
X131445000Y-77532500D01*
X131463306Y-77488306D01*
X131507500Y-77470000D01*
X135446500Y-77470000D01*
X135490694Y-77488306D01*
G37*
%TD.AperFunction*%
%TD*%
%TA.AperFunction,Conductor*%
%TO.N,+2V5*%
G36*
X135490694Y-72408306D02*
G01*
X135509000Y-72452500D01*
X135509000Y-75121500D01*
X135490694Y-75165694D01*
X135446500Y-75184000D01*
X131507500Y-75184000D01*
X131463306Y-75165694D01*
X131445000Y-75121500D01*
X131445000Y-72452500D01*
X131463306Y-72408306D01*
X131507500Y-72390000D01*
X135446500Y-72390000D01*
X135490694Y-72408306D01*
G37*
%TD.AperFunction*%
%TD*%
%TA.AperFunction,Conductor*%
%TO.N,+3V3*%
G36*
X135490694Y-67328306D02*
G01*
X135509000Y-67372500D01*
X135509000Y-70041500D01*
X135490694Y-70085694D01*
X135446500Y-70104000D01*
X131507500Y-70104000D01*
X131463306Y-70085694D01*
X131445000Y-70041500D01*
X131445000Y-67372500D01*
X131463306Y-67328306D01*
X131507500Y-67310000D01*
X135446500Y-67310000D01*
X135490694Y-67328306D01*
G37*
%TD.AperFunction*%
%TD*%
%TA.AperFunction,Conductor*%
%TO.N,+3V3*%
G36*
X125164121Y-67330002D02*
G01*
X125210614Y-67383658D01*
X125222000Y-67436000D01*
X125222000Y-70613000D01*
X125201998Y-70681121D01*
X125148342Y-70727614D01*
X125096000Y-70739000D01*
X122681000Y-70739000D01*
X122612879Y-70718998D01*
X122566386Y-70665342D01*
X122555000Y-70613000D01*
X122555000Y-67436000D01*
X122575002Y-67367879D01*
X122628658Y-67321386D01*
X122681000Y-67310000D01*
X125096000Y-67310000D01*
X125164121Y-67330002D01*
G37*
%TD.AperFunction*%
%TD*%
%TA.AperFunction,Conductor*%
%TO.N,+2V5*%
G36*
X118814121Y-67203002D02*
G01*
X118860614Y-67256658D01*
X118872000Y-67309000D01*
X118872000Y-70613000D01*
X118851998Y-70681121D01*
X118798342Y-70727614D01*
X118746000Y-70739000D01*
X116331000Y-70739000D01*
X116262879Y-70718998D01*
X116216386Y-70665342D01*
X116205000Y-70613000D01*
X116205000Y-67309000D01*
X116225002Y-67240879D01*
X116278658Y-67194386D01*
X116331000Y-67183000D01*
X118746000Y-67183000D01*
X118814121Y-67203002D01*
G37*
%TD.AperFunction*%
%TD*%
%TA.AperFunction,Conductor*%
%TO.N,+1V1*%
G36*
X112464121Y-67203002D02*
G01*
X112510614Y-67256658D01*
X112522000Y-67309000D01*
X112522000Y-70613000D01*
X112501998Y-70681121D01*
X112448342Y-70727614D01*
X112396000Y-70739000D01*
X109727000Y-70739000D01*
X109658879Y-70718998D01*
X109612386Y-70665342D01*
X109601000Y-70613000D01*
X109601000Y-67309000D01*
X109621002Y-67240879D01*
X109674658Y-67194386D01*
X109727000Y-67183000D01*
X112396000Y-67183000D01*
X112464121Y-67203002D01*
G37*
%TD.AperFunction*%
%TD*%
%TA.AperFunction,Conductor*%
%TO.N,+5V*%
G36*
X111956121Y-71648002D02*
G01*
X112002614Y-71701658D01*
X112014000Y-71754000D01*
X112014000Y-71759984D01*
X111992765Y-71829985D01*
X111989162Y-71835377D01*
X111989160Y-71835381D01*
X111982266Y-71845699D01*
X111967500Y-71919933D01*
X111967501Y-73020066D01*
X111982266Y-73094301D01*
X111989161Y-73104620D01*
X111989163Y-73104625D01*
X111992765Y-73110015D01*
X112014000Y-73180016D01*
X112014000Y-75184000D01*
X116205000Y-75184000D01*
X116205000Y-71881000D01*
X116225002Y-71812879D01*
X116278658Y-71766386D01*
X116331000Y-71755000D01*
X118196776Y-71755000D01*
X118264897Y-71775002D01*
X118311390Y-71828658D01*
X118320355Y-71905581D01*
X118317500Y-71919933D01*
X118317501Y-73020066D01*
X118332266Y-73094301D01*
X118339161Y-73104620D01*
X118339163Y-73104625D01*
X118342765Y-73110015D01*
X118364000Y-73180016D01*
X118364000Y-75184000D01*
X122555000Y-75184000D01*
X122555000Y-71881000D01*
X122575002Y-71812879D01*
X122628658Y-71766386D01*
X122681000Y-71755000D01*
X124546776Y-71755000D01*
X124614897Y-71775002D01*
X124661390Y-71828658D01*
X124670355Y-71905581D01*
X124667500Y-71919933D01*
X124667501Y-73020066D01*
X124682266Y-73094301D01*
X124689161Y-73104620D01*
X124689163Y-73104625D01*
X124692765Y-73110015D01*
X124714000Y-73180016D01*
X124714000Y-76836000D01*
X124693998Y-76904121D01*
X124640342Y-76950614D01*
X124588000Y-76962000D01*
X109727000Y-76962000D01*
X109658879Y-76941998D01*
X109612386Y-76888342D01*
X109601000Y-76836000D01*
X109601000Y-71754000D01*
X109621002Y-71685879D01*
X109674658Y-71639386D01*
X109727000Y-71628000D01*
X111888000Y-71628000D01*
X111956121Y-71648002D01*
G37*
%TD.AperFunction*%
%TD*%
%TA.AperFunction,Conductor*%
%TO.N,GND*%
G36*
X93160121Y-69616002D02*
G01*
X93206614Y-69669658D01*
X93218000Y-69722000D01*
X93218000Y-72899000D01*
X93197998Y-72967121D01*
X93144342Y-73013614D01*
X93092000Y-73025000D01*
X89534000Y-73025000D01*
X89465879Y-73004998D01*
X89419386Y-72951342D01*
X89408000Y-72899000D01*
X89408000Y-69722000D01*
X89428002Y-69653879D01*
X89481658Y-69607386D01*
X89534000Y-69596000D01*
X93092000Y-69596000D01*
X93160121Y-69616002D01*
G37*
%TD.AperFunction*%
%TD*%
%TA.AperFunction,Conductor*%
%TO.N,/VIN*%
G36*
X108908121Y-69616002D02*
G01*
X108954614Y-69669658D01*
X108966000Y-69722000D01*
X108966000Y-77470000D01*
X113412000Y-77470000D01*
X113480121Y-77490002D01*
X113526614Y-77543658D01*
X113538000Y-77596000D01*
X113538000Y-83440000D01*
X113517998Y-83508121D01*
X113464342Y-83554614D01*
X113412000Y-83566000D01*
X103885000Y-83566000D01*
X103816879Y-83545998D01*
X103770386Y-83492342D01*
X103759000Y-83440000D01*
X103759000Y-73025000D01*
X96138000Y-73025000D01*
X96069879Y-73004998D01*
X96023386Y-72951342D01*
X96012000Y-72899000D01*
X96012000Y-69722000D01*
X96032002Y-69653879D01*
X96085658Y-69607386D01*
X96138000Y-69596000D01*
X108840000Y-69596000D01*
X108908121Y-69616002D01*
G37*
%TD.AperFunction*%
%TD*%
%TA.AperFunction,Conductor*%
%TO.N,+5V*%
G36*
X106749121Y-61107002D02*
G01*
X106795614Y-61160658D01*
X106807000Y-61213000D01*
X106807000Y-65660000D01*
X106786998Y-65728121D01*
X106733342Y-65774614D01*
X106681000Y-65786000D01*
X98425000Y-65786000D01*
X98425000Y-69089000D01*
X98404998Y-69157121D01*
X98351342Y-69203614D01*
X98299000Y-69215000D01*
X95758000Y-69215000D01*
X95758000Y-72899000D01*
X95737998Y-72967121D01*
X95684342Y-73013614D01*
X95632000Y-73025000D01*
X93598000Y-73025000D01*
X93529879Y-73004998D01*
X93483386Y-72951342D01*
X93472000Y-72899000D01*
X93472000Y-69215000D01*
X89534000Y-69215000D01*
X89465879Y-69194998D01*
X89419386Y-69141342D01*
X89408000Y-69089000D01*
X89408000Y-63118000D01*
X89428002Y-63049879D01*
X89481658Y-63003386D01*
X89534000Y-62992000D01*
X95504000Y-62992000D01*
X95504000Y-61213000D01*
X95524002Y-61144879D01*
X95577658Y-61098386D01*
X95630000Y-61087000D01*
X106681000Y-61087000D01*
X106749121Y-61107002D01*
G37*
%TD.AperFunction*%
%TD*%
%TA.AperFunction,Conductor*%
%TO.N,GND*%
G36*
X91675694Y-43198306D02*
G01*
X91694000Y-43242500D01*
X91694000Y-53340000D01*
X92774500Y-53340000D01*
X92818694Y-53358306D01*
X92837000Y-53402500D01*
X92837000Y-55436500D01*
X92818694Y-55480694D01*
X92774500Y-55499000D01*
X89470500Y-55499000D01*
X89426306Y-55480694D01*
X89408000Y-55436500D01*
X89408000Y-43242500D01*
X89426306Y-43198306D01*
X89470500Y-43180000D01*
X91631500Y-43180000D01*
X91675694Y-43198306D01*
G37*
%TD.AperFunction*%
%TD*%
%TA.AperFunction,Conductor*%
%TO.N,/USBVCC*%
G36*
X96208121Y-56154002D02*
G01*
X96254614Y-56207658D01*
X96266000Y-56260000D01*
X96266000Y-60326000D01*
X96245998Y-60394121D01*
X96192342Y-60440614D01*
X96140000Y-60452000D01*
X90804000Y-60452000D01*
X90735879Y-60431998D01*
X90689386Y-60378342D01*
X90678000Y-60326000D01*
X90678000Y-56260000D01*
X90698002Y-56191879D01*
X90751658Y-56145386D01*
X90804000Y-56134000D01*
X96140000Y-56134000D01*
X96208121Y-56154002D01*
G37*
%TD.AperFunction*%
%TD*%
%TA.AperFunction,Conductor*%
%TO.N,/USB_VBUS*%
G36*
X98748121Y-53360002D02*
G01*
X98794614Y-53413658D01*
X98806000Y-53466000D01*
X98806000Y-55373000D01*
X98785998Y-55441121D01*
X98732342Y-55487614D01*
X98680000Y-55499000D01*
X93471000Y-55499000D01*
X93402879Y-55478998D01*
X93356386Y-55425342D01*
X93345000Y-55373000D01*
X93345000Y-53466000D01*
X93365002Y-53397879D01*
X93418658Y-53351386D01*
X93471000Y-53340000D01*
X98680000Y-53340000D01*
X98748121Y-53360002D01*
G37*
%TD.AperFunction*%
%TD*%
%TA.AperFunction,Conductor*%
%TO.N,Net-(D1-Pad2)*%
G36*
X103447121Y-73299002D02*
G01*
X103493614Y-73352658D01*
X103505000Y-73405000D01*
X103505000Y-83440000D01*
X103484998Y-83508121D01*
X103431342Y-83554614D01*
X103379000Y-83566000D01*
X89534000Y-83566000D01*
X89465879Y-83545998D01*
X89419386Y-83492342D01*
X89408000Y-83440000D01*
X89408000Y-81574288D01*
X89428002Y-81506167D01*
X89481658Y-81459674D01*
X89551932Y-81449570D01*
X89616512Y-81479064D01*
X89654873Y-81538713D01*
X89695554Y-81676934D01*
X89698411Y-81682399D01*
X89788508Y-81854739D01*
X89788511Y-81854743D01*
X89791363Y-81860199D01*
X89795223Y-81864999D01*
X89795223Y-81865000D01*
X89801271Y-81872522D01*
X89920943Y-82021365D01*
X90079360Y-82154292D01*
X90260578Y-82253918D01*
X90457696Y-82316447D01*
X90463813Y-82317133D01*
X90463817Y-82317134D01*
X90539837Y-82325661D01*
X90618640Y-82334500D01*
X90730034Y-82334500D01*
X90883811Y-82319422D01*
X91081783Y-82259651D01*
X91173079Y-82211108D01*
X91258933Y-82165459D01*
X91258936Y-82165457D01*
X91264375Y-82162565D01*
X91269145Y-82158674D01*
X91269149Y-82158672D01*
X91419857Y-82035758D01*
X91419860Y-82035755D01*
X91424632Y-82031863D01*
X91437288Y-82016565D01*
X91552522Y-81877271D01*
X91552525Y-81877266D01*
X91556450Y-81872522D01*
X91563113Y-81860199D01*
X91651878Y-81696032D01*
X91651880Y-81696027D01*
X91654808Y-81690612D01*
X91715960Y-81493063D01*
X91737576Y-81287397D01*
X91736230Y-81272603D01*
X94118424Y-81272603D01*
X94137166Y-81478550D01*
X94195554Y-81676934D01*
X94198411Y-81682399D01*
X94288508Y-81854739D01*
X94288511Y-81854743D01*
X94291363Y-81860199D01*
X94295223Y-81864999D01*
X94295223Y-81865000D01*
X94301271Y-81872522D01*
X94420943Y-82021365D01*
X94579360Y-82154292D01*
X94760578Y-82253918D01*
X94957696Y-82316447D01*
X94963813Y-82317133D01*
X94963817Y-82317134D01*
X95039837Y-82325661D01*
X95118640Y-82334500D01*
X95230034Y-82334500D01*
X95383811Y-82319422D01*
X95581783Y-82259651D01*
X95673079Y-82211108D01*
X95758933Y-82165459D01*
X95758936Y-82165457D01*
X95764375Y-82162565D01*
X95769145Y-82158674D01*
X95769149Y-82158672D01*
X95919857Y-82035758D01*
X95919860Y-82035755D01*
X95924632Y-82031863D01*
X95937288Y-82016565D01*
X96052522Y-81877271D01*
X96052525Y-81877266D01*
X96056450Y-81872522D01*
X96063113Y-81860199D01*
X96151878Y-81696032D01*
X96151880Y-81696027D01*
X96154808Y-81690612D01*
X96215960Y-81493063D01*
X96237576Y-81287397D01*
X96218834Y-81081450D01*
X96160446Y-80883066D01*
X96150462Y-80863968D01*
X96067492Y-80705261D01*
X96067489Y-80705257D01*
X96064637Y-80699801D01*
X96059089Y-80692900D01*
X95938916Y-80543435D01*
X95935057Y-80538635D01*
X95776640Y-80405708D01*
X95595422Y-80306082D01*
X95398304Y-80243553D01*
X95392187Y-80242867D01*
X95392183Y-80242866D01*
X95316163Y-80234339D01*
X95237360Y-80225500D01*
X95125966Y-80225500D01*
X94972189Y-80240578D01*
X94774217Y-80300349D01*
X94682921Y-80348892D01*
X94597067Y-80394541D01*
X94597064Y-80394543D01*
X94591625Y-80397435D01*
X94586855Y-80401326D01*
X94586851Y-80401328D01*
X94436143Y-80524242D01*
X94436140Y-80524245D01*
X94431368Y-80528137D01*
X94427441Y-80532884D01*
X94427439Y-80532886D01*
X94303478Y-80682729D01*
X94303475Y-80682734D01*
X94299550Y-80687478D01*
X94296620Y-80692897D01*
X94296618Y-80692900D01*
X94204122Y-80863968D01*
X94204120Y-80863973D01*
X94201192Y-80869388D01*
X94140040Y-81066937D01*
X94139396Y-81073062D01*
X94139396Y-81073063D01*
X94135686Y-81108368D01*
X94118424Y-81272603D01*
X91736230Y-81272603D01*
X91718834Y-81081450D01*
X91660446Y-80883066D01*
X91650462Y-80863968D01*
X91567492Y-80705261D01*
X91567489Y-80705257D01*
X91564637Y-80699801D01*
X91559089Y-80692900D01*
X91438916Y-80543435D01*
X91435057Y-80538635D01*
X91276640Y-80405708D01*
X91095422Y-80306082D01*
X90898304Y-80243553D01*
X90892187Y-80242867D01*
X90892183Y-80242866D01*
X90816163Y-80234339D01*
X90737360Y-80225500D01*
X90625966Y-80225500D01*
X90472189Y-80240578D01*
X90274217Y-80300349D01*
X90182921Y-80348892D01*
X90097067Y-80394541D01*
X90097064Y-80394543D01*
X90091625Y-80397435D01*
X90086855Y-80401326D01*
X90086851Y-80401328D01*
X89936143Y-80524242D01*
X89936140Y-80524245D01*
X89931368Y-80528137D01*
X89927441Y-80532884D01*
X89927439Y-80532886D01*
X89803478Y-80682729D01*
X89803475Y-80682734D01*
X89799550Y-80687478D01*
X89796620Y-80692897D01*
X89796618Y-80692900D01*
X89704122Y-80863968D01*
X89704120Y-80863973D01*
X89701192Y-80869388D01*
X89699370Y-80875275D01*
X89654365Y-81020661D01*
X89615114Y-81079821D01*
X89550109Y-81108368D01*
X89479990Y-81097239D01*
X89427019Y-81049968D01*
X89408000Y-80983402D01*
X89408000Y-73405000D01*
X89428002Y-73336879D01*
X89481658Y-73290386D01*
X89534000Y-73279000D01*
X103379000Y-73279000D01*
X103447121Y-73299002D01*
G37*
%TD.AperFunction*%
%TD*%
%TA.AperFunction,Conductor*%
%TO.N,GND*%
G36*
X113480121Y-83840002D02*
G01*
X113526614Y-83893658D01*
X113538000Y-83946000D01*
X113538000Y-88266000D01*
X113517998Y-88334121D01*
X113464342Y-88380614D01*
X113412000Y-88392000D01*
X103365878Y-88392000D01*
X103297757Y-88371998D01*
X103251264Y-88318342D01*
X103241160Y-88248068D01*
X103270654Y-88183488D01*
X103330380Y-88145104D01*
X103338714Y-88142963D01*
X103393186Y-88130937D01*
X103393190Y-88130936D01*
X103397646Y-88129952D01*
X103564430Y-88066763D01*
X103643352Y-88036862D01*
X103643355Y-88036861D01*
X103647622Y-88035244D01*
X103881309Y-87905443D01*
X103933227Y-87865821D01*
X104090186Y-87746034D01*
X104090190Y-87746030D01*
X104093811Y-87743267D01*
X104280676Y-87552113D01*
X104384351Y-87409678D01*
X104435302Y-87339679D01*
X104435304Y-87339676D01*
X104437989Y-87335987D01*
X104524687Y-87171201D01*
X104560330Y-87103455D01*
X104560333Y-87103449D01*
X104562455Y-87099415D01*
X104651467Y-86847354D01*
X104685941Y-86672446D01*
X104702279Y-86589556D01*
X104702280Y-86589550D01*
X104703160Y-86585084D01*
X104712280Y-86401902D01*
X104716225Y-86322667D01*
X104716225Y-86322661D01*
X104716452Y-86318098D01*
X104691063Y-86051990D01*
X104627525Y-85792335D01*
X104557960Y-85620585D01*
X104528884Y-85548799D01*
X104528881Y-85548793D01*
X104527171Y-85544571D01*
X104392101Y-85313889D01*
X104389253Y-85310327D01*
X104389249Y-85310322D01*
X104227997Y-85108688D01*
X104227996Y-85108687D01*
X104225145Y-85105122D01*
X104029802Y-84922642D01*
X103810162Y-84770272D01*
X103688303Y-84709648D01*
X103574913Y-84653237D01*
X103574910Y-84653236D01*
X103570828Y-84651205D01*
X103384268Y-84590048D01*
X103321154Y-84569358D01*
X103321149Y-84569357D01*
X103316812Y-84567935D01*
X103249509Y-84556249D01*
X103057217Y-84522861D01*
X103057209Y-84522860D01*
X103053436Y-84522205D01*
X103043829Y-84521727D01*
X102970540Y-84518078D01*
X102970532Y-84518078D01*
X102968969Y-84518000D01*
X102802096Y-84518000D01*
X102799828Y-84518165D01*
X102799816Y-84518165D01*
X102670717Y-84527533D01*
X102603385Y-84532418D01*
X102598930Y-84533402D01*
X102598927Y-84533402D01*
X102346814Y-84589063D01*
X102346810Y-84589064D01*
X102342354Y-84590048D01*
X102217366Y-84637402D01*
X102096648Y-84683138D01*
X102096645Y-84683139D01*
X102092378Y-84684756D01*
X101858691Y-84814557D01*
X101855059Y-84817329D01*
X101649814Y-84973966D01*
X101649810Y-84973970D01*
X101646189Y-84976733D01*
X101459324Y-85167887D01*
X101456639Y-85171576D01*
X101353053Y-85313889D01*
X101302011Y-85384013D01*
X101299887Y-85388051D01*
X101179670Y-85616545D01*
X101179667Y-85616551D01*
X101177545Y-85620585D01*
X101088533Y-85872646D01*
X101087650Y-85877128D01*
X101053185Y-86051990D01*
X101036840Y-86134916D01*
X101036613Y-86139470D01*
X101036613Y-86139472D01*
X101027493Y-86322667D01*
X101023548Y-86401902D01*
X101048937Y-86668010D01*
X101112475Y-86927665D01*
X101114190Y-86931900D01*
X101114191Y-86931902D01*
X101183677Y-87103455D01*
X101212829Y-87175429D01*
X101347899Y-87406111D01*
X101350747Y-87409673D01*
X101350751Y-87409678D01*
X101512003Y-87611312D01*
X101514855Y-87614878D01*
X101710198Y-87797358D01*
X101929838Y-87949728D01*
X102051697Y-88010352D01*
X102165087Y-88066763D01*
X102165090Y-88066764D01*
X102169172Y-88068795D01*
X102350796Y-88128334D01*
X102405507Y-88146269D01*
X102464008Y-88186496D01*
X102491474Y-88251965D01*
X102479184Y-88321889D01*
X102431042Y-88374070D01*
X102366258Y-88392000D01*
X89534000Y-88392000D01*
X89465879Y-88371998D01*
X89419386Y-88318342D01*
X89408000Y-88266000D01*
X89408000Y-83946000D01*
X89428002Y-83877879D01*
X89481658Y-83831386D01*
X89534000Y-83820000D01*
X113412000Y-83820000D01*
X113480121Y-83840002D01*
G37*
%TD.AperFunction*%
%TD*%
M02*
