%TF.GenerationSoftware,KiCad,Pcbnew,6.0.0*%
%TF.CreationDate,2022-01-02T09:26:30-06:00*%
%TF.ProjectId,boysenboard,626f7973-656e-4626-9f61-72642e6b6963,rev?*%
%TF.SameCoordinates,Original*%
%TF.FileFunction,Copper,L4,Bot*%
%TF.FilePolarity,Positive*%
%FSLAX46Y46*%
G04 Gerber Fmt 4.6, Leading zero omitted, Abs format (unit mm)*
G04 Created by KiCad (PCBNEW 6.0.0) date 2022-01-02 09:26:30*
%MOMM*%
%LPD*%
G01*
G04 APERTURE LIST*
%TA.AperFunction,ComponentPad*%
%ADD10C,1.450000*%
%TD*%
%TA.AperFunction,ComponentPad*%
%ADD11O,1.900000X1.200000*%
%TD*%
%TA.AperFunction,SMDPad,CuDef*%
%ADD12C,1.000000*%
%TD*%
%TA.AperFunction,ViaPad*%
%ADD13C,0.457200*%
%TD*%
%TA.AperFunction,Conductor*%
%ADD14C,0.304800*%
%TD*%
%TA.AperFunction,Conductor*%
%ADD15C,0.127000*%
%TD*%
G04 APERTURE END LIST*
D10*
%TO.P,J1,6,Shield*%
%TO.N,GND*%
X93156500Y-50760000D03*
D11*
X90456500Y-51760000D03*
D10*
X93156500Y-45760000D03*
D11*
X90456500Y-44760000D03*
%TD*%
D12*
%TO.P,TP6,1,1*%
%TO.N,/SDC0_D1*%
X156083000Y-71882000D03*
%TD*%
%TO.P,TP7,1,1*%
%TO.N,/SDC0_D0*%
X156083000Y-69596000D03*
%TD*%
%TO.P,TP8,1,1*%
%TO.N,/SDC0_CDM*%
X156083000Y-65786000D03*
%TD*%
%TO.P,TP9,1,1*%
%TO.N,/SDC0_D2*%
X156083000Y-63627000D03*
%TD*%
D13*
%TO.N,GND*%
X94361000Y-49530000D03*
X135763000Y-51054000D03*
X95250000Y-52832000D03*
X106680000Y-86360000D03*
X90170000Y-69977000D03*
X105664000Y-53365406D03*
X122555000Y-52832000D03*
X107950000Y-85090000D03*
X135636000Y-45974000D03*
X113030000Y-85090000D03*
X111760000Y-51181000D03*
X113030000Y-87630000D03*
X105791000Y-56134000D03*
X139192000Y-56896000D03*
X120142000Y-74422000D03*
X90170000Y-71120000D03*
X90678000Y-37973000D03*
X139192000Y-48514000D03*
X102235000Y-53848000D03*
X111760000Y-57531000D03*
X90170000Y-72517000D03*
X149479000Y-53594000D03*
X108585000Y-57531000D03*
X135509000Y-59436000D03*
X113792000Y-74422000D03*
X121666000Y-73787000D03*
X107950000Y-87630000D03*
X111760000Y-85090000D03*
X92837000Y-72517000D03*
X113284000Y-67056000D03*
X111760000Y-54356000D03*
X119634000Y-67056000D03*
X114300000Y-64008000D03*
X152273000Y-60960000D03*
X125222000Y-73279000D03*
X132080000Y-86614000D03*
X108585000Y-64008000D03*
X122555000Y-54610000D03*
X118491000Y-58928000D03*
X135763000Y-54356000D03*
X111760000Y-86360000D03*
X105791000Y-57150000D03*
X126365000Y-74422000D03*
X107950000Y-60325000D03*
X125984000Y-67183000D03*
X94361000Y-62484000D03*
X143383000Y-47498000D03*
X148717000Y-61849000D03*
X112395000Y-42291000D03*
X102235000Y-49657000D03*
X144780000Y-59690000D03*
X118872000Y-73279000D03*
X114935000Y-57531000D03*
X114935000Y-51181000D03*
X155194000Y-69088000D03*
X117856000Y-44831000D03*
X128016000Y-73787000D03*
X122555000Y-58166000D03*
X148336000Y-69342000D03*
X108585000Y-51181000D03*
X110236000Y-42545000D03*
X148336000Y-65024000D03*
X102235000Y-52070000D03*
X112522000Y-73406000D03*
X114935000Y-54356000D03*
X114681000Y-45974000D03*
X115316000Y-41148000D03*
X107950000Y-86360000D03*
X108585000Y-54356000D03*
X108585000Y-48387000D03*
X106680000Y-87630000D03*
X129540000Y-86106000D03*
X150241000Y-73406000D03*
X133985000Y-62992000D03*
X153416000Y-73406000D03*
X99822000Y-37973000D03*
X91821000Y-62103000D03*
X132080000Y-85979000D03*
X102235000Y-55626000D03*
X106680000Y-85090000D03*
X113030000Y-86360000D03*
X97282000Y-57150000D03*
X116205000Y-64008000D03*
X99695000Y-68199000D03*
X115316000Y-73787000D03*
X98171000Y-59309000D03*
X111760000Y-87630000D03*
X91440000Y-72517000D03*
X105791000Y-57912000D03*
X116967000Y-46863000D03*
X129540000Y-86741000D03*
X107696000Y-48387000D03*
%TO.N,/USB_VBUS*%
X98425000Y-54991000D03*
X97155000Y-53594000D03*
X98425000Y-54356000D03*
X94391000Y-46960000D03*
X96520000Y-53594000D03*
X94899000Y-46960000D03*
X97790000Y-53594000D03*
X95407000Y-46960000D03*
X98425000Y-53594000D03*
%TO.N,+5V*%
X110363000Y-72390000D03*
X116586000Y-76073000D03*
X110363000Y-73660000D03*
X120142000Y-76073000D03*
X119888000Y-73279000D03*
X102489000Y-61468000D03*
X110363000Y-75946000D03*
X126238000Y-66294000D03*
X116586000Y-73660000D03*
X99822000Y-62738000D03*
X101092000Y-64008000D03*
X122936000Y-73660000D03*
X124460000Y-84582000D03*
X101092000Y-62738000D03*
X116586000Y-72390000D03*
X116586000Y-74930000D03*
X101092000Y-61468000D03*
X113538000Y-73406000D03*
X102489000Y-64008000D03*
X126238000Y-63754000D03*
X133223000Y-60960000D03*
X113792000Y-75946000D03*
X101092000Y-65278000D03*
X126238000Y-73279000D03*
X122936000Y-76073000D03*
X99822000Y-61468000D03*
X122936000Y-74930000D03*
X102489000Y-65278000D03*
X126238000Y-58547000D03*
X102489000Y-62738000D03*
X110363000Y-74930000D03*
X124460000Y-83947000D03*
X122936000Y-72390000D03*
%TO.N,+1V1*%
X131826000Y-77851000D03*
X133985000Y-77851000D03*
X135001000Y-77851000D03*
X132842000Y-77851000D03*
X110744000Y-68326000D03*
X110744000Y-67564000D03*
X105664000Y-52197000D03*
X109982000Y-68326000D03*
X110744000Y-69215000D03*
X119277070Y-52856070D03*
X110744000Y-70104000D03*
X109982000Y-67564000D03*
X115316000Y-67183000D03*
X109982000Y-69215000D03*
X109982000Y-70104000D03*
X116205000Y-60325000D03*
%TO.N,+2V5*%
X116459000Y-68326000D03*
X135001000Y-72771000D03*
X117094000Y-69977000D03*
X117094000Y-69215000D03*
X121666000Y-67183000D03*
X116459000Y-69977000D03*
X105791000Y-55372000D03*
X133985000Y-72771000D03*
X117856000Y-55372000D03*
X117221000Y-67564000D03*
X117221000Y-68326000D03*
X132842000Y-72771000D03*
X116459000Y-69215000D03*
X118745000Y-54610000D03*
X122555000Y-56388000D03*
X118491000Y-53213000D03*
X131826000Y-72771000D03*
X116459000Y-67564000D03*
%TO.N,+3V3*%
X133096000Y-48514000D03*
X103251000Y-46101000D03*
X105156000Y-46101000D03*
X148209000Y-53594000D03*
X122809000Y-67564000D03*
X133096000Y-44450000D03*
X122809000Y-70104000D03*
X123571000Y-69342000D03*
X114173000Y-47879000D03*
X151384000Y-75057000D03*
X122809000Y-69342000D03*
X104902000Y-52959000D03*
X105791000Y-49657000D03*
X133096000Y-52578000D03*
X155194000Y-66929000D03*
X127000000Y-85979000D03*
X128016000Y-67183000D03*
X143383000Y-44196000D03*
X123571000Y-68326000D03*
X114935000Y-60706000D03*
X127000000Y-86614000D03*
X123571000Y-67564000D03*
X132969000Y-56896000D03*
X101346000Y-46101000D03*
X146304000Y-59690000D03*
X135001000Y-67691000D03*
X131826000Y-67691000D03*
X108839000Y-60325000D03*
X149352000Y-75057000D03*
X133985000Y-67691000D03*
X143256000Y-49403000D03*
X132842000Y-67691000D03*
X146431000Y-72390000D03*
X119380000Y-86106000D03*
X123571000Y-70104000D03*
X119380000Y-86741000D03*
X122809000Y-68326000D03*
%TO.N,/PE0_UART0_RX*%
X121539000Y-47244000D03*
X139192000Y-49403000D03*
%TO.N,/PE1_UART0_TX*%
X138049000Y-53213000D03*
X121539000Y-47879000D03*
%TO.N,/USB_ID*%
X96266000Y-50419000D03*
X115316000Y-48387000D03*
%TO.N,/I2C0_SCL*%
X118745000Y-42545000D03*
X107696000Y-41783000D03*
X118745000Y-44577000D03*
X117729000Y-52536900D03*
%TO.N,/I2C0_SDA*%
X119380000Y-44577000D03*
X111633000Y-39878000D03*
X119380000Y-42545000D03*
X118311300Y-52584011D03*
%TO.N,/~{RESET}*%
X99822000Y-49784000D03*
X121920000Y-80264000D03*
X105664000Y-51562000D03*
X112522000Y-65786000D03*
X121920000Y-83439000D03*
%TO.N,/SDC0_CLK*%
X110950191Y-46101000D03*
X155194000Y-67945000D03*
%TO.N,/SDC0_D0*%
X110365988Y-46101000D03*
X155194000Y-70231000D03*
X143764000Y-69596000D03*
%TO.N,/SDC0_D1*%
X109781785Y-46101000D03*
X155194000Y-71247000D03*
X143764000Y-71374000D03*
%TO.N,/SDC0_CDM*%
X155194000Y-65786000D03*
X111534394Y-46101000D03*
X143764000Y-67818000D03*
%TO.N,/SDC0_D2*%
X112702800Y-46101000D03*
X155194000Y-63627000D03*
X143764000Y-64262000D03*
%TO.N,/SDC0_D3*%
X155194000Y-64643000D03*
X143764000Y-66040000D03*
X112118597Y-46101000D03*
%TO.N,/SDC0_CD*%
X124460000Y-58928000D03*
X109474000Y-60706000D03*
X143764000Y-62484000D03*
X153543000Y-62611000D03*
X121158000Y-63754000D03*
%TO.N,/PD4_UART1_TX*%
X121666000Y-63246000D03*
X111140900Y-63246000D03*
%TO.N,/PD2_UART1_CTS*%
X110109000Y-62230000D03*
X122428000Y-62230000D03*
%TO.N,/PD3_UART1_RX*%
X110617000Y-62738000D03*
X122047000Y-62738000D03*
%TO.N,/PD1_UART1_RTS*%
X122809000Y-61722000D03*
X109728000Y-61722000D03*
%TO.N,/PD6_I2C1_SDA*%
X149860000Y-83439000D03*
X138684000Y-81534000D03*
%TO.N,/PD5_I2C1_SCL*%
X137922000Y-81534000D03*
X152400000Y-86614000D03*
%TO.N,/LED_STATUS*%
X127127000Y-61341000D03*
X113792000Y-64858900D03*
%TO.N,/FLASH_SPI0_CS*%
X145669000Y-53467000D03*
X108613379Y-46101000D03*
%TO.N,/FLASH_SPI0_MISO*%
X146939000Y-53467000D03*
X108029176Y-46101000D03*
%TO.N,/FLASH_SPI0_CLK*%
X109220000Y-43180000D03*
X148209000Y-43561000D03*
%TO.N,/FLASH_SPI0_MOSI*%
X149479000Y-43561000D03*
X107442000Y-46101000D03*
%TO.N,/PE8_SPI1_MOSI*%
X121666000Y-51054000D03*
X122682000Y-44450019D03*
%TO.N,/PE9_SPI1_CLK*%
X122301000Y-51054000D03*
X121412000Y-44577000D03*
X138938000Y-45974000D03*
X122847101Y-46393101D03*
%TO.N,/PE7_SPI1_CS*%
X121666000Y-50292000D03*
X123317000Y-44450019D03*
%TO.N,/PE10_SP1_MISO*%
X122301000Y-51816000D03*
X120015000Y-46482000D03*
%TD*%
D14*
%TO.N,+5V*%
X133223000Y-60960000D02*
X130810000Y-58547000D01*
X126238000Y-63754000D02*
X126238000Y-66294000D01*
X130810000Y-58547000D02*
X126238000Y-58547000D01*
D15*
%TO.N,/PE0_UART0_RX*%
X121539000Y-47244000D02*
X137160000Y-47244000D01*
X137160000Y-47244000D02*
X139192000Y-49276000D01*
X139192000Y-49276000D02*
X139192000Y-49403000D01*
%TO.N,/PE1_UART0_TX*%
X121539000Y-47879000D02*
X136906000Y-47879000D01*
X136906000Y-47879000D02*
X138049000Y-49022000D01*
X138049000Y-49022000D02*
X138049000Y-53213000D01*
%TO.N,/USB_ID*%
X97409000Y-49276000D02*
X96266000Y-50419000D01*
X113118899Y-45554899D02*
X109707616Y-45554899D01*
X97409000Y-49276000D02*
X99060000Y-47625000D01*
X99060000Y-47625000D02*
X108585000Y-47625000D01*
X97536000Y-49149000D02*
X97409000Y-49276000D01*
X115316000Y-48387000D02*
X115316000Y-47752000D01*
X108585000Y-47625000D02*
X109220000Y-46990000D01*
X109220000Y-46042515D02*
X109220000Y-46990000D01*
X115316000Y-47752000D02*
X113118899Y-45554899D01*
X109707616Y-45554899D02*
X109220000Y-46042515D01*
%TO.N,/I2C0_SCL*%
X113030000Y-41783000D02*
X107696000Y-41783000D01*
X113792000Y-42545000D02*
X113030000Y-41783000D01*
X118745000Y-42545000D02*
X113792000Y-42545000D01*
X118364000Y-44958000D02*
X118364000Y-51901900D01*
X118364000Y-51901900D02*
X117729000Y-52536900D01*
X118745000Y-44577000D02*
X118364000Y-44958000D01*
%TO.N,/I2C0_SDA*%
X113880899Y-42125899D02*
X111633000Y-39878000D01*
X118948203Y-45008797D02*
X118948203Y-51947108D01*
X119380000Y-44577000D02*
X118948203Y-45008797D01*
X119380000Y-42545000D02*
X118960899Y-42125899D01*
X118960899Y-42125899D02*
X113880899Y-42125899D01*
X118948203Y-51947108D02*
X118311300Y-52584011D01*
%TO.N,/~{RESET}*%
X105664000Y-51562000D02*
X106680000Y-51562000D01*
X102227635Y-51315365D02*
X102368584Y-51456314D01*
X121920000Y-80391000D02*
X121920000Y-80264000D01*
X107188000Y-60452000D02*
X112522000Y-65786000D01*
X100696270Y-49784000D02*
X102227635Y-51315365D01*
X105664000Y-51562000D02*
X102474270Y-51562000D01*
X99822000Y-49784000D02*
X100696270Y-49784000D01*
X107188000Y-52070000D02*
X107188000Y-60452000D01*
X102474270Y-51562000D02*
X102227635Y-51315365D01*
X106680000Y-51562000D02*
X107188000Y-52070000D01*
X121920000Y-83439000D02*
X121920000Y-80391000D01*
%TO.N,/SDC0_CLK*%
X152212756Y-68714521D02*
X152276165Y-68736709D01*
X132831146Y-65024020D02*
X139954020Y-65024020D01*
X153506080Y-68237164D02*
X153552943Y-68266609D01*
X152416290Y-68876834D02*
X152438478Y-68940243D01*
X153099921Y-68305744D02*
X153139056Y-68266609D01*
X153739056Y-68653079D02*
X153785919Y-68682524D01*
X152446000Y-69251313D02*
X152453521Y-69318069D01*
X153552943Y-68266609D02*
X153592078Y-68305744D01*
X152980549Y-69438359D02*
X153016290Y-69381478D01*
X115815159Y-57950101D02*
X117974189Y-60109131D01*
X153238158Y-68218884D02*
X153293156Y-68212687D01*
X153699921Y-68613944D02*
X153739056Y-68653079D01*
X143637000Y-68707000D02*
X152146000Y-68707000D01*
X153185919Y-68237164D02*
X153238158Y-68218884D01*
X110950191Y-46815191D02*
X111340899Y-47205899D01*
X153070476Y-68352607D02*
X153099921Y-68305744D01*
X152333046Y-68772450D02*
X152380549Y-68819953D01*
X152453521Y-69318069D02*
X152475709Y-69381478D01*
X114733831Y-57950101D02*
X115815159Y-57950101D01*
X153293156Y-68212687D02*
X153398844Y-68212687D01*
X152558953Y-69485862D02*
X152615834Y-69521603D01*
X152438478Y-68940243D02*
X152446000Y-69007000D01*
X110950191Y-46101000D02*
X110950191Y-46815191D01*
X152679243Y-69543791D02*
X152746000Y-69551313D01*
X154697871Y-68441129D02*
X155194000Y-67945000D01*
X152615834Y-69521603D02*
X152679243Y-69543791D01*
X153592078Y-68305744D02*
X153621523Y-68352607D01*
X153016290Y-69381478D02*
X153038478Y-69318069D01*
X139954020Y-65024020D02*
X143637000Y-68707000D01*
X153652196Y-68514842D02*
X153670476Y-68567081D01*
X152475709Y-69381478D02*
X152511450Y-69438359D01*
X153838158Y-68700804D02*
X153893156Y-68707000D01*
X111340899Y-47205899D02*
X111340899Y-54557169D01*
X153046000Y-68459843D02*
X153052196Y-68404846D01*
X153139056Y-68266609D02*
X153185919Y-68237164D01*
X152146000Y-68707000D02*
X152212756Y-68714521D01*
X153893156Y-68707000D02*
X154432000Y-68707000D01*
X153453841Y-68218884D02*
X153506080Y-68237164D01*
X152511450Y-69438359D02*
X152558953Y-69485862D01*
X117974189Y-60109131D02*
X127916257Y-60109131D01*
X152276165Y-68736709D02*
X152333046Y-68772450D01*
X152933046Y-69485862D02*
X152980549Y-69438359D01*
X152876165Y-69521603D02*
X152933046Y-69485862D01*
X153398844Y-68212687D02*
X153453841Y-68218884D01*
X127916257Y-60109131D02*
X132831146Y-65024020D01*
X154432000Y-68707000D02*
X154697871Y-68441129D01*
X153639803Y-68404846D02*
X153652196Y-68514842D01*
X111340899Y-54557169D02*
X114733831Y-57950101D01*
X153052196Y-68404846D02*
X153070476Y-68352607D01*
X152380549Y-68819953D02*
X152416290Y-68876834D01*
X153038478Y-69318069D02*
X153046000Y-69251313D01*
X153046000Y-69251313D02*
X153046000Y-68459843D01*
X152812756Y-69543791D02*
X152876165Y-69521603D01*
X153621523Y-68352607D02*
X153639803Y-68404846D01*
X152446000Y-69007000D02*
X152446000Y-69251313D01*
X153670476Y-68567081D02*
X153699921Y-68613944D01*
X152746000Y-69551313D02*
X152812756Y-69543791D01*
X153785919Y-68682524D02*
X153838158Y-68700804D01*
%TO.N,/SDC0_D0*%
X143764000Y-69596000D02*
X139446030Y-65278030D01*
X153466549Y-70118046D02*
X153419046Y-70165549D01*
X132725932Y-65278030D02*
X131074902Y-63627000D01*
X154161709Y-70061165D02*
X154139521Y-69997756D01*
X111086889Y-47311113D02*
X110365988Y-46590212D01*
X153298756Y-70223478D02*
X153232000Y-70231000D01*
X154301834Y-70201290D02*
X154244953Y-70165549D01*
X110365988Y-46590212D02*
X110365988Y-46101000D01*
X153561709Y-69614548D02*
X153539521Y-69677957D01*
X144399000Y-70231000D02*
X143764000Y-69596000D01*
X153362165Y-70201290D02*
X153298756Y-70223478D01*
X154365243Y-70223478D02*
X154301834Y-70201290D01*
X115709945Y-58204111D02*
X114628617Y-58204111D01*
X153962165Y-69474423D02*
X153898756Y-69452235D01*
X154139521Y-69997756D02*
X154132000Y-69931000D01*
X154066549Y-69557667D02*
X154019046Y-69510164D01*
X154102290Y-69614548D02*
X154066549Y-69557667D01*
X117868975Y-60363141D02*
X115709945Y-58204111D01*
X131064000Y-63627000D02*
X127800141Y-60363141D01*
X153524478Y-69997756D02*
X153502290Y-70061165D01*
X111086890Y-54662384D02*
X111086889Y-47311113D01*
X154197450Y-70118046D02*
X154161709Y-70061165D01*
X153502290Y-70061165D02*
X153466549Y-70118046D01*
X153532000Y-69931000D02*
X153524478Y-69997756D01*
X154132000Y-69931000D02*
X154132000Y-69744714D01*
X155194000Y-70231000D02*
X154432000Y-70231000D01*
X153232000Y-70231000D02*
X144399000Y-70231000D01*
X154132000Y-69744714D02*
X154124478Y-69677957D01*
X153765243Y-69452235D02*
X153701834Y-69474423D01*
X153539521Y-69677957D02*
X153532000Y-69744714D01*
X153597450Y-69557667D02*
X153561709Y-69614548D01*
X155194000Y-70231000D02*
X155829000Y-70231000D01*
X139446030Y-65278030D02*
X132725932Y-65278030D01*
X154019046Y-69510164D02*
X153962165Y-69474423D01*
X153701834Y-69474423D02*
X153644953Y-69510164D01*
X131074902Y-63627000D02*
X131064000Y-63627000D01*
X153419046Y-70165549D02*
X153362165Y-70201290D01*
X153644953Y-69510164D02*
X153597450Y-69557667D01*
X114628617Y-58204111D02*
X111086890Y-54662384D01*
X154124478Y-69677957D02*
X154102290Y-69614548D01*
X153898756Y-69452235D02*
X153832000Y-69444714D01*
X153532000Y-69744714D02*
X153532000Y-69931000D01*
X153832000Y-69444714D02*
X153765243Y-69452235D01*
X155829000Y-70231000D02*
X156083000Y-69977000D01*
X154244953Y-70165549D02*
X154197450Y-70118046D01*
X154432000Y-70231000D02*
X154365243Y-70223478D01*
X127800141Y-60363141D02*
X117868975Y-60363141D01*
%TO.N,/SDC0_D1*%
X143764000Y-71374000D02*
X143764000Y-71374000D01*
X109781785Y-46101000D02*
X109781785Y-46408785D01*
X132609816Y-65532040D02*
X137922040Y-65532040D01*
X155067000Y-71374000D02*
X155194000Y-71247000D01*
X115604731Y-58458121D02*
X117763761Y-60617151D01*
X137922040Y-65532040D02*
X143764000Y-71374000D01*
X155702000Y-71247000D02*
X156083000Y-71628000D01*
X114523403Y-58458121D02*
X115604731Y-58458121D01*
X117763761Y-60617151D02*
X127694927Y-60617151D01*
X143764000Y-71374000D02*
X155067000Y-71374000D01*
X110832881Y-54767599D02*
X114523403Y-58458121D01*
X127694927Y-60617151D02*
X132609816Y-65532040D01*
X109781785Y-46408785D02*
X110832881Y-47459881D01*
X155194000Y-71247000D02*
X155702000Y-71247000D01*
X110832881Y-47459881D02*
X110832881Y-54767599D01*
%TO.N,/SDC0_CDM*%
X143764000Y-67818000D02*
X140716010Y-64770010D01*
X151612756Y-67032510D02*
X151546000Y-67024989D01*
X151311450Y-67137942D02*
X151275709Y-67194823D01*
X155194000Y-65786000D02*
X153162000Y-67818000D01*
X149746000Y-67818000D02*
X143764000Y-67818000D01*
X151546000Y-67024989D02*
X151479243Y-67032510D01*
X150646000Y-68014506D02*
X150646000Y-67324989D01*
X151358953Y-67090439D02*
X151311450Y-67137942D01*
X150646000Y-67324989D02*
X150638478Y-67258232D01*
X151246000Y-67324989D02*
X151246000Y-68014506D01*
X151246000Y-68014506D02*
X151241073Y-68058233D01*
X155194000Y-65786000D02*
X156083000Y-65786000D01*
X151780549Y-67137942D02*
X151733046Y-67090439D01*
X150533046Y-67090439D02*
X150476165Y-67054698D01*
X149933046Y-67752549D02*
X149876165Y-67788290D01*
X151846000Y-67518000D02*
X151846000Y-67324989D01*
X143764000Y-67818000D02*
X143764000Y-67818000D01*
X150215834Y-67054698D02*
X150158953Y-67090439D01*
X150665460Y-68099767D02*
X150650926Y-68058233D01*
X118079403Y-59855121D02*
X112194782Y-53970500D01*
X151846000Y-67324989D02*
X151838478Y-67258232D01*
X150688871Y-68137025D02*
X150665460Y-68099767D01*
X140716010Y-64770010D02*
X132936360Y-64770010D01*
X128021471Y-59855121D02*
X118079403Y-59855121D01*
X111534394Y-46688828D02*
X111534394Y-46101000D01*
X150798778Y-68206085D02*
X150757244Y-68191551D01*
X151172013Y-68168140D02*
X151134755Y-68191551D01*
X151275709Y-67194823D02*
X151253521Y-67258232D01*
X151676165Y-67054698D02*
X151612756Y-67032510D01*
X150016290Y-67648165D02*
X149980549Y-67705046D01*
X151253521Y-67258232D02*
X151246000Y-67324989D01*
X151415834Y-67054698D02*
X151358953Y-67090439D01*
X150638478Y-67258232D02*
X150616290Y-67194823D01*
X152146000Y-67818000D02*
X152079243Y-67810478D01*
X151958953Y-67752549D02*
X151911450Y-67705046D01*
X152079243Y-67810478D02*
X152015834Y-67788290D01*
X150476165Y-67054698D02*
X150412756Y-67032510D01*
X149876165Y-67788290D02*
X149812756Y-67810478D01*
X150046000Y-67324989D02*
X150046000Y-67518000D01*
X150346000Y-67024989D02*
X150279243Y-67032510D01*
X150616290Y-67194823D02*
X150580549Y-67137942D01*
X150038478Y-67584756D02*
X150016290Y-67648165D01*
X150158953Y-67090439D02*
X150111450Y-67137942D01*
X150757244Y-68191551D02*
X150719986Y-68168140D01*
X151816290Y-67194823D02*
X151780549Y-67137942D01*
X151853521Y-67584756D02*
X151846000Y-67518000D01*
X151134755Y-68191551D02*
X151093221Y-68206085D01*
X151226539Y-68099767D02*
X151203128Y-68137025D01*
X151875709Y-67648165D02*
X151853521Y-67584756D01*
X150842505Y-68211011D02*
X150798778Y-68206085D01*
X151093221Y-68206085D02*
X151049495Y-68211011D01*
X150650926Y-68058233D02*
X150646000Y-68014506D01*
X151479243Y-67032510D02*
X151415834Y-67054698D01*
X112194782Y-53970500D02*
X112194782Y-47349216D01*
X149980549Y-67705046D02*
X149933046Y-67752549D01*
X149812756Y-67810478D02*
X149746000Y-67818000D01*
X151049495Y-68211011D02*
X150842505Y-68211011D01*
X132936360Y-64770010D02*
X128021471Y-59855121D01*
X151241073Y-68058233D02*
X151226539Y-68099767D01*
X150111450Y-67137942D02*
X150075709Y-67194823D01*
X151911450Y-67705046D02*
X151875709Y-67648165D01*
X150046000Y-67518000D02*
X150038478Y-67584756D01*
X150279243Y-67032510D02*
X150215834Y-67054698D01*
X151838478Y-67258232D02*
X151816290Y-67194823D01*
X150075709Y-67194823D02*
X150053521Y-67258232D01*
X150412756Y-67032510D02*
X150346000Y-67024989D01*
X150580549Y-67137942D02*
X150533046Y-67090439D01*
X152015834Y-67788290D02*
X151958953Y-67752549D01*
X112194782Y-47349216D02*
X111534394Y-46688828D01*
X150719986Y-68168140D02*
X150688871Y-68137025D01*
X150053521Y-67258232D02*
X150046000Y-67324989D01*
X153162000Y-67818000D02*
X152146000Y-67818000D01*
X151203128Y-68137025D02*
X151172013Y-68168140D01*
X151733046Y-67090439D02*
X151676165Y-67054698D01*
%TO.N,/SDC0_D2*%
X143764000Y-64262000D02*
X149987000Y-64262000D01*
X151599953Y-65110355D02*
X151656834Y-65146096D01*
X151720243Y-65168284D02*
X151787000Y-65175806D01*
X152987000Y-64262000D02*
X154559000Y-64262000D01*
X152152450Y-63461148D02*
X152199953Y-63413645D01*
X152856834Y-64232291D02*
X152920243Y-64254479D01*
X151487000Y-64875806D02*
X151494521Y-64942562D01*
X150399953Y-65110355D02*
X150456834Y-65146096D01*
X152799953Y-64196550D02*
X152856834Y-64232291D01*
X150456834Y-65146096D02*
X150520243Y-65168284D01*
X151421549Y-63461148D02*
X151457290Y-63518029D01*
X150287000Y-64875806D02*
X150294521Y-64942562D01*
X152621549Y-63461148D02*
X152657290Y-63518029D01*
X152094521Y-63581438D02*
X152116709Y-63518029D01*
X112702800Y-53760070D02*
X118289831Y-59347101D01*
X151787000Y-65175806D02*
X151853756Y-65168284D01*
X151056834Y-63377904D02*
X151120243Y-63355716D01*
X150279478Y-64495243D02*
X150287000Y-64562000D01*
X152679478Y-63581438D02*
X152687000Y-63648194D01*
X150221549Y-64374953D02*
X150257290Y-64431834D01*
X128231899Y-59347101D02*
X133146798Y-64262000D01*
X150821549Y-65062852D02*
X150857290Y-65005971D01*
X151457290Y-63518029D02*
X151479478Y-63581438D01*
X152574046Y-63413645D02*
X152621549Y-63461148D01*
X150952450Y-63461148D02*
X150999953Y-63413645D01*
X150999953Y-63413645D02*
X151056834Y-63377904D01*
X152453756Y-63355716D02*
X152517165Y-63377904D01*
X152057290Y-65005971D02*
X152079478Y-64942562D01*
X150587000Y-65175806D02*
X150653756Y-65168284D01*
X152716709Y-64092166D02*
X152752450Y-64149047D01*
X151479478Y-63581438D02*
X151487000Y-63648194D01*
X151487000Y-63648194D02*
X151487000Y-64875806D01*
X151317165Y-63377904D02*
X151374046Y-63413645D01*
X150257290Y-64431834D02*
X150279478Y-64495243D01*
X151853756Y-65168284D02*
X151917165Y-65146096D01*
X150879478Y-64942562D02*
X150887000Y-64875806D01*
X154559000Y-64262000D02*
X155194000Y-63627000D01*
X152087000Y-64875806D02*
X152087000Y-63648194D01*
X150053756Y-64269521D02*
X150117165Y-64291709D01*
X150287000Y-64562000D02*
X150287000Y-64875806D01*
X151374046Y-63413645D02*
X151421549Y-63461148D01*
X151656834Y-65146096D02*
X151720243Y-65168284D01*
X150894521Y-63581438D02*
X150916709Y-63518029D01*
X152087000Y-63648194D02*
X152094521Y-63581438D01*
X150117165Y-64291709D02*
X150174046Y-64327450D01*
X152320243Y-63355716D02*
X152387000Y-63348194D01*
X152694521Y-64028757D02*
X152716709Y-64092166D01*
X150352450Y-65062852D02*
X150399953Y-65110355D01*
X152657290Y-63518029D02*
X152679478Y-63581438D01*
X152687000Y-63648194D02*
X152687000Y-63962000D01*
X151516709Y-65005971D02*
X151552450Y-65062852D01*
X150887000Y-64875806D02*
X150887000Y-63648194D01*
X152256834Y-63377904D02*
X152320243Y-63355716D01*
X151917165Y-65146096D02*
X151974046Y-65110355D01*
X152021549Y-65062852D02*
X152057290Y-65005971D01*
X152920243Y-64254479D02*
X152987000Y-64262000D01*
X150717165Y-65146096D02*
X150774046Y-65110355D01*
X150653756Y-65168284D02*
X150717165Y-65146096D01*
X150316709Y-65005971D02*
X150352450Y-65062852D01*
X150887000Y-63648194D02*
X150894521Y-63581438D01*
X152387000Y-63348194D02*
X152453756Y-63355716D01*
X155194000Y-63627000D02*
X156083000Y-63627000D01*
X151253756Y-63355716D02*
X151317165Y-63377904D01*
X151974046Y-65110355D02*
X152021549Y-65062852D01*
X151552450Y-65062852D02*
X151599953Y-65110355D01*
X151120243Y-63355716D02*
X151187000Y-63348194D01*
X152752450Y-64149047D02*
X152799953Y-64196550D01*
X149987000Y-64262000D02*
X150053756Y-64269521D01*
X150174046Y-64327450D02*
X150221549Y-64374953D01*
X112702800Y-46101000D02*
X112702800Y-53760070D01*
X133146798Y-64262000D02*
X143764000Y-64262000D01*
X152687000Y-63962000D02*
X152694521Y-64028757D01*
X151494521Y-64942562D02*
X151516709Y-65005971D01*
X152079478Y-64942562D02*
X152087000Y-64875806D01*
X152199953Y-63413645D02*
X152256834Y-63377904D01*
X150857290Y-65005971D02*
X150879478Y-64942562D01*
X150916709Y-63518029D02*
X150952450Y-63461148D01*
X152116709Y-63518029D02*
X152152450Y-63461148D01*
X150294521Y-64942562D02*
X150316709Y-65005971D01*
X152517165Y-63377904D02*
X152574046Y-63413645D01*
X151187000Y-63348194D02*
X151253756Y-63355716D01*
X118289831Y-59347101D02*
X128231899Y-59347101D01*
X150774046Y-65110355D02*
X150821549Y-65062852D01*
X150520243Y-65168284D02*
X150587000Y-65175806D01*
%TO.N,/SDC0_D3*%
X143764000Y-66040000D02*
X143764000Y-66040000D01*
X145553000Y-65428588D02*
X145560521Y-65361832D01*
X145440046Y-66885961D02*
X145487549Y-66838458D01*
X144953000Y-66340000D02*
X144953000Y-66651412D01*
X112448791Y-53865285D02*
X118184617Y-59601111D01*
X146986243Y-66047521D02*
X147053000Y-66040000D01*
X145983165Y-65158298D02*
X146040046Y-65194039D01*
X142240000Y-64516000D02*
X143764000Y-66040000D01*
X145065953Y-66885961D02*
X145122834Y-66921702D01*
X144840046Y-66105450D02*
X144887549Y-66152953D01*
X144945478Y-66273243D02*
X144953000Y-66340000D01*
X144783165Y-66069709D02*
X144840046Y-66105450D01*
X146583165Y-66921702D02*
X146640046Y-66885961D01*
X145582709Y-65298423D02*
X145618450Y-65241542D01*
X145545478Y-66718168D02*
X145553000Y-66651412D01*
X145018450Y-66838458D02*
X145065953Y-66885961D01*
X145523290Y-66781577D02*
X145545478Y-66718168D01*
X146153000Y-66651412D02*
X146160521Y-66718168D01*
X146160521Y-66718168D02*
X146182709Y-66781577D01*
X144653000Y-66040000D02*
X144719756Y-66047521D01*
X146145478Y-65361832D02*
X146153000Y-65428588D01*
X146153000Y-65428588D02*
X146153000Y-66651412D01*
X112118597Y-46913807D02*
X112448790Y-47244000D01*
X112448790Y-47244000D02*
X112448791Y-53865285D01*
X144953000Y-66651412D02*
X144960521Y-66718168D01*
X144887549Y-66152953D02*
X144923290Y-66209834D01*
X146123290Y-65298423D02*
X146145478Y-65361832D01*
X144923290Y-66209834D02*
X144945478Y-66273243D01*
X144982709Y-66781577D02*
X145018450Y-66838458D01*
X146087549Y-65241542D02*
X146123290Y-65298423D01*
X145722834Y-65158298D02*
X145786243Y-65136110D01*
X145919756Y-65136110D02*
X145983165Y-65158298D01*
X133041574Y-64516000D02*
X142240000Y-64516000D01*
X147053000Y-66040000D02*
X153797000Y-66040000D01*
X145383165Y-66921702D02*
X145440046Y-66885961D01*
X145553000Y-66651412D02*
X145553000Y-65428588D01*
X146519756Y-66943890D02*
X146583165Y-66921702D01*
X128126685Y-59601111D02*
X133041574Y-64516000D01*
X146782709Y-66209834D02*
X146818450Y-66152953D01*
X145487549Y-66838458D02*
X145523290Y-66781577D01*
X146760521Y-66273243D02*
X146782709Y-66209834D01*
X146640046Y-66885961D02*
X146687549Y-66838458D01*
X146753000Y-66651412D02*
X146753000Y-66340000D01*
X145665953Y-65194039D02*
X145722834Y-65158298D01*
X112118597Y-46101000D02*
X112118597Y-46913807D01*
X143764000Y-66040000D02*
X144653000Y-66040000D01*
X146723290Y-66781577D02*
X146745478Y-66718168D01*
X144960521Y-66718168D02*
X144982709Y-66781577D01*
X145122834Y-66921702D02*
X145186243Y-66943890D01*
X146218450Y-66838458D02*
X146265953Y-66885961D01*
X145186243Y-66943890D02*
X145253000Y-66951412D01*
X118184617Y-59601111D02*
X128126685Y-59601111D01*
X153797000Y-66040000D02*
X155194000Y-64643000D01*
X145786243Y-65136110D02*
X145853000Y-65128588D01*
X144719756Y-66047521D02*
X144783165Y-66069709D01*
X146865953Y-66105450D02*
X146922834Y-66069709D01*
X146687549Y-66838458D02*
X146723290Y-66781577D01*
X146182709Y-66781577D02*
X146218450Y-66838458D01*
X145853000Y-65128588D02*
X145919756Y-65136110D01*
X146322834Y-66921702D02*
X146386243Y-66943890D01*
X145618450Y-65241542D02*
X145665953Y-65194039D01*
X145319756Y-66943890D02*
X145383165Y-66921702D01*
X146745478Y-66718168D02*
X146753000Y-66651412D01*
X146922834Y-66069709D02*
X146986243Y-66047521D01*
X146753000Y-66340000D02*
X146760521Y-66273243D01*
X146453000Y-66951412D02*
X146519756Y-66943890D01*
X146040046Y-65194039D02*
X146087549Y-65241542D01*
X146386243Y-66943890D02*
X146453000Y-66951412D01*
X146265953Y-66885961D02*
X146322834Y-66921702D01*
X145253000Y-66951412D02*
X145319756Y-66943890D01*
X146818450Y-66152953D02*
X146865953Y-66105450D01*
X145560521Y-65361832D02*
X145582709Y-65298423D01*
%TO.N,/SDC0_CD*%
X109308899Y-60871101D02*
X109474000Y-60706000D01*
X124460000Y-58928000D02*
X124929909Y-58928000D01*
X143891000Y-62611000D02*
X143764000Y-62484000D01*
X121158000Y-63754000D02*
X117856000Y-63754000D01*
X111431612Y-64336388D02*
X109308899Y-62213675D01*
X128337114Y-59093092D02*
X128475011Y-59230989D01*
X124929909Y-58928000D02*
X125095000Y-59093091D01*
X147320000Y-62484000D02*
X147447000Y-62611000D01*
X143764000Y-62484000D02*
X147320000Y-62484000D01*
X128337113Y-59093091D02*
X128475011Y-59230989D01*
X109308899Y-62213675D02*
X109308899Y-60871101D01*
X147447000Y-62611000D02*
X153543000Y-62611000D01*
X117856000Y-63754000D02*
X117182899Y-64427101D01*
X125095000Y-59093091D02*
X128337113Y-59093091D01*
X111522325Y-64427101D02*
X111431612Y-64336388D01*
X128475011Y-59230989D02*
X131728022Y-62484000D01*
X117182899Y-64427101D02*
X111522325Y-64427101D01*
X131728022Y-62484000D02*
X143764000Y-62484000D01*
%TO.N,/PD4_UART1_TX*%
X111140900Y-63246000D02*
X113030000Y-63246000D01*
X113030000Y-63246000D02*
X121666000Y-63246000D01*
%TO.N,/PD2_UART1_CTS*%
X110109000Y-62230000D02*
X110432289Y-62230000D01*
X110432289Y-62230000D02*
X122428000Y-62230000D01*
%TO.N,/PD3_UART1_RX*%
X122047000Y-62738000D02*
X110617000Y-62738000D01*
%TO.N,/PD1_UART1_RTS*%
X114173000Y-61722000D02*
X122809000Y-61722000D01*
X112522000Y-61722000D02*
X114173000Y-61722000D01*
X113919000Y-61722000D02*
X114173000Y-61722000D01*
X109728000Y-61722000D02*
X112522000Y-61722000D01*
%TO.N,/PD6_I2C1_SDA*%
X140589000Y-83439000D02*
X149860000Y-83439000D01*
X138684000Y-81534000D02*
X140589000Y-83439000D01*
%TO.N,/PD5_I2C1_SCL*%
X140081010Y-83693010D02*
X149479010Y-83693010D01*
X137922000Y-81534000D02*
X140081010Y-83693010D01*
X149479010Y-83693010D02*
X152400000Y-86614000D01*
%TO.N,/LED_STATUS*%
X113792000Y-64858900D02*
X123609100Y-64858900D01*
X123609100Y-64858900D02*
X124015500Y-64452500D01*
X123952000Y-64516000D02*
X124015500Y-64452500D01*
X124015500Y-64452500D02*
X127127000Y-61341000D01*
%TO.N,/FLASH_SPI0_CS*%
X144902243Y-51946478D02*
X144969000Y-51954000D01*
X144838834Y-51924290D02*
X144902243Y-51946478D01*
X145639290Y-52123834D02*
X145661478Y-52187243D01*
X145499165Y-51983709D02*
X145556046Y-52019450D01*
X131660919Y-44030919D02*
X132499101Y-44869101D01*
X144698709Y-51523834D02*
X144676521Y-51587243D01*
X145669000Y-48111224D02*
X145669000Y-51054000D01*
X144669000Y-51654000D02*
X144676521Y-51720756D01*
X145369000Y-51954000D02*
X145435756Y-51961521D01*
X145603549Y-52066953D02*
X145639290Y-52123834D01*
X110360171Y-44030919D02*
X131660919Y-44030919D01*
X144676521Y-51720756D02*
X144698709Y-51784165D01*
X144838834Y-51383709D02*
X144781953Y-51419450D01*
X145661478Y-52187243D02*
X145669000Y-52254000D01*
X108613379Y-45777711D02*
X110360171Y-44030919D01*
X144969000Y-51354000D02*
X144902243Y-51361521D01*
X145669000Y-52254000D02*
X145669000Y-53185863D01*
X145556046Y-51288549D02*
X145499165Y-51324290D01*
X144781953Y-51419450D02*
X144734450Y-51466953D01*
X145669000Y-53185863D02*
X145669000Y-53467000D01*
X142426877Y-44869101D02*
X145669000Y-48111224D01*
X145435756Y-51346478D02*
X145369000Y-51354000D01*
X145499165Y-51324290D02*
X145435756Y-51346478D01*
X144698709Y-51784165D02*
X144734450Y-51841046D01*
X145661478Y-51120756D02*
X145639290Y-51184165D01*
X145669000Y-51054000D02*
X145661478Y-51120756D01*
X144781953Y-51888549D02*
X144838834Y-51924290D01*
X144969000Y-51954000D02*
X145369000Y-51954000D01*
X132499101Y-44869101D02*
X142426877Y-44869101D01*
X145369000Y-51354000D02*
X144969000Y-51354000D01*
X144902243Y-51361521D02*
X144838834Y-51383709D01*
X145435756Y-51961521D02*
X145499165Y-51983709D01*
X145603549Y-51241046D02*
X145556046Y-51288549D01*
X144734450Y-51466953D02*
X144698709Y-51523834D01*
X144676521Y-51587243D02*
X144669000Y-51654000D01*
X145639290Y-51184165D02*
X145603549Y-51241046D01*
X108613379Y-46101000D02*
X108613379Y-45777711D01*
X145556046Y-52019450D02*
X145603549Y-52066953D01*
X144734450Y-51841046D02*
X144781953Y-51888549D01*
%TO.N,/FLASH_SPI0_MISO*%
X108029176Y-45894824D02*
X110147091Y-43776909D01*
X108029176Y-46101000D02*
X108029176Y-45894824D01*
X141693909Y-43776909D02*
X146939000Y-49022000D01*
X146939000Y-49022000D02*
X146939000Y-53467000D01*
X110147091Y-43776909D02*
X141693909Y-43776909D01*
%TO.N,/FLASH_SPI0_CLK*%
X139325549Y-43067046D02*
X139278046Y-43114549D01*
X139398521Y-42567913D02*
X139391000Y-42634670D01*
X139420709Y-42504504D02*
X139398521Y-42567913D01*
X141798521Y-42567913D02*
X141791000Y-42634670D01*
X141791000Y-42880000D02*
X141783478Y-42946756D01*
X139391000Y-42634670D02*
X139391000Y-42880000D01*
X139961290Y-42504504D02*
X139925549Y-42447623D01*
X143103953Y-42400120D02*
X143056450Y-42447623D01*
X139991000Y-42634670D02*
X139983478Y-42567913D01*
X142278046Y-42400120D02*
X142221165Y-42364379D01*
X140891000Y-42334670D02*
X140824243Y-42342191D01*
X141783478Y-42946756D02*
X141761290Y-43010165D01*
X142991000Y-42634670D02*
X142991000Y-42880000D01*
X139456450Y-42447623D02*
X139420709Y-42504504D01*
X141424243Y-43172478D02*
X141360834Y-43150290D01*
X142560834Y-43150290D02*
X142503953Y-43114549D01*
X142456450Y-43067046D02*
X142420709Y-43010165D01*
X142420709Y-43010165D02*
X142398521Y-42946756D01*
X140583478Y-42946756D02*
X140561290Y-43010165D01*
X142024243Y-42342191D02*
X141960834Y-42364379D01*
X142925549Y-43067046D02*
X142878046Y-43114549D01*
X143760834Y-43150290D02*
X143703953Y-43114549D01*
X142757756Y-43172478D02*
X142691000Y-43180000D01*
X142383478Y-42567913D02*
X142361290Y-42504504D01*
X143891000Y-43180000D02*
X143824243Y-43172478D01*
X142991000Y-42880000D02*
X142983478Y-42946756D01*
X141256450Y-43067046D02*
X141220709Y-43010165D01*
X140703953Y-42400120D02*
X140656450Y-42447623D01*
X139821165Y-42364379D02*
X139757756Y-42342191D01*
X139278046Y-43114549D02*
X139221165Y-43150290D01*
X141557756Y-43172478D02*
X141491000Y-43180000D01*
X142398521Y-42946756D02*
X142391000Y-42880000D01*
X141856450Y-42447623D02*
X141820709Y-42504504D01*
X141078046Y-42400120D02*
X141021165Y-42364379D01*
X143020709Y-42504504D02*
X142998521Y-42567913D01*
X147828000Y-43180000D02*
X143891000Y-43180000D01*
X140561290Y-43010165D02*
X140525549Y-43067046D01*
X140824243Y-42342191D02*
X140760834Y-42364379D01*
X140591000Y-42634670D02*
X140591000Y-42880000D01*
X143525549Y-42447623D02*
X143478046Y-42400120D01*
X142998521Y-42567913D02*
X142991000Y-42634670D01*
X143598521Y-42946756D02*
X143591000Y-42880000D01*
X143583478Y-42567913D02*
X143561290Y-42504504D01*
X141191000Y-42634670D02*
X141183478Y-42567913D01*
X143421165Y-42364379D02*
X143357756Y-42342191D01*
X141125549Y-42447623D02*
X141078046Y-42400120D01*
X139878046Y-42400120D02*
X139821165Y-42364379D01*
X142361290Y-42504504D02*
X142325549Y-42447623D01*
X142624243Y-43172478D02*
X142560834Y-43150290D01*
X142961290Y-43010165D02*
X142925549Y-43067046D01*
X139624243Y-42342191D02*
X139560834Y-42364379D01*
X142391000Y-42634670D02*
X142383478Y-42567913D01*
X141491000Y-43180000D02*
X141424243Y-43172478D01*
X143620709Y-43010165D02*
X143598521Y-42946756D01*
X140656450Y-42447623D02*
X140620709Y-42504504D01*
X139157756Y-43172478D02*
X139091000Y-43180000D01*
X139503953Y-42400120D02*
X139456450Y-42447623D01*
X139991000Y-42880000D02*
X139991000Y-42634670D01*
X140421165Y-43150290D02*
X140357756Y-43172478D01*
X140103953Y-43114549D02*
X140056450Y-43067046D01*
X141220709Y-43010165D02*
X141198521Y-42946756D01*
X148209000Y-43561000D02*
X147828000Y-43180000D01*
X142691000Y-43180000D02*
X142624243Y-43172478D01*
X143224243Y-42342191D02*
X143160834Y-42364379D01*
X141903953Y-42400120D02*
X141856450Y-42447623D01*
X143056450Y-42447623D02*
X143020709Y-42504504D01*
X143478046Y-42400120D02*
X143421165Y-42364379D01*
X141191000Y-42880000D02*
X141191000Y-42634670D01*
X142325549Y-42447623D02*
X142278046Y-42400120D01*
X142157756Y-42342191D02*
X142091000Y-42334670D01*
X141820709Y-42504504D02*
X141798521Y-42567913D01*
X141198521Y-42946756D02*
X141191000Y-42880000D01*
X140591000Y-42880000D02*
X140583478Y-42946756D01*
X143591000Y-42634670D02*
X143583478Y-42567913D01*
X141761290Y-43010165D02*
X141725549Y-43067046D01*
X141183478Y-42567913D02*
X141161290Y-42504504D01*
X139091000Y-43180000D02*
X136481549Y-43180000D01*
X141678046Y-43114549D02*
X141621165Y-43150290D01*
X142221165Y-42364379D02*
X142157756Y-42342191D01*
X141303953Y-43114549D02*
X141256450Y-43067046D01*
X140598521Y-42567913D02*
X140591000Y-42634670D01*
X140478046Y-43114549D02*
X140421165Y-43150290D01*
X136481549Y-43180000D02*
X109220000Y-43180000D01*
X143160834Y-42364379D02*
X143103953Y-42400120D01*
X139998521Y-42946756D02*
X139991000Y-42880000D01*
X140957756Y-42342191D02*
X140891000Y-42334670D01*
X139391000Y-42880000D02*
X139383478Y-42946756D01*
X143591000Y-42880000D02*
X143591000Y-42634670D01*
X140224243Y-43172478D02*
X140160834Y-43150290D01*
X142091000Y-42334670D02*
X142024243Y-42342191D01*
X141960834Y-42364379D02*
X141903953Y-42400120D01*
X139361290Y-43010165D02*
X139325549Y-43067046D01*
X140525549Y-43067046D02*
X140478046Y-43114549D01*
X139925549Y-42447623D02*
X139878046Y-42400120D01*
X139757756Y-42342191D02*
X139691000Y-42334670D01*
X139221165Y-43150290D02*
X139157756Y-43172478D01*
X140020709Y-43010165D02*
X139998521Y-42946756D01*
X139383478Y-42946756D02*
X139361290Y-43010165D01*
X143824243Y-43172478D02*
X143760834Y-43150290D01*
X142821165Y-43150290D02*
X142757756Y-43172478D01*
X143703953Y-43114549D02*
X143656450Y-43067046D01*
X141725549Y-43067046D02*
X141678046Y-43114549D01*
X142878046Y-43114549D02*
X142821165Y-43150290D01*
X141621165Y-43150290D02*
X141557756Y-43172478D01*
X143291000Y-42334670D02*
X143224243Y-42342191D01*
X140620709Y-42504504D02*
X140598521Y-42567913D01*
X143357756Y-42342191D02*
X143291000Y-42334670D01*
X139983478Y-42567913D02*
X139961290Y-42504504D01*
X143656450Y-43067046D02*
X143620709Y-43010165D01*
X141021165Y-42364379D02*
X140957756Y-42342191D01*
X143561290Y-42504504D02*
X143525549Y-42447623D01*
X142503953Y-43114549D02*
X142456450Y-43067046D01*
X139691000Y-42334670D02*
X139624243Y-42342191D01*
X140160834Y-43150290D02*
X140103953Y-43114549D01*
X142983478Y-42946756D02*
X142961290Y-43010165D01*
X141161290Y-42504504D02*
X141125549Y-42447623D01*
X139560834Y-42364379D02*
X139503953Y-42400120D01*
X142391000Y-42880000D02*
X142391000Y-42634670D01*
X140291000Y-43180000D02*
X140224243Y-43172478D01*
X141360834Y-43150290D02*
X141303953Y-43114549D01*
X140056450Y-43067046D02*
X140020709Y-43010165D01*
X140357756Y-43172478D02*
X140291000Y-43180000D01*
X141791000Y-42634670D02*
X141791000Y-42880000D01*
X140760834Y-42364379D02*
X140703953Y-42400120D01*
%TO.N,/FLASH_SPI0_MOSI*%
X145383101Y-43522899D02*
X145449857Y-43530420D01*
X107442000Y-45777711D02*
X109696812Y-43522899D01*
X146312810Y-43692733D02*
X146348551Y-43635852D01*
X145112810Y-43692733D02*
X145148551Y-43635852D01*
X144716344Y-44462398D02*
X144783101Y-44469920D01*
X146049857Y-44462398D02*
X146113266Y-44440210D01*
X146217650Y-44356966D02*
X146253391Y-44300085D01*
X146283101Y-44169920D02*
X146283101Y-43822899D01*
X145148551Y-43635852D02*
X145196054Y-43588349D01*
X146396054Y-43588349D02*
X146452935Y-43552608D01*
X145617650Y-43635852D02*
X145653391Y-43692733D01*
X145196054Y-43588349D02*
X145252935Y-43552608D01*
X146583101Y-43522899D02*
X147550629Y-43522899D01*
X145748551Y-44356966D02*
X145796054Y-44404469D01*
X145570147Y-43588349D02*
X145617650Y-43635852D01*
X145683101Y-43822899D02*
X145683101Y-44169920D01*
X145513266Y-43552608D02*
X145570147Y-43588349D01*
X144913266Y-44440210D02*
X144970147Y-44404469D01*
X146290622Y-43756142D02*
X146312810Y-43692733D01*
X144596054Y-44404469D02*
X144652935Y-44440210D01*
X144490622Y-44236676D02*
X144512810Y-44300085D01*
X146275579Y-44236676D02*
X146283101Y-44169920D01*
X145852935Y-44440210D02*
X145916344Y-44462398D01*
X144970147Y-44404469D02*
X145017650Y-44356966D01*
X144483101Y-43822899D02*
X144483101Y-44169920D01*
X145683101Y-44169920D02*
X145690622Y-44236676D01*
X145712810Y-44300085D02*
X145748551Y-44356966D01*
X147550629Y-43522899D02*
X148160230Y-44132500D01*
X145449857Y-43530420D02*
X145513266Y-43552608D01*
X146113266Y-44440210D02*
X146170147Y-44404469D01*
X146452935Y-43552608D02*
X146516344Y-43530420D01*
X144249857Y-43530420D02*
X144313266Y-43552608D01*
X146253391Y-44300085D02*
X146275579Y-44236676D01*
X144475579Y-43756142D02*
X144483101Y-43822899D01*
X146348551Y-43635852D02*
X146396054Y-43588349D01*
X145690622Y-44236676D02*
X145712810Y-44300085D01*
X145916344Y-44462398D02*
X145983101Y-44469920D01*
X146516344Y-43530420D02*
X146583101Y-43522899D01*
X144849857Y-44462398D02*
X144913266Y-44440210D01*
X146170147Y-44404469D02*
X146217650Y-44356966D01*
X144313266Y-43552608D02*
X144370147Y-43588349D01*
X144370147Y-43588349D02*
X144417650Y-43635852D01*
X149127488Y-43912512D02*
X149479000Y-43561000D01*
X144512810Y-44300085D02*
X144548551Y-44356966D01*
X145796054Y-44404469D02*
X145852935Y-44440210D01*
X144652935Y-44440210D02*
X144716344Y-44462398D01*
X144183101Y-43522899D02*
X144249857Y-43530420D01*
X145083101Y-43822899D02*
X145090622Y-43756142D01*
X144483101Y-44169920D02*
X144490622Y-44236676D01*
X144417650Y-43635852D02*
X144453391Y-43692733D01*
X145090622Y-43756142D02*
X145112810Y-43692733D01*
X145653391Y-43692733D02*
X145675579Y-43756142D01*
X144548551Y-44356966D02*
X144596054Y-44404469D01*
X144453391Y-43692733D02*
X144475579Y-43756142D01*
X148907500Y-44132500D02*
X149127488Y-43912512D01*
X145983101Y-44469920D02*
X146049857Y-44462398D01*
X145675579Y-43756142D02*
X145683101Y-43822899D01*
X107442000Y-46101000D02*
X107442000Y-45777711D01*
X145316344Y-43530420D02*
X145383101Y-43522899D01*
X146283101Y-43822899D02*
X146290622Y-43756142D01*
X145017650Y-44356966D02*
X145053391Y-44300085D01*
X145075579Y-44236676D02*
X145083101Y-44169920D01*
X145083101Y-44169920D02*
X145083101Y-43822899D01*
X109696812Y-43522899D02*
X144183101Y-43522899D01*
X148160230Y-44132500D02*
X148907500Y-44132500D01*
X145252935Y-43552608D02*
X145316344Y-43530420D01*
X144783101Y-44469920D02*
X144849857Y-44462398D01*
X145053391Y-44300085D02*
X145075579Y-44236676D01*
%TO.N,/PE8_SPI1_MOSI*%
X120776991Y-46630785D02*
X122682000Y-44725776D01*
X121666000Y-51054000D02*
X120777000Y-50165000D01*
X122682000Y-44725776D02*
X122682000Y-44450019D01*
X120777000Y-50165000D02*
X120776991Y-50164991D01*
X120776991Y-50164991D02*
X120776991Y-46630785D01*
%TO.N,/PE9_SPI1_CLK*%
X120522981Y-50926981D02*
X120522981Y-45466019D01*
X122847101Y-46393101D02*
X138518899Y-46393101D01*
X120522981Y-45466019D02*
X121412000Y-44577000D01*
X138518899Y-46393101D02*
X138938000Y-45974000D01*
X122301000Y-51054000D02*
X121881899Y-51473101D01*
X121069101Y-51473101D02*
X120522981Y-50926981D01*
X121881899Y-51473101D02*
X121069101Y-51473101D01*
%TO.N,/PE7_SPI1_CS*%
X123316981Y-44450019D02*
X123317000Y-44450019D01*
X121031000Y-49657000D02*
X121031000Y-46736000D01*
X121031000Y-46736000D02*
X123316981Y-44450019D01*
X121666000Y-50292000D02*
X121031000Y-49657000D01*
%TO.N,/PE10_SP1_MISO*%
X120268971Y-46735971D02*
X120015000Y-46482000D01*
X122301000Y-51816000D02*
X121052776Y-51816000D01*
X121052776Y-51816000D02*
X120268971Y-51032195D01*
X120268971Y-51032195D02*
X120268971Y-46735971D01*
%TD*%
%TA.AperFunction,Conductor*%
%TO.N,+1V1*%
G36*
X112955962Y-66820306D02*
G01*
X112974268Y-66864500D01*
X112967456Y-66892874D01*
X112941107Y-66944587D01*
X112923461Y-67056000D01*
X112941107Y-67167413D01*
X112992318Y-67267920D01*
X113072080Y-67347682D01*
X113080712Y-67352080D01*
X113168202Y-67396659D01*
X113168203Y-67396659D01*
X113172587Y-67398893D01*
X113177444Y-67399662D01*
X113177446Y-67399663D01*
X113279145Y-67415770D01*
X113284000Y-67416539D01*
X113288855Y-67415770D01*
X113390554Y-67399663D01*
X113390556Y-67399662D01*
X113395413Y-67398893D01*
X113399797Y-67396659D01*
X113399798Y-67396659D01*
X113487288Y-67352080D01*
X113495920Y-67347682D01*
X113575682Y-67267920D01*
X113626893Y-67167413D01*
X113644539Y-67056000D01*
X113626893Y-66944587D01*
X113600544Y-66892874D01*
X113596791Y-66845186D01*
X113627858Y-66808812D01*
X113656232Y-66802000D01*
X115634500Y-66802000D01*
X115678694Y-66820306D01*
X115697000Y-66864500D01*
X115697000Y-73513510D01*
X115678694Y-73557704D01*
X115634500Y-73576010D01*
X115590306Y-73557704D01*
X115527920Y-73495318D01*
X115443813Y-73452463D01*
X115431798Y-73446341D01*
X115431797Y-73446341D01*
X115427413Y-73444107D01*
X115422556Y-73443338D01*
X115422554Y-73443337D01*
X115320855Y-73427230D01*
X115316000Y-73426461D01*
X115311145Y-73427230D01*
X115209446Y-73443337D01*
X115209444Y-73443338D01*
X115204587Y-73444107D01*
X115200203Y-73446341D01*
X115200202Y-73446341D01*
X115188187Y-73452463D01*
X115104080Y-73495318D01*
X115024318Y-73575080D01*
X114973107Y-73675587D01*
X114972338Y-73680444D01*
X114972337Y-73680446D01*
X114958823Y-73765770D01*
X114955461Y-73787000D01*
X114956230Y-73791855D01*
X114969462Y-73875398D01*
X114973107Y-73898413D01*
X115024318Y-73998920D01*
X115104080Y-74078682D01*
X115109299Y-74081341D01*
X115200202Y-74127659D01*
X115200203Y-74127659D01*
X115204587Y-74129893D01*
X115209444Y-74130662D01*
X115209446Y-74130663D01*
X115311145Y-74146770D01*
X115316000Y-74147539D01*
X115320855Y-74146770D01*
X115422554Y-74130663D01*
X115422556Y-74130662D01*
X115427413Y-74129893D01*
X115431797Y-74127659D01*
X115431798Y-74127659D01*
X115522701Y-74081341D01*
X115527920Y-74078682D01*
X115590306Y-74016296D01*
X115634500Y-73997990D01*
X115678694Y-74016296D01*
X115697000Y-74060490D01*
X115697000Y-77089000D01*
X135700500Y-77089000D01*
X135744694Y-77107306D01*
X135763000Y-77151500D01*
X135763000Y-79820500D01*
X135744694Y-79864694D01*
X135700500Y-79883000D01*
X109155500Y-79883000D01*
X109111306Y-79864694D01*
X109093000Y-79820500D01*
X109093000Y-75946000D01*
X110002461Y-75946000D01*
X110020107Y-76057413D01*
X110071318Y-76157920D01*
X110151080Y-76237682D01*
X110199684Y-76262447D01*
X110247202Y-76286659D01*
X110247203Y-76286659D01*
X110251587Y-76288893D01*
X110256444Y-76289662D01*
X110256446Y-76289663D01*
X110358145Y-76305770D01*
X110363000Y-76306539D01*
X110367855Y-76305770D01*
X110469554Y-76289663D01*
X110469556Y-76289662D01*
X110474413Y-76288893D01*
X110478797Y-76286659D01*
X110478798Y-76286659D01*
X110526316Y-76262447D01*
X110574920Y-76237682D01*
X110654682Y-76157920D01*
X110705893Y-76057413D01*
X110723539Y-75946000D01*
X113431461Y-75946000D01*
X113449107Y-76057413D01*
X113500318Y-76157920D01*
X113580080Y-76237682D01*
X113628684Y-76262447D01*
X113676202Y-76286659D01*
X113676203Y-76286659D01*
X113680587Y-76288893D01*
X113685444Y-76289662D01*
X113685446Y-76289663D01*
X113787145Y-76305770D01*
X113792000Y-76306539D01*
X113796855Y-76305770D01*
X113898554Y-76289663D01*
X113898556Y-76289662D01*
X113903413Y-76288893D01*
X113907797Y-76286659D01*
X113907798Y-76286659D01*
X113955316Y-76262447D01*
X114003920Y-76237682D01*
X114083682Y-76157920D01*
X114134893Y-76057413D01*
X114152539Y-75946000D01*
X114134893Y-75834587D01*
X114083682Y-75734080D01*
X114003920Y-75654318D01*
X113955316Y-75629553D01*
X113907798Y-75605341D01*
X113907797Y-75605341D01*
X113903413Y-75603107D01*
X113898556Y-75602338D01*
X113898554Y-75602337D01*
X113796855Y-75586230D01*
X113792000Y-75585461D01*
X113787145Y-75586230D01*
X113685446Y-75602337D01*
X113685444Y-75602338D01*
X113680587Y-75603107D01*
X113676203Y-75605341D01*
X113676202Y-75605341D01*
X113628684Y-75629553D01*
X113580080Y-75654318D01*
X113500318Y-75734080D01*
X113449107Y-75834587D01*
X113431461Y-75946000D01*
X110723539Y-75946000D01*
X110705893Y-75834587D01*
X110654682Y-75734080D01*
X110574920Y-75654318D01*
X110526316Y-75629553D01*
X110478798Y-75605341D01*
X110478797Y-75605341D01*
X110474413Y-75603107D01*
X110469556Y-75602338D01*
X110469554Y-75602337D01*
X110367855Y-75586230D01*
X110363000Y-75585461D01*
X110358145Y-75586230D01*
X110256446Y-75602337D01*
X110256444Y-75602338D01*
X110251587Y-75603107D01*
X110247203Y-75605341D01*
X110247202Y-75605341D01*
X110199684Y-75629553D01*
X110151080Y-75654318D01*
X110071318Y-75734080D01*
X110020107Y-75834587D01*
X110002461Y-75946000D01*
X109093000Y-75946000D01*
X109093000Y-74930000D01*
X110002461Y-74930000D01*
X110020107Y-75041413D01*
X110071318Y-75141920D01*
X110151080Y-75221682D01*
X110199684Y-75246447D01*
X110247202Y-75270659D01*
X110247203Y-75270659D01*
X110251587Y-75272893D01*
X110256444Y-75273662D01*
X110256446Y-75273663D01*
X110358145Y-75289770D01*
X110363000Y-75290539D01*
X110367855Y-75289770D01*
X110469554Y-75273663D01*
X110469556Y-75273662D01*
X110474413Y-75272893D01*
X110478797Y-75270659D01*
X110478798Y-75270659D01*
X110526316Y-75246447D01*
X110574920Y-75221682D01*
X110654682Y-75141920D01*
X110705893Y-75041413D01*
X110723539Y-74930000D01*
X110705893Y-74818587D01*
X110654682Y-74718080D01*
X110574920Y-74638318D01*
X110526316Y-74613553D01*
X110478798Y-74589341D01*
X110478797Y-74589341D01*
X110474413Y-74587107D01*
X110469556Y-74586338D01*
X110469554Y-74586337D01*
X110367855Y-74570230D01*
X110363000Y-74569461D01*
X110358145Y-74570230D01*
X110256446Y-74586337D01*
X110256444Y-74586338D01*
X110251587Y-74587107D01*
X110247203Y-74589341D01*
X110247202Y-74589341D01*
X110199684Y-74613553D01*
X110151080Y-74638318D01*
X110071318Y-74718080D01*
X110020107Y-74818587D01*
X110002461Y-74930000D01*
X109093000Y-74930000D01*
X109093000Y-74422000D01*
X113431461Y-74422000D01*
X113449107Y-74533413D01*
X113500318Y-74633920D01*
X113580080Y-74713682D01*
X113588712Y-74718080D01*
X113676202Y-74762659D01*
X113676203Y-74762659D01*
X113680587Y-74764893D01*
X113685444Y-74765662D01*
X113685446Y-74765663D01*
X113787145Y-74781770D01*
X113792000Y-74782539D01*
X113796855Y-74781770D01*
X113898554Y-74765663D01*
X113898556Y-74765662D01*
X113903413Y-74764893D01*
X113907797Y-74762659D01*
X113907798Y-74762659D01*
X113995288Y-74718080D01*
X114003920Y-74713682D01*
X114083682Y-74633920D01*
X114134893Y-74533413D01*
X114152539Y-74422000D01*
X114134893Y-74310587D01*
X114083682Y-74210080D01*
X114003920Y-74130318D01*
X113955316Y-74105553D01*
X113907798Y-74081341D01*
X113907797Y-74081341D01*
X113903413Y-74079107D01*
X113898556Y-74078338D01*
X113898554Y-74078337D01*
X113796855Y-74062230D01*
X113792000Y-74061461D01*
X113787145Y-74062230D01*
X113685446Y-74078337D01*
X113685444Y-74078338D01*
X113680587Y-74079107D01*
X113676203Y-74081341D01*
X113676202Y-74081341D01*
X113628684Y-74105553D01*
X113580080Y-74130318D01*
X113500318Y-74210080D01*
X113449107Y-74310587D01*
X113431461Y-74422000D01*
X109093000Y-74422000D01*
X109093000Y-73660000D01*
X110002461Y-73660000D01*
X110020107Y-73771413D01*
X110071318Y-73871920D01*
X110151080Y-73951682D01*
X110199684Y-73976447D01*
X110247202Y-74000659D01*
X110247203Y-74000659D01*
X110251587Y-74002893D01*
X110256444Y-74003662D01*
X110256446Y-74003663D01*
X110358145Y-74019770D01*
X110363000Y-74020539D01*
X110367855Y-74019770D01*
X110469554Y-74003663D01*
X110469556Y-74003662D01*
X110474413Y-74002893D01*
X110478797Y-74000659D01*
X110478798Y-74000659D01*
X110526316Y-73976447D01*
X110574920Y-73951682D01*
X110654682Y-73871920D01*
X110705893Y-73771413D01*
X110723539Y-73660000D01*
X110720298Y-73639539D01*
X110706663Y-73553446D01*
X110706662Y-73553444D01*
X110705893Y-73548587D01*
X110654682Y-73448080D01*
X110612602Y-73406000D01*
X112161461Y-73406000D01*
X112162230Y-73410855D01*
X112175608Y-73495318D01*
X112179107Y-73517413D01*
X112230318Y-73617920D01*
X112310080Y-73697682D01*
X112358684Y-73722447D01*
X112406202Y-73746659D01*
X112406203Y-73746659D01*
X112410587Y-73748893D01*
X112415444Y-73749662D01*
X112415446Y-73749663D01*
X112517145Y-73765770D01*
X112522000Y-73766539D01*
X112526855Y-73765770D01*
X112628554Y-73749663D01*
X112628556Y-73749662D01*
X112633413Y-73748893D01*
X112637797Y-73746659D01*
X112637798Y-73746659D01*
X112685316Y-73722447D01*
X112733920Y-73697682D01*
X112813682Y-73617920D01*
X112864893Y-73517413D01*
X112868393Y-73495318D01*
X112881770Y-73410855D01*
X112882539Y-73406000D01*
X113177461Y-73406000D01*
X113178230Y-73410855D01*
X113191608Y-73495318D01*
X113195107Y-73517413D01*
X113246318Y-73617920D01*
X113326080Y-73697682D01*
X113374684Y-73722447D01*
X113422202Y-73746659D01*
X113422203Y-73746659D01*
X113426587Y-73748893D01*
X113431444Y-73749662D01*
X113431446Y-73749663D01*
X113533145Y-73765770D01*
X113538000Y-73766539D01*
X113542855Y-73765770D01*
X113644554Y-73749663D01*
X113644556Y-73749662D01*
X113649413Y-73748893D01*
X113653797Y-73746659D01*
X113653798Y-73746659D01*
X113701316Y-73722447D01*
X113749920Y-73697682D01*
X113829682Y-73617920D01*
X113880893Y-73517413D01*
X113884393Y-73495318D01*
X113897770Y-73410855D01*
X113898539Y-73406000D01*
X113880893Y-73294587D01*
X113829682Y-73194080D01*
X113749920Y-73114318D01*
X113701316Y-73089553D01*
X113653798Y-73065341D01*
X113653797Y-73065341D01*
X113649413Y-73063107D01*
X113644556Y-73062338D01*
X113644554Y-73062337D01*
X113542855Y-73046230D01*
X113538000Y-73045461D01*
X113533145Y-73046230D01*
X113431446Y-73062337D01*
X113431444Y-73062338D01*
X113426587Y-73063107D01*
X113422203Y-73065341D01*
X113422202Y-73065341D01*
X113374684Y-73089553D01*
X113326080Y-73114318D01*
X113246318Y-73194080D01*
X113195107Y-73294587D01*
X113177461Y-73406000D01*
X112882539Y-73406000D01*
X112864893Y-73294587D01*
X112813682Y-73194080D01*
X112733920Y-73114318D01*
X112685316Y-73089553D01*
X112637798Y-73065341D01*
X112637797Y-73065341D01*
X112633413Y-73063107D01*
X112628556Y-73062338D01*
X112628554Y-73062337D01*
X112526855Y-73046230D01*
X112522000Y-73045461D01*
X112517145Y-73046230D01*
X112415446Y-73062337D01*
X112415444Y-73062338D01*
X112410587Y-73063107D01*
X112406203Y-73065341D01*
X112406202Y-73065341D01*
X112358684Y-73089553D01*
X112310080Y-73114318D01*
X112230318Y-73194080D01*
X112179107Y-73294587D01*
X112161461Y-73406000D01*
X110612602Y-73406000D01*
X110574920Y-73368318D01*
X110526316Y-73343553D01*
X110478798Y-73319341D01*
X110478797Y-73319341D01*
X110474413Y-73317107D01*
X110469556Y-73316338D01*
X110469554Y-73316337D01*
X110367855Y-73300230D01*
X110363000Y-73299461D01*
X110358145Y-73300230D01*
X110256446Y-73316337D01*
X110256444Y-73316338D01*
X110251587Y-73317107D01*
X110247203Y-73319341D01*
X110247202Y-73319341D01*
X110199684Y-73343553D01*
X110151080Y-73368318D01*
X110071318Y-73448080D01*
X110020107Y-73548587D01*
X110019338Y-73553444D01*
X110019337Y-73553446D01*
X110005702Y-73639539D01*
X110002461Y-73660000D01*
X109093000Y-73660000D01*
X109093000Y-72390000D01*
X110002461Y-72390000D01*
X110003230Y-72394855D01*
X110016608Y-72479318D01*
X110020107Y-72501413D01*
X110071318Y-72601920D01*
X110151080Y-72681682D01*
X110199684Y-72706447D01*
X110247202Y-72730659D01*
X110247203Y-72730659D01*
X110251587Y-72732893D01*
X110256444Y-72733662D01*
X110256446Y-72733663D01*
X110358145Y-72749770D01*
X110363000Y-72750539D01*
X110367855Y-72749770D01*
X110469554Y-72733663D01*
X110469556Y-72733662D01*
X110474413Y-72732893D01*
X110478797Y-72730659D01*
X110478798Y-72730659D01*
X110526316Y-72706447D01*
X110574920Y-72681682D01*
X110654682Y-72601920D01*
X110705893Y-72501413D01*
X110709393Y-72479318D01*
X110722770Y-72394855D01*
X110723539Y-72390000D01*
X110705893Y-72278587D01*
X110654682Y-72178080D01*
X110574920Y-72098318D01*
X110526316Y-72073553D01*
X110478798Y-72049341D01*
X110478797Y-72049341D01*
X110474413Y-72047107D01*
X110469556Y-72046338D01*
X110469554Y-72046337D01*
X110367855Y-72030230D01*
X110363000Y-72029461D01*
X110358145Y-72030230D01*
X110256446Y-72046337D01*
X110256444Y-72046338D01*
X110251587Y-72047107D01*
X110247203Y-72049341D01*
X110247202Y-72049341D01*
X110199684Y-72073553D01*
X110151080Y-72098318D01*
X110071318Y-72178080D01*
X110020107Y-72278587D01*
X110002461Y-72390000D01*
X109093000Y-72390000D01*
X109093000Y-66864500D01*
X109111306Y-66820306D01*
X109155500Y-66802000D01*
X112911768Y-66802000D01*
X112955962Y-66820306D01*
G37*
%TD.AperFunction*%
%TD*%
%TA.AperFunction,Conductor*%
%TO.N,+2V5*%
G36*
X119305962Y-66820306D02*
G01*
X119324268Y-66864500D01*
X119317456Y-66892874D01*
X119291107Y-66944587D01*
X119273461Y-67056000D01*
X119291107Y-67167413D01*
X119342318Y-67267920D01*
X119422080Y-67347682D01*
X119430712Y-67352080D01*
X119518202Y-67396659D01*
X119518203Y-67396659D01*
X119522587Y-67398893D01*
X119527444Y-67399662D01*
X119527446Y-67399663D01*
X119629145Y-67415770D01*
X119634000Y-67416539D01*
X119638855Y-67415770D01*
X119740554Y-67399663D01*
X119740556Y-67399662D01*
X119745413Y-67398893D01*
X119749797Y-67396659D01*
X119749798Y-67396659D01*
X119837288Y-67352080D01*
X119845920Y-67347682D01*
X119925682Y-67267920D01*
X119976893Y-67167413D01*
X119994539Y-67056000D01*
X119976893Y-66944587D01*
X119950544Y-66892874D01*
X119946791Y-66845186D01*
X119977858Y-66808812D01*
X120006232Y-66802000D01*
X122365500Y-66802000D01*
X122409694Y-66820306D01*
X122428000Y-66864500D01*
X122428000Y-71882000D01*
X135700500Y-71882000D01*
X135744694Y-71900306D01*
X135763000Y-71944500D01*
X135763000Y-76645500D01*
X135744694Y-76689694D01*
X135700500Y-76708000D01*
X116140500Y-76708000D01*
X116096306Y-76689694D01*
X116078000Y-76645500D01*
X116078000Y-76073000D01*
X116225461Y-76073000D01*
X116243107Y-76184413D01*
X116294318Y-76284920D01*
X116374080Y-76364682D01*
X116422684Y-76389447D01*
X116470202Y-76413659D01*
X116470203Y-76413659D01*
X116474587Y-76415893D01*
X116479444Y-76416662D01*
X116479446Y-76416663D01*
X116581145Y-76432770D01*
X116586000Y-76433539D01*
X116590855Y-76432770D01*
X116692554Y-76416663D01*
X116692556Y-76416662D01*
X116697413Y-76415893D01*
X116701797Y-76413659D01*
X116701798Y-76413659D01*
X116749316Y-76389447D01*
X116797920Y-76364682D01*
X116877682Y-76284920D01*
X116928893Y-76184413D01*
X116946539Y-76073000D01*
X119781461Y-76073000D01*
X119799107Y-76184413D01*
X119850318Y-76284920D01*
X119930080Y-76364682D01*
X119978684Y-76389447D01*
X120026202Y-76413659D01*
X120026203Y-76413659D01*
X120030587Y-76415893D01*
X120035444Y-76416662D01*
X120035446Y-76416663D01*
X120137145Y-76432770D01*
X120142000Y-76433539D01*
X120146855Y-76432770D01*
X120248554Y-76416663D01*
X120248556Y-76416662D01*
X120253413Y-76415893D01*
X120257797Y-76413659D01*
X120257798Y-76413659D01*
X120305316Y-76389447D01*
X120353920Y-76364682D01*
X120433682Y-76284920D01*
X120484893Y-76184413D01*
X120502539Y-76073000D01*
X122575461Y-76073000D01*
X122593107Y-76184413D01*
X122644318Y-76284920D01*
X122724080Y-76364682D01*
X122772684Y-76389447D01*
X122820202Y-76413659D01*
X122820203Y-76413659D01*
X122824587Y-76415893D01*
X122829444Y-76416662D01*
X122829446Y-76416663D01*
X122931145Y-76432770D01*
X122936000Y-76433539D01*
X122940855Y-76432770D01*
X123042554Y-76416663D01*
X123042556Y-76416662D01*
X123047413Y-76415893D01*
X123051797Y-76413659D01*
X123051798Y-76413659D01*
X123099316Y-76389447D01*
X123147920Y-76364682D01*
X123227682Y-76284920D01*
X123278893Y-76184413D01*
X123296539Y-76073000D01*
X123278893Y-75961587D01*
X123227682Y-75861080D01*
X123147920Y-75781318D01*
X123099316Y-75756553D01*
X123051798Y-75732341D01*
X123051797Y-75732341D01*
X123047413Y-75730107D01*
X123042556Y-75729338D01*
X123042554Y-75729337D01*
X122940855Y-75713230D01*
X122936000Y-75712461D01*
X122931145Y-75713230D01*
X122829446Y-75729337D01*
X122829444Y-75729338D01*
X122824587Y-75730107D01*
X122820203Y-75732341D01*
X122820202Y-75732341D01*
X122772684Y-75756553D01*
X122724080Y-75781318D01*
X122644318Y-75861080D01*
X122593107Y-75961587D01*
X122575461Y-76073000D01*
X120502539Y-76073000D01*
X120484893Y-75961587D01*
X120433682Y-75861080D01*
X120353920Y-75781318D01*
X120305316Y-75756553D01*
X120257798Y-75732341D01*
X120257797Y-75732341D01*
X120253413Y-75730107D01*
X120248556Y-75729338D01*
X120248554Y-75729337D01*
X120146855Y-75713230D01*
X120142000Y-75712461D01*
X120137145Y-75713230D01*
X120035446Y-75729337D01*
X120035444Y-75729338D01*
X120030587Y-75730107D01*
X120026203Y-75732341D01*
X120026202Y-75732341D01*
X119978684Y-75756553D01*
X119930080Y-75781318D01*
X119850318Y-75861080D01*
X119799107Y-75961587D01*
X119781461Y-76073000D01*
X116946539Y-76073000D01*
X116928893Y-75961587D01*
X116877682Y-75861080D01*
X116797920Y-75781318D01*
X116749316Y-75756553D01*
X116701798Y-75732341D01*
X116701797Y-75732341D01*
X116697413Y-75730107D01*
X116692556Y-75729338D01*
X116692554Y-75729337D01*
X116590855Y-75713230D01*
X116586000Y-75712461D01*
X116581145Y-75713230D01*
X116479446Y-75729337D01*
X116479444Y-75729338D01*
X116474587Y-75730107D01*
X116470203Y-75732341D01*
X116470202Y-75732341D01*
X116422684Y-75756553D01*
X116374080Y-75781318D01*
X116294318Y-75861080D01*
X116243107Y-75961587D01*
X116225461Y-76073000D01*
X116078000Y-76073000D01*
X116078000Y-74930000D01*
X116225461Y-74930000D01*
X116243107Y-75041413D01*
X116294318Y-75141920D01*
X116374080Y-75221682D01*
X116422684Y-75246447D01*
X116470202Y-75270659D01*
X116470203Y-75270659D01*
X116474587Y-75272893D01*
X116479444Y-75273662D01*
X116479446Y-75273663D01*
X116581145Y-75289770D01*
X116586000Y-75290539D01*
X116590855Y-75289770D01*
X116692554Y-75273663D01*
X116692556Y-75273662D01*
X116697413Y-75272893D01*
X116701797Y-75270659D01*
X116701798Y-75270659D01*
X116749316Y-75246447D01*
X116797920Y-75221682D01*
X116877682Y-75141920D01*
X116928893Y-75041413D01*
X116946539Y-74930000D01*
X122575461Y-74930000D01*
X122593107Y-75041413D01*
X122644318Y-75141920D01*
X122724080Y-75221682D01*
X122772684Y-75246447D01*
X122820202Y-75270659D01*
X122820203Y-75270659D01*
X122824587Y-75272893D01*
X122829444Y-75273662D01*
X122829446Y-75273663D01*
X122931145Y-75289770D01*
X122936000Y-75290539D01*
X122940855Y-75289770D01*
X123042554Y-75273663D01*
X123042556Y-75273662D01*
X123047413Y-75272893D01*
X123051797Y-75270659D01*
X123051798Y-75270659D01*
X123099316Y-75246447D01*
X123147920Y-75221682D01*
X123227682Y-75141920D01*
X123278893Y-75041413D01*
X123296539Y-74930000D01*
X123278893Y-74818587D01*
X123227682Y-74718080D01*
X123147920Y-74638318D01*
X123099316Y-74613553D01*
X123051798Y-74589341D01*
X123051797Y-74589341D01*
X123047413Y-74587107D01*
X123042556Y-74586338D01*
X123042554Y-74586337D01*
X122940855Y-74570230D01*
X122936000Y-74569461D01*
X122931145Y-74570230D01*
X122829446Y-74586337D01*
X122829444Y-74586338D01*
X122824587Y-74587107D01*
X122820203Y-74589341D01*
X122820202Y-74589341D01*
X122772684Y-74613553D01*
X122724080Y-74638318D01*
X122644318Y-74718080D01*
X122593107Y-74818587D01*
X122575461Y-74930000D01*
X116946539Y-74930000D01*
X116928893Y-74818587D01*
X116877682Y-74718080D01*
X116797920Y-74638318D01*
X116749316Y-74613553D01*
X116701798Y-74589341D01*
X116701797Y-74589341D01*
X116697413Y-74587107D01*
X116692556Y-74586338D01*
X116692554Y-74586337D01*
X116590855Y-74570230D01*
X116586000Y-74569461D01*
X116581145Y-74570230D01*
X116479446Y-74586337D01*
X116479444Y-74586338D01*
X116474587Y-74587107D01*
X116470203Y-74589341D01*
X116470202Y-74589341D01*
X116422684Y-74613553D01*
X116374080Y-74638318D01*
X116294318Y-74718080D01*
X116243107Y-74818587D01*
X116225461Y-74930000D01*
X116078000Y-74930000D01*
X116078000Y-74422000D01*
X119781461Y-74422000D01*
X119799107Y-74533413D01*
X119850318Y-74633920D01*
X119930080Y-74713682D01*
X119938712Y-74718080D01*
X120026202Y-74762659D01*
X120026203Y-74762659D01*
X120030587Y-74764893D01*
X120035444Y-74765662D01*
X120035446Y-74765663D01*
X120137145Y-74781770D01*
X120142000Y-74782539D01*
X120146855Y-74781770D01*
X120248554Y-74765663D01*
X120248556Y-74765662D01*
X120253413Y-74764893D01*
X120257797Y-74762659D01*
X120257798Y-74762659D01*
X120345288Y-74718080D01*
X120353920Y-74713682D01*
X120433682Y-74633920D01*
X120484893Y-74533413D01*
X120502539Y-74422000D01*
X126004461Y-74422000D01*
X126022107Y-74533413D01*
X126073318Y-74633920D01*
X126153080Y-74713682D01*
X126161712Y-74718080D01*
X126249202Y-74762659D01*
X126249203Y-74762659D01*
X126253587Y-74764893D01*
X126258444Y-74765662D01*
X126258446Y-74765663D01*
X126360145Y-74781770D01*
X126365000Y-74782539D01*
X126369855Y-74781770D01*
X126471554Y-74765663D01*
X126471556Y-74765662D01*
X126476413Y-74764893D01*
X126480797Y-74762659D01*
X126480798Y-74762659D01*
X126568288Y-74718080D01*
X126576920Y-74713682D01*
X126656682Y-74633920D01*
X126707893Y-74533413D01*
X126725539Y-74422000D01*
X126707893Y-74310587D01*
X126656682Y-74210080D01*
X126576920Y-74130318D01*
X126528316Y-74105553D01*
X126480798Y-74081341D01*
X126480797Y-74081341D01*
X126476413Y-74079107D01*
X126471556Y-74078338D01*
X126471554Y-74078337D01*
X126369855Y-74062230D01*
X126365000Y-74061461D01*
X126360145Y-74062230D01*
X126258446Y-74078337D01*
X126258444Y-74078338D01*
X126253587Y-74079107D01*
X126249203Y-74081341D01*
X126249202Y-74081341D01*
X126201684Y-74105553D01*
X126153080Y-74130318D01*
X126073318Y-74210080D01*
X126022107Y-74310587D01*
X126004461Y-74422000D01*
X120502539Y-74422000D01*
X120484893Y-74310587D01*
X120433682Y-74210080D01*
X120353920Y-74130318D01*
X120305316Y-74105553D01*
X120257798Y-74081341D01*
X120257797Y-74081341D01*
X120253413Y-74079107D01*
X120248556Y-74078338D01*
X120248554Y-74078337D01*
X120146855Y-74062230D01*
X120142000Y-74061461D01*
X120137145Y-74062230D01*
X120035446Y-74078337D01*
X120035444Y-74078338D01*
X120030587Y-74079107D01*
X120026203Y-74081341D01*
X120026202Y-74081341D01*
X119978684Y-74105553D01*
X119930080Y-74130318D01*
X119850318Y-74210080D01*
X119799107Y-74310587D01*
X119781461Y-74422000D01*
X116078000Y-74422000D01*
X116078000Y-73660000D01*
X116225461Y-73660000D01*
X116243107Y-73771413D01*
X116294318Y-73871920D01*
X116374080Y-73951682D01*
X116422684Y-73976447D01*
X116470202Y-74000659D01*
X116470203Y-74000659D01*
X116474587Y-74002893D01*
X116479444Y-74003662D01*
X116479446Y-74003663D01*
X116581145Y-74019770D01*
X116586000Y-74020539D01*
X116590855Y-74019770D01*
X116692554Y-74003663D01*
X116692556Y-74003662D01*
X116697413Y-74002893D01*
X116701797Y-74000659D01*
X116701798Y-74000659D01*
X116749316Y-73976447D01*
X116797920Y-73951682D01*
X116877682Y-73871920D01*
X116920951Y-73787000D01*
X121305461Y-73787000D01*
X121306230Y-73791855D01*
X121319462Y-73875398D01*
X121323107Y-73898413D01*
X121374318Y-73998920D01*
X121454080Y-74078682D01*
X121459299Y-74081341D01*
X121550202Y-74127659D01*
X121550203Y-74127659D01*
X121554587Y-74129893D01*
X121559444Y-74130662D01*
X121559446Y-74130663D01*
X121661145Y-74146770D01*
X121666000Y-74147539D01*
X121670855Y-74146770D01*
X121772554Y-74130663D01*
X121772556Y-74130662D01*
X121777413Y-74129893D01*
X121781797Y-74127659D01*
X121781798Y-74127659D01*
X121872701Y-74081341D01*
X121877920Y-74078682D01*
X121957682Y-73998920D01*
X122008893Y-73898413D01*
X122012539Y-73875398D01*
X122025770Y-73791855D01*
X122026539Y-73787000D01*
X122008893Y-73675587D01*
X122000951Y-73660000D01*
X122575461Y-73660000D01*
X122593107Y-73771413D01*
X122644318Y-73871920D01*
X122724080Y-73951682D01*
X122772684Y-73976447D01*
X122820202Y-74000659D01*
X122820203Y-74000659D01*
X122824587Y-74002893D01*
X122829444Y-74003662D01*
X122829446Y-74003663D01*
X122931145Y-74019770D01*
X122936000Y-74020539D01*
X122940855Y-74019770D01*
X123042554Y-74003663D01*
X123042556Y-74003662D01*
X123047413Y-74002893D01*
X123051797Y-74000659D01*
X123051798Y-74000659D01*
X123099316Y-73976447D01*
X123147920Y-73951682D01*
X123227682Y-73871920D01*
X123270951Y-73787000D01*
X127655461Y-73787000D01*
X127656230Y-73791855D01*
X127669462Y-73875398D01*
X127673107Y-73898413D01*
X127724318Y-73998920D01*
X127804080Y-74078682D01*
X127809299Y-74081341D01*
X127900202Y-74127659D01*
X127900203Y-74127659D01*
X127904587Y-74129893D01*
X127909444Y-74130662D01*
X127909446Y-74130663D01*
X128011145Y-74146770D01*
X128016000Y-74147539D01*
X128020855Y-74146770D01*
X128122554Y-74130663D01*
X128122556Y-74130662D01*
X128127413Y-74129893D01*
X128131797Y-74127659D01*
X128131798Y-74127659D01*
X128222701Y-74081341D01*
X128227920Y-74078682D01*
X128307682Y-73998920D01*
X128358893Y-73898413D01*
X128362539Y-73875398D01*
X128375770Y-73791855D01*
X128376539Y-73787000D01*
X128358893Y-73675587D01*
X128307682Y-73575080D01*
X128227920Y-73495318D01*
X128143813Y-73452463D01*
X128131798Y-73446341D01*
X128131797Y-73446341D01*
X128127413Y-73444107D01*
X128122556Y-73443338D01*
X128122554Y-73443337D01*
X128020855Y-73427230D01*
X128016000Y-73426461D01*
X128011145Y-73427230D01*
X127909446Y-73443337D01*
X127909444Y-73443338D01*
X127904587Y-73444107D01*
X127900203Y-73446341D01*
X127900202Y-73446341D01*
X127888187Y-73452463D01*
X127804080Y-73495318D01*
X127724318Y-73575080D01*
X127673107Y-73675587D01*
X127655461Y-73787000D01*
X123270951Y-73787000D01*
X123278893Y-73771413D01*
X123296539Y-73660000D01*
X123293177Y-73638770D01*
X123279663Y-73553446D01*
X123279662Y-73553444D01*
X123278893Y-73548587D01*
X123227682Y-73448080D01*
X123147920Y-73368318D01*
X123099316Y-73343553D01*
X123051798Y-73319341D01*
X123051797Y-73319341D01*
X123047413Y-73317107D01*
X123042556Y-73316338D01*
X123042554Y-73316337D01*
X122940855Y-73300230D01*
X122936000Y-73299461D01*
X122931145Y-73300230D01*
X122829446Y-73316337D01*
X122829444Y-73316338D01*
X122824587Y-73317107D01*
X122820203Y-73319341D01*
X122820202Y-73319341D01*
X122772684Y-73343553D01*
X122724080Y-73368318D01*
X122644318Y-73448080D01*
X122593107Y-73548587D01*
X122592338Y-73553444D01*
X122592337Y-73553446D01*
X122578823Y-73638770D01*
X122575461Y-73660000D01*
X122000951Y-73660000D01*
X121957682Y-73575080D01*
X121877920Y-73495318D01*
X121793813Y-73452463D01*
X121781798Y-73446341D01*
X121781797Y-73446341D01*
X121777413Y-73444107D01*
X121772556Y-73443338D01*
X121772554Y-73443337D01*
X121670855Y-73427230D01*
X121666000Y-73426461D01*
X121661145Y-73427230D01*
X121559446Y-73443337D01*
X121559444Y-73443338D01*
X121554587Y-73444107D01*
X121550203Y-73446341D01*
X121550202Y-73446341D01*
X121538187Y-73452463D01*
X121454080Y-73495318D01*
X121374318Y-73575080D01*
X121323107Y-73675587D01*
X121305461Y-73787000D01*
X116920951Y-73787000D01*
X116928893Y-73771413D01*
X116946539Y-73660000D01*
X116943177Y-73638770D01*
X116929663Y-73553446D01*
X116929662Y-73553444D01*
X116928893Y-73548587D01*
X116877682Y-73448080D01*
X116797920Y-73368318D01*
X116749316Y-73343553D01*
X116701798Y-73319341D01*
X116701797Y-73319341D01*
X116697413Y-73317107D01*
X116692556Y-73316338D01*
X116692554Y-73316337D01*
X116590855Y-73300230D01*
X116586000Y-73299461D01*
X116581145Y-73300230D01*
X116479446Y-73316337D01*
X116479444Y-73316338D01*
X116474587Y-73317107D01*
X116470203Y-73319341D01*
X116470202Y-73319341D01*
X116422684Y-73343553D01*
X116374080Y-73368318D01*
X116294318Y-73448080D01*
X116243107Y-73548587D01*
X116242338Y-73553444D01*
X116242337Y-73553446D01*
X116228823Y-73638770D01*
X116225461Y-73660000D01*
X116078000Y-73660000D01*
X116078000Y-73279000D01*
X118511461Y-73279000D01*
X118512230Y-73283855D01*
X118525608Y-73368318D01*
X118529107Y-73390413D01*
X118580318Y-73490920D01*
X118660080Y-73570682D01*
X118668712Y-73575080D01*
X118756202Y-73619659D01*
X118756203Y-73619659D01*
X118760587Y-73621893D01*
X118765444Y-73622662D01*
X118765446Y-73622663D01*
X118867145Y-73638770D01*
X118872000Y-73639539D01*
X118876855Y-73638770D01*
X118978554Y-73622663D01*
X118978556Y-73622662D01*
X118983413Y-73621893D01*
X118987797Y-73619659D01*
X118987798Y-73619659D01*
X119075288Y-73575080D01*
X119083920Y-73570682D01*
X119163682Y-73490920D01*
X119214893Y-73390413D01*
X119218393Y-73368318D01*
X119231770Y-73283855D01*
X119232539Y-73279000D01*
X119527461Y-73279000D01*
X119528230Y-73283855D01*
X119541608Y-73368318D01*
X119545107Y-73390413D01*
X119596318Y-73490920D01*
X119676080Y-73570682D01*
X119684712Y-73575080D01*
X119772202Y-73619659D01*
X119772203Y-73619659D01*
X119776587Y-73621893D01*
X119781444Y-73622662D01*
X119781446Y-73622663D01*
X119883145Y-73638770D01*
X119888000Y-73639539D01*
X119892855Y-73638770D01*
X119994554Y-73622663D01*
X119994556Y-73622662D01*
X119999413Y-73621893D01*
X120003797Y-73619659D01*
X120003798Y-73619659D01*
X120091288Y-73575080D01*
X120099920Y-73570682D01*
X120179682Y-73490920D01*
X120230893Y-73390413D01*
X120234393Y-73368318D01*
X120247770Y-73283855D01*
X120248539Y-73279000D01*
X124861461Y-73279000D01*
X124862230Y-73283855D01*
X124875608Y-73368318D01*
X124879107Y-73390413D01*
X124930318Y-73490920D01*
X125010080Y-73570682D01*
X125018712Y-73575080D01*
X125106202Y-73619659D01*
X125106203Y-73619659D01*
X125110587Y-73621893D01*
X125115444Y-73622662D01*
X125115446Y-73622663D01*
X125217145Y-73638770D01*
X125222000Y-73639539D01*
X125226855Y-73638770D01*
X125328554Y-73622663D01*
X125328556Y-73622662D01*
X125333413Y-73621893D01*
X125337797Y-73619659D01*
X125337798Y-73619659D01*
X125425288Y-73575080D01*
X125433920Y-73570682D01*
X125513682Y-73490920D01*
X125564893Y-73390413D01*
X125568393Y-73368318D01*
X125581770Y-73283855D01*
X125582539Y-73279000D01*
X125877461Y-73279000D01*
X125878230Y-73283855D01*
X125891608Y-73368318D01*
X125895107Y-73390413D01*
X125946318Y-73490920D01*
X126026080Y-73570682D01*
X126034712Y-73575080D01*
X126122202Y-73619659D01*
X126122203Y-73619659D01*
X126126587Y-73621893D01*
X126131444Y-73622662D01*
X126131446Y-73622663D01*
X126233145Y-73638770D01*
X126238000Y-73639539D01*
X126242855Y-73638770D01*
X126344554Y-73622663D01*
X126344556Y-73622662D01*
X126349413Y-73621893D01*
X126353797Y-73619659D01*
X126353798Y-73619659D01*
X126441288Y-73575080D01*
X126449920Y-73570682D01*
X126529682Y-73490920D01*
X126580893Y-73390413D01*
X126584393Y-73368318D01*
X126597770Y-73283855D01*
X126598539Y-73279000D01*
X126580893Y-73167587D01*
X126529682Y-73067080D01*
X126449920Y-72987318D01*
X126401316Y-72962553D01*
X126353798Y-72938341D01*
X126353797Y-72938341D01*
X126349413Y-72936107D01*
X126344556Y-72935338D01*
X126344554Y-72935337D01*
X126242855Y-72919230D01*
X126238000Y-72918461D01*
X126233145Y-72919230D01*
X126131446Y-72935337D01*
X126131444Y-72935338D01*
X126126587Y-72936107D01*
X126122203Y-72938341D01*
X126122202Y-72938341D01*
X126074684Y-72962553D01*
X126026080Y-72987318D01*
X125946318Y-73067080D01*
X125895107Y-73167587D01*
X125877461Y-73279000D01*
X125582539Y-73279000D01*
X125564893Y-73167587D01*
X125513682Y-73067080D01*
X125433920Y-72987318D01*
X125385316Y-72962553D01*
X125337798Y-72938341D01*
X125337797Y-72938341D01*
X125333413Y-72936107D01*
X125328556Y-72935338D01*
X125328554Y-72935337D01*
X125226855Y-72919230D01*
X125222000Y-72918461D01*
X125217145Y-72919230D01*
X125115446Y-72935337D01*
X125115444Y-72935338D01*
X125110587Y-72936107D01*
X125106203Y-72938341D01*
X125106202Y-72938341D01*
X125058684Y-72962553D01*
X125010080Y-72987318D01*
X124930318Y-73067080D01*
X124879107Y-73167587D01*
X124861461Y-73279000D01*
X120248539Y-73279000D01*
X120230893Y-73167587D01*
X120179682Y-73067080D01*
X120099920Y-72987318D01*
X120051316Y-72962553D01*
X120003798Y-72938341D01*
X120003797Y-72938341D01*
X119999413Y-72936107D01*
X119994556Y-72935338D01*
X119994554Y-72935337D01*
X119892855Y-72919230D01*
X119888000Y-72918461D01*
X119883145Y-72919230D01*
X119781446Y-72935337D01*
X119781444Y-72935338D01*
X119776587Y-72936107D01*
X119772203Y-72938341D01*
X119772202Y-72938341D01*
X119724684Y-72962553D01*
X119676080Y-72987318D01*
X119596318Y-73067080D01*
X119545107Y-73167587D01*
X119527461Y-73279000D01*
X119232539Y-73279000D01*
X119214893Y-73167587D01*
X119163682Y-73067080D01*
X119083920Y-72987318D01*
X119035316Y-72962553D01*
X118987798Y-72938341D01*
X118987797Y-72938341D01*
X118983413Y-72936107D01*
X118978556Y-72935338D01*
X118978554Y-72935337D01*
X118876855Y-72919230D01*
X118872000Y-72918461D01*
X118867145Y-72919230D01*
X118765446Y-72935337D01*
X118765444Y-72935338D01*
X118760587Y-72936107D01*
X118756203Y-72938341D01*
X118756202Y-72938341D01*
X118708684Y-72962553D01*
X118660080Y-72987318D01*
X118580318Y-73067080D01*
X118529107Y-73167587D01*
X118511461Y-73279000D01*
X116078000Y-73279000D01*
X116078000Y-72390000D01*
X116225461Y-72390000D01*
X116243107Y-72501413D01*
X116294318Y-72601920D01*
X116374080Y-72681682D01*
X116422684Y-72706447D01*
X116470202Y-72730659D01*
X116470203Y-72730659D01*
X116474587Y-72732893D01*
X116479444Y-72733662D01*
X116479446Y-72733663D01*
X116581145Y-72749770D01*
X116586000Y-72750539D01*
X116590855Y-72749770D01*
X116692554Y-72733663D01*
X116692556Y-72733662D01*
X116697413Y-72732893D01*
X116701797Y-72730659D01*
X116701798Y-72730659D01*
X116749316Y-72706447D01*
X116797920Y-72681682D01*
X116877682Y-72601920D01*
X116928893Y-72501413D01*
X116946539Y-72390000D01*
X122575461Y-72390000D01*
X122593107Y-72501413D01*
X122644318Y-72601920D01*
X122724080Y-72681682D01*
X122772684Y-72706447D01*
X122820202Y-72730659D01*
X122820203Y-72730659D01*
X122824587Y-72732893D01*
X122829444Y-72733662D01*
X122829446Y-72733663D01*
X122931145Y-72749770D01*
X122936000Y-72750539D01*
X122940855Y-72749770D01*
X123042554Y-72733663D01*
X123042556Y-72733662D01*
X123047413Y-72732893D01*
X123051797Y-72730659D01*
X123051798Y-72730659D01*
X123099316Y-72706447D01*
X123147920Y-72681682D01*
X123227682Y-72601920D01*
X123278893Y-72501413D01*
X123296539Y-72390000D01*
X123278893Y-72278587D01*
X123227682Y-72178080D01*
X123147920Y-72098318D01*
X123099316Y-72073553D01*
X123051798Y-72049341D01*
X123051797Y-72049341D01*
X123047413Y-72047107D01*
X123042556Y-72046338D01*
X123042554Y-72046337D01*
X122940855Y-72030230D01*
X122936000Y-72029461D01*
X122931145Y-72030230D01*
X122829446Y-72046337D01*
X122829444Y-72046338D01*
X122824587Y-72047107D01*
X122820203Y-72049341D01*
X122820202Y-72049341D01*
X122772684Y-72073553D01*
X122724080Y-72098318D01*
X122644318Y-72178080D01*
X122593107Y-72278587D01*
X122575461Y-72390000D01*
X116946539Y-72390000D01*
X116928893Y-72278587D01*
X116877682Y-72178080D01*
X116797920Y-72098318D01*
X116749316Y-72073553D01*
X116701798Y-72049341D01*
X116701797Y-72049341D01*
X116697413Y-72047107D01*
X116692556Y-72046338D01*
X116692554Y-72046337D01*
X116590855Y-72030230D01*
X116586000Y-72029461D01*
X116581145Y-72030230D01*
X116479446Y-72046337D01*
X116479444Y-72046338D01*
X116474587Y-72047107D01*
X116470203Y-72049341D01*
X116470202Y-72049341D01*
X116422684Y-72073553D01*
X116374080Y-72098318D01*
X116294318Y-72178080D01*
X116243107Y-72278587D01*
X116225461Y-72390000D01*
X116078000Y-72390000D01*
X116078000Y-66864500D01*
X116096306Y-66820306D01*
X116140500Y-66802000D01*
X119261768Y-66802000D01*
X119305962Y-66820306D01*
G37*
%TD.AperFunction*%
%TD*%
M02*
