%TF.GenerationSoftware,KiCad,Pcbnew,6.0.0*%
%TF.CreationDate,2022-01-02T09:26:30-06:00*%
%TF.ProjectId,boysenboard,626f7973-656e-4626-9f61-72642e6b6963,rev?*%
%TF.SameCoordinates,Original*%
%TF.FileFunction,Paste,Top*%
%TF.FilePolarity,Positive*%
%FSLAX46Y46*%
G04 Gerber Fmt 4.6, Leading zero omitted, Abs format (unit mm)*
G04 Created by KiCad (PCBNEW 6.0.0) date 2022-01-02 09:26:30*
%MOMM*%
%LPD*%
G01*
G04 APERTURE LIST*
G04 Aperture macros list*
%AMRoundRect*
0 Rectangle with rounded corners*
0 $1 Rounding radius*
0 $2 $3 $4 $5 $6 $7 $8 $9 X,Y pos of 4 corners*
0 Add a 4 corners polygon primitive as box body*
4,1,4,$2,$3,$4,$5,$6,$7,$8,$9,$2,$3,0*
0 Add four circle primitives for the rounded corners*
1,1,$1+$1,$2,$3*
1,1,$1+$1,$4,$5*
1,1,$1+$1,$6,$7*
1,1,$1+$1,$8,$9*
0 Add four rect primitives between the rounded corners*
20,1,$1+$1,$2,$3,$4,$5,0*
20,1,$1+$1,$4,$5,$6,$7,0*
20,1,$1+$1,$6,$7,$8,$9,0*
20,1,$1+$1,$8,$9,$2,$3,0*%
G04 Aperture macros list end*
%ADD10C,0.100000*%
%ADD11RoundRect,0.225000X-0.250000X0.225000X-0.250000X-0.225000X0.250000X-0.225000X0.250000X0.225000X0*%
%ADD12RoundRect,0.250000X0.425000X-0.450000X0.425000X0.450000X-0.425000X0.450000X-0.425000X-0.450000X0*%
%ADD13RoundRect,0.225000X0.250000X-0.225000X0.250000X0.225000X-0.250000X0.225000X-0.250000X-0.225000X0*%
%ADD14RoundRect,0.225000X-0.225000X-0.250000X0.225000X-0.250000X0.225000X0.250000X-0.225000X0.250000X0*%
%ADD15RoundRect,0.225000X0.225000X0.250000X-0.225000X0.250000X-0.225000X-0.250000X0.225000X-0.250000X0*%
%ADD16R,1.100000X1.100000*%
%ADD17RoundRect,0.250000X0.575000X-0.550000X0.575000X0.550000X-0.575000X0.550000X-0.575000X-0.550000X0*%
%ADD18R,1.000000X1.900000*%
%ADD19R,0.800000X0.900000*%
%ADD20RoundRect,0.200000X0.200000X0.275000X-0.200000X0.275000X-0.200000X-0.275000X0.200000X-0.275000X0*%
%ADD21RoundRect,0.200000X-0.275000X0.200000X-0.275000X-0.200000X0.275000X-0.200000X0.275000X0.200000X0*%
%ADD22RoundRect,0.200000X0.275000X-0.200000X0.275000X0.200000X-0.275000X0.200000X-0.275000X-0.200000X0*%
%ADD23RoundRect,0.200000X-0.200000X-0.275000X0.200000X-0.275000X0.200000X0.275000X-0.200000X0.275000X0*%
%ADD24R,2.100000X1.400000*%
%ADD25R,1.500000X2.000000*%
%ADD26R,3.800000X2.000000*%
%ADD27R,0.600000X1.050000*%
%ADD28R,1.400000X1.200000*%
%ADD29R,2.000000X2.000000*%
%ADD30R,1.350000X0.400000*%
%ADD31R,1.900000X1.500000*%
%ADD32RoundRect,0.250000X0.550000X0.575000X-0.550000X0.575000X-0.550000X-0.575000X0.550000X-0.575000X0*%
%ADD33R,0.650000X0.400000*%
%ADD34R,1.000000X0.500000*%
%ADD35R,0.780000X0.720000*%
%ADD36R,1.080000X1.050000*%
%ADD37R,1.200000X1.050000*%
%ADD38R,2.390000X1.050000*%
%ADD39R,0.550000X2.910000*%
%ADD40RoundRect,0.150000X0.150000X-0.800000X0.150000X0.800000X-0.150000X0.800000X-0.150000X-0.800000X0*%
%ADD41RoundRect,0.250000X-0.550000X1.500000X-0.550000X-1.500000X0.550000X-1.500000X0.550000X1.500000X0*%
%ADD42R,3.300000X1.600000*%
%ADD43RoundRect,0.250000X-0.425000X0.450000X-0.425000X-0.450000X0.425000X-0.450000X0.425000X0.450000X0*%
%ADD44R,0.250000X0.800000*%
%ADD45R,0.800000X0.250000*%
G04 APERTURE END LIST*
D10*
%TO.C,U1*%
X108760000Y-51356000D02*
X111160000Y-51356000D01*
X111160000Y-51356000D02*
X111160000Y-53756000D01*
X111160000Y-53756000D02*
X108760000Y-53756000D01*
X108760000Y-53756000D02*
X108760000Y-51356000D01*
G36*
X111160000Y-53756000D02*
G01*
X108760000Y-53756000D01*
X108760000Y-51356000D01*
X111160000Y-51356000D01*
X111160000Y-53756000D01*
G37*
X111160000Y-53756000D02*
X108760000Y-53756000D01*
X108760000Y-51356000D01*
X111160000Y-51356000D01*
X111160000Y-53756000D01*
X108760000Y-57356000D02*
X108760000Y-54956000D01*
X108760000Y-54956000D02*
X111160000Y-54956000D01*
X111160000Y-54956000D02*
X111160000Y-57356000D01*
X111160000Y-57356000D02*
X108760000Y-57356000D01*
G36*
X111160000Y-57356000D02*
G01*
X108760000Y-57356000D01*
X108760000Y-54956000D01*
X111160000Y-54956000D01*
X111160000Y-57356000D01*
G37*
X111160000Y-57356000D02*
X108760000Y-57356000D01*
X108760000Y-54956000D01*
X111160000Y-54956000D01*
X111160000Y-57356000D01*
X114760000Y-51356000D02*
X114760000Y-53756000D01*
X114760000Y-53756000D02*
X112360000Y-53756000D01*
X112360000Y-53756000D02*
X112360000Y-51356000D01*
X112360000Y-51356000D02*
X114760000Y-51356000D01*
G36*
X114760000Y-53756000D02*
G01*
X112360000Y-53756000D01*
X112360000Y-51356000D01*
X114760000Y-51356000D01*
X114760000Y-53756000D01*
G37*
X114760000Y-53756000D02*
X112360000Y-53756000D01*
X112360000Y-51356000D01*
X114760000Y-51356000D01*
X114760000Y-53756000D01*
X114760000Y-57356000D02*
X112360000Y-57356000D01*
X112360000Y-57356000D02*
X112360000Y-54956000D01*
X112360000Y-54956000D02*
X114760000Y-54956000D01*
X114760000Y-54956000D02*
X114760000Y-57356000D01*
G36*
X114760000Y-57356000D02*
G01*
X112360000Y-57356000D01*
X112360000Y-54956000D01*
X114760000Y-54956000D01*
X114760000Y-57356000D01*
G37*
X114760000Y-57356000D02*
X112360000Y-57356000D01*
X112360000Y-54956000D01*
X114760000Y-54956000D01*
X114760000Y-57356000D01*
%TD*%
D11*
%TO.C,C1*%
X97282000Y-54724000D03*
X97282000Y-56274000D03*
%TD*%
%TO.C,C2*%
X91821000Y-59804000D03*
X91821000Y-61354000D03*
%TD*%
D12*
%TO.C,C3*%
X91694000Y-57230000D03*
X91694000Y-54530000D03*
%TD*%
D11*
%TO.C,C4*%
X116840000Y-43294000D03*
X116840000Y-44844000D03*
%TD*%
D13*
%TO.C,C5*%
X110236000Y-44844000D03*
X110236000Y-43294000D03*
%TD*%
D14*
%TO.C,C8*%
X111366000Y-74422000D03*
X112916000Y-74422000D03*
%TD*%
%TO.C,C9*%
X111747000Y-67945000D03*
X113297000Y-67945000D03*
%TD*%
%TO.C,C10*%
X117716000Y-74422000D03*
X119266000Y-74422000D03*
%TD*%
%TO.C,C11*%
X118097000Y-67945000D03*
X119647000Y-67945000D03*
%TD*%
D15*
%TO.C,C13*%
X104661000Y-55626000D03*
X103111000Y-55626000D03*
%TD*%
D11*
%TO.C,C14*%
X108585000Y-61455000D03*
X108585000Y-63005000D03*
%TD*%
D15*
%TO.C,C15*%
X104661000Y-49657000D03*
X103111000Y-49657000D03*
%TD*%
D14*
%TO.C,C16*%
X124066000Y-74422000D03*
X125616000Y-74422000D03*
%TD*%
%TO.C,C17*%
X124447000Y-68072000D03*
X125997000Y-68072000D03*
%TD*%
%TO.C,C19*%
X120129000Y-58166000D03*
X121679000Y-58166000D03*
%TD*%
D11*
%TO.C,C20*%
X116205000Y-61455000D03*
X116205000Y-63005000D03*
%TD*%
D14*
%TO.C,C22*%
X120129000Y-52832000D03*
X121679000Y-52832000D03*
%TD*%
D15*
%TO.C,C23*%
X146317000Y-60706000D03*
X144767000Y-60706000D03*
%TD*%
D11*
%TO.C,C25*%
X114300000Y-61455000D03*
X114300000Y-63005000D03*
%TD*%
D15*
%TO.C,C26*%
X104661000Y-53848000D03*
X103111000Y-53848000D03*
%TD*%
D16*
%TO.C,D1*%
X102362000Y-71752000D03*
X102362000Y-74552000D03*
%TD*%
D17*
%TO.C,F1*%
X94615000Y-57277000D03*
X94615000Y-54427000D03*
%TD*%
D18*
%TO.C,J7*%
X139700000Y-84710000D03*
X142240000Y-88010000D03*
X144780000Y-84710000D03*
X147320000Y-88010000D03*
X149860000Y-84710000D03*
X152400000Y-88010000D03*
%TD*%
D19*
%TO.C,Q1*%
X94300000Y-61706000D03*
X96200000Y-61706000D03*
X95250000Y-59706000D03*
%TD*%
D20*
%TO.C,R1*%
X132270000Y-60960000D03*
X130620000Y-60960000D03*
%TD*%
%TO.C,R2*%
X132270000Y-52578000D03*
X130620000Y-52578000D03*
%TD*%
%TO.C,R3*%
X132270000Y-56896000D03*
X130620000Y-56896000D03*
%TD*%
%TO.C,R4*%
X132270000Y-44450000D03*
X130620000Y-44450000D03*
%TD*%
D21*
%TO.C,R6*%
X95250000Y-50356000D03*
X95250000Y-52006000D03*
%TD*%
D22*
%TO.C,R7*%
X98171000Y-61785000D03*
X98171000Y-60135000D03*
%TD*%
D20*
%TO.C,R8*%
X132270000Y-48514000D03*
X130620000Y-48514000D03*
%TD*%
D21*
%TO.C,R9*%
X115316000Y-68009000D03*
X115316000Y-69659000D03*
%TD*%
%TO.C,R11*%
X115316000Y-71311000D03*
X115316000Y-72961000D03*
%TD*%
%TO.C,R13*%
X121666000Y-71311000D03*
X121666000Y-72961000D03*
%TD*%
%TO.C,R15*%
X128016000Y-68009000D03*
X128016000Y-69659000D03*
%TD*%
D22*
%TO.C,R16*%
X128016000Y-72961000D03*
X128016000Y-71311000D03*
%TD*%
D20*
%TO.C,R17*%
X121729000Y-56388000D03*
X120079000Y-56388000D03*
%TD*%
D23*
%TO.C,R18*%
X120079000Y-54610000D03*
X121729000Y-54610000D03*
%TD*%
D20*
%TO.C,R19*%
X146367000Y-71374000D03*
X144717000Y-71374000D03*
%TD*%
%TO.C,R20*%
X146367000Y-69596000D03*
X144717000Y-69596000D03*
%TD*%
%TO.C,R21*%
X146367000Y-67818000D03*
X144717000Y-67818000D03*
%TD*%
%TO.C,R22*%
X146367000Y-66040000D03*
X144717000Y-66040000D03*
%TD*%
%TO.C,R23*%
X146367000Y-64262000D03*
X144717000Y-64262000D03*
%TD*%
%TO.C,R24*%
X146367000Y-62484000D03*
X144717000Y-62484000D03*
%TD*%
D24*
%TO.C,SW1*%
X90700000Y-41366000D03*
X99800000Y-41366000D03*
X90700000Y-36866000D03*
X99800000Y-36866000D03*
%TD*%
D25*
%TO.C,U2*%
X92315000Y-70714000D03*
X94615000Y-70714000D03*
D26*
X94615000Y-64414000D03*
D25*
X96915000Y-70714000D03*
%TD*%
D27*
%TO.C,U3*%
X111572000Y-72470000D03*
X112522000Y-72470000D03*
X113472000Y-72470000D03*
X113472000Y-69770000D03*
X111572000Y-69770000D03*
%TD*%
%TO.C,U4*%
X117922000Y-72470000D03*
X118872000Y-72470000D03*
X119822000Y-72470000D03*
X119822000Y-69770000D03*
X117922000Y-69770000D03*
%TD*%
%TO.C,U5*%
X124272000Y-72470000D03*
X125222000Y-72470000D03*
X126172000Y-72470000D03*
X126172000Y-69770000D03*
X124272000Y-69770000D03*
%TD*%
D28*
%TO.C,Y1*%
X112438000Y-44919000D03*
X114638000Y-44919000D03*
X114638000Y-43219000D03*
X112438000Y-43219000D03*
%TD*%
D29*
%TO.C,J2*%
X96878000Y-75780000D03*
X90678000Y-75780000D03*
X90678000Y-86780000D03*
X96878000Y-86780000D03*
%TD*%
D30*
%TO.C,J1*%
X93156500Y-46960000D03*
X93156500Y-47610000D03*
X93156500Y-48260000D03*
X93156500Y-48910000D03*
X93156500Y-49560000D03*
D31*
X90456500Y-47260000D03*
X90456500Y-49260000D03*
%TD*%
D32*
%TO.C,D3*%
X132870000Y-54610000D03*
X130020000Y-54610000D03*
%TD*%
%TO.C,D4*%
X132870000Y-58928000D03*
X130020000Y-58928000D03*
%TD*%
%TO.C,D5*%
X132870000Y-46482000D03*
X130020000Y-46482000D03*
%TD*%
D20*
%TO.C,R10*%
X138112000Y-54356000D03*
X136462000Y-54356000D03*
%TD*%
%TO.C,R25*%
X138112000Y-59436000D03*
X136462000Y-59436000D03*
%TD*%
%TO.C,R26*%
X138112000Y-45974000D03*
X136462000Y-45974000D03*
%TD*%
%TO.C,R27*%
X138112000Y-51054000D03*
X136462000Y-51054000D03*
%TD*%
D33*
%TO.C,U7*%
X138237000Y-49164000D03*
X138237000Y-48514000D03*
X138237000Y-47864000D03*
X136337000Y-47864000D03*
X136337000Y-49164000D03*
%TD*%
%TO.C,U8*%
X138237000Y-57546000D03*
X138237000Y-56896000D03*
X138237000Y-56246000D03*
X136337000Y-56246000D03*
X136337000Y-57546000D03*
%TD*%
D34*
%TO.C,J5*%
X156210000Y-63587000D03*
X156210000Y-64687000D03*
X156210000Y-65787000D03*
X156210000Y-66887000D03*
X156210000Y-67987000D03*
X156210000Y-69087000D03*
X156210000Y-70187000D03*
X156210000Y-71287000D03*
D35*
X153530000Y-61827000D03*
D36*
X152260000Y-61827000D03*
D37*
X149650000Y-61827000D03*
D38*
X153405000Y-72462000D03*
D37*
X150220000Y-72462000D03*
D39*
X148975000Y-69282000D03*
X148975000Y-65092000D03*
%TD*%
D40*
%TO.C,U6*%
X145669000Y-52014000D03*
X146939000Y-52014000D03*
X148209000Y-52014000D03*
X149479000Y-52014000D03*
X149479000Y-45014000D03*
X148209000Y-45014000D03*
X146939000Y-45014000D03*
X145669000Y-45014000D03*
%TD*%
D18*
%TO.C,J3*%
X107696000Y-36450000D03*
X110236000Y-39750000D03*
X112776000Y-36450000D03*
X115316000Y-39750000D03*
X117856000Y-36450000D03*
X120396000Y-39750000D03*
X122936000Y-36450000D03*
X125476000Y-39750000D03*
X128016000Y-36450000D03*
X130556000Y-39750000D03*
%TD*%
D11*
%TO.C,C18*%
X143383000Y-45072000D03*
X143383000Y-46622000D03*
%TD*%
D21*
%TO.C,R14*%
X143256000Y-50291992D03*
X143256000Y-51941992D03*
%TD*%
D18*
%TO.C,J6*%
X134620000Y-36450000D03*
X137160000Y-39750000D03*
X139700000Y-36450000D03*
X142240000Y-39750000D03*
X144780000Y-36450000D03*
X147320000Y-39750000D03*
X149860000Y-36450000D03*
X152400000Y-39750000D03*
%TD*%
D41*
%TO.C,C6*%
X109982000Y-80866000D03*
X109982000Y-86266000D03*
%TD*%
D11*
%TO.C,C12*%
X118491000Y-56629000D03*
X118491000Y-58179000D03*
%TD*%
D22*
%TO.C,R5*%
X101346000Y-45275000D03*
X101346000Y-43625000D03*
%TD*%
D42*
%TO.C,TP1*%
X104775000Y-63246000D03*
%TD*%
%TO.C,TP2*%
X104775000Y-67818000D03*
%TD*%
%TO.C,TP3*%
X133477000Y-79121000D03*
%TD*%
%TO.C,TP4*%
X133477000Y-74041000D03*
%TD*%
%TO.C,TP5*%
X133477000Y-68961000D03*
%TD*%
D18*
%TO.C,J4*%
X116840000Y-84710000D03*
X119380000Y-88010000D03*
X121920000Y-84710000D03*
X124460000Y-88010000D03*
X127000000Y-84710000D03*
X129540000Y-88010000D03*
X132080000Y-84710000D03*
X134620000Y-88010000D03*
%TD*%
D15*
%TO.C,C21*%
X104661000Y-52070000D03*
X103111000Y-52070000D03*
%TD*%
D14*
%TO.C,C24*%
X114414000Y-46863000D03*
X115964000Y-46863000D03*
%TD*%
D32*
%TO.C,D6*%
X132870000Y-50546000D03*
X130020000Y-50546000D03*
%TD*%
D21*
%TO.C,R12*%
X121666000Y-68009000D03*
X121666000Y-69659000D03*
%TD*%
D43*
%TO.C,C7*%
X99695000Y-64436000D03*
X99695000Y-67136000D03*
%TD*%
D32*
%TO.C,D2*%
X132870000Y-62992000D03*
X130020000Y-62992000D03*
%TD*%
D44*
%TO.C,U1*%
X107560000Y-59356000D03*
X107960000Y-59356000D03*
X108360000Y-59356000D03*
X108760000Y-59356000D03*
X109160000Y-59356000D03*
X109560000Y-59356000D03*
X109960000Y-59356000D03*
X110360000Y-59356000D03*
X110760000Y-59356000D03*
X111160000Y-59356000D03*
X111560000Y-59356000D03*
X111960000Y-59356000D03*
X112360000Y-59356000D03*
X112760000Y-59356000D03*
X113160000Y-59356000D03*
X113560000Y-59356000D03*
X113960000Y-59356000D03*
X114360000Y-59356000D03*
X114760000Y-59356000D03*
X115160000Y-59356000D03*
X115560000Y-59356000D03*
X115960000Y-59356000D03*
D45*
X116760000Y-58556000D03*
X116760000Y-58156000D03*
X116760000Y-57756000D03*
X116760000Y-57356000D03*
X116760000Y-56956000D03*
X116760000Y-56556000D03*
X116760000Y-56156000D03*
X116760000Y-55756000D03*
X116760000Y-55356000D03*
X116760000Y-54956000D03*
X116760000Y-54556000D03*
X116760000Y-54156000D03*
X116760000Y-53756000D03*
X116760000Y-53356000D03*
X116760000Y-52956000D03*
X116760000Y-52556000D03*
X116760000Y-52156000D03*
X116760000Y-51756000D03*
X116760000Y-51356000D03*
X116760000Y-50956000D03*
X116760000Y-50556000D03*
X116760000Y-50156000D03*
D44*
X115960000Y-49356000D03*
X115560000Y-49356000D03*
X115160000Y-49356000D03*
X114760000Y-49356000D03*
X114360000Y-49356000D03*
X113960000Y-49356000D03*
X113560000Y-49356000D03*
X113160000Y-49356000D03*
X112760000Y-49356000D03*
X112360000Y-49356000D03*
X111960000Y-49356000D03*
X111560000Y-49356000D03*
X111160000Y-49356000D03*
X110760000Y-49356000D03*
X110360000Y-49356000D03*
X109960000Y-49356000D03*
X109560000Y-49356000D03*
X109160000Y-49356000D03*
X108760000Y-49356000D03*
X108360000Y-49356000D03*
X107960000Y-49356000D03*
X107560000Y-49356000D03*
D45*
X106760000Y-50156000D03*
X106760000Y-50556000D03*
X106760000Y-50956000D03*
X106760000Y-51356000D03*
X106760000Y-51756000D03*
X106760000Y-52156000D03*
X106760000Y-52556000D03*
X106760000Y-52956000D03*
X106760000Y-53356000D03*
X106760000Y-53756000D03*
X106760000Y-54156000D03*
X106760000Y-54556000D03*
X106760000Y-54956000D03*
X106760000Y-55356000D03*
X106760000Y-55756000D03*
X106760000Y-56156000D03*
X106760000Y-56556000D03*
X106760000Y-56956000D03*
X106760000Y-57356000D03*
X106760000Y-57756000D03*
X106760000Y-58156000D03*
X106760000Y-58556000D03*
%TD*%
D21*
%TO.C,R28*%
X105156000Y-43625000D03*
X105156000Y-45275000D03*
%TD*%
%TO.C,R29*%
X103251000Y-43625000D03*
X103251000Y-45275000D03*
%TD*%
D22*
%TO.C,R30*%
X149352000Y-77533000D03*
X149352000Y-75883000D03*
%TD*%
%TO.C,R31*%
X151384000Y-77533000D03*
X151384000Y-75883000D03*
%TD*%
M02*
